<?xml version="1.0" encoding="utf-8"?>
<!-- Generator: Adobe Illustrator 19.1.0, SVG Export Plug-In . SVG Version: 6.00 Build 0)  -->
<!DOCTYPE svg PUBLIC "-//W3C//DTD SVG 1.1//EN" "http://www.w3.org/Graphics/SVG/1.1/DTD/svg11.dtd">
<svg version="1.1" id="Laag_1" xmlns="http://www.w3.org/2000/svg" xmlns:xlink="http://www.w3.org/1999/xlink" x="0px" y="0px"
	 width="252.2px" height="196.1px" viewBox="-353 182.9 252.2 196.1" style="enable-background:new -353 182.9 252.2 196.1;"
	 xml:space="preserve">
<style type="text/css">
	.st0{opacity:0.5;fill:#FFFFFF;enable-background:new    ;}
	.st1{fill:#FFFFFF;}
	.st2{opacity:0.3;}
</style>
<path class="st0" d="M-279.4,263.5l-11.7-8.8c-1.4-1-3.3-0.9-4.4,0.3l-31.1,31.2c-1.3,1.4-1.3,3.4,0,4.8c0.6,0.6,1.5,1,2.4,1
	c0.9,0,1.8-0.3,2.4-1l29-29.1l11.2,8.4c1,0.8,2.6,0.9,3.7,0.2l11.9-6.8c-0.4-2.4-0.6-4.9-0.6-7.4L-279.4,263.5z"/>
<path class="st0" d="M-148.2,214.9c1.5-1.1,1.9-3.2,0.8-4.7s-3.2-1.9-4.7-0.8l-26.1,18.5c1.3,1.8,2.5,3.8,3.5,5.8L-148.2,214.9z"/>
<path class="st0" d="M-276.3,245.3l-8-11.4c-1-1.4-2.7-1.8-4.2-1.1l-36.6,16.8c-1.7,0.8-2.4,2.8-1.7,4.5c0.8,1.7,2.8,2.4,4.5,1.7
	l33.9-15.7l7.8,11.2c0.9,1.3,2.5,1.8,3.9,1.3l7.3-2.6c0.3-2.6,0.9-5.2,1.6-7.7L-276.3,245.3z"/>
<path class="st0" d="M-148.7,274.6l-21.6-9.5c-0.5,2.2-1,4.5-1.8,6.6l20.7,9.1c0.5,0.2,0.9,0.3,1.4,0.3c1.3,0,2.6-0.7,3.1-2
	C-146.2,277.3-147,275.3-148.7,274.6z"/>
<path class="st0" d="M-247.9,283.8l19.8-18.7l-1.1-0.9l-6.5-5.4l-16.1,15.2l-13.3-9.4c1.1,5.9,3.3,11.4,6.4,16.3l4.7,3.3
	C-252.1,285.5-249.6,285.4-247.9,283.8z"/>
<path class="st0" d="M-195.8,227.6c-1.8-1.8-4.8-1.8-6.7,0l-25.4,24l6.1,5l1.4,1.2l21.2-20l8.3,8c1.6,1.5,4.1,1.8,6,0.6l12.6-8.1
	c-1.2-3-2.6-6-4.4-8.7l-10.2,6.6L-195.8,227.6z"/>
<path class="st0" d="M-175.9,253.5c-1.4-0.6-3-0.6-4.4,0.1l-28.5,13.8l-11.6-9.6l-0.5,0.4l-7.2-6.5l0.2-0.2l-2-1.7l-27.2-22.4
	c-2.1,2.9-3.8,6-5.2,9.3l24.9,20.6l1.7,1.4l0.5-0.5l7.2,6.5l-0.2,0.2l15.2,12.5c1.6,1.3,3.8,1.6,5.7,0.7l29.4-14.1l7.3,3.2
	c0.9-3.5,1.4-7.1,1.4-10.9L-175.9,253.5z"/>
<polygon class="st1" points="-228.1,265.1 -227.9,264.9 -235.1,258.4 -235.6,258.9 -229.1,264.2 "/>
<polygon class="st1" points="-227.9,251.6 -228,251.8 -220.8,258.2 -220.4,257.8 -221.8,256.6 "/>
<g class="st2">
	<path class="st1" d="M-325.9,338.5c1,0,1.7,1,1.7,2.4V353c0,1.4-0.8,2.4-1.7,2.4c-0.9,0-1.7-1-1.7-2.4v-12.1
		C-327.6,339.6-326.8,338.5-325.9,338.5z"/>
</g>
<g class="st2">
	<path class="st1" d="M-286.3,338.5c1,0,1.7,1,1.7,2.4V353c0,1.4-0.8,2.4-1.7,2.4c-0.9,0-1.7-1-1.7-2.4v-12.1
		C-288,339.6-287.3,338.5-286.3,338.5z"/>
</g>
<g class="st2">
	<path class="st1" d="M-246.7,338.5c1,0,1.7,1,1.7,2.4V353c0,1.4-0.8,2.4-1.7,2.4c-0.9,0-1.7-1-1.7-2.4v-12.1
		C-248.4,339.6-247.7,338.5-246.7,338.5z"/>
</g>
<g class="st2">
	<path class="st1" d="M-207.1,338.5c1,0,1.7,1,1.7,2.4V353c0,1.4-0.8,2.4-1.7,2.4c-0.9,0-1.7-1-1.7-2.4v-12.1
		C-208.8,339.6-208.1,338.5-207.1,338.5z"/>
</g>
<g class="st2">
	<path class="st1" d="M-127.9,338.5c1,0,1.7,1,1.7,2.4V353c0,1.4-0.8,2.4-1.7,2.4c-0.9,0-1.7-1-1.7-2.4v-12.1
		C-129.6,339.6-128.8,338.5-127.9,338.5z"/>
</g>
<path class="st1" d="M-171.5,229.2c-14.7-25.4-47.2-34.2-72.6-19.5c-25.5,14.7-34.2,47.2-19.5,72.6c12.6,21.9,38.6,31.4,61.7,24.2
	l29.6,51.3l4.3,1.4l15.2-8.8l1-4.3l-29.7-51.4C-163.6,278.3-158.9,251.1-171.5,229.2z M-196,293c-20.5,11.8-46.9,4.8-58.8-15.7
	c-5.7-10-7.3-21.6-4.3-32.7s10.1-20.4,20-26.1l0,0c10-5.7,21.6-7.3,32.7-4.3c11.1,3,20.4,10.1,26.1,20
	C-168.4,254.9-175.5,281.2-196,293z"/>
</svg>
