<?xml version="1.0" encoding="utf-8"?>
<!-- Generator: Adobe Illustrator 18.0.0, SVG Export Plug-In . SVG Version: 6.00 Build 0)  -->
<!DOCTYPE svg PUBLIC "-//W3C//DTD SVG 1.1//EN" "http://www.w3.org/Graphics/SVG/1.1/DTD/svg11.dtd">
<svg version="1.1" id="Laag_1" xmlns="http://www.w3.org/2000/svg" xmlns:xlink="http://www.w3.org/1999/xlink" x="0px" y="0px"
	 width="292px" height="212.2px" viewBox="0 0 292 212.2" enable-background="new 0 0 292 212.2" xml:space="preserve">
<linearGradient id="SVGID_1_" gradientUnits="userSpaceOnUse" x1="94.6952" y1="192.2756" x2="164.9442" y2="84.7864">
	<stop  offset="0" style="stop-color:#A6CF68;stop-opacity:0.5"/>
	<stop  offset="1" style="stop-color:#A6CF68;stop-opacity:0"/>
</linearGradient>
<rect x="38.1" y="0" fill="url(#SVGID_1_)" width="253.9" height="169.3"/>
<rect x="89.7" y="0" opacity="0.2" width="2.5" height="168.7"/>
<rect x="139.6" y="0" opacity="0.2" width="2.5" height="168.7"/>
<rect x="189.6" y="0" opacity="0.2" width="2.5" height="168.7"/>
<rect x="239.5" y="0" opacity="0.2" width="2.5" height="168.7"/>
<path fill="#9BB35A" d="M98.5,92.3l-14.7-11c-1.7-1.3-4.1-1.1-5.5,0.4l-38.9,39.1c-1.6,1.7-1.6,4.3,0,6c0.8,0.8,1.9,1.2,3,1.2
	c1.1,0,2.2-0.4,3-1.2l36.3-36.5l14,10.5c1.3,1,3.2,1.1,4.6,0.3l14.8-8.4c-0.5-3-0.8-6.1-0.8-9.3L98.5,92.3z"/>
<path fill="#9BB35A" d="M262.8,31.4c1.9-1.4,2.4-4,1-5.9c-1.4-1.9-4-2.4-5.9-1l-32.7,23.2c1.6,2.3,3.1,4.7,4.4,7.3L262.8,31.4z"/>
<path fill="#6283A6" d="M102.3,69.4l-10-14.3c-1.2-1.7-3.4-2.3-5.2-1.4L41.4,74.9c-2.1,1-3,3.5-2.1,5.6c1,2.1,3.5,3,5.6,2.1
	l42.5-19.7l9.8,14c1.1,1.6,3.1,2.2,4.9,1.6l9.2-3.2c0.4-3.3,1.1-6.5,2-9.6L102.3,69.4z"/>
<path fill="#6283A6" d="M262.1,106.2L235,94.3c-0.6,2.8-1.3,5.6-2.2,8.3l25.9,11.4c0.6,0.2,1.1,0.4,1.7,0.4c1.6,0,3.2-0.9,3.9-2.5
	C265.2,109.6,264.2,107.1,262.1,106.2z"/>
<path fill="#9BB35A" d="M137.9,117.7l24.8-23.4l-1.4-1.1l-8.1-6.7l-20.1,19l-16.8-11.8c1.4,7.4,4.1,14.3,8,20.4l5.9,4.1
	C132.6,119.9,135.8,119.7,137.9,117.7z"/>
<path fill="#9BB35A" d="M203.1,47.4c-2.3-2.2-6-2.2-8.4,0l-31.8,30l7.6,6.3l1.8,1.5l26.5-25l10.4,10c2,1.9,5.1,2.2,7.5,0.7
	l15.8-10.2c-1.5-3.8-3.3-7.5-5.5-10.9L214.2,58L203.1,47.4z"/>
<path fill="#6283A6" d="M228.1,79.8c-1.8-0.8-3.8-0.7-5.5,0.1l-35.7,17.3l-14.5-12l-0.6,0.5l-9-8.1l0.2-0.2l-2.5-2.1l-33.9-28.1
	c-2.6,3.6-4.8,7.5-6.5,11.7l31.2,25.8l2.1,1.8l0.6-0.6l9,8.1l-0.2,0.2l19,15.7c2,1.6,4.7,2,7.1,0.9l36.8-17.8l9.2,4
	c1.1-4.4,1.7-8.9,1.8-13.6L228.1,79.8z"/>
<polygon fill="#536F8C" points="162.7,94.3 163,94 153.9,85.9 153.3,86.5 161.4,93.1 "/>
<polygon fill="#536F8C" points="163,77.4 162.8,77.6 171.8,85.7 172.4,85.2 170.6,83.7 "/>
<g opacity="0.3">
	<path d="M21.2,3.8c0,1.2-1.4,2.1-3,2.1H3c-1.6,0-3-1-3-2.1c0-1.2,1.4-2.1,3-2.1h15.2C19.8,1.7,21.2,2.6,21.2,3.8z"/>
</g>
<g opacity="0.3">
	<path d="M21.2,44.6c0,1.2-1.4,2.1-3,2.1H3c-1.6,0-3-1-3-2.1c0-1.2,1.4-2.1,3-2.1h15.2C19.8,42.5,21.2,43.5,21.2,44.6z"/>
</g>
<g opacity="0.3">
	<path d="M21.2,85.5c0,1.2-1.4,2.1-3,2.1H3c-1.6,0-3-1-3-2.1c0-1.2,1.4-2.1,3-2.1h15.2C19.8,83.4,21.2,84.3,21.2,85.5z"/>
</g>
<g opacity="0.3">
	<path d="M21.2,126.3c0,1.2-1.4,2.1-3,2.1H3c-1.6,0-3-1-3-2.1c0-1.2,1.4-2.1,3-2.1h15.2C19.8,124.2,21.2,125.2,21.2,126.3z"/>
</g>
<g opacity="0.3">
	<path d="M21.2,167.2c0,1.2-1.4,2.1-3,2.1H3c-1.6,0-3-1-3-2.1c0-1.2,1.4-2.1,3-2.1h15.2C19.8,165,21.2,166,21.2,167.2z"/>
</g>
<g opacity="0.3">
	<path d="M40.2,186.2c1.2,0,2.1,1.3,2.1,3v15.2c0,1.7-1,3-2.1,3c-1.2,0-2.1-1.3-2.1-3v-15.2C38.1,187.6,39,186.2,40.2,186.2z"/>
</g>
<g opacity="0.3">
	<path d="M89.8,186.2c1.2,0,2.1,1.3,2.1,3v15.2c0,1.7-1,3-2.1,3c-1.2,0-2.1-1.3-2.1-3v-15.2C87.7,187.6,88.6,186.2,89.8,186.2z"/>
</g>
<g opacity="0.3">
	<path d="M139.4,186.2c1.2,0,2.1,1.3,2.1,3v15.2c0,1.7-1,3-2.1,3c-1.2,0-2.1-1.3-2.1-3v-15.2C137.3,187.6,138.2,186.2,139.4,186.2z"
		/>
</g>
<g opacity="0.3">
	<path d="M189,186.2c1.2,0,2.1,1.3,2.1,3v15.2c0,1.7-1,3-2.1,3c-1.2,0-2.1-1.3-2.1-3v-15.2C186.9,187.6,187.8,186.2,189,186.2z"/>
</g>
<g opacity="0.3">
	<path d="M288.2,186.2c1.2,0,2.1,1.3,2.1,3v15.2c0,1.7-1,3-2.1,3s-2.1-1.3-2.1-3v-15.2C286.1,187.6,287,186.2,288.2,186.2z"/>
</g>
<g>
	<linearGradient id="SVGID_2_" gradientUnits="userSpaceOnUse" x1="39.7797" y1="167.1587" x2="290.3171" y2="167.1587">
		<stop  offset="0" style="stop-color:#333333"/>
		<stop  offset="1" style="stop-color:#A6A6A6"/>
	</linearGradient>
	<path fill="url(#SVGID_2_)" d="M43.1,169.3c-2.8,0-5-1-5-2.1c0-1.2,2.2-2.1,5-2.1H287c2.8,0,5,1,5,2.1c0,1.2-2.3,2.1-5,2.1H43.1z"
		/>
</g>
<g>
	<linearGradient id="SVGID_3_" gradientUnits="userSpaceOnUse" x1="40.2026" y1="169.2744" x2="40.2026" y2="-0.1794">
		<stop  offset="0" style="stop-color:#333333"/>
		<stop  offset="1" style="stop-color:#A6A6A6"/>
	</linearGradient>
	<path fill="url(#SVGID_3_)" d="M42.3,164.3c0,2.8-1,5-2.1,5c-1.2,0-2.1-2.2-2.1-5V5c0-2.8,1-5,2.1-5c1.2,0,2.1,2.2,2.1,5V164.3z"/>
</g>
<linearGradient id="SVGID_4_" gradientUnits="userSpaceOnUse" x1="183.8515" y1="213.0501" x2="183.8515" y2="13.5654">
	<stop  offset="0" style="stop-color:#0D0D0D"/>
	<stop  offset="1" style="stop-color:#666666"/>
</linearGradient>
<path fill="url(#SVGID_4_)" d="M233.6,49.3C215.2,17.5,174.5,6.6,142.7,25c-31.8,18.4-42.7,59.1-24.4,90.9
	c15.8,27.4,48.3,39.3,77.3,30.3l37.1,64.2l5.4,1.8l19-11l1.2-5.4l-37.2-64.4C243.5,110.8,249.4,76.8,233.6,49.3z M202.9,129.3
	c-25.7,14.8-58.7,6-73.6-19.7c-7.2-12.5-9.1-27-5.4-40.9c3.7-13.9,12.6-25.5,25.1-32.7l0,0c12.5-7.2,27-9.1,40.9-5.4
	c13.9,3.7,25.5,12.6,32.7,25.1C237.4,81.4,228.6,114.4,202.9,129.3z"/>
<g>
</g>
<g>
</g>
<g>
</g>
<g>
</g>
<g>
</g>
<g>
</g>
<g>
</g>
<g>
</g>
<g>
</g>
<g>
</g>
<g>
</g>
<g>
</g>
<g>
</g>
<g>
</g>
<g>
</g>
</svg>
