<?xml version="1.0" encoding="utf-8"?>
<!-- Generator: Adobe Illustrator 18.0.0, SVG Export Plug-In . SVG Version: 6.00 Build 0)  -->
<!DOCTYPE svg PUBLIC "-//W3C//DTD SVG 1.1//EN" "http://www.w3.org/Graphics/SVG/1.1/DTD/svg11.dtd">
<svg version="1.1" id="Laag_1" xmlns="http://www.w3.org/2000/svg" xmlns:xlink="http://www.w3.org/1999/xlink" x="0px" y="0px"
	 width="252.2px" height="196.1px" viewBox="0 0 252.2 196.1" enable-background="new 0 0 252.2 196.1" xml:space="preserve">
<path opacity="0.5" fill="#FFFFFF" d="M60.4,76.2l-14.7-11c-1.7-1.3-4.1-1.1-5.5,0.4L1.2,104.7c-1.6,1.7-1.6,4.3,0,6
	c0.8,0.8,1.9,1.2,3,1.2c1.1,0,2.2-0.4,3-1.2l36.3-36.5l14,10.5c1.3,1,3.2,1.1,4.6,0.3L77,76.5c-0.5-3-0.8-6.1-0.8-9.3L60.4,76.2z"/>
<path opacity="0.5" fill="#FFFFFF" d="M224.7,15.3c1.9-1.4,2.4-4,1-5.9c-1.4-1.9-4-2.4-5.9-1l-32.7,23.2c1.6,2.3,3.1,4.7,4.4,7.3
	L224.7,15.3z"/>
<path opacity="0.5" fill="#FFFFFF" d="M64.3,53.4l-10-14.3c-1.2-1.7-3.4-2.3-5.2-1.4L3.3,58.8c-2.1,1-3,3.5-2.1,5.6
	c1,2.1,3.5,3,5.6,2.1l42.5-19.7l9.8,14c1.1,1.6,3.1,2.2,4.9,1.6l9.2-3.2c0.4-3.3,1.1-6.5,2-9.6L64.3,53.4z"/>
<path opacity="0.5" fill="#FFFFFF" d="M224,90.1l-27.1-11.9c-0.6,2.8-1.3,5.6-2.2,8.3l25.9,11.4c0.6,0.2,1.1,0.4,1.7,0.4
	c1.6,0,3.2-0.9,3.9-2.5C227.1,93.5,226.1,91,224,90.1z"/>
<path opacity="0.5" fill="#FFFFFF" d="M99.8,101.6l24.8-23.4l-1.4-1.1l-8.1-6.7l-20.1,19L78.3,77.6c1.4,7.4,4.1,14.3,8,20.4l5.9,4.1
	C94.5,103.8,97.7,103.6,99.8,101.6z"/>
<path opacity="0.5" fill="#FFFFFF" d="M165,31.3c-2.3-2.2-6-2.2-8.4,0l-31.8,30l7.6,6.3l1.8,1.5l26.5-25l10.4,10
	c2,1.9,5.1,2.2,7.5,0.7l15.8-10.2c-1.5-3.8-3.3-7.5-5.5-10.9L176.1,42L165,31.3z"/>
<path opacity="0.5" fill="#FFFFFF" d="M190,63.7c-1.8-0.8-3.8-0.7-5.5,0.1l-35.7,17.3l-14.5-12l-0.6,0.5l-9-8.1l0.2-0.2l-2.5-2.1
	L88.4,31.1c-2.6,3.6-4.8,7.5-6.5,11.7l31.2,25.8l2.1,1.8l0.6-0.6l9,8.1l-0.2,0.2l19,15.7c2,1.6,4.7,2,7.1,0.9L187.5,77l9.2,4
	c1.1-4.4,1.7-8.9,1.8-13.6L190,63.7z"/>
<polygon fill="#FFFFFF" points="124.6,78.2 124.9,78 115.8,69.8 115.2,70.4 123.3,77.1 "/>
<polygon fill="#FFFFFF" points="124.9,61.3 124.7,61.5 133.7,69.6 134.3,69.1 132.5,67.6 "/>
<g opacity="0.3">
	<path fill="#FFFFFF" d="M2.1,170.1c1.2,0,2.1,1.3,2.1,3v15.2c0,1.7-1,3-2.1,3S0,190,0,188.3v-15.2C0,171.5,1,170.1,2.1,170.1z"/>
</g>
<g opacity="0.3">
	<path fill="#FFFFFF" d="M51.7,170.1c1.2,0,2.1,1.3,2.1,3v15.2c0,1.7-1,3-2.1,3s-2.1-1.3-2.1-3v-15.2
		C49.6,171.5,50.5,170.1,51.7,170.1z"/>
</g>
<g opacity="0.3">
	<path fill="#FFFFFF" d="M101.3,170.1c1.2,0,2.1,1.3,2.1,3v15.2c0,1.7-1,3-2.1,3s-2.1-1.3-2.1-3v-15.2
		C99.2,171.5,100.1,170.1,101.3,170.1z"/>
</g>
<g opacity="0.3">
	<path fill="#FFFFFF" d="M150.9,170.1c1.2,0,2.1,1.3,2.1,3v15.2c0,1.7-1,3-2.1,3s-2.1-1.3-2.1-3v-15.2
		C148.8,171.5,149.7,170.1,150.9,170.1z"/>
</g>
<g opacity="0.3">
	<path fill="#FFFFFF" d="M250.1,170.1c1.2,0,2.1,1.3,2.1,3v15.2c0,1.7-1,3-2.1,3s-2.1-1.3-2.1-3v-15.2
		C248,171.5,248.9,170.1,250.1,170.1z"/>
</g>
<path fill="#FFFFFF" d="M195.5,33.3C177.1,1.5,136.4-9.5,104.6,8.9C72.7,27.3,61.8,68,80.2,99.8c15.8,27.4,48.3,39.3,77.3,30.3
	l37.1,64.2l5.4,1.8l19-11l1.2-5.4l-37.2-64.4C205.4,94.7,211.3,60.7,195.5,33.3z M164.8,113.2c-25.7,14.8-58.7,6-73.6-19.7
	c-7.2-12.5-9.1-27-5.4-40.9c3.7-13.9,12.6-25.5,25.1-32.7l0,0c12.5-7.2,27-9.1,40.9-5.4c13.9,3.7,25.5,12.6,32.7,25.1
	C199.3,65.4,190.5,98.4,164.8,113.2z"/>
<g>
</g>
<g>
</g>
<g>
</g>
<g>
</g>
<g>
</g>
<g>
</g>
<g>
</g>
<g>
</g>
<g>
</g>
<g>
</g>
<g>
</g>
<g>
</g>
<g>
</g>
<g>
</g>
<g>
</g>
</svg>
