<?xml version="1.0" encoding="utf-8"?>
<!-- Generator: Adobe Illustrator 18.0.0, SVG Export Plug-In . SVG Version: 6.00 Build 0)  -->
<!DOCTYPE svg PUBLIC "-//W3C//DTD SVG 1.1//EN" "http://www.w3.org/Graphics/SVG/1.1/DTD/svg11.dtd">
<svg version="1.1" id="Laag_1" xmlns="http://www.w3.org/2000/svg" xmlns:xlink="http://www.w3.org/1999/xlink" x="0px" y="0px"
	 width="288.5px" height="267.5px" viewBox="0 0 288.5 267.5" enable-background="new 0 0 288.5 267.5" xml:space="preserve">
<linearGradient id="SVGID_1_" gradientUnits="userSpaceOnUse" x1="74.3574" y1="132.3966" x2="74.3574" y2="267.6176" gradientTransform="matrix(1 0 0 1 60.7012 -8.5068)">
	<stop  offset="0" style="stop-color:#F2F2F2;stop-opacity:0.1"/>
	<stop  offset="1" style="stop-color:#FFFFFF;stop-opacity:0"/>
</linearGradient>
<path fill="url(#SVGID_1_)" d="M135.1,267.5c-73.9,0-133.7-59.9-133.7-133.7C1.3,59.9,61.2,0,135.1,0c73.9,0,133.7,59.9,133.7,133.7
	C268.8,207.6,208.9,267.5,135.1,267.5"/>
<linearGradient id="SVGID_2_" gradientUnits="userSpaceOnUse" x1="78.7741" y1="194.2341" x2="78.7741" y2="37.3973">
	<stop  offset="0" style="stop-color:#E6E6E6"/>
	<stop  offset="1" style="stop-color:#BFBFBF"/>
</linearGradient>
<rect x="0" y="37.4" fill="url(#SVGID_2_)" width="157.5" height="157.5"/>
<g>
	<linearGradient id="SVGID_3_" gradientUnits="userSpaceOnUse" x1="78.7741" y1="38.4846" x2="78.7741" y2="192.8111">
		<stop  offset="0" style="stop-color:#E6E6E6"/>
		<stop  offset="1" style="stop-color:#BFBFBF"/>
	</linearGradient>
	<path fill="url(#SVGID_3_)" d="M155.5,187.9c0,2.8-2.2,5-5,5H7c-2.8,0-5-2.2-5-5V44.4c0-2.8,2.3-5,5-5h143.5c2.8,0,5,2.2,5,5V187.9
		z"/>
</g>
<path opacity="0.15" d="M42.7,170.4c3.9,0,7.5,1.6,10.1,4.2l19.2-19.2c-7.5-7.5-17.8-12.1-29.3-12.1c-11.4,0-21.8,4.6-29.3,12.1
	l19.2,19.2C35.2,172,38.8,170.4,42.7,170.4z"/>
<path opacity="0.15" d="M114.9,170.4c3.9,0,7.5,1.6,10.1,4.2l19.2-19.2c-7.5-7.5-17.8-12.1-29.3-12.1s-21.8,4.6-29.3,12.1l19.2,19.2
	C107.5,172,111,170.4,114.9,170.4z"/>
<circle opacity="0.15" cx="30.1" cy="118.4" r="10.1"/>
<circle opacity="0.15" cx="77.7" cy="118.4" r="10.1"/>
<circle opacity="0.15" cx="125.7" cy="118.4" r="10.1"/>
<rect x="16.7" y="65" fill="#808080" width="56.9" height="2"/>
<rect x="85.5" y="65" fill="#808080" width="56.9" height="2"/>
<g opacity="0.2">
	<path d="M42.3,69.1c0,1.6-1.4,3-3,3h-5.5c-1.6,0-3-1.4-3-3v-1.9c0-1.6,1.4-3,3-3h5.5c1.6,0,3,1.4,3,3V69.1z"/>
</g>
<g opacity="0.2">
	<path d="M122,69c0,1.6-1.4,3-3,3h-5.5c-1.6,0-3-1.4-3-3v-1.9c0-1.6,1.4-3,3-3h5.5c1.6,0,3,1.4,3,3V69z"/>
</g>
<path fill="#FFFFFF" d="M42.7,172.4c3.9,0,7.5,1.6,10.1,4.2l19.2-19.2c-7.5-7.5-17.8-12.1-29.3-12.1c-11.4,0-21.8,4.6-29.3,12.1
	l19.2,19.2C35.2,174,38.8,172.4,42.7,172.4z"/>
<linearGradient id="SVGID_4_" gradientUnits="userSpaceOnUse" x1="35.9292" y1="161.2265" x2="41.4839" y2="161.2265">
	<stop  offset="0" style="stop-color:#D9916C"/>
	<stop  offset="1" style="stop-color:#C45D3B"/>
</linearGradient>
<polygon fill="url(#SVGID_4_)" points="38.8,173.3 35.9,149.2 41.5,172.7 "/>
<path fill="#FFFFFF" d="M114.9,172.4c3.9,0,7.5,1.6,10.1,4.2l19.2-19.2c-7.5-7.5-17.8-12.1-29.3-12.1s-21.8,4.6-29.3,12.1l19.2,19.2
	C107.5,174,111,172.4,114.9,172.4z"/>
<linearGradient id="SVGID_5_" gradientUnits="userSpaceOnUse" x1="115.9233" y1="160.7896" x2="121.9892" y2="160.7896">
	<stop  offset="0" style="stop-color:#D9916C"/>
	<stop  offset="1" style="stop-color:#C45D3B"/>
</linearGradient>
<polygon fill="url(#SVGID_5_)" points="115.9,172.3 122,148.8 118.7,172.7 "/>
<linearGradient id="SVGID_6_" gradientUnits="userSpaceOnUse" x1="5.9641" y1="41.8608" x2="5.9641" y2="45.2373">
	<stop  offset="0" style="stop-color:#999999"/>
	<stop  offset="1" style="stop-color:#666666"/>
</linearGradient>
<circle opacity="0.5" fill="url(#SVGID_6_)" cx="6" cy="43.5" r="1.7"/>
<linearGradient id="SVGID_7_" gradientUnits="userSpaceOnUse" x1="151.1338" y1="41.8608" x2="151.1338" y2="45.2373">
	<stop  offset="0" style="stop-color:#999999"/>
	<stop  offset="1" style="stop-color:#666666"/>
</linearGradient>
<circle opacity="0.5" fill="url(#SVGID_7_)" cx="151.1" cy="43.5" r="1.7"/>
<linearGradient id="SVGID_8_" gradientUnits="userSpaceOnUse" x1="151.1338" y1="186.3559" x2="151.1338" y2="189.7319">
	<stop  offset="0" style="stop-color:#999999"/>
	<stop  offset="1" style="stop-color:#666666"/>
</linearGradient>
<circle opacity="0.5" fill="url(#SVGID_8_)" cx="151.1" cy="188" r="1.7"/>
<linearGradient id="SVGID_9_" gradientUnits="userSpaceOnUse" x1="7.3144" y1="186.3559" x2="7.3144" y2="189.7319">
	<stop  offset="0" style="stop-color:#999999"/>
	<stop  offset="1" style="stop-color:#666666"/>
</linearGradient>
<circle opacity="0.5" fill="url(#SVGID_9_)" cx="7.3" cy="188" r="1.7"/>
<linearGradient id="SVGID_10_" gradientUnits="userSpaceOnUse" x1="13.7622" y1="106.8832" x2="46.3213" y2="106.8832">
	<stop  offset="0" style="stop-color:#FFFFFF;stop-opacity:0.2"/>
	<stop  offset="1" style="stop-color:#FFFFFF"/>
</linearGradient>
<path fill="url(#SVGID_10_)" d="M19.1,104.2c6.1-6.1,16.1-6.1,22.2,0l5-5c-7.4-7.4-19.5-7.4-27,0c-5.7,5.7-7,14-4.1,20.9
	C13.5,114.7,14.8,108.5,19.1,104.2z"/>
<linearGradient id="SVGID_11_" gradientUnits="userSpaceOnUse" x1="61.3644" y1="106.8832" x2="93.9238" y2="106.8832">
	<stop  offset="0" style="stop-color:#FFFFFF;stop-opacity:0.2"/>
	<stop  offset="1" style="stop-color:#FFFFFF"/>
</linearGradient>
<path fill="url(#SVGID_11_)" d="M66.7,104.2c6.1-6.1,16.1-6.1,22.2,0l5-5c-7.4-7.4-19.5-7.4-27,0c-5.7,5.7-7,14-4.1,20.9
	C61.1,114.7,62.4,108.5,66.7,104.2z"/>
<linearGradient id="SVGID_12_" gradientUnits="userSpaceOnUse" x1="109.3043" y1="106.8832" x2="141.8633" y2="106.8832">
	<stop  offset="0" style="stop-color:#FFFFFF;stop-opacity:0.2"/>
	<stop  offset="1" style="stop-color:#FFFFFF"/>
</linearGradient>
<path fill="url(#SVGID_12_)" d="M114.6,104.2c6.1-6.1,16.1-6.1,22.2,0l5-5c-7.4-7.4-19.5-7.4-27,0c-5.7,5.7-7,14-4.1,20.9
	C109.1,114.7,110.3,108.5,114.6,104.2z"/>
<polygon fill="#4D4D4D" points="30.1,99.1 33.7,105.3 37.2,111.5 30.1,111.5 23,111.5 26.6,105.3 "/>
<linearGradient id="SVGID_13_" gradientUnits="userSpaceOnUse" x1="30.1367" y1="105.3305" x2="30.1367" y2="125.3524">
	<stop  offset="0" style="stop-color:#A6CF68"/>
	<stop  offset="1" style="stop-color:#666666"/>
</linearGradient>
<circle fill="url(#SVGID_13_)" cx="30.1" cy="115.3" r="10.1"/>
<polygon fill="#4D4D4D" points="70.5,100.5 76.5,104.3 82.5,108.2 76.2,111.4 69.9,114.7 70.2,107.6 "/>
<linearGradient id="SVGID_14_" gradientUnits="userSpaceOnUse" x1="77.6267" y1="105.3305" x2="77.6267" y2="125.3524">
	<stop  offset="0" style="stop-color:#A6CF68"/>
	<stop  offset="1" style="stop-color:#666666"/>
</linearGradient>
<circle fill="url(#SVGID_14_)" cx="77.6" cy="115.3" r="10.1"/>
<polygon fill="#4D4D4D" points="134.2,100.9 134.3,108 134.3,115.1 128.1,111.6 122,108 128.1,104.4 "/>
<linearGradient id="SVGID_15_" gradientUnits="userSpaceOnUse" x1="125.7913" y1="105.3305" x2="125.7913" y2="125.3524">
	<stop  offset="0" style="stop-color:#A6CF68"/>
	<stop  offset="1" style="stop-color:#666666"/>
</linearGradient>
<circle fill="url(#SVGID_15_)" cx="125.8" cy="115.3" r="10.1"/>
<g>
	<path fill="#4D4D4D" d="M42.3,67c0,1.6-1.4,3-3,3h-5.5c-1.6,0-3-1.4-3-3v-1.9c0-1.6,1.4-3,3-3h5.5c1.6,0,3,1.4,3,3V67z"/>
</g>
<g>
	<path fill="#4D4D4D" d="M122,67c0,1.6-1.4,3-3,3h-5.5c-1.6,0-3-1.4-3-3v-1.9c0-1.6,1.4-3,3-3h5.5c1.6,0,3,1.4,3,3V67z"/>
</g>
<linearGradient id="SVGID_16_" gradientUnits="userSpaceOnUse" x1="171.9242" y1="37.4725" x2="233.0413" y2="37.4725">
	<stop  offset="0" style="stop-color:#595959"/>
	<stop  offset="1" style="stop-color:#333333"/>
</linearGradient>
<path fill="url(#SVGID_16_)" d="M176.5,28.1c0,0-5-6.5-4.5-12.8c0.5-6.3,21.2-13.5,32.4-9c11.3,4.5,24.8,12.4,27.7,20.9
	c2.9,8.6-1.1,42.3-5.4,42.8c-4.3,0.4-14.9-2-14.9-2L176.5,28.1z"/>
<linearGradient id="SVGID_17_" gradientUnits="userSpaceOnUse" x1="169.2686" y1="74.4457" x2="236.3393" y2="82.0978">
	<stop  offset="0.5951" style="stop-color:#CCA68F"/>
	<stop  offset="0.8528" style="stop-color:#997969"/>
	<stop  offset="1" style="stop-color:#A68572"/>
</linearGradient>
<path fill="url(#SVGID_17_)" d="M226,110.1V70.2c0,0-4.1-0.5-7.7-6.1c-2-3.2,4.1-12.6-5.9-17.6c-2.2-1.1-6.1,0.5-6.1,0.5
	s-7.9-10.2-12.4-14c-8.6-7.1-14.4-12.4-19.4-3.6s0.2,46.2,2.9,48.6c2.8,2.4,9.9,0.8,14.3,8.2c4.4,7.4,2.4,41.9,2.4,41.9L226,110.1z"
	/>
<linearGradient id="SVGID_18_" gradientUnits="userSpaceOnUse" x1="192.6598" y1="99.3664" x2="227.7825" y2="99.3664">
	<stop  offset="0" style="stop-color:#D9D9D9"/>
	<stop  offset="0.5031" style="stop-color:#FFFFFF"/>
	<stop  offset="1" style="stop-color:#D9D9D9"/>
</linearGradient>
<path fill="url(#SVGID_18_)" d="M191.8,91.8l-2.5,13.7l23.2,1.4l19.4-3.4l-4.1-11.5c0,0-9.2,2.5-17.3,2.5
	C202.3,94.5,191.8,91.8,191.8,91.8z"/>
<g>
	<linearGradient id="SVGID_19_" gradientUnits="userSpaceOnUse" x1="163.5218" y1="108.5691" x2="250.5837" y2="242.2707">
		<stop  offset="0" style="stop-color:#6A8DB3"/>
		<stop  offset="0.5583" style="stop-color:#536F8C"/>
		<stop  offset="1" style="stop-color:#445B73"/>
	</linearGradient>
	<path fill="url(#SVGID_19_)" d="M251.7,161.9c0-1.7,0.2-1.7,0.5-0.1l14.4,76.1c0.3,1.6,1.9,3.3,3.5,3.7c0,0,2.7,0.7,8.4,0.7
		c5.7,0,7.7-0.6,7.7-0.6c1.6-0.5,2.6-2.2,2.3-3.8l-22.7-118.6c-0.3-1.6-1.8-3.5-3.3-4.1l-23.9-9.7c-1.5-0.6-3.3-2.4-4-3.9l-1.7-3.9
		c-0.7-1.5-2.5-2.4-4.1-2c0,0-4.5,1.2-15.8,2.1c-11.3,0.9-21.7-2.6-21.7-2.6c-1.6-0.5-3.3,0.3-3.9,1.8l-1.5,4.1
		c-0.6,1.5-2.3,3.4-3.8,4l-19.3,8.4c-1.5,0.7-3.2,2.5-3.8,4l-16.1,42.3c-0.6,1.5-1.4,1.5-1.8-0.1l-6.5-26.6c-0.4-1.6-2-2.5-3.6-2
		l-12.3,4c-1.6,0.5-2.6,2.3-2.3,3.9l11.5,61.2c0.3,1.6,1.9,3,3.6,3.1l11.3,0.6c1.6,0.1,3.6-1,4.4-2.5l24.5-48.2
		c0.7-1.5,1.4-1.3,1.3,0.3l-0.5,84.3c0,1.7,1.2,3.5,2.8,4.1c0,0,14,5.4,38.3,5.4s36.7-5.3,36.7-5.3c1.5-0.7,2.7-2.5,2.7-4.2
		L251.7,161.9z"/>
</g>
<g>
	<linearGradient id="SVGID_20_" gradientUnits="userSpaceOnUse" x1="128.8677" y1="130.5008" x2="128.8677" y2="185.4453">
		<stop  offset="0" style="stop-color:#FFFFFF;stop-opacity:0.3"/>
		<stop  offset="1" style="stop-color:#FFFFFF;stop-opacity:0"/>
	</linearGradient>
	<path fill="url(#SVGID_20_)" d="M118.8,135.2c-1.6,0.5-2.6,2.3-2.3,3.9l11.5,61.2c0.3,1.6,1,1.7,1.5,0.1l11.4-34.8
		c0.5-1.6,0.6-4.2,0.2-5.8l-6.5-26.6c-0.4-1.6-2-2.5-3.6-2L118.8,135.2z"/>
</g>
<g>
</g>
<g>
</g>
<g>
</g>
<g>
</g>
<g>
</g>
<g>
</g>
<g>
</g>
<g>
</g>
<g>
</g>
<g>
</g>
<g>
</g>
<g>
</g>
<g>
</g>
<g>
</g>
<g>
</g>
</svg>
