<?xml version="1.0" encoding="utf-8"?>
<!-- Generator: Adobe Illustrator 18.0.0, SVG Export Plug-In . SVG Version: 6.00 Build 0)  -->
<!DOCTYPE svg PUBLIC "-//W3C//DTD SVG 1.1//EN" "http://www.w3.org/Graphics/SVG/1.1/DTD/svg11.dtd">
<svg version="1.1" id="Laag_1" xmlns="http://www.w3.org/2000/svg" xmlns:xlink="http://www.w3.org/1999/xlink" x="0px" y="0px"
	 width="286.4px" height="242.5px" viewBox="0 0 286.4 242.5" enable-background="new 0 0 286.4 242.5" xml:space="preserve">
<g opacity="0.5">
	<path fill="#FFFFFF" d="M153.5,183c0,2.8-2.2,5-5,5H5c-2.8,0-5-2.2-5-5V39.5c0-2.8,2.2-5,5-5h143.5c2.8,0,5,2.2,5,5V183z"/>
</g>
<path opacity="0.15" d="M40.6,165.5c3.9,0,7.5,1.6,10.1,4.2l19.2-19.2c-7.5-7.5-17.8-12.1-29.3-12.1c-11.4,0-21.8,4.6-29.3,12.1
	l19.2,19.2C33.1,167.1,36.7,165.5,40.6,165.5z"/>
<path opacity="0.15" d="M112.9,165.5c3.9,0,7.5,1.6,10.1,4.2l19.2-19.2c-7.5-7.5-17.8-12.1-29.3-12.1s-21.8,4.6-29.3,12.1l19.2,19.2
	C105.4,167.1,108.9,165.5,112.9,165.5z"/>
<circle opacity="0.5" fill="#FFFFFF" cx="28.1" cy="113.5" r="10.1"/>
<circle opacity="0.5" fill="#FFFFFF" cx="75.7" cy="113.5" r="10.1"/>
<circle opacity="0.5" fill="#FFFFFF" cx="123.6" cy="113.5" r="10.1"/>
<rect x="14.6" y="60.1" fill="#FFFFFF" width="56.9" height="2"/>
<rect x="83.4" y="60.1" fill="#FFFFFF" width="56.9" height="2"/>
<g opacity="0.5">
	<path fill="#FFFFFF" d="M40.2,64.2c0,1.7-1.3,3-3,3h-5.5c-1.6,0-3-1.3-3-3v-1.9c0-1.6,1.4-3,3-3h5.5c1.7,0,3,1.4,3,3V64.2z"/>
</g>
<g opacity="0.5">
	<path fill="#FFFFFF" d="M119.9,64.1c0,1.7-1.4,3-3,3h-5.5c-1.7,0-3-1.3-3-3v-1.9c0-1.6,1.3-3,3-3h5.5c1.6,0,3,1.4,3,3V64.1z"/>
</g>
<path fill="#FFFFFF" d="M40.6,140.3c-11.4,0-21.8,4.6-29.3,12.1l19.2,19.2c1.7-1.7,3.8-2.9,6.1-3.6l-2.8-23.8l5.5,23.3
	c0.4,0,0.8-0.1,1.3-0.1c3.9,0,7.5,1.6,10.1,4.2l19.2-19.2C62.4,145,52,140.3,40.6,140.3z"/>
<path fill="#FFFFFF" d="M112.9,140.3c-11.4,0-21.8,4.6-29.3,12.1l19.2,19.2c2.6-2.6,6.1-4.2,10-4.2c3.9,0,7.5,1.6,10.1,4.2
	l19.2-19.2C134.6,145,124.3,140.3,112.9,140.3z M116.6,167.9l-2.7-0.4l6.1-23.5L116.6,167.9z"/>
<circle opacity="0.5" fill="#FFFFFF" cx="3.9" cy="38.7" r="1.7"/>
<circle opacity="0.5" fill="#FFFFFF" cx="149" cy="38.7" r="1.7"/>
<linearGradient id="SVGID_1_" gradientUnits="userSpaceOnUse" x1="149.0495" y1="181.4611" x2="149.0495" y2="184.8371">
	<stop  offset="0" style="stop-color:#999999"/>
	<stop  offset="1" style="stop-color:#666666"/>
</linearGradient>
<circle opacity="0.5" fill="url(#SVGID_1_)" cx="149" cy="183.1" r="1.7"/>
<circle opacity="0.5" fill="#FFFFFF" cx="5.2" cy="183.1" r="1.7"/>
<linearGradient id="SVGID_2_" gradientUnits="userSpaceOnUse" x1="11.678" y1="101.9884" x2="44.237" y2="101.9884">
	<stop  offset="0" style="stop-color:#FFFFFF;stop-opacity:0.2"/>
	<stop  offset="1" style="stop-color:#FFFFFF"/>
</linearGradient>
<path fill="url(#SVGID_2_)" d="M17,99.3c6.1-6.1,16.1-6.1,22.2,0l5-5c-7.4-7.4-19.5-7.4-27,0c-5.7,5.7-7,14-4.1,20.9
	C11.4,109.8,12.7,103.6,17,99.3z"/>
<linearGradient id="SVGID_3_" gradientUnits="userSpaceOnUse" x1="59.2802" y1="101.9884" x2="91.8395" y2="101.9884">
	<stop  offset="0" style="stop-color:#FFFFFF;stop-opacity:0.2"/>
	<stop  offset="1" style="stop-color:#FFFFFF"/>
</linearGradient>
<path fill="url(#SVGID_3_)" d="M64.6,99.3c6.1-6.1,16.1-6.1,22.2,0l5-5c-7.4-7.4-19.5-7.4-27,0c-5.7,5.7-7,14-4.1,20.9
	C59,109.8,60.3,103.6,64.6,99.3z"/>
<linearGradient id="SVGID_4_" gradientUnits="userSpaceOnUse" x1="107.2201" y1="101.9884" x2="139.7791" y2="101.9884">
	<stop  offset="0" style="stop-color:#FFFFFF;stop-opacity:0.2"/>
	<stop  offset="1" style="stop-color:#FFFFFF"/>
</linearGradient>
<path fill="url(#SVGID_4_)" d="M112.6,99.3c6.1-6.1,16.1-6.1,22.2,0l5-5c-7.4-7.4-19.5-7.4-27,0c-5.7,5.7-7,14-4.1,20.9
	C107,109.8,108.3,103.6,112.6,99.3z"/>
<polygon fill="#FFFFFF" points="28,94.3 31.6,100.4 35.2,106.6 28,106.6 20.9,106.6 24.5,100.4 "/>
<circle fill="#FFFFFF" cx="28.1" cy="110.4" r="10.1"/>
<polygon fill="#FFFFFF" points="68.4,95.6 74.4,99.4 80.4,103.3 74.1,106.5 67.8,109.8 68.1,102.7 "/>
<circle fill="#FFFFFF" cx="75.5" cy="110.4" r="10.1"/>
<polygon fill="#FFFFFF" points="132.2,96 132.2,103.1 132.2,110.2 126.1,106.7 119.9,103.1 126,99.5 "/>
<circle fill="#FFFFFF" cx="123.7" cy="110.4" r="10.1"/>
<g>
	<path fill="#FFFFFF" d="M40.2,62.1c0,1.7-1.3,3-3,3h-5.5c-1.6,0-3-1.3-3-3v-1.9c0-1.6,1.4-3,3-3h5.5c1.7,0,3,1.4,3,3V62.1z"/>
</g>
<g>
	<path fill="#FFFFFF" d="M119.9,62.1c0,1.7-1.4,3-3,3h-5.5c-1.7,0-3-1.3-3-3v-1.9c0-1.6,1.3-3,3-3h5.5c1.6,0,3,1.4,3,3V62.1z"/>
</g>
<path fill="#FFFFFF" d="M174.4,23.2c0,0-5-6.5-4.5-12.8c0.5-6.3,21.2-13.5,32.4-9C213.5,5.9,227,13.8,230,22.3
	c2.9,8.6-1.1,42.3-5.4,42.8c-4.3,0.4-14.9-2-14.9-2L174.4,23.2z"/>
<path opacity="0.5" fill="#FFFFFF" d="M223.9,105.2V65.3c0,0-4.1-0.5-7.7-6.1c-2-3.2,4.1-12.6-5.9-17.6c-2.2-1.1-6.1,0.5-6.1,0.5
	s-7.9-10.2-12.4-14c-8.6-7.1-14.4-12.4-19.4-3.6s0.2,46.2,2.9,48.6c2.8,2.4,9.9,0.8,14.3,8.2c4.4,7.4,2.4,41.9,2.4,41.9L223.9,105.2
	z"/>
<path fill="#FFFFFF" d="M189.7,86.9l-2.5,13.7l23.2,1.4l19.4-3.4l-4.1-11.5c0,0-9.2,2.5-17.3,2.5C200.3,89.6,189.7,86.9,189.7,86.9z
	"/>
<g>
	<path fill="#FFFFFF" d="M249.6,157c0-1.6,0.2-1.7,0.5-0.1l14.4,76.1c0.3,1.6,1.9,3.3,3.5,3.7c0,0,2.7,0.7,8.4,0.7
		c5.7,0,7.7-0.6,7.7-0.6c1.6-0.5,2.6-2.2,2.3-3.8l-22.7-118.6c-0.3-1.6-1.8-3.5-3.3-4.1l-23.9-9.7c-1.5-0.6-3.3-2.4-4-3.9l-1.7-3.9
		c-0.7-1.5-2.5-2.4-4.1-2c0,0-4.5,1.2-15.8,2.1c-11.3,0.9-21.7-2.6-21.7-2.6c-1.6-0.5-3.3,0.3-3.9,1.8l-1.5,4.1
		c-0.6,1.5-2.3,3.4-3.8,4l-19.3,8.4c-1.5,0.7-3.2,2.5-3.8,4L140.8,155c-0.6,1.5-1.4,1.5-1.8-0.1l-6.5-26.6c-0.4-1.6-2-2.5-3.6-2
		l-12.3,4c-1.6,0.5-2.6,2.3-2.3,3.9l11.5,61.2c0.3,1.6,1.9,3,3.6,3.1l11.3,0.6c1.6,0.1,3.6-1,4.4-2.5l24.5-48.2
		c0.7-1.5,1.4-1.3,1.3,0.3l-0.5,84.3c0,1.6,1.2,3.5,2.8,4.1c0,0,14,5.4,38.3,5.4s36.7-5.3,36.7-5.3c1.5-0.7,2.7-2.5,2.7-4.2
		L249.6,157z"/>
</g>
<g>
	<linearGradient id="SVGID_5_" gradientUnits="userSpaceOnUse" x1="126.7835" y1="125.606" x2="126.7835" y2="180.5505">
		<stop  offset="0" style="stop-color:#FFFFFF;stop-opacity:0.3"/>
		<stop  offset="1" style="stop-color:#FFFFFF;stop-opacity:0"/>
	</linearGradient>
	<path fill="url(#SVGID_5_)" d="M116.7,130.3c-1.6,0.5-2.6,2.3-2.3,3.9l11.5,61.2c0.3,1.6,1,1.7,1.5,0.1l11.4-34.8
		c0.5-1.6,0.6-4.2,0.2-5.8l-6.5-26.6c-0.4-1.6-2-2.5-3.6-2L116.7,130.3z"/>
</g>
<g>
</g>
<g>
</g>
<g>
</g>
<g>
</g>
<g>
</g>
<g>
</g>
<g>
</g>
<g>
</g>
<g>
</g>
<g>
</g>
<g>
</g>
<g>
</g>
<g>
</g>
<g>
</g>
<g>
</g>
</svg>
