<?xml version="1.0" encoding="utf-8"?>
<!-- Generator: Adobe Illustrator 19.1.0, SVG Export Plug-In . SVG Version: 6.00 Build 0)  -->
<!DOCTYPE svg PUBLIC "-//W3C//DTD SVG 1.1//EN" "http://www.w3.org/Graphics/SVG/1.1/DTD/svg11.dtd">
<svg version="1.1" id="Laag_1" xmlns="http://www.w3.org/2000/svg" xmlns:xlink="http://www.w3.org/1999/xlink" x="0px" y="0px"
	 width="286.4px" height="242.5px" viewBox="-336 159.5 286.4 242.5" style="enable-background:new -336 159.5 286.4 242.5;"
	 xml:space="preserve">
<style type="text/css">
	.st0{opacity:0.5;}
	.st1{fill:#FFFFFF;}
	.st2{opacity:0.15;enable-background:new    ;}
	.st3{opacity:0.5;fill:#FFFFFF;enable-background:new    ;}
	.st4{opacity:0.5;fill:url(#SVGID_1_);enable-background:new    ;}
	.st5{fill:url(#SVGID_2_);}
	.st6{fill:url(#SVGID_3_);}
	.st7{fill:url(#SVGID_4_);}
	.st8{fill:url(#SVGID_5_);}
</style>
<g class="st0">
	<path class="st1" d="M-184.5,330.3c0,2.2-1.8,4-4,4h-115c-2.2,0-4-1.8-4-4v-115c0-2.2,1.8-4,4-4h115c2.2,0,4,1.8,4,4V330.3z"/>
</g>
<path class="st2" d="M-275.1,316.2c3.1,0,6,1.3,8.1,3.4l15.4-15.4c-6-6-14.3-9.7-23.5-9.7c-9.1,0-17.5,3.7-23.5,9.7l15.4,15.4
	C-281.1,317.5-278.2,316.2-275.1,316.2z"/>
<path class="st2" d="M-217.1,316.2c3.1,0,6,1.3,8.1,3.4l15.4-15.4c-6-6-14.3-9.7-23.5-9.7s-17.5,3.7-23.5,9.7l15.4,15.4
	C-223.1,317.5-220.3,316.2-217.1,316.2z"/>
<circle class="st3" cx="-285.1" cy="274.5" r="8.1"/>
<circle class="st3" cx="-246.9" cy="274.5" r="8.1"/>
<circle class="st3" cx="-208.5" cy="274.5" r="8.1"/>
<rect x="-295.9" y="231.7" class="st1" width="45.6" height="1.6"/>
<rect x="-240.7" y="231.7" class="st1" width="45.6" height="1.6"/>
<g class="st0">
	<path class="st1" d="M-275.4,235c0,1.4-1,2.4-2.4,2.4h-4.4c-1.3,0-2.4-1-2.4-2.4v-1.5c0-1.3,1.1-2.4,2.4-2.4h4.4
		c1.4,0,2.4,1.1,2.4,2.4V235z"/>
</g>
<g class="st0">
	<path class="st1" d="M-211.5,234.9c0,1.4-1.1,2.4-2.4,2.4h-4.4c-1.4,0-2.4-1-2.4-2.4v-1.5c0-1.3,1-2.4,2.4-2.4h4.4
		c1.3,0,2.4,1.1,2.4,2.4V234.9z"/>
</g>
<path class="st1" d="M-275.1,296c-9.1,0-17.5,3.7-23.5,9.7l15.4,15.4c1.4-1.4,3-2.3,4.9-2.9l-2.2-19.1l4.4,18.7c0.3,0,0.6-0.1,1-0.1
	c3.1,0,6,1.3,8.1,3.4l15.4-15.4C-257.6,299.8-265.9,296-275.1,296z"/>
<path class="st1" d="M-217.1,296c-9.1,0-17.5,3.7-23.5,9.7l15.4,15.4c2.1-2.1,4.9-3.4,8-3.4s6,1.3,8.1,3.4l15.4-15.4
	C-199.7,299.8-207.9,296-217.1,296z M-214.1,318.1l-2.2-0.3l4.9-18.8L-214.1,318.1z"/>
<circle class="st3" cx="-304.5" cy="214.6" r="1.4"/>
<circle class="st3" cx="-188.1" cy="214.6" r="1.4"/>
<linearGradient id="SVGID_1_" gradientUnits="userSpaceOnUse" x1="-188.1448" y1="233.9785" x2="-188.1448" y2="231.272" gradientTransform="matrix(1 0 0 -1 0 563)">
	<stop  offset="0" style="stop-color:#999999"/>
	<stop  offset="1" style="stop-color:#666666"/>
</linearGradient>
<circle class="st4" cx="-188.1" cy="330.3" r="1.4"/>
<circle class="st3" cx="-303.4" cy="330.3" r="1.4"/>
<linearGradient id="SVGID_2_" gradientUnits="userSpaceOnUse" x1="-298.2376" y1="297.7036" x2="-272.1346" y2="297.7036" gradientTransform="matrix(1 0 0 -1 0 563)">
	<stop  offset="0" style="stop-color:#FFFFFF;stop-opacity:0.2"/>
	<stop  offset="1" style="stop-color:#FFFFFF"/>
</linearGradient>
<path class="st5" d="M-294,263.2c4.9-4.9,12.9-4.9,17.8,0l4-4c-5.9-5.9-15.6-5.9-21.6,0c-4.6,4.6-5.6,11.2-3.3,16.8
	C-298.5,271.6-297.4,266.6-294,263.2z"/>
<linearGradient id="SVGID_3_" gradientUnits="userSpaceOnUse" x1="-260.0743" y1="297.7036" x2="-233.9711" y2="297.7036" gradientTransform="matrix(1 0 0 -1 0 563)">
	<stop  offset="0" style="stop-color:#FFFFFF;stop-opacity:0.2"/>
	<stop  offset="1" style="stop-color:#FFFFFF"/>
</linearGradient>
<path class="st6" d="M-255.8,263.2c4.9-4.9,12.9-4.9,17.8,0l4-4c-5.9-5.9-15.6-5.9-21.6,0c-4.6,4.6-5.6,11.2-3.3,16.8
	C-260.3,271.6-259.3,266.6-255.8,263.2z"/>
<linearGradient id="SVGID_4_" gradientUnits="userSpaceOnUse" x1="-221.6513" y1="297.7036" x2="-195.5483" y2="297.7036" gradientTransform="matrix(1 0 0 -1 0 563)">
	<stop  offset="0" style="stop-color:#FFFFFF;stop-opacity:0.2"/>
	<stop  offset="1" style="stop-color:#FFFFFF"/>
</linearGradient>
<path class="st7" d="M-217.3,263.2c4.9-4.9,12.9-4.9,17.8,0l4-4c-5.9-5.9-15.6-5.9-21.6,0c-4.6,4.6-5.6,11.2-3.3,16.8
	C-221.8,271.6-220.8,266.6-217.3,263.2z"/>
<polygon class="st1" points="-285.2,259.1 -282.3,264 -279.4,269 -285.2,269 -290.8,269 -288,264 "/>
<circle class="st1" cx="-285.1" cy="272.1" r="8.1"/>
<polygon class="st1" points="-252.8,260.2 -248,263.2 -243.1,266.4 -248.2,268.9 -253.2,271.6 -253,265.9 "/>
<circle class="st1" cx="-247.1" cy="272.1" r="8.1"/>
<polygon class="st1" points="-201.6,260.5 -201.6,266.2 -201.6,271.9 -206.5,269.1 -211.5,266.2 -206.6,263.3 "/>
<circle class="st1" cx="-208.4" cy="272.1" r="8.1"/>
<g>
	<path class="st1" d="M-275.4,233.3c0,1.4-1,2.4-2.4,2.4h-4.4c-1.3,0-2.4-1-2.4-2.4v-1.5c0-1.3,1.1-2.4,2.4-2.4h4.4
		c1.4,0,2.4,1.1,2.4,2.4V233.3z"/>
</g>
<g>
	<path class="st1" d="M-211.5,233.3c0,1.4-1.1,2.4-2.4,2.4h-4.4c-1.4,0-2.4-1-2.4-2.4v-1.5c0-1.3,1-2.4,2.4-2.4h4.4
		c1.3,0,2.4,1.1,2.4,2.4V233.3z"/>
</g>
<path class="st1" d="M-167.8,202.1c0,0-4-5.2-3.6-10.3c0.4-5.1,17-10.8,26-7.2c9,3.6,19.8,9.9,22.2,16.8c2.3,6.9-0.9,33.9-4.3,34.3
	c-3.4,0.3-11.9-1.6-11.9-1.6L-167.8,202.1z"/>
<path class="st3" d="M-128.1,267.9v-32c0,0-3.3-0.4-6.2-4.9c-1.6-2.6,3.3-10.1-4.7-14.1c-1.8-0.9-4.9,0.4-4.9,0.4s-6.3-8.2-9.9-11.2
	c-6.9-5.7-11.5-9.9-15.6-2.9c-4,7.1,0.2,37,2.3,39c2.2,1.9,7.9,0.6,11.5,6.6c3.5,5.9,1.9,33.6,1.9,33.6L-128.1,267.9z"/>
<path class="st1" d="M-155.5,253.2l-2,11l18.6,1.1l15.6-2.7l-3.3-9.2c0,0-7.4,2-13.9,2C-147,255.4-155.5,253.2-155.5,253.2z"/>
<g>
	<path class="st1" d="M-107.5,309.4c0-1.3,0.2-1.4,0.4-0.1l11.5,61c0.2,1.3,1.5,2.6,2.8,3c0,0,2.2,0.6,6.7,0.6
		c4.6,0,6.2-0.5,6.2-0.5c1.3-0.4,2.1-1.8,1.8-3l-18.2-95.1c-0.2-1.3-1.4-2.8-2.6-3.3l-19.2-7.8c-1.2-0.5-2.6-1.9-3.2-3.1l-1.4-3.1
		c-0.6-1.2-2-1.9-3.3-1.6c0,0-3.6,1-12.7,1.7c-9.1,0.7-17.4-2.1-17.4-2.1c-1.3-0.4-2.6,0.2-3.1,1.4l-1.2,3.3c-0.5,1.2-1.8,2.7-3,3.2
		l-15.5,6.7c-1.2,0.6-2.6,2-3,3.2l-12.9,34c-0.5,1.2-1.1,1.2-1.4-0.1l-5.2-21.3c-0.3-1.3-1.6-2-2.9-1.6l-9.9,3.2
		c-1.3,0.4-2.1,1.8-1.8,3.1l9.2,49.1c0.2,1.3,1.5,2.4,2.9,2.5l9.1,0.5c1.3,0.1,2.9-0.8,3.5-2l19.6-38.6c0.6-1.2,1.1-1,1,0.2
		l-0.4,67.6c0,1.3,1,2.8,2.2,3.3c0,0,11.2,4.3,30.7,4.3s29.4-4.2,29.4-4.2c1.2-0.6,2.2-2,2.2-3.4L-107.5,309.4z"/>
</g>
<g>
	
		<linearGradient id="SVGID_5_" gradientUnits="userSpaceOnUse" x1="-205.9453" y1="278.7583" x2="-205.9453" y2="234.7086" gradientTransform="matrix(1 0 0 -1 0 563)">
		<stop  offset="0" style="stop-color:#FFFFFF;stop-opacity:0.3"/>
		<stop  offset="1" style="stop-color:#FFFFFF;stop-opacity:0"/>
	</linearGradient>
	<path class="st8" d="M-214,288c-1.3,0.4-2.1,1.8-1.8,3.1l9.2,49.1c0.2,1.3,0.8,1.4,1.2,0.1l9.1-27.9c0.4-1.3,0.5-3.4,0.2-4.6
		l-5.2-21.3c-0.3-1.3-1.6-2-2.9-1.6L-214,288z"/>
</g>
</svg>
