<?xml version="1.0" encoding="utf-8"?>
<!-- Generator: Adobe Illustrator 18.0.0, SVG Export Plug-In . SVG Version: 6.00 Build 0)  -->
<!DOCTYPE svg PUBLIC "-//W3C//DTD SVG 1.1//EN" "http://www.w3.org/Graphics/SVG/1.1/DTD/svg11.dtd">
<svg version="1.1" id="Laag_1" xmlns="http://www.w3.org/2000/svg" xmlns:xlink="http://www.w3.org/1999/xlink" x="0px" y="0px"
	 width="292.3px" height="185.9px" viewBox="0 0 292.3 185.9" enable-background="new 0 0 292.3 185.9" xml:space="preserve">
<g>
	<linearGradient id="SVGID_1_" gradientUnits="userSpaceOnUse" x1="196.0959" y1="0.417" x2="196.0959" y2="96.917">
		<stop  offset="0" style="stop-color:#CCCCCC"/>
		<stop  offset="1" style="stop-color:#999999"/>
	</linearGradient>
	<path fill="url(#SVGID_1_)" d="M202.6,3.4c0-1.6-1.4-3-3-3h-7c-1.6,0-3,1.4-3,3v7.5c0,1.6,0.4,4.3,0.9,5.9l1.3,4.3
		c0.5,1.6,0.9,4.2,0.9,5.9v67c0,1.6,1.4,3,3,3h1c1.6,0,3-1.4,3-3v-67c0-1.6,0.4-4.3,0.9-5.9l1.3-4.3c0.5-1.6,0.9-4.2,0.9-5.9V3.4z"
		/>
</g>
<g>
	<path fill="#E6BBA4" d="M115.3,12.4c-1.1,0-2,0.9-1.9,2l0.8,14.5c0.1,1.1,0.8,2.5,1.7,3.2l0.5,0.4c0.9,0.7,1.6,2.1,1.6,3.2v11.8
		c0,1.1,0.9,2,2,2h9.2c1.1,0,2-0.9,2-2V35.2c0-1.1,0.7-2.4,1.5-2.9c0.8-0.5,1.6-1.8,1.7-2.9l1.6-14.8c0.1-1.1-0.7-2-1.8-2
		L115.3,12.4z"/>
</g>
<g>
	<linearGradient id="SVGID_2_" gradientUnits="userSpaceOnUse" x1="124.7668" y1="38.4327" x2="124.7668" y2="185.167">
		<stop  offset="0" style="stop-color:#6A8DB3"/>
		<stop  offset="0.5583" style="stop-color:#536F8C"/>
		<stop  offset="1" style="stop-color:#445B73"/>
	</linearGradient>
	<path fill="url(#SVGID_2_)" d="M154.7,104.6c1.6-0.4,2.8-2.1,2.6-3.7L151,48.1c-0.2-1.6-1.6-3.5-3.1-4.2l-12-5.3
		c-1.5-0.7-3.5-0.1-4.4,1.3c0,0-2.6,3.9-6.6,3.9c-3.8,0-6.4-3.6-6.4-3.6c-1-1.3-2.9-1.9-4.4-1.1l-12.4,6c-1.5,0.7-2.9,2.7-3.1,4.3
		l-6.3,51.4c-0.2,1.6,1,3.1,2.6,3.3l2.4,0.3c1.6,0.2,3.2-1,3.4-2.6l5.4-35.7c0.2-1.6,0.5-1.6,0.5,0l1.9,116c0,1.7,1.4,3,3,3h7.7
		c1.6,0,3.1-1.3,3.2-3l3-58c0.1-1.6,0.3-1.7,0.4,0l5.1,57.4c0.1,1.6,1.6,3,3.3,3h7.7c1.6,0,3-1.3,3-3L143,63.8c0-1.6,0.1-1.7,0.4,0
		l5.8,39.1c0.2,1.6,1.7,2.6,3.4,2.2L154.7,104.6z"/>
</g>
<rect x="105.3" y="92.4" fill="#996B3D" width="39.2" height="7.8"/>
<rect x="107.3" y="100.4" opacity="0.2" width="36.4" height="2.1"/>
<path fill="#FFBF00" d="M137.4,12.6c0-7-5.7-12.6-12.6-12.6c-7,0-12.6,5.7-12.6,12.6c0,0,0,0.1,0,0.1h25.3
	C137.4,12.7,137.4,12.7,137.4,12.6z"/>
<rect x="110.3" y="12.7" fill="#FFBF00" width="29.1" height="2.5"/>
<polygon opacity="0.2" points="135.8,17.8 113.8,17.8 113.4,15.3 136.1,15.3 "/>
<rect x="187.6" y="100.4" fill="#99412E" width="17" height="25.5"/>
<g>
	<linearGradient id="SVGID_3_" gradientUnits="userSpaceOnUse" x1="196.0959" y1="91.9171" x2="196.0959" y2="182.1472">
		<stop  offset="0" style="stop-color:#C46331"/>
		<stop  offset="1" style="stop-color:#C44014"/>
	</linearGradient>
	<path fill="url(#SVGID_3_)" d="M208.3,100.9c0,1.6-1.4,3-3,3h-18.5c-1.6,0-3-1.4-3-3v-4.5c0-1.6,1.4-3,3-3h18.5c1.6,0,3,1.4,3,3
		V100.9z"/>
</g>
<g>
	<linearGradient id="SVGID_4_" gradientUnits="userSpaceOnUse" x1="196.0959" y1="92.6866" x2="196.0959" y2="185.1108">
		<stop  offset="0" style="stop-color:#CC7548"/>
		<stop  offset="1" style="stop-color:#C44E27"/>
	</linearGradient>
	<path fill="url(#SVGID_4_)" d="M208.3,181.4c0,1.7-1.4,3-3,3h-18.5c-1.6,0-3-1.3-3-3v-65c0-1.7,1.4-3,3-3h18.5c1.6,0,3,1.3,3,3
		V181.4z"/>
</g>
<g>
	<linearGradient id="SVGID_5_" gradientUnits="userSpaceOnUse" x1="264.8459" y1="-11.6" x2="264.8459" y2="185.917">
		<stop  offset="0" style="stop-color:#CCCCCC"/>
		<stop  offset="1" style="stop-color:#8C8C8C"/>
	</linearGradient>
	<path fill="url(#SVGID_5_)" d="M292.3,23.8c0-10.1-11.4-21.6-11.4-21.6c-1.2-1.2-2.1-0.8-2,0.9l0.3,11.7c0,1.6-1.1,3.7-2.5,4.6
		l-8.4,5.2c-1.4,0.9-3.7,0.9-5.2,0.2l-8.7-4.7c-1.5-0.8-2.7-2.8-2.7-4.4l-0.3-12.8c0-1.6-1-2.1-2.2-0.9c0,0-11.7,11.6-11.7,21.8
		c0,13.1,18.8,25.2,18.8,25.2c1.4,0.9,2.4,3,2.3,4.6l-7.6,112.8c-0.1,1.6-0.3,3.6-0.4,4.4c0,0,0,0,0,0.7c0,8,6.5,14.4,14.4,14.4
		s14.4-6.5,14.4-14.4c0-0.6,0-0.6,0-0.6c-0.1-0.6-0.2-2.5-0.3-4.1l-6.1-113.6c-0.1-1.6,0.9-3.8,2.3-4.7
		C275.2,48.4,292.3,36.3,292.3,23.8z"/>
</g>
<g>
	<linearGradient id="SVGID_6_" gradientUnits="userSpaceOnUse" x1="38.0797" y1="2.2993" x2="38.0797" y2="98.76">
		<stop  offset="0" style="stop-color:#CCCCCC"/>
		<stop  offset="1" style="stop-color:#999999"/>
	</linearGradient>
	<path fill="url(#SVGID_6_)" d="M73.2,3.8c1.6,0,3,1.4,3,3.1l0,14c0,1.6-1.4,3.1-3,3.1l-2.4,0.1c-1.6,0.1-4.1-0.7-5.4-1.7l-2.3-1.8
		c-1.3-1-3.6-1.3-5.1-0.7l-1.9,0.8c-1.5,0.6-3.3,2.4-3.8,3.9l-1.7,4.6c-0.6,1.5-1.7,2.9-2.6,3c-0.9,0.1-1.6,1.6-1.6,3.2l-0.1,88.6
		c0,1.7-1.4,3-3,2.9l-2,0c-1.6,0-3-1.4-3-3.1l-0.5-88.9c0-1.6-0.9-3-1.9-3.1c-1-0.1-2.1-1.4-2.4-3.1c0,0-2.2-13.5-12.6-13.5
		C13.8,15.4,2.9,24,2.9,24c-1.3,1-2.6,1.7-2.9,1.4c-0.3-0.3,0.3-1.6,1.2-2.9c0,0,2.5-3.5,10-9.5c4-3.3,9-6.5,14.8-8.8
		c4.8-1.9,12.7-2.8,12.7-2.8c1.6-0.2,4.3-0.1,6,0.1c0,0,4.9,0.7,8.1,2.1c5.2,2.2,7.6,5,8.7,5c1.1,0,4.3-2.9,4.3-2.9
		c1.2-1.1,3.6-2,5.2-2L73.2,3.8z"/>
</g>
<g>
	<linearGradient id="SVGID_7_" gradientUnits="userSpaceOnUse" x1="42.1041" y1="99.417" x2="42.1041" y2="181.5363">
		<stop  offset="0" style="stop-color:#CC7548"/>
		<stop  offset="1" style="stop-color:#C44E27"/>
	</linearGradient>
	<path fill="url(#SVGID_7_)" d="M51.6,179.8c-0.1,1.6-1.6,3-3.2,3H36.8c-1.6,0-3.1-1.3-3.3-3l-3.4-36.6c-0.2-1.6-0.2-4.3-0.1-6
		l2.6-35.9c0.1-1.6,1.6-3,3.2-3h12.5c1.6,0,3.1,1.3,3.2,3l2.6,36.2c0.1,1.6,0.1,4.3,0,6L51.6,179.8z"/>
</g>
<g>
</g>
<g>
</g>
<g>
</g>
<g>
</g>
<g>
</g>
<g>
</g>
<g>
</g>
<g>
</g>
<g>
</g>
<g>
</g>
<g>
</g>
<g>
</g>
<g>
</g>
<g>
</g>
<g>
</g>
</svg>
