<?xml version="1.0" encoding="utf-8"?>
<!-- Generator: Adobe Illustrator 19.1.0, SVG Export Plug-In . SVG Version: 6.00 Build 0)  -->
<!DOCTYPE svg PUBLIC "-//W3C//DTD SVG 1.1//EN" "http://www.w3.org/Graphics/SVG/1.1/DTD/svg11.dtd">
<svg version="1.1" id="Laag_1" xmlns="http://www.w3.org/2000/svg" xmlns:xlink="http://www.w3.org/1999/xlink" x="0px" y="0px"
	 width="292.3px" height="185.9px" viewBox="-333 188.1 292.3 185.9" style="enable-background:new -333 188.1 292.3 185.9;"
	 xml:space="preserve">
<style type="text/css">
	.st0{fill:#FFFFFF;}
	.st1{opacity:0.5;}
	.st2{opacity:0.2;fill:#FFFFFF;enable-background:new    ;}
	.st3{opacity:0.5;fill:#FFFFFF;enable-background:new    ;}
</style>
<g>
	<path class="st0" d="M-144,213.1c0-1.3-1.1-2.3-2.3-2.3h-5.3c-1.3,0-2.3,1-2.3,2.3v5.3c0,1.3,0.3,3.3,0.7,4.5l0.9,3
		c0.4,1.2,0.7,3.2,0.7,4.5v48.8c0,1.3,1,2.3,2.3,2.3h0.8c1.2,0,2.3-1,2.3-2.3v-48.8c0-1.2,0.3-3.3,0.7-4.5l0.9-3
		c0.4-1.2,0.7-3.2,0.7-4.5L-144,213.1L-144,213.1z"/>
</g>
<g class="st1">
	<path class="st0" d="M-210.3,220c-0.8,0-1.5,0.7-1.4,1.5l0.6,11c0.1,0.8,0.6,1.9,1.3,2.4l0.4,0.3c0.7,0.5,1.2,1.6,1.2,2.4v9
		c0,0.8,0.7,1.5,1.5,1.5h7c0.8,0,1.5-0.7,1.5-1.5v-9.3c0-0.8,0.5-1.8,1.1-2.2c0.6-0.4,1.2-1.4,1.3-2.2l1.2-11.2
		c0.1-0.8-0.5-1.5-1.4-1.5L-210.3,220z"/>
</g>
<g>
	<g>
		<path class="st0" d="M-183.2,247c-0.2-1.2-1.2-2.7-2.4-3.2l-9.1-4c-1.1-0.5-2.7-0.1-3.3,1c0,0-2,3-5,3c-2.9,0-4.9-2.7-4.9-2.7
			c-0.8-1-2.2-1.4-3.3-0.8l-9.4,4.6c-1.1,0.5-2.2,2-2.4,3.3l-4.8,39c-0.2,1.2,0.8,2.4,2,2.5l1.8,0.2c1.2,0.2,2.4-0.8,2.6-2l4.1-27.1
			c0.2-1.2,0.4-1.2,0.4,0l0.3,17.7c0,1.2,1.1,2.3,2.3,2.3h23.1c1.2,0,2.3-1,2.3-2.3l-0.3-19.4c0-1.2,0.1-1.3,0.3,0l4.4,29.7
			c0.2,1.2,1.3,2,2.6,1.7l1.7-0.4c1.2-0.3,2.1-1.6,2-2.8L-183.2,247z"/>
	</g>
	<g>
		<path class="st0" d="M-214.2,288.2c-1.3,0-2.3,1-2.2,2.3l1.1,58.3c0,1.2,1.1,2.4,2.4,2.4h5.8c1.3,0,2.4-1.1,2.4-2.4l2.3-44.1
			c0.1-1.2,0.2-1.3,0.3,0l3.9,43.5c0.1,1.2,1.2,2.2,2.5,2.2h5.8c1.2,0,2.3-1,2.2-2.3l-1.3-57.7c0-1.2-1.1-2.3-2.4-2.3L-214.2,288.2
			L-214.2,288.2z"/>
	</g>
</g>
<path class="st0" d="M-193.5,220.1c0-5.3-4.3-9.6-9.6-9.6c-5.3,0-9.6,4.3-9.6,9.6v0.1L-193.5,220.1
	C-193.5,220.2-193.5,220.2-193.5,220.1z"/>
<rect x="-214.1" y="220.2" class="st0" width="22.1" height="1.9"/>
<polygon class="st2" points="-194.7,224 -211.4,224 -211.7,222.2 -194.5,222.2 "/>
<g class="st1">
	<path class="st0" d="M-141.4,289.4c0.8,0,1.5-1,1.5-2.3v-3.4c0-1.3-0.8-2.3-2.1-2.3h-14c-1.3,0-2.1,1-2.1,2.3v3.4
		c0,1.3,0.4,2.3,1.1,2.3c0.8,0,1.1,1,1.1,2.3v2.7c0,1.3-0.4,2.3-1.1,2.3c-0.8,0-1.1,1-1.1,2.3v49.3c0,1.2,0.8,2.3,2.1,2.3h14
		c1.2,0,2.1-1.1,2.1-2.3v-49.3c0-1.3-0.8-2.3-1.5-2.3s-1.5-1-1.5-2.3v-2.7C-142.9,290.4-142.1,289.4-141.4,289.4z"/>
</g>
<g>
	<path class="st0" d="M-76,228.6c0-7.7-8.6-16.4-8.6-16.4c-0.9-0.9-1.6-0.6-1.5,0.7l0.2,8.9c0,1.2-0.8,2.8-1.9,3.5l-6.4,3.9
		c-1.1,0.7-2.8,0.7-3.9,0.2l-6.6-3.6c-1.1-0.6-2-2.1-2-3.3l-0.2-9.7c0-1.2-0.8-1.6-1.7-0.7c0,0-8.9,8.8-8.9,16.5
		c0,9.9,14.3,19.1,14.3,19.1c1.1,0.7,1.8,2.3,1.7,3.5l-5.8,85.6c-0.1,1.2-0.2,2.7-0.3,3.3c0,0,0,0,0,0.5c0,6.1,4.9,10.9,10.9,10.9
		c6,0,10.9-4.9,10.9-10.9c0-0.5,0-0.5,0-0.5c-0.1-0.5-0.2-1.9-0.2-3.1l-4.6-86.2c-0.1-1.2,0.7-2.9,1.7-3.6
		C-89,247.3-76,238.1-76,228.6z"/>
</g>
<g>
	<path class="st0" d="M-242.2,213.4c1.2,0,2.3,1.1,2.3,2.4v10.6c0,1.2-1.1,2.4-2.3,2.4l-1.8,0.1c-1.2,0.1-3.1-0.5-4.1-1.3l-1.7-1.4
		c-1-0.8-2.7-1-3.9-0.5l-1.4,0.6c-1.1,0.5-2.5,1.8-2.9,3l-1.3,3.5c-0.5,1.1-1.3,2.2-2,2.3s-1.2,1.2-1.2,2.4l-0.2,45.3
		c0,1.2-1.1,2.3-2.3,2.3h-1.4c-1.3,0-2.3-1-2.3-2.3L-269,237c0-1.2-0.7-2.3-1.4-2.4c-0.8-0.1-1.6-1.1-1.8-2.4c0,0-1.7-10.2-9.6-10.2
		c-5.5,0.2-13.7,6.7-13.7,6.7c-1,0.8-2,1.3-2.2,1.1c-0.2-0.2,0.2-1.2,0.9-2.2c0,0,1.9-2.7,7.6-7.2c3-2.5,6.8-4.9,11.2-6.7
		c3.6-1.4,9.6-2.1,9.6-2.1c1.2-0.2,3.3-0.1,4.6,0.1c0,0,3.7,0.5,6.1,1.6c3.9,1.7,5.8,3.8,6.6,3.8c0.8,0,3.3-2.2,3.3-2.2
		c0.9-0.8,2.7-1.5,3.9-1.5L-242.2,213.4z"/>
</g>
<g class="st1">
	<path class="st0" d="M-258.6,346.9c-0.1,1.2-1.2,2.3-2.4,2.3h-8.8c-1.3,0-2.4-1-2.5-2.3l-2.6-27.8c-0.2-1.2-0.2-3.3-0.1-4.6l2-27.2
		c0.1-1.2,1.2-2.3,2.4-2.3h9.5c1.2,0,2.4,1,2.4,2.3l2,27.5c0.1,1.2,0.1,3.3,0,4.6L-258.6,346.9z"/>
</g>
<polygon class="st3" points="-217.2,280.6 -217.2,286.7 -216.5,286.7 -216.5,288.2 -189.2,288.2 -189.2,286.7 -187.7,286.7 
	-187.7,280.6 "/>
</svg>
