<?xml version="1.0" encoding="utf-8"?>
<!-- Generator: Adobe Illustrator 19.1.0, SVG Export Plug-In . SVG Version: 6.00 Build 0)  -->
<!DOCTYPE svg PUBLIC "-//W3C//DTD SVG 1.1//EN" "http://www.w3.org/Graphics/SVG/1.1/DTD/svg11.dtd">
<svg version="1.1"
	 id="svg3290" inkscape:export-ydpi="52.737835" inkscape:version="0.48.3.1 r9886" inkscape:export-xdpi="52.737835" sodipodi:docname="OSI_logo_by_USP.svg" inkscape:export-filename="/home/rafael/workspace/logo-osi/5/png/logo396x412.png" xmlns:svg="http://www.w3.org/2000/svg" xmlns:rdf="http://www.w3.org/1999/02/22-rdf-syntax-ns#" xmlns:cc="http://creativecommons.org/ns#" xmlns:inkscape="http://www.inkscape.org/namespaces/inkscape" xmlns:sodipodi="http://sodipodi.sourceforge.net/DTD/sodipodi-0.dtd" xmlns:dc="http://purl.org/dc/elements/1.1/"
	 xmlns="http://www.w3.org/2000/svg" xmlns:xlink="http://www.w3.org/1999/xlink" x="0px" y="0px" width="420px" height="420px"
	 viewBox="-12.8 257.6 420 420" style="enable-background:new -12.8 257.6 420 420;" xml:space="preserve">
<style type="text/css">
	.st0{fill:#3FA652;}
	.st1{fill:#FFFFFF;}
	.st2{enable-background:new    ;}
</style>
<sodipodi:namedview  inkscape:document-units="px" inkscape:window-height="744" inkscape:window-maximized="1" inkscape:current-layer="g3879" inkscape:window-x="0" inkscape:pageshadow="2" inkscape:pageopacity="0.0" inkscape:window-width="1366" inkscape:window-y="24" inkscape:guide-bbox="true" pagecolor="#ffffff" showguides="true" showgrid="false" id="base" bordercolor="#666666" inkscape:cy="404.85445" borderopacity="1.0" inkscape:zoom="0.49497475" inkscape:cx="557.86446">
	<sodipodi:guide  position="389.91888,215.16249" id="guide3004" orientation="1,0"></sodipodi:guide>
</sodipodi:namedview>
<path inkscape:export-ydpi="48.18" inkscape:export-xdpi="48.18" inkscape:export-filename="/home/rafael/workspace/logo-osi/3/png/logo396x412.png" inkscape:connector-curvature="0" class="st0" d="
	M212.7,461.5c19.8-7.6,29.7-29.8,22.1-49.6c-7.6-19.8-29.8-29.7-49.6-22.1c-19.8,7.6-29.7,29.8-22.1,49.6
	c3.9,10.2,11.9,18.2,22.1,22.1l-25.9,67.4c-57-21.9-85.5-85.8-63.6-142.8s85.8-85.5,142.8-63.6c57,21.9,85.5,85.8,63.6,142.8
	c-11.2,29.3-34.3,52.4-63.6,63.6L212.7,461.5z"/>
<path class="st1" d="M238.5,530.3c-0.2,0-0.4,0-0.6-0.1c-0.4-0.2-0.6-0.4-0.8-0.8L211.3,462c-0.3-0.8,0.1-1.6,0.8-1.9
	c9.2-3.5,16.5-10.4,20.5-19.5c4-9,4.3-19,0.7-28.3c-7.3-19-28.7-28.5-47.7-21.2c-19,7.3-28.5,28.7-21.2,47.7
	c3.7,9.8,11.5,17.5,21.2,21.2c0.8,0.3,1.1,1.1,0.8,1.9l-25.9,67.4c-0.1,0.4-0.4,0.7-0.8,0.8c-0.4,0.2-0.8,0.2-1.1,0
	c-27.9-10.7-50-31.7-62.2-59c-12.2-27.3-13-57.8-2.2-85.7c10.7-27.9,31.7-50,59-62.2c27.3-12.2,57.8-13,85.7-2.2
	c27.9,10.7,50,31.7,62.2,59c12.2,27.3,13,57.8,2.2,85.7c-11.4,29.6-34.8,53.1-64.4,64.4C238.9,530.3,238.7,530.3,238.5,530.3z
	 M198.9,316.5c-15.1,0-30.1,3.2-44.3,9.5c-26.6,11.9-47,33.4-57.5,60.6c-10.4,27.2-9.7,56.8,2.2,83.5c11.7,26.2,32.6,46.3,59.2,56.9
	l24.8-64.7c-9.9-4.2-17.7-12.3-21.6-22.4c-7.9-20.5,2.4-43.6,22.9-51.5c20.5-7.9,43.6,2.4,51.5,22.9c3.8,9.9,3.5,20.8-0.8,30.5
	c-4.1,9.3-11.5,16.5-20.8,20.4l24.8,64.7c28.2-11.3,50.5-33.9,61.4-62.2c10.4-27.2,9.7-56.8-2.2-83.5c-11.9-26.6-33.4-47-60.6-57.5
	C225.3,318.9,212.1,316.5,198.9,316.5z"/>
<g class="st2">
	<path class="st1" d="M83,562.2c0,3.9-1,6.9-2.9,9.1c-1.9,2.2-4.6,3.3-7.9,3.3c-2.1,0-3.9-0.5-5.5-1.5c-1.6-1-2.9-2.4-3.7-4.3
		c-0.9-1.9-1.3-4-1.3-6.5c0-3.9,0.9-6.9,2.8-9c1.9-2.2,4.5-3.2,7.9-3.2c3.3,0,5.8,1.1,7.8,3.3C82.1,555.5,83,558.4,83,562.2z
		 M65.3,562.2c0,3,0.6,5.3,1.8,6.9c1.2,1.6,2.9,2.4,5.2,2.4c2.3,0,4.1-0.8,5.3-2.4c1.2-1.6,1.8-3.9,1.8-6.9c0-3-0.6-5.3-1.8-6.9
		c-1.2-1.6-3-2.3-5.3-2.3c-2.3,0-4.1,0.8-5.2,2.3C65.9,556.9,65.3,559.2,65.3,562.2z"/>
	<path class="st1" d="M100,574.5c-1.5,0-2.9-0.3-4.2-0.9s-2.3-1.4-3.2-2.6h-0.3c0.2,1.4,0.3,2.7,0.3,3.9v9.8h-3.5v-34.4h2.9l0.5,3.2
		h0.2c0.9-1.3,2-2.2,3.2-2.8c1.2-0.6,2.6-0.9,4.1-0.9c3.1,0,5.5,1.1,7.1,3.2c1.7,2.2,2.5,5.2,2.5,9.1c0,3.9-0.9,6.9-2.6,9.1
		C105.4,573.5,103.1,574.5,100,574.5z M99.5,553c-2.4,0-4.1,0.7-5.2,2c-1.1,1.3-1.6,3.5-1.6,6.4v0.8c0,3.3,0.5,5.7,1.6,7.2
		c1.1,1.4,2.8,2.2,5.2,2.2c2,0,3.6-0.8,4.7-2.5c1.1-1.7,1.7-3.9,1.7-6.9c0-3-0.6-5.2-1.7-6.8C103.2,553.8,101.6,553,99.5,553z"/>
	<path class="st1" d="M125.7,574.5c-3.4,0-6.2-1.1-8.1-3.2c-2-2.1-3-5.1-3-8.9c0-3.8,0.9-6.9,2.8-9.1c1.8-2.3,4.3-3.4,7.4-3.4
		c2.9,0,5.2,1,6.9,2.9c1.7,2,2.5,4.5,2.5,7.7v2.3h-16c0.1,2.8,0.8,4.9,2.1,6.3c1.3,1.4,3.2,2.2,5.5,2.2c2.5,0,5-0.5,7.4-1.6v3.2
		c-1.2,0.5-2.4,0.9-3.5,1.2C128.6,574.4,127.3,574.5,125.7,574.5z M124.7,552.9c-1.9,0-3.4,0.6-4.5,1.9c-1.1,1.2-1.8,3-2,5.2h12.2
		c0-2.3-0.5-4-1.5-5.2C128,553.6,126.6,552.9,124.7,552.9z"/>
	<path class="st1" d="M156.2,574.1v-15.4c0-1.9-0.4-3.4-1.3-4.3c-0.9-1-2.2-1.4-4.1-1.4c-2.4,0-4.2,0.7-5.4,2
		c-1.1,1.3-1.7,3.6-1.7,6.6v12.5h-3.5v-23.7h2.9l0.6,3.2h0.2c0.7-1.2,1.7-2.1,3-2.7c1.3-0.6,2.8-1,4.4-1c2.8,0,4.9,0.7,6.3,2.1
		c1.4,1.4,2.1,3.6,2.1,6.6v15.5H156.2z"/>
</g>
<g class="st2">
	<path class="st1" d="M205.2,566.8c0,2.2-0.8,3.9-2.4,5.1c-1.6,1.2-3.9,1.8-6.8,1.8c-3.1,0-5.5-0.5-7.2-1.5v-3.3
		c1.1,0.6,2.3,1,3.6,1.4c1.3,0.3,2.5,0.5,3.7,0.5c1.8,0,3.3-0.3,4.2-0.9c1-0.6,1.5-1.5,1.5-2.7c0-0.9-0.4-1.7-1.2-2.4
		c-0.8-0.7-2.3-1.4-4.6-2.3c-2.2-0.8-3.7-1.5-4.6-2.2c-0.9-0.6-1.6-1.3-2-2.1c-0.4-0.8-0.7-1.7-0.7-2.8c0-1.9,0.8-3.5,2.3-4.6
		c1.5-1.1,3.7-1.7,6.4-1.7c2.5,0,5,0.5,7.3,1.6l-1.3,2.9c-2.3-1-4.5-1.5-6.4-1.5c-1.7,0-2.9,0.3-3.8,0.8c-0.8,0.5-1.3,1.3-1.3,2.2
		c0,0.6,0.2,1.2,0.5,1.6c0.3,0.4,0.8,0.9,1.5,1.3c0.7,0.4,2.1,1,4.1,1.8c2.8,1,4.6,2.1,5.6,3.1C204.7,564,205.2,565.3,205.2,566.8z"
		/>
	<path class="st1" d="M231,561.4c0,3.9-1,6.9-2.9,9.1c-1.9,2.2-4.6,3.3-7.9,3.3c-2.1,0-3.9-0.5-5.5-1.5c-1.6-1-2.9-2.4-3.7-4.3
		c-0.9-1.9-1.3-4-1.3-6.5c0-3.9,0.9-6.9,2.8-9c1.9-2.2,4.5-3.2,7.9-3.2c3.3,0,5.8,1.1,7.8,3.3C230.1,554.7,231,557.7,231,561.4z
		 M213.3,561.4c0,3,0.6,5.3,1.8,6.9c1.2,1.6,2.9,2.4,5.2,2.4c2.3,0,4.1-0.8,5.3-2.4c1.2-1.6,1.8-3.9,1.8-6.9c0-3-0.6-5.3-1.8-6.9
		c-1.2-1.6-3-2.3-5.3-2.3c-2.3,0-4.1,0.8-5.2,2.3C213.9,556.1,213.3,558.4,213.3,561.4z"/>
	<path class="st1" d="M240.5,549.6V565c0,1.9,0.4,3.4,1.3,4.3c0.9,1,2.2,1.4,4.1,1.4c2.4,0,4.2-0.7,5.3-2c1.1-1.4,1.7-3.6,1.7-6.6
		v-12.5h3.5v23.7h-2.9l-0.5-3.2h-0.2c-0.7,1.2-1.7,2.1-3,2.7c-1.3,0.6-2.7,0.9-4.4,0.9c-2.8,0-5-0.7-6.4-2.1
		c-1.4-1.4-2.1-3.6-2.1-6.6v-15.5H240.5z"/>
	<path class="st1" d="M274.5,549.1c1,0,2,0.1,2.8,0.3l-0.5,3.3c-1-0.2-1.8-0.3-2.5-0.3c-1.9,0-3.5,0.8-4.8,2.3c-1.3,1.6-2,3.5-2,5.8
		v12.7h-3.5v-23.7h2.9l0.4,4.4h0.2c0.9-1.5,1.9-2.7,3.1-3.6C271.7,549.6,273.1,549.1,274.5,549.1z"/>
	<path class="st1" d="M291,573.7c-3.4,0-6-1.1-7.8-3.2c-1.8-2.1-2.8-5.1-2.8-9c0-4,0.9-7,2.8-9.2c1.9-2.2,4.5-3.2,8-3.2
		c1.1,0,2.2,0.1,3.4,0.4c1.1,0.2,2,0.5,2.6,0.9l-1.1,3.1c-0.8-0.3-1.6-0.6-2.5-0.8c-0.9-0.2-1.7-0.3-2.4-0.3c-4.7,0-7.1,3.1-7.1,9.2
		c0,2.9,0.6,5.2,1.7,6.7c1.2,1.6,2.9,2.3,5.1,2.3c1.9,0,3.9-0.4,6-1.3v3.2C295.3,573.3,293.3,573.7,291,573.7z"/>
	<path class="st1" d="M312.2,573.7c-3.4,0-6.2-1.1-8.1-3.2s-3-5.1-3-8.9c0-3.8,0.9-6.9,2.8-9.1c1.8-2.3,4.3-3.4,7.4-3.4
		c2.9,0,5.2,1,6.9,2.9c1.7,2,2.5,4.5,2.5,7.7v2.3h-16c0.1,2.8,0.8,4.9,2.1,6.3c1.3,1.4,3.2,2.2,5.5,2.2c2.5,0,5-0.5,7.4-1.6v3.2
		c-1.2,0.5-2.4,0.9-3.5,1.2C315.1,573.6,313.8,573.7,312.2,573.7z M311.2,552.2c-1.9,0-3.4,0.6-4.5,1.9c-1.1,1.2-1.8,3-2,5.2H317
		c0-2.3-0.5-4-1.5-5.2C314.5,552.8,313.1,552.2,311.2,552.2z"/>
</g>
<g class="st2">
	<path class="st1" d="M105,587.4c0-0.8,0.2-1.4,0.6-1.8c0.4-0.4,0.9-0.6,1.5-0.6c0.6,0,1.1,0.2,1.5,0.6c0.4,0.4,0.6,1,0.6,1.8
		c0,0.8-0.2,1.4-0.6,1.8c-0.4,0.4-0.9,0.6-1.5,0.6c-0.6,0-1.1-0.2-1.5-0.6C105.2,588.8,105,588.2,105,587.4z M108.9,617.6h-3.5
		v-23.7h3.5V617.6z"/>
	<path class="st1" d="M132.3,617.6v-15.4c0-1.9-0.4-3.4-1.3-4.3c-0.9-1-2.2-1.4-4.1-1.4c-2.4,0-4.2,0.7-5.4,2
		c-1.1,1.3-1.7,3.6-1.7,6.6v12.5h-3.5v-23.7h2.9l0.6,3.2h0.2c0.7-1.2,1.7-2.1,3-2.7c1.3-0.6,2.8-1,4.4-1c2.8,0,4.9,0.7,6.3,2.1
		c1.4,1.4,2.1,3.6,2.1,6.6v15.5H132.3z"/>
	<path class="st1" d="M142.7,587.4c0-0.8,0.2-1.4,0.6-1.8c0.4-0.4,0.9-0.6,1.5-0.6c0.6,0,1.1,0.2,1.5,0.6c0.4,0.4,0.6,1,0.6,1.8
		c0,0.8-0.2,1.4-0.6,1.8c-0.4,0.4-0.9,0.6-1.5,0.6c-0.6,0-1.1-0.2-1.5-0.6C142.9,588.8,142.7,588.2,142.7,587.4z M146.6,617.6H143
		v-23.7h3.5V617.6z"/>
	<path class="st1" d="M161.6,615.1c0.6,0,1.2,0,1.8-0.1c0.6-0.1,1-0.2,1.4-0.3v2.8c-0.4,0.2-0.9,0.3-1.7,0.5c-0.7,0.1-1.4,0.2-2,0.2
		c-4.5,0-6.8-2.4-6.8-7.3v-14.1H151v-1.7l3.3-1.5l1.5-5.1h2v5.5h6.8v2.8h-6.8v14c0,1.4,0.3,2.5,1,3.3
		C159.5,614.7,160.4,615.1,161.6,615.1z"/>
	<path class="st1" d="M169.1,587.4c0-0.8,0.2-1.4,0.6-1.8c0.4-0.4,0.9-0.6,1.5-0.6c0.6,0,1.1,0.2,1.5,0.6c0.4,0.4,0.6,1,0.6,1.8
		c0,0.8-0.2,1.4-0.6,1.8c-0.4,0.4-0.9,0.6-1.5,0.6c-0.6,0-1.1-0.2-1.5-0.6C169.3,588.8,169.1,588.2,169.1,587.4z M172.9,617.6h-3.5
		v-23.7h3.5V617.6z"/>
	<path class="st1" d="M194.7,617.6l-0.7-3.4h-0.2c-1.2,1.5-2.3,2.5-3.5,3c-1.2,0.5-2.6,0.8-4.3,0.8c-2.3,0-4.1-0.6-5.4-1.8
		c-1.3-1.2-2-2.9-2-5.2c0-4.8,3.8-7.3,11.3-7.5l4-0.1v-1.5c0-1.9-0.4-3.2-1.2-4.1s-2-1.3-3.8-1.3c-1.9,0-4.1,0.6-6.6,1.8l-1.1-2.7
		c1.1-0.6,2.4-1.1,3.8-1.5c1.4-0.4,2.7-0.5,4.1-0.5c2.8,0,4.8,0.6,6.2,1.9c1.3,1.3,2,3.3,2,6v16.2H194.7z M186.8,615.1
		c2.2,0,3.9-0.6,5.2-1.8c1.3-1.2,1.9-2.9,1.9-5.2v-2.1l-3.5,0.2c-2.8,0.1-4.8,0.5-6.1,1.3c-1.2,0.8-1.9,2-1.9,3.7
		c0,1.3,0.4,2.3,1.2,3C184.3,614.7,185.4,615.1,186.8,615.1z"/>
	<path class="st1" d="M212.1,615.1c0.6,0,1.2,0,1.8-0.1c0.6-0.1,1-0.2,1.4-0.3v2.8c-0.4,0.2-0.9,0.3-1.7,0.5c-0.7,0.1-1.4,0.2-2,0.2
		c-4.5,0-6.8-2.4-6.8-7.3v-14.1h-3.3v-1.7l3.3-1.5l1.5-5.1h2v5.5h6.8v2.8h-6.8v14c0,1.4,0.3,2.5,1,3.3
		C210,614.7,211,615.1,212.1,615.1z"/>
	<path class="st1" d="M219.7,587.4c0-0.8,0.2-1.4,0.6-1.8c0.4-0.4,0.9-0.6,1.5-0.6c0.6,0,1.1,0.2,1.5,0.6c0.4,0.4,0.6,1,0.6,1.8
		c0,0.8-0.2,1.4-0.6,1.8c-0.4,0.4-0.9,0.6-1.5,0.6c-0.6,0-1.1-0.2-1.5-0.6C219.9,588.8,219.7,588.2,219.7,587.4z M223.5,617.6h-3.5
		v-23.7h3.5V617.6z"/>
	<path class="st1" d="M236.1,617.6l-8.8-23.7h3.8l5,14.1c1.1,3.3,1.8,5.4,2,6.4h0.2c0.2-0.8,0.6-2.3,1.5-4.8
		c0.8-2.4,2.7-7.6,5.6-15.7h3.8l-8.8,23.7H236.1z"/>
	<path class="st1" d="M262.6,618c-3.4,0-6.2-1.1-8.1-3.2c-2-2.1-3-5.1-3-8.9c0-3.8,0.9-6.9,2.8-9.1c1.8-2.3,4.3-3.4,7.4-3.4
		c2.9,0,5.2,1,6.9,2.9c1.7,2,2.5,4.5,2.5,7.7v2.3h-16c0.1,2.8,0.8,4.9,2.1,6.3c1.3,1.4,3.2,2.2,5.5,2.2c2.5,0,5-0.5,7.4-1.6v3.2
		c-1.2,0.5-2.4,0.9-3.5,1.2C265.5,617.9,264.2,618,262.6,618z M261.6,596.4c-1.9,0-3.4,0.6-4.5,1.9c-1.1,1.2-1.8,3-2,5.2h12.2
		c0-2.3-0.5-4-1.5-5.2C264.9,597,263.5,596.4,261.6,596.4z"/>
</g>
<g id="g3797" transform="translate(-21.225811,-1.0146812)" inkscape:export-ydpi="48.18" inkscape:export-xdpi="48.18" inkscape:export-filename="/home/rafael/workspace/logo-osi/3/png/logo396x412.png">
	<g id="path3015">
		<path class="st1" d="M322.9,536c-6.2,0-11.3-5.1-11.3-11.3c0-6.2,5.1-11.3,11.3-11.3c6.2,0,11.3,5.1,11.3,11.3
			C334.2,530.9,329.1,536,322.9,536z M322.9,516.1c-4.8,0-8.7,3.9-8.7,8.7c0,4.8,3.9,8.7,8.7,8.7c4.8,0,8.7-3.9,8.7-8.7
			C331.6,519.9,327.7,516.1,322.9,516.1z"/>
	</g>
	<g class="st2">
		<path class="st1" d="M320.8,525.6v4.3h-2.4v-11.3h3.3c1.5,0,2.7,0.3,3.4,0.8c0.7,0.6,1.1,1.4,1.1,2.5c0,0.7-0.2,1.3-0.5,1.8
			c-0.4,0.5-0.9,0.9-1.6,1.2c1.7,2.5,2.8,4.2,3.3,4.9h-2.7l-2.7-4.3H320.8z M320.8,523.6h0.8c0.8,0,1.3-0.1,1.7-0.4
			c0.4-0.3,0.5-0.6,0.5-1.2c0-0.5-0.2-0.9-0.6-1.1c-0.4-0.2-0.9-0.3-1.7-0.3h-0.7V523.6z"/>
	</g>
</g>
</svg>
