<?xml version="1.0" encoding="utf-8"?>
<!-- Generator: Adobe Illustrator 18.0.0, SVG Export Plug-In . SVG Version: 6.00 Build 0)  -->
<!DOCTYPE svg PUBLIC "-//W3C//DTD SVG 1.1//EN" "http://www.w3.org/Graphics/SVG/1.1/DTD/svg11.dtd">
<svg version="1.1"
	 id="svg3290" xmlns:cc="http://creativecommons.org/ns#" xmlns:sodipodi="http://sodipodi.sourceforge.net/DTD/sodipodi-0.dtd" xmlns:svg="http://www.w3.org/2000/svg" xmlns:inkscape="http://www.inkscape.org/namespaces/inkscape" xmlns:dc="http://purl.org/dc/elements/1.1/" xmlns:rdf="http://www.w3.org/1999/02/22-rdf-syntax-ns#" inkscape:export-xdpi="52.737835" inkscape:export-ydpi="52.737835" inkscape:export-filename="/home/rafael/workspace/logo-osi/5/png/logo396x412.png" sodipodi:docname="OSI_logo_by_USP.svg" inkscape:version="0.48.3.1 r9886"
	 xmlns="http://www.w3.org/2000/svg" xmlns:xlink="http://www.w3.org/1999/xlink" x="0px" y="0px" width="300px" height="352px"
	 viewBox="35.2 116 300 352" enable-background="new 35.2 116 300 352" xml:space="preserve">
<sodipodi:namedview  inkscape:cx="557.86446" inkscape:cy="404.85445" id="base" inkscape:zoom="0.49497475" borderopacity="1.0" bordercolor="#666666" showgrid="false" pagecolor="#ffffff" showguides="true" inkscape:window-width="1366" inkscape:window-height="744" inkscape:window-x="0" inkscape:current-layer="g3879" inkscape:pageshadow="2" inkscape:window-maximized="1" inkscape:guide-bbox="true" inkscape:document-units="px" inkscape:pageopacity="0.0" inkscape:window-y="24">
	<sodipodi:guide  position="389.91888,215.16249" id="guide3004" orientation="1,0"></sodipodi:guide>
</sodipodi:namedview>
<g id="path3773">
	<path fill="#FFFFFF" d="M231,356c-0.2,0-0.4,0-0.6-0.1c-0.4-0.2-0.6-0.4-0.8-0.8l-25.9-67.6c-0.3-0.8,0.1-1.6,0.8-1.9
		c9.2-3.5,16.5-10.5,20.6-19.5s4.3-19.1,0.7-28.3c-2.7-7.1-7.5-13.2-13.8-17.4c-6.2-4.2-13.3-6.4-20.8-6.4c-4.5,0-9,0.8-13.3,2.5
		c-19.1,7.3-28.6,28.8-21.3,47.9c3.8,9.8,11.5,17.5,21.3,21.3c0.8,0.3,1.1,1.1,0.8,1.9l-25.9,67.6c-0.1,0.4-0.4,0.7-0.8,0.8
		c-0.4,0.2-0.8,0.2-1.1,0c-28-10.8-50.2-31.8-62.4-59.2c-12.2-27.4-13-57.9-2.3-86c8.3-21.6,22.8-39.9,42-52.8
		c18.7-12.6,40.5-19.3,63-19.3c13.7,0,27.3,2.5,40.2,7.5c28,10.8,50.2,31.8,62.4,59.2c12.2,27.4,13,57.9,2.3,86
		c-11.4,29.7-34.9,53.2-64.6,64.6C231.4,356,231.2,356,231,356z M191.3,141.6c-21.9,0-43.1,6.5-61.3,18.8
		c-18.6,12.6-32.8,30.4-40.9,51.4c-10.5,27.3-9.7,57,2.2,83.7c11.7,26.3,32.7,46.5,59.4,57.1l24.9-64.9
		c-9.9-4.2-17.8-12.3-21.6-22.4c-7.9-20.6,2.4-43.7,23-51.6c4.6-1.8,9.4-2.7,14.3-2.7c8,0,15.7,2.4,22.4,6.9
		c6.8,4.6,12,11.1,14.9,18.8c3.8,10,3.5,20.8-0.8,30.6c-4.1,9.3-11.5,16.5-20.8,20.5l24.9,64.9c28.3-11.3,50.7-34,61.6-62.4
		c10.5-27.3,9.7-57-2.2-83.7s-33.5-47.2-60.8-57.6C217.9,144,204.7,141.6,191.3,141.6z"/>
</g>
<g enable-background="new    ">
	<path fill="#FFFFFF" d="M75.1,388c0,3.9-1,6.9-2.9,9.1c-1.9,2.2-4.6,3.3-7.9,3.3c-2.1,0-3.9-0.5-5.6-1.5c-1.6-1-2.9-2.4-3.7-4.3
		c-0.9-1.9-1.3-4.1-1.3-6.6c0-3.9,1-6.9,2.9-9.1c1.9-2.2,4.5-3.2,7.9-3.2c3.3,0,5.9,1.1,7.8,3.3C74.1,381.2,75.1,384.2,75.1,388z
		 M57.3,388c0,3,0.6,5.4,1.8,6.9c1.2,1.6,2.9,2.4,5.3,2.4c2.3,0,4.1-0.8,5.3-2.4c1.2-1.6,1.8-3.9,1.8-7c0-3-0.6-5.3-1.8-6.9
		c-1.2-1.6-3-2.4-5.3-2.4c-2.3,0-4.1,0.8-5.2,2.3C57.9,382.6,57.3,384.9,57.3,388z"/>
	<path fill="#FFFFFF" d="M92.1,400.3c-1.5,0-2.9-0.3-4.2-0.9c-1.3-0.6-2.3-1.5-3.2-2.6h-0.3c0.2,1.4,0.3,2.7,0.3,4v9.8h-3.5v-34.5
		h2.9l0.5,3.3h0.2c0.9-1.3,2-2.2,3.2-2.8c1.2-0.6,2.6-0.9,4.2-0.9c3.1,0,5.5,1.1,7.2,3.2c1.7,2.2,2.5,5.2,2.5,9.1
		c0,3.9-0.9,6.9-2.6,9.1C97.6,399.3,95.2,400.3,92.1,400.3z M91.6,378.7c-2.4,0-4.1,0.7-5.2,2c-1.1,1.3-1.6,3.5-1.6,6.4v0.8
		c0,3.3,0.5,5.7,1.6,7.2c1.1,1.4,2.8,2.2,5.3,2.2c2,0,3.6-0.8,4.7-2.5c1.1-1.7,1.7-4,1.7-6.9c0-3-0.6-5.2-1.7-6.8
		C95.3,379.5,93.7,378.7,91.6,378.7z"/>
	<path fill="#FFFFFF" d="M117.9,400.3c-3.5,0-6.2-1.1-8.2-3.2c-2-2.1-3-5.1-3-8.9c0-3.8,0.9-6.9,2.8-9.1c1.9-2.3,4.3-3.4,7.5-3.4
		c2.9,0,5.2,1,6.9,2.9c1.7,2,2.6,4.6,2.6,7.8v2.3h-16.1c0.1,2.8,0.8,4.9,2.1,6.4c1.3,1.4,3.2,2.2,5.5,2.2c2.5,0,5-0.5,7.5-1.6v3.2
		c-1.2,0.6-2.4,0.9-3.5,1.2C120.8,400.2,119.5,400.3,117.9,400.3z M116.9,378.7c-1.9,0-3.4,0.6-4.5,1.9c-1.1,1.2-1.8,3-2,5.2h12.2
		c0-2.3-0.5-4-1.5-5.2C120.2,379.3,118.8,378.7,116.9,378.7z"/>
	<path fill="#FFFFFF" d="M148.5,399.9v-15.4c0-1.9-0.4-3.4-1.3-4.3c-0.9-1-2.2-1.4-4.1-1.4c-2.4,0-4.2,0.7-5.4,2
		c-1.1,1.3-1.7,3.6-1.7,6.7v12.5h-3.5v-23.8h2.9l0.6,3.3h0.2c0.7-1.2,1.7-2.1,3-2.7c1.3-0.6,2.8-1,4.4-1c2.8,0,4.9,0.7,6.3,2.1
		c1.4,1.4,2.1,3.6,2.1,6.6v15.5H148.5z"/>
</g>
<g enable-background="new    ">
	<path fill="#FFFFFF" d="M197.6,392.6c0,2.2-0.8,3.9-2.4,5.1c-1.6,1.2-3.9,1.8-6.8,1.8c-3.1,0-5.5-0.5-7.2-1.5v-3.3
		c1.1,0.6,2.3,1,3.6,1.4c1.3,0.3,2.5,0.5,3.7,0.5c1.8,0,3.3-0.3,4.3-0.9c1-0.6,1.5-1.5,1.5-2.7c0-0.9-0.4-1.7-1.2-2.4
		c-0.8-0.7-2.3-1.4-4.6-2.3c-2.2-0.8-3.7-1.5-4.6-2.2c-0.9-0.6-1.6-1.3-2-2.1c-0.4-0.8-0.7-1.7-0.7-2.8c0-1.9,0.8-3.5,2.3-4.6
		c1.5-1.1,3.7-1.7,6.4-1.7c2.5,0,5,0.5,7.4,1.6l-1.3,2.9c-2.3-1-4.5-1.5-6.4-1.5c-1.7,0-2.9,0.3-3.8,0.8c-0.9,0.5-1.3,1.3-1.3,2.2
		c0,0.6,0.2,1.2,0.5,1.6c0.3,0.4,0.8,0.9,1.5,1.3c0.7,0.4,2.1,1,4.1,1.8c2.8,1,4.6,2.1,5.6,3.1C197.1,389.7,197.6,391,197.6,392.6z"
		/>
	<path fill="#FFFFFF" d="M223.5,387.2c0,3.9-1,6.9-2.9,9.1c-1.9,2.2-4.6,3.3-7.9,3.3c-2.1,0-3.9-0.5-5.6-1.5c-1.6-1-2.9-2.4-3.7-4.3
		c-0.9-1.9-1.3-4.1-1.3-6.6c0-3.9,1-6.9,2.9-9.1c1.9-2.2,4.5-3.2,7.9-3.2c3.3,0,5.9,1.1,7.8,3.3
		C222.5,380.4,223.5,383.4,223.5,387.2z M205.7,387.2c0,3,0.6,5.4,1.8,6.9c1.2,1.6,2.9,2.4,5.3,2.4c2.3,0,4.1-0.8,5.3-2.4
		c1.2-1.6,1.8-3.9,1.8-7c0-3-0.6-5.3-1.8-6.9c-1.2-1.6-3-2.4-5.3-2.4c-2.3,0-4.1,0.8-5.2,2.3C206.3,381.8,205.7,384.1,205.7,387.2z"
		/>
	<path fill="#FFFFFF" d="M233,375.3v15.4c0,1.9,0.4,3.4,1.3,4.3c0.9,1,2.2,1.4,4.1,1.4c2.4,0,4.2-0.7,5.4-2c1.1-1.4,1.7-3.6,1.7-6.7
		v-12.5h3.5v23.8h-2.9l-0.5-3.2h-0.2c-0.7,1.2-1.7,2.1-3,2.7c-1.3,0.6-2.8,0.9-4.4,0.9c-2.8,0-5-0.7-6.4-2.1
		c-1.4-1.4-2.1-3.6-2.1-6.6v-15.6H233z"/>
	<path fill="#FFFFFF" d="M267.1,374.9c1,0,2,0.1,2.8,0.3l-0.5,3.3c-1-0.2-1.8-0.3-2.6-0.3c-1.9,0-3.5,0.8-4.8,2.3
		c-1.3,1.6-2,3.5-2,5.8v12.8h-3.5v-23.8h2.9l0.4,4.4h0.2c0.9-1.5,1.9-2.7,3.1-3.6C264.3,375.3,265.7,374.9,267.1,374.9z"/>
	<path fill="#FFFFFF" d="M283.6,399.6c-3.4,0-6-1.1-7.9-3.2c-1.9-2.1-2.8-5.1-2.8-9c0-4,0.9-7.1,2.8-9.2c1.9-2.2,4.6-3.3,8-3.3
		c1.1,0,2.2,0.1,3.4,0.4c1.1,0.2,2,0.5,2.6,0.9l-1.1,3.1c-0.8-0.3-1.6-0.6-2.6-0.8c-0.9-0.2-1.7-0.3-2.4-0.3c-4.7,0-7.1,3.1-7.1,9.3
		c0,2.9,0.6,5.2,1.7,6.7c1.2,1.6,2.9,2.3,5.1,2.3c1.9,0,3.9-0.4,6-1.3v3.2C288,399.1,286,399.6,283.6,399.6z"/>
	<path fill="#FFFFFF" d="M304.9,399.6c-3.5,0-6.2-1.1-8.2-3.2c-2-2.1-3-5.1-3-8.9c0-3.8,0.9-6.9,2.8-9.1s4.3-3.4,7.5-3.4
		c2.9,0,5.2,1,6.9,2.9c1.7,2,2.6,4.6,2.6,7.8v2.3h-16.1c0.1,2.8,0.8,4.9,2.1,6.4c1.3,1.4,3.2,2.2,5.5,2.2c2.5,0,5-0.5,7.5-1.6v3.2
		c-1.3,0.6-2.4,0.9-3.5,1.2C307.9,399.4,306.5,399.6,304.9,399.6z M304,377.9c-1.9,0-3.4,0.6-4.5,1.9c-1.1,1.2-1.8,3-2,5.2h12.2
		c0-2.3-0.5-4-1.5-5.2C307.2,378.5,305.8,377.9,304,377.9z"/>
</g>
<g enable-background="new    ">
	<path fill="#FFFFFF" d="M97.2,413.3c0-0.8,0.2-1.4,0.6-1.8c0.4-0.4,0.9-0.6,1.5-0.6c0.6,0,1.1,0.2,1.5,0.6c0.4,0.4,0.6,1,0.6,1.8
		c0,0.8-0.2,1.4-0.6,1.8c-0.4,0.4-0.9,0.6-1.5,0.6c-0.6,0-1.1-0.2-1.5-0.6C97.4,414.7,97.2,414.1,97.2,413.3z M101,443.5h-3.5v-23.8
		h3.5V443.5z"/>
	<path fill="#FFFFFF" d="M124.5,443.5v-15.4c0-1.9-0.4-3.4-1.3-4.3c-0.9-1-2.2-1.4-4.1-1.4c-2.4,0-4.2,0.7-5.4,2
		c-1.1,1.3-1.7,3.6-1.7,6.7v12.5h-3.5v-23.8h2.9l0.6,3.3h0.2c0.7-1.2,1.7-2.1,3-2.7c1.3-0.6,2.8-1,4.4-1c2.8,0,4.9,0.7,6.3,2.1
		c1.4,1.4,2.1,3.6,2.1,6.6v15.5H124.5z"/>
	<path fill="#FFFFFF" d="M135,413.3c0-0.8,0.2-1.4,0.6-1.8c0.4-0.4,0.9-0.6,1.5-0.6c0.6,0,1.1,0.2,1.5,0.6c0.4,0.4,0.6,1,0.6,1.8
		c0,0.8-0.2,1.4-0.6,1.8c-0.4,0.4-0.9,0.6-1.5,0.6c-0.6,0-1.1-0.2-1.5-0.6C135.2,414.7,135,414.1,135,413.3z M138.8,443.5h-3.5
		v-23.8h3.5V443.5z"/>
	<path fill="#FFFFFF" d="M153.8,441c0.6,0,1.2,0,1.8-0.1c0.6-0.1,1-0.2,1.4-0.3v2.8c-0.4,0.2-0.9,0.3-1.7,0.5
		c-0.7,0.1-1.4,0.2-2,0.2c-4.5,0-6.8-2.4-6.8-7.3v-14.2h-3.3v-1.7l3.3-1.5l1.5-5.1h2v5.5h6.8v2.8h-6.8v14c0,1.4,0.3,2.5,1,3.3
		C151.8,440.6,152.7,441,153.8,441z"/>
	<path fill="#FFFFFF" d="M161.4,413.3c0-0.8,0.2-1.4,0.6-1.8c0.4-0.4,0.9-0.6,1.5-0.6c0.6,0,1.1,0.2,1.5,0.6c0.4,0.4,0.6,1,0.6,1.8
		c0,0.8-0.2,1.4-0.6,1.8c-0.4,0.4-0.9,0.6-1.5,0.6c-0.6,0-1.1-0.2-1.5-0.6C161.6,414.7,161.4,414.1,161.4,413.3z M165.2,443.5h-3.5
		v-23.8h3.5V443.5z"/>
	<path fill="#FFFFFF" d="M187.1,443.5l-0.7-3.4h-0.2c-1.2,1.5-2.3,2.5-3.5,3c-1.2,0.5-2.6,0.8-4.3,0.8c-2.3,0-4.1-0.6-5.4-1.8
		c-1.3-1.2-2-2.9-2-5.2c0-4.8,3.8-7.3,11.3-7.6l4-0.1v-1.5c0-1.9-0.4-3.2-1.2-4.1c-0.8-0.9-2-1.3-3.8-1.3c-1.9,0-4.1,0.6-6.6,1.8
		l-1.1-2.8c1.2-0.6,2.4-1.1,3.8-1.5c1.4-0.4,2.7-0.5,4.1-0.5c2.8,0,4.8,0.6,6.2,1.9c1.3,1.3,2,3.3,2,6.1v16.2H187.1z M179.1,441
		c2.2,0,3.9-0.6,5.2-1.8c1.3-1.2,1.9-3,1.9-5.2v-2.2l-3.5,0.2c-2.8,0.1-4.8,0.5-6.1,1.3c-1.2,0.8-1.9,2-1.9,3.7c0,1.3,0.4,2.3,1.2,3
		C176.6,440.7,177.7,441,179.1,441z"/>
	<path fill="#FFFFFF" d="M204.6,441c0.6,0,1.2,0,1.8-0.1c0.6-0.1,1-0.2,1.4-0.3v2.8c-0.4,0.2-0.9,0.3-1.7,0.5
		c-0.7,0.1-1.4,0.2-2,0.2c-4.5,0-6.8-2.4-6.8-7.3v-14.2h-3.3v-1.7l3.3-1.5l1.5-5.1h2v5.5h6.8v2.8h-6.8v14c0,1.4,0.3,2.5,1,3.3
		C202.5,440.6,203.4,441,204.6,441z"/>
	<path fill="#FFFFFF" d="M212.1,413.3c0-0.8,0.2-1.4,0.6-1.8c0.4-0.4,0.9-0.6,1.5-0.6c0.6,0,1.1,0.2,1.5,0.6c0.4,0.4,0.6,1,0.6,1.8
		c0,0.8-0.2,1.4-0.6,1.8c-0.4,0.4-0.9,0.6-1.5,0.6c-0.6,0-1.1-0.2-1.5-0.6C212.3,414.7,212.1,414.1,212.1,413.3z M216,443.5h-3.5
		v-23.8h3.5V443.5z"/>
	<path fill="#FFFFFF" d="M228.6,443.5l-8.9-23.8h3.8l5,14.1c1.1,3.3,1.8,5.4,2,6.4h0.2c0.2-0.8,0.7-2.4,1.5-4.8
		c0.8-2.4,2.7-7.7,5.6-15.8h3.8l-8.9,23.8H228.6z"/>
	<path fill="#FFFFFF" d="M255.2,444c-3.5,0-6.2-1.1-8.2-3.2c-2-2.1-3-5.1-3-8.9c0-3.8,0.9-6.9,2.8-9.1c1.9-2.3,4.3-3.4,7.5-3.4
		c2.9,0,5.2,1,6.9,2.9c1.7,2,2.6,4.6,2.6,7.8v2.3h-16.1c0.1,2.8,0.8,4.9,2.1,6.4c1.3,1.4,3.2,2.2,5.5,2.2c2.5,0,5-0.5,7.5-1.6v3.2
		c-1.3,0.6-2.4,0.9-3.5,1.2C258.1,443.8,256.7,444,255.2,444z M254.2,422.3c-1.9,0-3.4,0.6-4.5,1.9c-1.1,1.2-1.8,3-2,5.2H260
		c0-2.3-0.5-4-1.5-5.2C257.5,422.9,256.1,422.3,254.2,422.3z"/>
</g>
<g id="g3797" transform="translate(-21.225811,-1.0146812)" inkscape:export-xdpi="48.18" inkscape:export-ydpi="48.18" inkscape:export-filename="/home/rafael/workspace/logo-osi/3/png/logo396x412.png">
	<g id="path3015">
		<path fill="#FFFFFF" d="M315.6,361.7c-6.3,0-11.3-5.1-11.3-11.3s5.1-11.3,11.3-11.3c6.3,0,11.3,5.1,11.3,11.3
			S321.9,361.7,315.6,361.7z M315.6,341.7c-4.8,0-8.7,3.9-8.7,8.7s3.9,8.7,8.7,8.7c4.8,0,8.7-3.9,8.7-8.7S320.4,341.7,315.6,341.7z"
			/>
	</g>
	<g enable-background="new    ">
		<path fill="#FFFFFF" d="M313.5,351.2v4.3h-2.4v-11.3h3.3c1.5,0,2.7,0.3,3.4,0.8c0.7,0.6,1.1,1.4,1.1,2.6c0,0.7-0.2,1.3-0.5,1.8
			c-0.4,0.5-0.9,0.9-1.6,1.2c1.7,2.5,2.8,4.2,3.3,4.9h-2.7l-2.7-4.3H313.5z M313.5,349.3h0.8c0.8,0,1.3-0.1,1.7-0.4
			c0.4-0.3,0.5-0.7,0.5-1.2c0-0.5-0.2-0.9-0.6-1.1c-0.4-0.2-0.9-0.3-1.7-0.3h-0.7V349.3z"/>
	</g>
</g>
</svg>
