<?xml version="1.0" encoding="utf-8"?>
<!-- Generator: Adobe Illustrator 19.1.0, SVG Export Plug-In . SVG Version: 6.00 Build 0)  -->
<!DOCTYPE svg PUBLIC "-//W3C//DTD SVG 1.1//EN" "http://www.w3.org/Graphics/SVG/1.1/DTD/svg11.dtd">
<svg version="1.1"
	 id="svg3290" inkscape:export-ydpi="52.737835" inkscape:version="0.48.3.1 r9886" inkscape:export-xdpi="52.737835" sodipodi:docname="OSI_logo_by_USP.svg" inkscape:export-filename="/home/rafael/workspace/logo-osi/5/png/logo396x412.png" xmlns:svg="http://www.w3.org/2000/svg" xmlns:rdf="http://www.w3.org/1999/02/22-rdf-syntax-ns#" xmlns:cc="http://creativecommons.org/ns#" xmlns:inkscape="http://www.inkscape.org/namespaces/inkscape" xmlns:sodipodi="http://sodipodi.sourceforge.net/DTD/sodipodi-0.dtd" xmlns:dc="http://purl.org/dc/elements/1.1/"
	 xmlns="http://www.w3.org/2000/svg" xmlns:xlink="http://www.w3.org/1999/xlink" x="0px" y="0px" width="420px" height="420px"
	 viewBox="-12.8 257.6 420 420" style="enable-background:new -12.8 257.6 420 420;" xml:space="preserve">
<style type="text/css">
	.st0{fill:#FFFFFF;}
	.st1{fill:#3FA652;}
	.st2{fill:#21552A;}
	.st3{enable-background:new    ;}
</style>
<rect x="84" y="356.2" class="st0" width="224.1" height="222.9"/>
<sodipodi:namedview  inkscape:document-units="px" inkscape:window-height="744" inkscape:window-maximized="1" inkscape:current-layer="g3879" inkscape:window-x="0" inkscape:pageshadow="2" inkscape:pageopacity="0.0" inkscape:window-width="1366" inkscape:window-y="24" inkscape:guide-bbox="true" pagecolor="#ffffff" showguides="true" showgrid="false" id="base" bordercolor="#666666" inkscape:cy="404.85445" borderopacity="1.0" inkscape:zoom="0.49497475" inkscape:cx="557.86446">
	<sodipodi:guide  position="389.91888,215.16249" id="guide3004" orientation="1,0"></sodipodi:guide>
</sodipodi:namedview>
<g id="layer1" inkscape:groupmode="layer" inkscape:label="Layer 1">
	
		<g id="g3879" transform="matrix(3.1607572,0,0,3.1607572,1289.8039,2829.9529)" inkscape:export-ydpi="300.05554" inkscape:export-xdpi="300.05554" inkscape:export-filename="/home/paulormm/usp/softwarelivre/OSI/OSI_member_card_model_final-300dpi.png">
		<g id="path3773">
			
				<path inkscape:export-ydpi="48.18" inkscape:export-xdpi="48.18" inkscape:export-filename="/home/rafael/workspace/logo-osi/3/png/logo396x412.png" inkscape:connector-curvature="0" class="st1" d="
				M-343.3-746.8c3.2-1.2,4.9-4.9,3.6-8.1c-1.2-3.2-4.9-4.9-8.1-3.6s-4.9,4.9-3.6,8.1c0.6,1.7,2,3,3.6,3.6l-4.2,11
				c-9.3-3.6-14-14.1-10.4-23.4c3.6-9.3,14.1-14,23.4-10.4s14,14.1,10.4,23.4c-1.8,4.8-5.6,8.6-10.4,10.4L-343.3-746.8z"/>
			<path class="st2" d="M-339.1-735.5C-339.1-735.5-339.2-735.5-339.1-735.5c-0.2,0-0.2-0.1-0.2-0.2l-4.2-11c0-0.1,0-0.3,0.1-0.3
				c1.5-0.6,2.7-1.7,3.4-3.2s0.7-3.1,0.1-4.6c-1.2-3.1-4.7-4.7-7.8-3.5c-3.1,1.2-4.7,4.7-3.5,7.8c0.6,1.6,1.9,2.9,3.5,3.5
				c0.1,0,0.2,0.2,0.1,0.3l-4.2,11c0,0.1-0.1,0.1-0.1,0.1c-0.1,0-0.1,0-0.2,0c-4.6-1.8-8.2-5.2-10.2-9.7c-2-4.5-2.1-9.5-0.4-14
				c1.8-4.6,5.2-8.2,9.7-10.2c4.5-2,9.5-2.1,14-0.4c4.6,1.8,8.2,5.2,10.2,9.7c2,4.5,2.1,9.5,0.4,14
				C-330.3-741.2-334.2-737.4-339.1-735.5C-339-735.5-339.1-735.5-339.1-735.5z M-345.6-770.5c-2.5,0-4.9,0.5-7.3,1.6
				c-4.4,1.9-7.7,5.5-9.4,9.9c-1.7,4.5-1.6,9.3,0.4,13.7c1.9,4.3,5.3,7.6,9.7,9.3l4.1-10.6c-1.6-0.7-2.9-2-3.5-3.7
				c-1.3-3.4,0.4-7.1,3.8-8.4c3.4-1.3,7.1,0.4,8.4,3.8c0.6,1.6,0.6,3.4-0.1,5c-0.7,1.5-1.9,2.7-3.4,3.3l4.1,10.6
				c4.6-1.8,8.3-5.5,10.1-10.2c1.7-4.5,1.6-9.3-0.4-13.7c-1.9-4.4-5.5-7.7-9.9-9.4C-341.3-770.1-343.4-770.5-345.6-770.5z"/>
		</g>
		<g class="st3">
			<path d="M-364.6-730.3c0,0.6-0.2,1.1-0.5,1.5c-0.3,0.4-0.7,0.5-1.3,0.5c-0.3,0-0.6-0.1-0.9-0.2c-0.3-0.2-0.5-0.4-0.6-0.7
				c-0.1-0.3-0.2-0.7-0.2-1.1c0-0.6,0.2-1.1,0.5-1.5c0.3-0.4,0.7-0.5,1.3-0.5c0.5,0,1,0.2,1.3,0.5
				C-364.7-731.4-364.6-730.9-364.6-730.3z M-367.5-730.3c0,0.5,0.1,0.9,0.3,1.1s0.5,0.4,0.9,0.4c0.4,0,0.7-0.1,0.9-0.4
				c0.2-0.3,0.3-0.6,0.3-1.1c0-0.5-0.1-0.9-0.3-1.1c-0.2-0.3-0.5-0.4-0.9-0.4c-0.4,0-0.7,0.1-0.9,0.4
				C-367.4-731.2-367.5-730.8-367.5-730.3z"/>
			<path d="M-361.8-728.3c-0.2,0-0.5,0-0.7-0.1c-0.2-0.1-0.4-0.2-0.5-0.4h0c0,0.2,0,0.4,0,0.6v1.6h-0.6v-5.6h0.5l0.1,0.5h0
				c0.1-0.2,0.3-0.4,0.5-0.5c0.2-0.1,0.4-0.1,0.7-0.1c0.5,0,0.9,0.2,1.2,0.5c0.3,0.4,0.4,0.8,0.4,1.5c0,0.6-0.1,1.1-0.4,1.5
				C-360.9-728.4-361.3-728.3-361.8-728.3z M-361.9-731.8c-0.4,0-0.7,0.1-0.8,0.3c-0.2,0.2-0.3,0.6-0.3,1v0.1c0,0.5,0.1,0.9,0.3,1.2
				c0.2,0.2,0.5,0.4,0.9,0.4c0.3,0,0.6-0.1,0.8-0.4c0.2-0.3,0.3-0.6,0.3-1.1c0-0.5-0.1-0.9-0.3-1.1
				C-361.3-731.7-361.5-731.8-361.9-731.8z"/>
			<path d="M-357.6-728.3c-0.6,0-1-0.2-1.3-0.5c-0.3-0.3-0.5-0.8-0.5-1.5c0-0.6,0.2-1.1,0.5-1.5c0.3-0.4,0.7-0.6,1.2-0.6
				c0.5,0,0.9,0.2,1.1,0.5c0.3,0.3,0.4,0.7,0.4,1.3v0.4h-2.6c0,0.5,0.1,0.8,0.3,1c0.2,0.2,0.5,0.4,0.9,0.4c0.4,0,0.8-0.1,1.2-0.3
				v0.5c-0.2,0.1-0.4,0.2-0.6,0.2C-357.1-728.3-357.3-728.3-357.6-728.3z M-357.7-731.8c-0.3,0-0.6,0.1-0.7,0.3
				c-0.2,0.2-0.3,0.5-0.3,0.8h2c0-0.4-0.1-0.7-0.2-0.9C-357.2-731.7-357.4-731.8-357.7-731.8z"/>
			<path d="M-352.6-728.3v-2.5c0-0.3-0.1-0.6-0.2-0.7c-0.1-0.2-0.4-0.2-0.7-0.2c-0.4,0-0.7,0.1-0.9,0.3c-0.2,0.2-0.3,0.6-0.3,1.1v2
				h-0.6v-3.9h0.5l0.1,0.5h0c0.1-0.2,0.3-0.3,0.5-0.4c0.2-0.1,0.5-0.2,0.7-0.2c0.5,0,0.8,0.1,1,0.3c0.2,0.2,0.3,0.6,0.3,1.1v2.5
				H-352.6z"/>
		</g>
		<g class="st3">
			<path d="M-344.6-729.5c0,0.4-0.1,0.6-0.4,0.8s-0.6,0.3-1.1,0.3c-0.5,0-0.9-0.1-1.2-0.2v-0.5c0.2,0.1,0.4,0.2,0.6,0.2
				c0.2,0.1,0.4,0.1,0.6,0.1c0.3,0,0.5,0,0.7-0.1c0.2-0.1,0.2-0.2,0.2-0.4c0-0.2-0.1-0.3-0.2-0.4c-0.1-0.1-0.4-0.2-0.8-0.4
				c-0.4-0.1-0.6-0.3-0.8-0.4c-0.1-0.1-0.3-0.2-0.3-0.3c-0.1-0.1-0.1-0.3-0.1-0.5c0-0.3,0.1-0.6,0.4-0.8c0.3-0.2,0.6-0.3,1-0.3
				c0.4,0,0.8,0.1,1.2,0.3l-0.2,0.5c-0.4-0.2-0.7-0.2-1-0.2c-0.3,0-0.5,0-0.6,0.1c-0.1,0.1-0.2,0.2-0.2,0.4c0,0.1,0,0.2,0.1,0.3
				c0.1,0.1,0.1,0.1,0.3,0.2c0.1,0.1,0.3,0.2,0.7,0.3c0.5,0.2,0.8,0.3,0.9,0.5C-344.6-730-344.6-729.8-344.6-729.5z"/>
			<path d="M-340.3-730.4c0,0.6-0.2,1.1-0.5,1.5c-0.3,0.4-0.7,0.5-1.3,0.5c-0.3,0-0.6-0.1-0.9-0.2c-0.3-0.2-0.5-0.4-0.6-0.7
				c-0.1-0.3-0.2-0.7-0.2-1.1c0-0.6,0.2-1.1,0.5-1.5c0.3-0.4,0.7-0.5,1.3-0.5c0.5,0,1,0.2,1.3,0.5
				C-340.5-731.5-340.3-731-340.3-730.4z M-343.2-730.4c0,0.5,0.1,0.9,0.3,1.1c0.2,0.3,0.5,0.4,0.9,0.4c0.4,0,0.7-0.1,0.9-0.4
				c0.2-0.3,0.3-0.6,0.3-1.1c0-0.5-0.1-0.9-0.3-1.1c-0.2-0.3-0.5-0.4-0.9-0.4c-0.4,0-0.7,0.1-0.9,0.4
				C-343.1-731.3-343.2-730.9-343.2-730.4z"/>
			<path d="M-338.8-732.4v2.5c0,0.3,0.1,0.6,0.2,0.7c0.1,0.2,0.4,0.2,0.7,0.2c0.4,0,0.7-0.1,0.9-0.3c0.2-0.2,0.3-0.6,0.3-1.1v-2h0.6
				v3.9h-0.5l-0.1-0.5h0c-0.1,0.2-0.3,0.3-0.5,0.4c-0.2,0.1-0.4,0.2-0.7,0.2c-0.5,0-0.8-0.1-1-0.3c-0.2-0.2-0.3-0.6-0.3-1.1v-2.5
				H-338.8z"/>
			<path d="M-333.2-732.4c0.2,0,0.3,0,0.5,0l-0.1,0.5c-0.2,0-0.3-0.1-0.4-0.1c-0.3,0-0.6,0.1-0.8,0.4c-0.2,0.3-0.3,0.6-0.3,1v2.1
				h-0.6v-3.9h0.5l0.1,0.7h0c0.1-0.3,0.3-0.4,0.5-0.6C-333.7-732.4-333.4-732.4-333.2-732.4z"/>
			<path d="M-330.5-728.4c-0.6,0-1-0.2-1.3-0.5c-0.3-0.3-0.5-0.8-0.5-1.5c0-0.7,0.2-1.2,0.5-1.5c0.3-0.4,0.7-0.5,1.3-0.5
				c0.2,0,0.4,0,0.5,0.1c0.2,0,0.3,0.1,0.4,0.1l-0.2,0.5c-0.1-0.1-0.3-0.1-0.4-0.1c-0.2,0-0.3-0.1-0.4-0.1c-0.8,0-1.2,0.5-1.2,1.5
				c0,0.5,0.1,0.8,0.3,1.1c0.2,0.3,0.5,0.4,0.8,0.4c0.3,0,0.6-0.1,1-0.2v0.5C-329.8-728.5-330.1-728.4-330.5-728.4z"/>
			<path d="M-327-728.4c-0.6,0-1-0.2-1.3-0.5c-0.3-0.3-0.5-0.8-0.5-1.5c0-0.6,0.2-1.1,0.5-1.5c0.3-0.4,0.7-0.6,1.2-0.6
				c0.5,0,0.9,0.2,1.1,0.5c0.3,0.3,0.4,0.7,0.4,1.3v0.4h-2.6c0,0.5,0.1,0.8,0.3,1c0.2,0.2,0.5,0.4,0.9,0.4c0.4,0,0.8-0.1,1.2-0.3
				v0.5c-0.2,0.1-0.4,0.2-0.6,0.2C-326.6-728.4-326.8-728.4-327-728.4z M-327.2-731.9c-0.3,0-0.6,0.1-0.7,0.3
				c-0.2,0.2-0.3,0.5-0.3,0.8h2c0-0.4-0.1-0.7-0.2-0.9C-326.7-731.8-326.9-731.9-327.2-731.9z"/>
		</g>
		<g class="st3">
			<path d="M-361-726.2c0-0.1,0-0.2,0.1-0.3c0.1-0.1,0.1-0.1,0.2-0.1c0.1,0,0.2,0,0.2,0.1c0.1,0.1,0.1,0.2,0.1,0.3
				c0,0.1,0,0.2-0.1,0.3c-0.1,0.1-0.1,0.1-0.2,0.1c-0.1,0-0.2,0-0.2-0.1C-360.9-725.9-361-726-361-726.2z M-360.3-721.2h-0.6v-3.9
				h0.6V-721.2z"/>
			<path d="M-356.5-721.2v-2.5c0-0.3-0.1-0.6-0.2-0.7c-0.1-0.2-0.4-0.2-0.7-0.2c-0.4,0-0.7,0.1-0.9,0.3c-0.2,0.2-0.3,0.6-0.3,1.1v2
				h-0.6v-3.9h0.5l0.1,0.5h0c0.1-0.2,0.3-0.3,0.5-0.4c0.2-0.1,0.5-0.2,0.7-0.2c0.5,0,0.8,0.1,1,0.3c0.2,0.2,0.3,0.6,0.3,1.1v2.5
				H-356.5z"/>
			<path d="M-354.8-726.2c0-0.1,0-0.2,0.1-0.3c0.1-0.1,0.1-0.1,0.2-0.1c0.1,0,0.2,0,0.2,0.1c0.1,0.1,0.1,0.2,0.1,0.3
				c0,0.1,0,0.2-0.1,0.3c-0.1,0.1-0.1,0.1-0.2,0.1c-0.1,0-0.2,0-0.2-0.1C-354.8-725.9-354.8-726-354.8-726.2z M-354.2-721.2h-0.6
				v-3.9h0.6V-721.2z"/>
			<path d="M-351.7-721.6c0.1,0,0.2,0,0.3,0c0.1,0,0.2,0,0.2,0v0.5c-0.1,0-0.2,0.1-0.3,0.1c-0.1,0-0.2,0-0.3,0
				c-0.7,0-1.1-0.4-1.1-1.2v-2.3h-0.5v-0.3l0.5-0.2l0.2-0.8h0.3v0.9h1.1v0.5h-1.1v2.3c0,0.2,0.1,0.4,0.2,0.5
				C-352-721.7-351.9-721.6-351.7-721.6z"/>
			<path d="M-350.5-726.2c0-0.1,0-0.2,0.1-0.3c0.1-0.1,0.1-0.1,0.2-0.1c0.1,0,0.2,0,0.2,0.1c0.1,0.1,0.1,0.2,0.1,0.3
				c0,0.1,0,0.2-0.1,0.3c-0.1,0.1-0.1,0.1-0.2,0.1c-0.1,0-0.2,0-0.2-0.1C-350.4-725.9-350.5-726-350.5-726.2z M-349.8-721.2h-0.6
				v-3.9h0.6V-721.2z"/>
			<path d="M-346.3-721.2l-0.1-0.6h0c-0.2,0.2-0.4,0.4-0.6,0.5c-0.2,0.1-0.4,0.1-0.7,0.1c-0.4,0-0.7-0.1-0.9-0.3
				c-0.2-0.2-0.3-0.5-0.3-0.8c0-0.8,0.6-1.2,1.8-1.2l0.6,0v-0.2c0-0.3-0.1-0.5-0.2-0.7c-0.1-0.1-0.3-0.2-0.6-0.2
				c-0.3,0-0.7,0.1-1.1,0.3l-0.2-0.5c0.2-0.1,0.4-0.2,0.6-0.2c0.2-0.1,0.4-0.1,0.7-0.1c0.5,0,0.8,0.1,1,0.3c0.2,0.2,0.3,0.5,0.3,1
				v2.7H-346.3z M-347.6-721.6c0.4,0,0.6-0.1,0.8-0.3c0.2-0.2,0.3-0.5,0.3-0.8v-0.4l-0.6,0c-0.5,0-0.8,0.1-1,0.2
				c-0.2,0.1-0.3,0.3-0.3,0.6c0,0.2,0.1,0.4,0.2,0.5C-348-721.7-347.8-721.6-347.6-721.6z"/>
			<path d="M-343.4-721.6c0.1,0,0.2,0,0.3,0c0.1,0,0.2,0,0.2,0v0.5c-0.1,0-0.2,0.1-0.3,0.1c-0.1,0-0.2,0-0.3,0
				c-0.7,0-1.1-0.4-1.1-1.2v-2.3h-0.5v-0.3l0.5-0.2l0.2-0.8h0.3v0.9h1.1v0.5h-1.1v2.3c0,0.2,0.1,0.4,0.2,0.5
				C-343.8-721.7-343.6-721.6-343.4-721.6z"/>
			<path d="M-342.2-726.2c0-0.1,0-0.2,0.1-0.3c0.1-0.1,0.1-0.1,0.2-0.1c0.1,0,0.2,0,0.2,0.1c0.1,0.1,0.1,0.2,0.1,0.3
				c0,0.1,0,0.2-0.1,0.3c-0.1,0.1-0.1,0.1-0.2,0.1c-0.1,0-0.2,0-0.2-0.1C-342.2-725.9-342.2-726-342.2-726.2z M-341.6-721.2h-0.6
				v-3.9h0.6V-721.2z"/>
			<path d="M-339.5-721.2l-1.4-3.9h0.6l0.8,2.3c0.2,0.5,0.3,0.9,0.3,1h0c0-0.1,0.1-0.4,0.2-0.8c0.1-0.4,0.4-1.3,0.9-2.6h0.6
				l-1.4,3.9H-339.5z"/>
			<path d="M-335.2-721.1c-0.6,0-1-0.2-1.3-0.5s-0.5-0.8-0.5-1.5c0-0.6,0.2-1.1,0.5-1.5c0.3-0.4,0.7-0.6,1.2-0.6
				c0.5,0,0.9,0.2,1.1,0.5c0.3,0.3,0.4,0.7,0.4,1.3v0.4h-2.6c0,0.5,0.1,0.8,0.3,1c0.2,0.2,0.5,0.4,0.9,0.4c0.4,0,0.8-0.1,1.2-0.3
				v0.5c-0.2,0.1-0.4,0.2-0.6,0.2C-334.7-721.2-334.9-721.1-335.2-721.1z M-335.3-724.7c-0.3,0-0.6,0.1-0.7,0.3
				c-0.2,0.2-0.3,0.5-0.3,0.8h2c0-0.4-0.1-0.7-0.2-0.9C-334.8-724.6-335-724.7-335.3-724.7z"/>
		</g>
		
			<g id="g3797" transform="translate(-21.225811,-1.0146812)" inkscape:export-ydpi="48.18" inkscape:export-xdpi="48.18" inkscape:export-filename="/home/rafael/workspace/logo-osi/3/png/logo396x412.png">
			<g id="path3015">
				<path d="M-307.5-733.7c-1,0-1.9-0.8-1.9-1.8s0.8-1.8,1.9-1.8c1,0,1.9,0.8,1.9,1.8S-306.5-733.7-307.5-733.7z M-307.5-737
					c-0.8,0-1.4,0.6-1.4,1.4s0.6,1.4,1.4,1.4c0.8,0,1.4-0.6,1.4-1.4S-306.7-737-307.5-737z"/>
			</g>
			<g class="st3">
				<path d="M-307.9-735.4v0.7h-0.4v-1.8h0.5c0.3,0,0.4,0,0.6,0.1c0.1,0.1,0.2,0.2,0.2,0.4c0,0.1,0,0.2-0.1,0.3s-0.1,0.2-0.3,0.2
					c0.3,0.4,0.5,0.7,0.5,0.8h-0.4l-0.4-0.7H-307.9z M-307.9-735.8h0.1c0.1,0,0.2,0,0.3-0.1c0.1,0,0.1-0.1,0.1-0.2
					c0-0.1,0-0.2-0.1-0.2c-0.1,0-0.2-0.1-0.3-0.1h-0.1V-735.8z"/>
			</g>
		</g>
	</g>
</g>
</svg>
