<?xml version="1.0" encoding="utf-8"?>
<!-- Generator: Adobe Illustrator 18.0.0, SVG Export Plug-In . SVG Version: 6.00 Build 0)  -->
<!DOCTYPE svg PUBLIC "-//W3C//DTD SVG 1.1//EN" "http://www.w3.org/Graphics/SVG/1.1/DTD/svg11.dtd">
<svg version="1.1" id="Laag_1" xmlns="http://www.w3.org/2000/svg" xmlns:xlink="http://www.w3.org/1999/xlink" x="0px" y="0px"
	 width="261.1px" height="280px" viewBox="0 0 261.1 280" enable-background="new 0 0 261.1 280" xml:space="preserve">
<path opacity="0.5" fill="#FFFFFF" d="M107.6,90.8V68.3c0,0-14-17.1-7.8-23.8c6.2-6.7,7.8,5.7,7.8,5.7s-4.1-35.7,23.1-36.8
	c27.2-1,28.7,17.3,28.7,28.8c0,11.5-1.8,31.5-4.5,33.8c-2.7,2.3-9.7,0.8-14,8c-4.3,7.3-2.3,40.9-2.3,40.9L107.6,90.8z"/>
<linearGradient id="SVGID_1_" gradientUnits="userSpaceOnUse" x1="130.5329" y1="139.8383" x2="130.5329" y2="271.8079">
	<stop  offset="0" style="stop-color:#F2F2F2;stop-opacity:0.1"/>
	<stop  offset="1" style="stop-color:#FFFFFF;stop-opacity:0"/>
</linearGradient>
<path fill="url(#SVGID_1_)" d="M130.5,18.9C58.4,18.9,0,77.4,0,149.5C0,221.6,58.4,280,130.5,280c72.1,0,130.5-58.4,130.5-130.5
	C261.1,77.4,202.6,18.9,130.5,18.9z M106,261.7c-21.8-3.1-36.8-12.9-36.8-12.9s2.6-20.2,3.1-28.5c0.5-8.3,1-27.9,1-27.9l-37.8,12.4
	l-6.7-7.8l31.3-96.4l55.7-14h18.3c0,0-10,55.9-1.4,95.8c8.5,39.9,15.9,79.3,15.9,79.3S127.8,264.8,106,261.7z"/>
<line fill="none" stroke="#6B6B6B" stroke-miterlimit="10" x1="147.2" y1="83.3" x2="150" y2="117.4"/>
<path fill="#FFFFFF" d="M206.5,243.5c0,0-27.4-29-31.1-50.2c-3.7-21.2,1-86.5,1-86.5l-11.9-19.9L131,122l-0.6,45.9
	c-4-37.6,3.7-81.1,3.7-81.1h-18.3l-34.4,8.6l-8.1,97.1c0,0-0.5,19.6-1,27.9c-0.5,8.3-3.1,28.5-3.1,28.5s15,9.8,36.8,12.9
	c21.8,3.1,42.6,0,42.6,0s-2.5-13.2-6.2-32.1c8,16.5,22.9,39.6,22.9,39.6L206.5,243.5z"/>
<g opacity="0.2">
	<path fill="#FFFFFF" d="M87.9,95.2c0.5-1.6-0.5-2.5-2-2l-22,6.7c-1.6,0.5-3.3,2.2-3.8,3.7l-30.2,90.5c-0.5,1.6-0.1,3.9,1,5.1
		l2.8,3.2c1.1,1.2,3.3,1.9,4.8,1.4l69.5-22.1c1.6-0.5,2.6-2.2,2.3-3.9l-4.2-24.1c-0.3-1.6-1.8-2.6-3.4-2.1l-31.2,9.5
		c-1.6,0.5-2.5-0.4-2-2L87.9,95.2z"/>
</g>
<g>
	<path fill="#FFFFFF" d="M156.4,76.6c-1-0.5-1.9-0.7-2-0.6c0,0,0,0-0.1,0.1c-2.7,2.3-9.7,0.8-14,8c-4.3,7.3-2.4,38.9-2.4,38.9
		c0.1,1.1-0.5,1.3-1.2,0.5l-28.3-31.2c-0.7-0.8-1.3-2.4-1.3-3.5V73.4c0-1.1-0.8-1.6-1.8-1.2L71,88.1c-1,0.5-1,1.3-0.1,1.8l27.6,14.7
		c1,0.5,2.3,1.7,3,2.6l28.3,38.4c0.7,0.9,1.6,0.8,2.2-0.1l21.2-36.4c0.6-1,1.8-2.2,2.7-2.8l25.9-16c0.9-0.6,0.9-1.4-0.1-1.9
		L156.4,76.6z"/>
</g>
<path fill="#FFFFFF" d="M106.9,49.6c0,0,1.8-33.8,24.5-34.8c22.7-1,25.3,13.7,25.3,13.7s10.1-13.7-5-23.1c-15.2-9.3-37.4-6-47.3,3.9
	c-9.8,9.8-6.4,37-5.2,35.6c0.6-0.6,1.3-1.2,2.4-1.5C105,42.4,106.9,49.6,106.9,49.6z"/>
<polygon fill="#FFFFFF" points="164.1,93.7 147.8,185.9 208.9,189.7 225.2,97.8 "/>
<path opacity="0.5" fill="#FFFFFF" d="M223.1,126.7c-3.3-4.2-16.4,3.8-18,13c-1.6,9.1,0.8,25.7,6.9,26.8c3,0.5,9.8-5.6,11.2-17.6
	C224.6,136.9,226.4,130.8,223.1,126.7z"/>
<g>
	<path fill="#FFFFFF" d="M134.7,183c0,1.7-1.4,3-3,3h-3.3c-1.6,0-3-1.3-3-3v-34.4c0-1.6,1.3-3,3-3h3.3c1.6,0,3,1.4,3,3V183z"/>
</g>
<circle fill="#FFFFFF" cx="130.1" cy="119.7" r="17.1"/>
<g>
	<path fill="#FFFFFF" d="M145.6,153.1c0,0.6-0.4,1-1,1h-29.1c-0.5,0-1-0.4-1-1v-18.7c0-0.6,0.5-1,1-1h29.1c0.6,0,1,0.4,1,1V153.1z"
		/>
</g>
<g>
</g>
<g>
</g>
<g>
</g>
<g>
</g>
<g>
</g>
<g>
</g>
<g>
</g>
<g>
</g>
<g>
</g>
<g>
</g>
<g>
</g>
<g>
</g>
<g>
</g>
<g>
</g>
<g>
</g>
</svg>
