<?xml version="1.0" encoding="utf-8"?>
<!-- Generator: Adobe Illustrator 18.0.0, SVG Export Plug-In . SVG Version: 6.00 Build 0)  -->
<!DOCTYPE svg PUBLIC "-//W3C//DTD SVG 1.1//EN" "http://www.w3.org/Graphics/SVG/1.1/DTD/svg11.dtd">
<svg version="1.1" id="Laag_1" xmlns="http://www.w3.org/2000/svg" xmlns:xlink="http://www.w3.org/1999/xlink" x="0px" y="0px"
	 width="269.1px" height="280px" viewBox="0 0 269.1 280" enable-background="new 0 0 269.1 280" xml:space="preserve">
<circle opacity="0.5" fill="#FFFFFF" cx="134.5" cy="145.5" r="134.5"/>
<g>
	<path fill="#FFFFFF" d="M91.9,95.2c0.5-1.6-0.5-2.5-2-2l-22,6.7c-1.6,0.5-3.3,2.2-3.8,3.7l-30.2,90.5c-0.5,1.6-0.1,3.9,1,5.1
		l2.8,3.2c1.1,1.2,3.3,1.9,4.8,1.4l69.5-22.1c1.6-0.5,2.6-2.2,2.3-3.9l-4.2-24.1c-0.3-1.6-1.8-2.6-3.4-2.1l-31.2,9.5
		c-1.6,0.5-2.5-0.4-2-2L91.9,95.2z"/>
</g>
<path fill="#FFFFFF" d="M110.9,49.6c0,0,1.8-33.8,24.5-34.8c22.7-1,25.3,13.7,25.3,13.7s10.1-13.7-5-23.1c-15.2-9.3-37.4-6-47.3,3.9
	c-9.8,9.8-6.4,37-5.2,35.6c0.6-0.6,1.3-1.2,2.4-1.5C109,42.4,110.9,49.6,110.9,49.6z"/>
<polygon fill="#FFFFFF" points="168.1,93.7 151.8,185.9 212.9,189.7 229.2,97.8 "/>
<path opacity="0.5" fill="#FFFFFF" d="M227.1,126.7c-3.3-4.2-16.4,3.8-18,13c-1.6,9.1,0.8,25.7,6.9,26.8c3,0.5,9.8-5.6,11.2-17.6
	C228.6,136.9,230.4,130.8,227.1,126.7z"/>
<g>
	<g>
		<path fill="#FFFFFF" d="M117,119.7c0-5.8,6.1-12.6,6.1-12.6c0.7-0.8,0.7-2.2,0-3l-10.7-11.8c-0.7-0.8-1.3-2.4-1.3-3.5V73.4
			c0-1.1-0.8-1.6-1.8-1.2L75,88.1c-1,0.5-1,1.3-0.1,1.8l27.6,14.7c1,0.5,2.3,1.7,3,2.6l10.7,14.5c0.7,0.9,1,0.7,0.9-0.4
			C117.1,121.3,117,120.9,117,119.7z"/>
	</g>
	<g>
		<path fill="#FFFFFF" d="M160.4,76.6c-1-0.5-1.9-0.7-2-0.6c0,0,0,0-0.1,0.1c-2.7,2.3-9.7,0.8-14,8c-1.9,3.2-2.6,18.3-2.6,18.3
			c-0.1,1.1,0.6,2.6,1.4,3.3l7.5,11.7c0.3,1,1.1,1.1,1.6,0.2l5-8.6c0.6-1,1.8-2.2,2.7-2.8l25.9-16c0.9-0.6,0.9-1.4-0.1-1.9
			L160.4,76.6z"/>
	</g>
</g>
<path fill="#FFFFFF" d="M210.5,243.5c0,0-27.4-29-31.1-50.2c-3.7-21.2,1-86.5,1-86.5l-11.9-19.9L147.4,109c2.4,2.9,3.8,6.9,3.8,10.9
	c0,5.6-2.7,10.9-6.9,13.9h5.8v20h-11v32h-10v-32h-10v-20h4.9c-4.2-3-6.9-8.3-6.9-13.9c0-9.4,7.7-17.2,17.1-17.2c0.6,0,1.2,0,1.7,0
	c1.2-9.7,2.3-15.9,2.3-15.9h-18.3l-34.4,8.6l-8.1,97.1c0,0-0.5,19.6-1,27.9c-0.5,8.3-3.1,28.5-3.1,28.5s15,9.8,36.8,12.9
	c21.8,3.1,42.6,0,42.6,0s-2.5-13.2-6.2-32.1c8,16.5,22.9,39.6,22.9,39.6L210.5,243.5z"/>
<path opacity="0.5" fill="#FFFFFF" d="M134.7,13.4c-27.2,1-23.1,36.8-23.1,36.8s-1.4-12.4-7.6-5.7c-6.2,6.7,8,23.8,8,23.8v22.4
	l13,14.6c2.7-1.7,5.7-2.7,9.1-2.7c2.9,0,5.6,0.7,8,2c0.1-8.6,0.8-17.3,2.7-20.6c4.3-7.3,11.3-5.7,14-8c2.7-2.3,4.5-22.3,4.5-33.8
	C163.5,30.7,161.9,12.4,134.7,13.4z"/>
<g opacity="0.5">
	<path fill="#FFFFFF" d="M151.2,119.7c0-9.4-7.7-17.1-17.1-17.1c-9.4,0-17.1,7.7-17.1,17.1c0,5.6,6.3,13.2,6.3,13.2
		c0.4,0.4,0.2,1-0.3,1h-3.4c-0.6,0-0.5,0.1-0.5,0.6v18.7c0,0.6,0,0.7,0.5,0.7h8.9c0.5,0,0.6,0.7,0.6,1.3V185c0,0.6,0.9,0.8,1.4,0.8
		h7.3c0.5,0,1.3-0.3,1.3-0.8v-29.9c0-0.6,0.1-1.3,0.7-1.3h8.9c0.5,0,1.4-0.2,1.4-0.7v-18.7c0-0.6-0.8-0.6-1.4-0.6h-3.4
		c-0.6,0-0.7-0.5-0.3-1C144.9,132.9,151.2,125.4,151.2,119.7z"/>
</g>
<g>
</g>
<g>
</g>
<g>
</g>
<g>
</g>
<g>
</g>
<g>
</g>
<g>
</g>
<g>
</g>
<g>
</g>
<g>
</g>
<g>
</g>
<g>
</g>
<g>
</g>
<g>
</g>
<g>
</g>
</svg>
