<?xml version="1.0" encoding="utf-8"?>
<!-- Generator: Adobe Illustrator 19.2.1, SVG Export Plug-In . SVG Version: 6.00 Build 0)  -->
<svg version="1.1" id="Laag_1" xmlns="http://www.w3.org/2000/svg" xmlns:xlink="http://www.w3.org/1999/xlink" x="0px" y="0px"
	 viewBox="0 0 960 560" enable-background="new 0 0 960 560" xml:space="preserve">
<g>
	<path d="M573,303.2c3.7-10.2,5.8-21.1,5.8-32.6c0-46.4-33.3-85-77.4-93.2L573,303.2z"/>
	<path d="M483,286.1c6.1,0,11-5,11-11.1v-39.9c0-6.1-4.9-11.1-11-11.1c-6.1,0-11,5-11,11.1V275C472,281.1,476.9,286.1,483,286.1z"/>
	<path d="M417.3,338c17.1,17,40.7,27.5,66.7,27.5c26,0,49.6-10.5,66.7-27.5H417.3z"/>
	<circle cx="483.6" cy="309.7" r="11.1"/>
	<path d="M465.8,177.5c-43.6,8.5-76.6,46.9-76.6,93c0,11.2,1.9,21.9,5.5,31.8L465.8,177.5z"/>
</g>
<g>
	<path d="M147,331h7.1l5.4-19h98l5.4,19h7.1c3.4,0,6.3,1.8,8,4.5c15.9-16.9,25.6-39.7,25.6-64.8c0-52.3-42.4-94.7-94.7-94.7
		s-94.7,42.4-94.7,94.7c0,24.8,9.5,47.4,25.2,64.3C141.1,332.6,143.9,331,147,331z M190,205.9c1.2-4.1,4.9-6.9,9.1-6.9H218
		c4.2,0,7.9,2.8,9.1,6.9l3.4,12.1h-44L190,205.9z M181.1,236h54.8l5.4,19h-65.6L181.1,236z M170.3,274h76.4l5.4,19h-87.2L170.3,274z
		"/>
</g>
<g>
	<path d="M757.3,176.6c-52.3,0-94.7,42.4-94.7,94.7c0,6.7,0.7,13.3,2,19.6c2.7-1.8,5.4-3.4,8.3-4.8c-1.1-2.4-1.2-5.3,0.3-8.3
		c5.3-10.5,18.6-35.3,33.5-29c7.8,3.3,14.7,8,20.5,13.8c4.4-5,8.7-10,13.1-14.9c-4.2-13.5-11.4-25.5-20.8-36.2
		c-6.5-7.4,4.3-18.3,10.8-10.8c9.8,11.1,17.7,23.5,22.9,37.2c4.5-0.6,9.3,0.8,12.5,4c0.1,0.1,0.2,0.2,0.3,0.3
		c13.2-7.9,26.9-14.7,41.2-20.5c9.2-3.7,13.1,11.1,4.1,14.8c-15.1,6.1-29.5,13.7-43.3,22.5c-0.6,1.1-1.3,2.2-2.2,3.2
		c-8.8,10.3-17.9,20.4-26.8,30.7c-1.1,1.3-2.4,2.2-3.9,2.9c-1.7,3.8-5.6,6.5-10.8,4.9c-19.8-6.2-38.3-2.7-53.4,9.6
		c14.8,33,47.9,55.9,86.4,55.9c52.3,0,94.7-42.4,94.7-94.7S809.6,176.6,757.3,176.6z M768.4,233.9c-8.1,0-14.8-6.6-14.8-14.7
		c0-8.1,6.6-14.7,14.8-14.7c8.1,0,14.7,6.6,14.7,14.7C783.1,227.3,776.5,233.9,768.4,233.9z M763,302h1.7
		c14.6,0,26.3-10.9,26.3-25.5V275h4v1.5c0,16.7-13.6,30.5-30.3,30.5H763V302z M817,271.1c0,31.9-25.9,58.9-57.8,58.9H758v-4h1.2
		c29.8,0,53.8-25.1,53.8-54.9V270h4V271.1z"/>
	<path d="M715.4,277.9c-3.5-3.8-7.6-6.9-12.3-9.6c-3.6,3.2-6.4,6.9-8.8,11c6.8-1,13.8-1.2,20.8-0.3
		C715.1,278.6,715.3,278.3,715.4,277.9z"/>
</g>
</svg>
