<?xml version="1.0" encoding="utf-8"?>
<!-- Generator: Adobe Illustrator 18.0.0, SVG Export Plug-In . SVG Version: 6.00 Build 0)  -->
<!DOCTYPE svg PUBLIC "-//W3C//DTD SVG 1.1//EN" "http://www.w3.org/Graphics/SVG/1.1/DTD/svg11.dtd">
<svg version="1.1" id="Layer_1" xmlns="http://www.w3.org/2000/svg" xmlns:xlink="http://www.w3.org/1999/xlink" x="0px" y="0px"
	 viewBox="416.5 233.4 169.9 33.1" enable-background="new 416.5 233.4 169.9 33.1" xml:space="preserve">
<g>
	<g>
		<path fill="#FFFFFF" d="M427.8,255.8C427.7,255.8,427.7,255.8,427.8,255.8c-0.3-0.1-0.5-0.1-0.7-0.2l-3.3-0.9
			c-0.7-0.2-1.8-0.5-1.8-1.8c0-1.1,0.9-1.9,2.3-1.9c0.3,0,0.6,0,0.8,0.1c0.1,0,0.1,0.1,0.2,0.1c0.1,0,0.3,0.1,0.4,0.2
			c0.1,0,0.1,0.1,0.2,0.1c0.1,0.1,0.2,0.1,0.3,0.2c0,0,0.1,0.1,0.1,0.2c0.1,0.1,0.1,0.2,0.2,0.2c0,0.1,0,0.1,0.1,0.2
			c0,0.1,0.1,0.2,0.1,0.2c0,0.1,0,0.1,0,0.2c0,0.1,0,0.2,0,0.2c0,0.1,0,0.1,0,0.2c0,0.1,0,0.1,0,0.2c0,0.1,0,0.1,0,0.2
			c0,0,0,0.1,0,0.1h5c0-1.9-0.3-5.7-7.3-5.7c-5.3,0-7.5,2.7-7.5,5.6c0,3.7,3.2,4.6,4.4,4.9l4.4,1.1c1.2,0.3,1.5,0.9,1.5,1.7
			c0,2-2.2,2-2.6,2c-2.9,0-3-2.1-3-2.8h-5c0,0.8,0,2.5,1.4,4c1.6,1.8,4.6,2.1,6.5,2.1c4.5,0,7.9-1.8,7.9-5.8
			C432.2,257.3,430,256.4,427.8,255.8z M472.9,248.2h-5v17.9h13v-3.5h-8V248.2z M513.1,256.9L513.1,256.9c0.3-0.1,0.8-0.3,1.4-0.5
			c0,0,0,0,0,0c0.2-0.1,0.4-0.2,0.6-0.4c0,0,0,0,0,0c0.2-0.1,0.4-0.3,0.6-0.5c0,0,0,0,0,0c0.2-0.2,0.3-0.4,0.5-0.6c0,0,0,0,0-0.1
			c0.1-0.2,0.3-0.5,0.3-0.8c0,0,0,0,0,0c0,0,0,0,0,0c0,0,0,0,0,0c0,0,0,0,0,0c0,0,0,0,0,0c0,0,0,0,0,0c0,0,0,0,0,0l0,0c0,0,0,0,0,0
			c0,0,0,0,0,0c0,0,0,0,0,0c0,0,0,0,0,0l0,0c0,0,0,0,0,0c0,0,0,0,0,0c0,0,0,0,0,0c0,0,0,0,0,0c0,0,0,0,0,0c0,0,0,0,0,0c0,0,0,0,0,0
			h0c0,0,0,0,0,0c0,0,0,0,0,0c0,0,0,0,0-0.1c0,0,0,0,0,0c0,0,0,0,0,0c0,0,0,0,0,0l0,0v0c0,0,0,0,0-0.1c0,0,0,0,0,0c0,0,0,0,0,0v0
			c0,0,0,0,0,0c0,0,0,0,0,0c0,0,0,0,0,0c0,0,0,0,0,0c0,0,0,0,0,0v0c0,0,0,0,0,0c0,0,0,0,0,0c0,0,0,0,0,0c0,0,0,0,0,0v0c0,0,0,0,0,0
			c0,0,0,0,0,0l0,0c0,0,0,0,0,0c0,0,0,0,0,0v0c0,0,0,0,0,0c0,0,0,0,0,0c0,0,0,0,0,0v0c0,0,0,0,0,0v0c0,0,0,0,0,0v0c0,0,0,0,0,0v0
			c0,0,0,0,0,0v0c0,0,0,0,0,0v0c0,0,0,0,0,0v0c0,0,0,0,0,0c0,0,0,0,0,0v0c0-1.6-0.8-2.5-1.4-3.1c-1.6-1.5-3.9-1.5-6.2-1.5h-7.1v17.9
			h7.9c1.6,0,3.4,0,4.8-0.7c1.9-1,2.5-2.7,2.5-4.1C517.4,257.6,514.3,257.1,513.1,256.9z M507.1,251.5h2.7c0.5,0,1.1,0,1.6,0.4
			c0.5,0.4,0.7,1,0.7,1.6c0,0.8-0.4,1.4-0.9,1.7c-0.4,0.2-0.9,0.2-1.7,0.2h-2.3L507.1,251.5L507.1,251.5z M509.8,262.8h-2.7v-4.2
			h2.6c0.7,0,2.7,0,2.7,2.2C512.4,262.8,510.4,262.8,509.8,262.8z M518.6,266.1h4.3v-3.7h-4.3V266.1z M532,263
			c-3.8,0-3.8-4.5-3.8-5.6c0-0.7,0-1.4,0.1-2.1c0.1-0.5,0.2-1,0.4-1.5c0,0,0,0,0,0c0.2-0.4,0.4-0.8,0.6-1.2c0,0,0-0.1,0.1-0.1
			c0.3-0.3,0.6-0.6,0.9-0.8c0,0,0.1,0,0.1-0.1c0.2-0.1,0.3-0.1,0.5-0.2c0,0,0,0,0.1,0c0.2-0.1,0.4-0.1,0.6-0.1c0.1,0,0.3,0,0.4,0
			c1.4,0,2.7,0.7,2.9,2.5h5.1c0-0.7,0-2.3-1.5-3.8c-1.4-1.5-3.6-2.2-6.5-2.2c-2.6,0-4.9,0.5-6.8,2.6c0,0,0,0,0,0c0,0,0,0,0,0
			c0,0,0,0,0,0c0,0,0,0,0,0c0,0,0,0,0,0c0,0,0,0,0,0c0,0,0,0,0,0c0,0,0,0,0,0c0,0,0,0,0,0c0,0,0,0,0,0c0,0,0,0,0,0c0,0,0,0,0,0
			c-0.1,0.1-0.2,0.3-0.3,0.4c0,0,0,0.1-0.1,0.1c-0.2,0.2-0.3,0.5-0.4,0.7c0,0.1-0.1,0.2-0.1,0.3c-0.1,0.1-0.1,0.3-0.2,0.5
			c0,0.1-0.1,0.2-0.1,0.3c0,0.1-0.1,0.3-0.1,0.4c-0.1,0.3-0.2,0.6-0.3,0.9c0,0,0,0.1,0,0.1c0,0.2-0.1,0.4-0.1,0.6c0,0.1,0,0.1,0,0.2
			c0,0.2-0.1,0.4-0.1,0.6c0,0,0,0,0,0c-0.1,0.5-0.1,1-0.1,1.6c0,1.9,0.3,4.7,2.3,6.8c2,2.1,5,2.4,6.8,2.4c2.3,0,8-0.5,8-6.1H535
			C534.9,261.1,534.7,263,532,263z M445.3,248.2l-4,7.5l-3.9-7.5h-5.7l6.8,11.3v6.5h5v-6.3l7-11.6L445.3,248.2L445.3,248.2z
			 M465.3,258.6c-0.5-1.3-1.5-2-2.7-2.4c0,0,0,0,0,0c-0.4-0.2-0.9-0.3-1.4-0.5c0,0-0.1,0-0.1,0c-0.2-0.1-0.4-0.1-0.6-0.2l-3.3-0.9
			c-0.7-0.2-1.8-0.5-1.8-1.8c0-1.1,0.9-1.9,2.3-1.9c0.3,0,0.5,0,0.8,0.1c0.1,0,0.1,0.1,0.2,0.1c0.1,0,0.3,0.1,0.4,0.1
			c0.1,0,0.1,0.1,0.2,0.1c0.1,0.1,0.2,0.1,0.2,0.2c0.1,0.1,0.1,0.1,0.1,0.2c0.1,0.1,0.1,0.1,0.2,0.2c0,0.1,0.1,0.1,0.1,0.2
			c0,0.1,0.1,0.1,0.1,0.2c0,0.1,0,0.1,0,0.2c0,0.1,0,0.1,0,0.2c0,0.1,0,0.1,0,0.2c0,0.1,0,0.1,0,0.2c0,0.1,0,0.1,0,0.2
			c0,0,0,0.1,0,0.1h5c0-1.9-0.3-5.7-7.3-5.7c-5.3,0-7.5,2.7-7.5,5.6c0,3.7,3.2,4.6,4.4,4.9l2,0.5h0l2.4,0.6c1.2,0.3,1.5,0.9,1.5,1.7
			c0,2-2.2,2-2.6,2c-2.9,0-3-2.1-3-2.8h-5c0,0.8,0,2.5,1.4,4c1.6,1.8,4.6,2.1,6.5,2.1c4.5,0,7.9-1.8,7.9-5.8
			C465.7,259.9,465.5,259.2,465.3,258.6C465.3,258.6,465.3,258.6,465.3,258.6z M494,248.2h-6l-7,17.9h4.9l1.2-3.6h7.1l1.2,3.6h5.6
			l-3.4-8.7L494,248.2z M488.3,259.2l2.5-7.5h0.1l2.3,7.5H488.3z M558.7,252.5C558.7,252.5,558.7,252.5,558.7,252.5
			c-0.3-0.6-0.6-1.2-1.1-1.8c0,0,0,0-0.1-0.1c-0.2-0.2-0.4-0.4-0.6-0.7c-0.1-0.1-0.1-0.1-0.2-0.2c-0.2-0.2-0.4-0.3-0.6-0.5
			c-0.1-0.1-0.1-0.1-0.2-0.2c-0.3-0.2-0.5-0.3-0.8-0.5c0,0-0.1,0-0.1-0.1c-0.3-0.2-0.7-0.3-1.1-0.4c-0.1,0-0.2-0.1-0.3-0.1
			c-0.3-0.1-0.6-0.2-0.9-0.2c-0.1,0-0.3,0-0.5-0.1c-0.3,0-0.6-0.1-0.9-0.1c-0.1,0-0.2,0-0.3,0c0,0,0,0,0,0l0,0h0c0,0-0.1,0-0.1,0h0
			c0,0,0,0,0,0c0,0,0,0,0,0c0,0,0,0,0,0c0,0,0,0,0,0h-0.1c0,0,0,0,0,0h0c0,0,0,0,0,0h-0.1c-1.3,0-4.7,0.2-7,2.5c0,0,0,0,0,0
			c0,0,0,0,0,0c0,0,0,0,0,0c0,0,0,0,0,0c0,0,0,0,0,0l0,0c0,0,0,0,0,0l0,0c0,0,0,0,0,0c0,0,0,0,0,0c0,0,0,0,0,0c0,0,0,0,0,0
			c-0.1,0.1-0.2,0.3-0.3,0.4c-0.1,0.1-0.2,0.3-0.3,0.4c-0.1,0.2-0.2,0.4-0.3,0.5c-0.1,0.1-0.2,0.3-0.2,0.4c-0.1,0.2-0.2,0.4-0.2,0.5
			c-0.1,0.2-0.1,0.3-0.2,0.5c-0.1,0.2-0.1,0.3-0.1,0.5c0,0.2-0.1,0.3-0.1,0.5c0,0,0,0,0,0h0c-0.3,1.3-0.4,2.5-0.4,3
			c0,6.7,4.4,9.3,9.2,9.3c4.2,0,9.3-2.2,9.3-9.3C559.6,255.7,559.3,254,558.7,252.5L558.7,252.5z M550.4,262.9
			c-3.3,0-4.1-2.8-4.1-5.7c0-1.3,0.2-2.5,0.6-3.5c0.3-0.8,0.9-1.5,1.6-1.9c0,0,0.1,0,0.1-0.1c0.1-0.1,0.2-0.1,0.4-0.2
			c0.1,0,0.1,0,0.2-0.1c0.1,0,0.2-0.1,0.3-0.1c0.1,0,0.1,0,0.2,0c0.1,0,0.2,0,0.4,0c0.1,0,0.3,0,0.4,0c1.1,0,2.2,0.3,3,1.3
			c0.1,0.1,0.2,0.3,0.3,0.4c0.5,0.8,0.9,2,0.9,4.1C554.5,259.6,553.9,262.9,550.4,262.9z M575.3,248.2l-2.8,12.1l-3-12.1h-7.8v17.9
			h4.3l-0.1-14.4h0l0-0.7l4.1,15.1h4.4l4.2-15l-0.2,15h4.7l0-17.9L575.3,248.2z M474.9,239.5h107.9l3.7-6.1H480
			c-7.8,0-11.6,5.5-12.5,7.2c-0.9,1.9-1.6,4.3-1.6,4.3h1.3C468.1,242.1,471.4,239.5,474.9,239.5z"/>
	</g>
</g>
</svg>
