<?xml version="1.0" encoding="utf-8"?>
<!-- Generator: Adobe Illustrator 19.1.0, SVG Export Plug-In . SVG Version: 6.00 Build 0)  -->
<!DOCTYPE svg PUBLIC "-//W3C//DTD SVG 1.1//EN" "http://www.w3.org/Graphics/SVG/1.1/DTD/svg11.dtd">
<svg version="1.1" id="Layer_1" xmlns="http://www.w3.org/2000/svg" xmlns:xlink="http://www.w3.org/1999/xlink" x="0px" y="0px"
	 width="960px" height="190.4px" viewBox="-31 417.6 960 190.4" style="enable-background:new -31 417.6 960 190.4;"
	 xml:space="preserve">
<style type="text/css">
	.st0{fill:#FFFFFF;}
	.st1{opacity:0.3;fill:#FFFFFF;}
</style>
<g>
	<path class="st0" d="M159.3,523c0.1,2.6,0.3,10.2,11.1,10.2c1.5,0,9.8,0,9.8-7.5c0-3.1-1.3-5.2-5.7-6.4l-16.2-4.2
		c-4.6-1.2-16.3-4.3-16.3-18.1c0-10.7,8-20.6,27.8-20.6c25.7,0,26.8,14,26.9,21h-18.5c0-2,0.1-9.1-8.7-9.1c-5.3,0-8.7,3-8.7,6.9
		c0,4.8,4,6,6.7,6.8l12.3,3.2c8.8,2.3,19.2,5,19.2,19c0,14.7-12.6,21.3-29.1,21.3c-6.8,0-17.9-1.1-23.9-7.9
		c-4.8-5.3-4.9-11.8-5-14.6H159.3z"/>
	<path class="st0" d="M218.2,478.1l14.4,27.7l14.9-27.7h18.8l-25.7,42.6V544h-18.4v-24.1L197,478.1H218.2z"/>
	<path class="st0" d="M283.2,523c0.1,2.6,0.3,10.2,11.1,10.2c1.6,0,9.8,0,9.8-7.5c0-3.1-1.3-5.2-5.7-6.4l-16.2-4.2
		c-4.6-1.2-16.3-4.3-16.3-18.1c0-10.7,8-20.6,27.8-20.6c25.7,0,26.8,14,26.9,21h-18.5c0-2,0.1-9.1-8.7-9.1c-5.3,0-8.7,3-8.7,6.9
		c0,4.8,4,6,6.7,6.8l12.3,3.2c8.8,2.3,19.2,5,19.2,19c0,14.7-12.6,21.3-29.1,21.3c-6.8,0-17.9-1.1-23.9-7.9
		c-4.8-5.3-4.9-11.8-5-14.6H283.2z"/>
	<path class="st0" d="M331,478.1h18.5v53h29.6v13H331V478.1z"/>
	<path class="st0" d="M405.5,478.1h22.3l26,65.9h-20.6l-4.6-13.2h-26.4l-4.5,13.2h-18.3L405.5,478.1z M424.4,518.6l-8.5-27.7h-0.3
		l-9.1,27.7H424.4z"/>
	<path class="st0" d="M458.3,478.1h26.4c8.3,0,16.8,0,22.8,5.4c2.1,1.9,5,5.5,5,11.3c0,11.7-10.8,14.2-14.1,15v0.2
		c4.1,0.7,15.9,2.8,15.9,16.3c0,5.1-1.9,11.1-9.1,15c-5.2,2.7-11.9,2.7-17.8,2.7h-29.1V478.1z M476.1,504.6h8.6c2.9,0,4.8,0,6.4-0.8
		c2.1-1.2,3.5-3.6,3.5-6.4c0-2-0.7-4.4-2.6-5.8c-2-1.6-4-1.6-5.9-1.6h-10V504.6z M476.1,531.9h10.1c2.1,0,9.4,0,9.4-7.7
		c0-7.9-7.5-7.9-10-7.9h-9.6V531.9z"/>
	<path class="st0" d="M518.7,530.4h16.1V544h-16.1V530.4z"/>
	<path class="st0" d="M579.3,498.8c-0.8-6.7-5.5-9.1-10.7-9.1c-11,0-14.4,10.1-14.4,22.2c0,4,0.1,20.6,14.2,20.6
		c9.7,0,10.7-7,11-9.6h19c-0.1,20.6-21.1,22.4-29.7,22.4c-6.4,0-17.7-1.1-25-8.8c-7.2-7.7-8.5-18.2-8.5-25c0-9,2.1-18.1,8.3-25.1
		c6.8-7.7,15.4-9.7,25-9.7c10.7,0,18.8,2.6,24,8c5.3,5.7,5.4,11.6,5.5,14.1H579.3z"/>
	<path class="st0" d="M611.2,485.4c8.3-8.4,20.9-9.1,25.7-9.1c26.3,0,33.4,18.9,33.4,35c0,26.3-18.6,34.3-34.3,34.3
		c-17.5,0-33.9-9.7-33.9-34.2C602.2,506.9,602.9,493.8,611.2,485.4z M636.3,532.1c13.1,0,15.2-12.1,15.2-21.2
		c0-9.2-2.2-13.8-4.2-16.7c-2.6-3.7-6.9-4.7-11-4.7c-12.1,0-15.3,10.4-15.3,21.7C621,521.7,624.1,532.1,636.3,532.1z"/>
	<path class="st0" d="M678.4,478.1h28.8l11,44.6l10.4-44.6l28.7-0.1l0.1,66H740l0.8-55.3L725.2,544h-16.4l-15.1-55.8l0.5,55.8h-15.8
		V478.1z"/>
</g>
<g>
	<path class="st1" d="M179.8,505.2l-12.3-3.2c-2.6-0.7-6.7-1.9-6.7-6.8c0-3.9,3.4-6.9,8.7-6.9c8.8,0,8.7,7.1,8.7,9.1h18.5
		c-0.1-7-1.2-21-26.9-21c-19.7,0-27.8,10-27.8,20.6c0,13.8,11.8,16.9,16.3,18.1l2.2,0.6c11.9,0.5,24.3,0.8,37.2,1.1
		C194.7,509.1,186.8,507,179.8,505.2z"/>
	<path class="st1" d="M247.5,478.1l-14.9,27.7l-14.4-27.7H197l23.5,39.1c7.2,0.1,14.6,0.1,22.1,0.1l23.7-39.3H247.5z"/>
	<path class="st1" d="M303.7,505.2l-12.3-3.2c-2.6-0.7-6.7-1.9-6.7-6.8c0-3.9,3.4-6.9,8.7-6.9c8.8,0,8.7,7.1,8.7,9.1h18.5
		c-0.1-7-1.2-21-26.9-21c-19.7,0-27.8,10-27.8,20.6c0,13.8,11.8,16.9,16.3,18.1l7.4,1.9c10.4-0.1,21-0.3,31.8-0.6
		C318.4,509.1,310.5,507,303.7,505.2z"/>
	<path class="st1" d="M331,478.1v38.2c6.1-0.2,12.3-0.3,18.5-0.5v-37.7H331z"/>
	<path class="st1" d="M405.5,478.1l-14.3,36.1c5.6-0.2,11.3-0.5,17-0.7l7.4-22.5h0.3l6.7,21.8c6.1-0.3,12.3-0.6,18.5-1l-13.3-33.8
		H405.5z"/>
	<path class="st1" d="M512.6,494.8c0-5.8-2.9-9.4-5-11.3c-6-5.4-14.5-5.4-22.8-5.4h-26.4v32.8c15-0.9,30.1-1.8,45.4-2.9
		C507.9,506.2,512.6,502.5,512.6,494.8z M491,503.8c-1.6,0.8-3.5,0.8-6.4,0.8h-8.6V490h10c1.9,0,3.9,0,5.9,1.6
		c1.8,1.5,2.6,3.8,2.6,5.8C494.5,500.3,493.1,502.6,491,503.8z"/>
	<path class="st1" d="M568.7,489.7c5.2,0,9.9,2.5,10.7,9.1h18.8c-0.1-2.5-0.2-8.4-5.5-14.1c-5.2-5.5-13.3-8-24-8
		c-9.6,0-18.3,2-25,9.7c-4.9,5.5-7.2,12.3-8,19.4c6.4-0.5,12.8-1,19.1-1.5C556.1,495.8,560,489.7,568.7,489.7z"/>
	<path class="st1" d="M637,476.3c-4.8,0-17.4,0.7-25.7,9.1c-4.2,4.3-6.5,9.8-7.7,14.7c6.6-0.6,13.1-1.2,19.6-1.8
		c2.1-5.2,6.2-8.8,13.2-8.8c4,0,8.3,1.1,11,4.7c0.3,0.5,0.6,1,1,1.6c6.3-0.6,12.6-1.3,18.8-2C662.8,484,653.8,476.3,637,476.3z"/>
	<path class="st1" d="M728.5,478.1l-2.1,8.9c10.4-1.3,20.7-2.6,30.8-4l0-5.1L728.5,478.1z"/>
	<path class="st1" d="M707.1,478.1h-28.8v14.5c5.2-0.6,10.3-1.1,15.4-1.7l0-2.7l0.7,2.6c5.2-0.6,10.3-1.2,15.4-1.8L707.1,478.1z"/>
</g>
<g>
	<path class="st0" d="M492.8,578.6H140.9l-13.5,22.5h346.4c29,0,43-20.5,46.1-26.7c3.4-6.9,6.1-15.8,6.1-15.8h-5
		C517.7,568.9,505.7,578.6,492.8,578.6z"/>
</g>
<g>
	<path class="st0" d="M356.9,445.8h399.2l13.5-22.5H375.8c-29,0-43,20.5-46.1,26.7c-3.4,6.9-6.1,15.8-6.1,15.8h5
		C332,455.5,343.9,445.8,356.9,445.8z"/>
</g>
</svg>
