<?xml version="1.0" encoding="utf-8"?>
<!-- Generator: Adobe Illustrator 18.0.0, SVG Export Plug-In . SVG Version: 6.00 Build 0)  -->
<!DOCTYPE svg PUBLIC "-//W3C//DTD SVG 1.1//EN" "http://www.w3.org/Graphics/SVG/1.1/DTD/svg11.dtd">
<svg version="1.1" id="Layer_1" xmlns="http://www.w3.org/2000/svg" xmlns:xlink="http://www.w3.org/1999/xlink" x="0px" y="0px"
	 viewBox="417.1 419.9 960 190.4" enable-background="new 417.1 419.9 960 190.4" xml:space="preserve">
<g>
	<path fill="#FFFFFF" d="M445.7,575.8c0.1,4,0.4,15.6,17,15.6c2.4,0,14.9,0,14.9-11.4c0-4.7-1.9-8-8.6-9.8l-24.6-6.4
		c-7-1.8-24.9-6.6-24.9-27.7c0-16.3,12.3-31.6,42.3-31.6c39.3,0,40.9,21.4,41.1,32.1h-28.3c0-3.1,0.1-14-13.2-14
		c-8.1,0-13.2,4.6-13.2,10.6c0,7.4,6.1,9.2,10.2,10.3l18.8,4.9c13.4,3.5,29.2,7.7,29.2,29c0,22.5-19.2,32.5-44.4,32.5
		c-10.4,0-27.3-1.7-36.5-12c-7.4-8.1-7.5-18-7.7-22.3H445.7"/>
	<path fill="#FFFFFF" d="M535.5,507.1l22,42.3l22.7-42.3h28.7l-39.3,65.2v35.6h-28.1v-36.9l-38.3-64H535.5"/>
	<path fill="#FFFFFF" d="M634.6,575.8c0.1,4,0.4,15.6,17,15.6c2.4,0,14.9,0,14.9-11.4c0-4.7-2-8-8.6-9.8l-24.6-6.4
		c-7-1.8-24.9-6.6-24.9-27.7c0-16.3,12.3-31.6,42.3-31.6c39.3,0,40.9,21.4,41.1,32.1h-28.3c0-3.1,0.1-14-13.2-14
		c-8.1,0-13.2,4.6-13.2,10.6c0,7.4,6.1,9.2,10.2,10.3l18.8,4.9c13.4,3.5,29.2,7.7,29.2,29c0,22.5-19.2,32.5-44.4,32.5
		c-10.4,0-27.3-1.7-36.5-12c-7.4-8.1-7.5-18-7.7-22.3H634.6"/>
	<path fill="#FFFFFF" d="M707.6,507.1h28.3v81H781v19.8h-73.4V507.1"/>
	<path fill="#FFFFFF" d="M821.1,507.1h34l39.7,100.8h-31.5l-7-20.3h-40.2l-6.8,20.3h-27.9L821.1,507.1 M849.9,569.1l-13-42.3h-0.4
		l-13.9,42.3H849.9"/>
	<path fill="#FFFFFF" d="M901.8,507.1H942c12.7,0,25.6,0,34.8,8.2c3.2,2.9,7.7,8.4,7.7,17.3c0,17.9-16.4,21.6-21.4,22.9v0.3
		c6.3,1.1,24.2,4.3,24.2,25c0,7.8-2.9,17-13.9,22.9c-7.9,4.2-18.1,4.2-27.2,4.2h-44.4V507.1 M928.8,547.7h13.1c4.5,0,7.4,0,9.7-1.3
		c3.2-1.8,5.3-5.4,5.3-9.8c0-3.1-1.1-6.7-3.9-8.9c-3.1-2.4-6.1-2.4-9-2.4h-15.2V547.7 M928.9,589.5h15.5c3.2,0,14.3,0,14.3-11.7
		c0-12.2-11.4-12.2-15.2-12.2h-14.6V589.5"/>
	<path fill="#FFFFFF" d="M993.8,587.1h24.5v20.8h-24.5V587.1z"/>
	<path fill="#FFFFFF" d="M1086.3,538.8c-1.2-10.2-8.4-14-16.3-14c-16.8,0-22,15.5-22,33.9c0,6.1,0.1,31.6,21.7,31.6
		c14.8,0,16.3-10.8,16.9-14.7h29c-0.1,31.6-32.2,34.2-45.3,34.2c-9.7,0-27-1.7-38.2-13.4c-11-11.7-12.9-27.8-12.9-38.3
		c0-13.8,3.2-27.7,12.7-38.4c10.3-11.7,23.5-14.8,38.2-14.8c16.3,0,28.7,3.9,36.6,12.3c8.1,8.7,8.2,17.7,8.4,21.5H1086.3"/>
	<path fill="#FFFFFF" d="M1135,518.3c12.7-12.8,31.9-14,39.3-14c40.1,0,51,28.9,51,53.5c0,40.2-28.4,52.5-52.4,52.5
		c-26.7,0-51.7-14.8-51.7-52.4C1121.2,551.2,1122.3,531.1,1135,518.3 M1173.1,589.8c19.9,0,23.3-18.4,23.3-32.4
		c0-14.1-3.3-21.1-6.4-25.6c-4-5.6-10.6-7.3-16.7-7.3c-18.4,0-23.4,15.9-23.4,33.2C1149.9,573.9,1154.6,589.8,1173.1,589.8"/>
	<path fill="#FFFFFF" d="M1237.3,507.1h43.9l16.7,68.3l15.9-68.3l43.7-0.1l0.1,101h-26.3l1.2-84.6l-23.8,84.6h-25.1l-23-85.3
		l0.7,85.3h-24.1V507.1"/>
	<path fill="#FFFFFF" d="M444.3,563.8l3.3,0.9h0L444.3,563.8"/>
	<path fill="#FFFFFF" d="M461.7,504.6c-30.1,0-42.3,15.2-42.3,31.6c0,21.1,18,25.8,24.9,27.7l0,0l3.3,0.9c18.1,0.7,37,1.3,56.7,1.7
		c-4.6-11.8-16.7-15-27.3-17.8l0,0l-18.8-4.9c-4-1.1-10.2-2.9-10.2-10.3l0,0l0,0c0-6,5.2-10.6,13.2-10.6c13.2,0,13.2,10.6,13.2,13.8
		c0,0,0,0.1,0,0.1c0,0,0,0,0,0h28.3C502.6,525.9,501,504.6,461.7,504.6"/>
	<path fill="#FFFFFF" d="M503.2,507.1l35.8,59.8c0,0,0,0,0,0L503.2,507.1"/>
	<path fill="#FFFFFF" d="M608.9,507.1h-28.7l-22.7,42.3l-22-42.3h-32.3l35.8,59.8c11,0.1,22.3,0.2,33.7,0.2L608.9,507.1"/>
	<path fill="#FFFFFF" d="M650.6,504.6c-30.1,0-42.3,15.2-42.3,31.6c0,21.1,18,25.8,24.9,27.7l0,0l11.3,2.9
		c15.9-0.2,32.1-0.5,48.5-0.9c-4.8-11.4-16.7-14.5-27.1-17.3l0,0l-18.8-4.9c-4-1.1-10.2-2.9-10.2-10.3l0,0l0,0
		c0-6,5.1-10.6,13.2-10.6c13.2,0,13.2,10.6,13.2,13.8c0,0,0,0.1,0,0.1c0,0,0,0,0,0h28.3C691.6,525.9,689.9,504.6,650.6,504.6"/>
	<path fill="#FFFFFF" d="M735.9,507.1h-28.3v58.4c9.3-0.2,18.8-0.5,28.3-0.8V507.1"/>
	<path fill="#FFFFFF" d="M855.1,507.1h-34l-21.8,55.3c8.6-0.4,17.2-0.7,25.9-1.1l11.3-34.5h0.4l10.2,33.4c9.3-0.5,18.7-0.9,28.2-1.5
		L855.1,507.1"/>
	<path fill="#FFFFFF" d="M983.6,539.3C983.6,539.3,983.6,539.3,983.6,539.3C983.6,539.3,983.6,539.3,983.6,539.3 M983.7,539.1
		C983.7,539.1,983.7,539.1,983.7,539.1C983.7,539.1,983.7,539.1,983.7,539.1 M983.7,539C983.7,539,983.7,539,983.7,539
		C983.7,539,983.7,539,983.7,539 M983.8,538.8C983.7,538.8,983.7,538.8,983.8,538.8C983.7,538.8,983.7,538.8,983.8,538.8
		 M983.8,538.6C983.8,538.6,983.8,538.6,983.8,538.6C983.8,538.6,983.8,538.6,983.8,538.6 M983.8,538.4c0,0,0,0.1,0,0.1
		C983.8,538.5,983.8,538.4,983.8,538.4 M983.9,538.2c0,0,0,0.1,0,0.1C983.9,538.3,983.9,538.3,983.9,538.2 M983.9,538
		c0,0,0,0.1,0,0.1C983.9,538.1,983.9,538.1,983.9,538 M984,537.9c0,0.1,0,0.1,0,0.2C983.9,538,984,537.9,984,537.9 M984,537.7
		c0,0.1,0,0.1,0,0.2C984,537.8,984,537.7,984,537.7 M984.1,537.3c0,0.1,0,0.2-0.1,0.3C984,537.6,984,537.4,984.1,537.3 M984.1,537.1
		c0,0.1,0,0.1,0,0.2C984.1,537.2,984.1,537.2,984.1,537.1 M984.1,537c0,0.1,0,0.1,0,0.2C984.1,537.1,984.1,537,984.1,537
		 M984.2,536.6c0,0.1,0,0.2-0.1,0.3C984.2,536.8,984.2,536.7,984.2,536.6 M984.2,536.4c0,0.1,0,0.1,0,0.2
		C984.2,536.5,984.2,536.5,984.2,536.4 M984.2,536.2c0,0.1,0,0.1,0,0.2C984.2,536.3,984.2,536.3,984.2,536.2 M984.3,536
		c0,0.1,0,0.1,0,0.2C984.3,536.2,984.3,536.1,984.3,536 M984.3,535.9c0,0.1,0,0.1,0,0.2C984.3,536,984.3,535.9,984.3,535.9
		 M984.3,535.7c0,0.1,0,0.1,0,0.2C984.3,535.8,984.3,535.7,984.3,535.7 M984.3,535.5c0,0.1,0,0.1,0,0.2
		C984.3,535.6,984.3,535.5,984.3,535.5 M984.4,535.3c0,0.1,0,0.1,0,0.2C984.3,535.4,984.4,535.3,984.4,535.3 M984.4,535.1
		c0,0.1,0,0.1,0,0.2C984.4,535.2,984.4,535.1,984.4,535.1 M984.4,534.9c0,0.1,0,0.1,0,0.2C984.4,535,984.4,534.9,984.4,534.9
		 M984.4,534.7c0,0.1,0,0.1,0,0.2C984.4,534.8,984.4,534.7,984.4,534.7 M984.4,534.5c0,0.1,0,0.1,0,0.2
		C984.4,534.6,984.4,534.6,984.4,534.5 M984.4,534.3c0,0.1,0,0.1,0,0.2C984.4,534.4,984.4,534.4,984.4,534.3 M984.4,534.1
		c0,0.1,0,0.1,0,0.2C984.4,534.2,984.4,534.2,984.4,534.1 M984.5,533.9c0,0.1,0,0.1,0,0.2C984.4,534,984.4,534,984.5,533.9
		 M984.5,533.7c0,0.1,0,0.1,0,0.2C984.5,533.8,984.5,533.8,984.5,533.7 M984.5,533.5c0,0.1,0,0.1,0,0.2
		C984.5,533.6,984.5,533.5,984.5,533.5 M984.5,533.3c0,0.1,0,0.1,0,0.2C984.5,533.4,984.5,533.4,984.5,533.3 M984.5,533.1
		c0,0.1,0,0.1,0,0.2C984.5,533.2,984.5,533.1,984.5,533.1 M984.5,532.9c0,0.1,0,0.1,0,0.2C984.5,533,984.5,532.9,984.5,532.9
		 M984.5,532.7c0,0.1,0,0.1,0,0.2C984.5,532.8,984.5,532.7,984.5,532.7"/>
	<path fill="#FFFFFF" d="M928.8,525.4L928.8,525.4H944c2.9,0,6,0,9,2.4c2.8,2.2,3.9,5.9,3.9,8.9l0,0l0,0c0,4.3-2.1,8-5.3,9.8
		c-2.4,1.3-5.3,1.3-9.7,1.3h-13.1V525.4 M942,507.1h-40.2v50.2c22.8-1.3,45.9-2.8,69.3-4.4c5-2.2,10.5-6.2,12.6-13.6c0,0,0,0,0,0
		c0-0.1,0-0.1,0.1-0.2c0,0,0,0,0,0c0,0,0-0.1,0-0.1c0,0,0,0,0-0.1c0,0,0-0.1,0-0.1c0,0,0,0,0-0.1c0,0,0,0,0-0.1c0,0,0-0.1,0-0.1
		c0,0,0,0,0-0.1c0,0,0-0.1,0-0.1c0,0,0,0,0-0.1c0,0,0-0.1,0-0.1c0,0,0,0,0,0c0,0,0-0.1,0-0.1c0,0,0,0,0,0c0-0.1,0-0.1,0-0.2
		c0,0,0,0,0,0c0-0.1,0-0.1,0-0.2c0,0,0,0,0,0c0-0.1,0-0.2,0.1-0.3c0,0,0,0,0,0c0-0.1,0-0.1,0-0.2c0,0,0,0,0,0c0-0.1,0-0.1,0-0.2
		c0,0,0,0,0,0c0-0.1,0-0.2,0.1-0.3c0,0,0,0,0,0c0-0.1,0-0.1,0-0.2v0c0-0.1,0-0.1,0-0.2c0,0,0,0,0,0c0-0.1,0-0.1,0-0.2c0,0,0,0,0,0
		c0-0.1,0-0.1,0-0.2c0,0,0,0,0,0c0-0.1,0-0.1,0-0.2c0,0,0,0,0,0c0-0.1,0-0.1,0-0.2c0,0,0,0,0,0c0-0.1,0-0.1,0-0.2c0,0,0,0,0,0
		c0-0.1,0-0.1,0-0.2c0,0,0,0,0,0c0-0.1,0-0.1,0-0.2c0,0,0,0,0,0c0-0.1,0-0.1,0-0.2c0,0,0,0,0,0c0-0.1,0-0.1,0-0.2c0,0,0,0,0,0
		c0-0.1,0-0.1,0-0.2c0,0,0,0,0,0c0-0.1,0-0.1,0-0.2c0,0,0,0,0,0c0-0.1,0-0.1,0-0.2c0,0,0,0,0,0c0-0.1,0-0.1,0-0.2c0,0,0,0,0,0
		c0-0.1,0-0.1,0-0.2c0,0,0,0,0,0c0-0.1,0-0.1,0-0.2c0,0,0,0,0,0c0-0.1,0-0.1,0-0.2c0,0,0,0,0,0c0-0.1,0-0.1,0-0.2c0,0,0,0,0,0
		c0-0.1,0-0.1,0-0.2l0,0c0-8.9-4.5-14.4-7.7-17.3C967.6,507.1,954.7,507.1,942,507.1"/>
	<path fill="#FFFFFF" d="M1068.2,524.9c-11.9,0.8-17.4,10-19.4,22.3c0,0,0,0,0,0C1050.8,534.9,1056.3,525.7,1068.2,524.9
		 M1068.3,524.9c0,0-0.1,0-0.1,0C1068.3,524.9,1068.3,524.9,1068.3,524.9 M1068.5,524.9c0,0-0.1,0-0.1,0
		C1068.4,524.9,1068.5,524.9,1068.5,524.9 M1068.7,524.9c-0.1,0-0.1,0-0.2,0C1068.6,524.9,1068.7,524.9,1068.7,524.9 M1068.9,524.9
		C1068.9,524.9,1068.8,524.9,1068.9,524.9C1068.8,524.9,1068.9,524.9,1068.9,524.9 M1069.1,524.8
		C1069,524.8,1069,524.8,1069.1,524.8C1069,524.8,1069,524.8,1069.1,524.8 M1069.2,524.8C1069.2,524.8,1069.2,524.8,1069.2,524.8
		C1069.2,524.8,1069.2,524.8,1069.2,524.8 M1069.5,524.8C1069.4,524.8,1069.4,524.8,1069.5,524.8
		C1069.4,524.8,1069.4,524.8,1069.5,524.8 M1069.7,524.8C1069.6,524.8,1069.6,524.8,1069.7,524.8
		C1069.6,524.8,1069.6,524.8,1069.7,524.8 M1069.8,524.8C1069.8,524.8,1069.8,524.8,1069.8,524.8
		C1069.8,524.8,1069.8,524.8,1069.8,524.8 M1030.8,521C1030.8,521,1030.8,521,1030.8,521C1030.8,521,1030.8,521,1030.8,521
		 M1031,520.8C1031,520.8,1031,520.8,1031,520.8C1031,520.8,1031,520.8,1031,520.8 M1031.2,520.6
		C1031.2,520.6,1031.2,520.6,1031.2,520.6C1031.2,520.6,1031.2,520.6,1031.2,520.6 M1031.4,520.4
		C1031.4,520.4,1031.3,520.4,1031.4,520.4C1031.3,520.4,1031.4,520.4,1031.4,520.4 M1031.5,520.2
		C1031.5,520.2,1031.5,520.2,1031.5,520.2C1031.5,520.2,1031.5,520.2,1031.5,520.2 M1031.7,520C1031.7,520,1031.7,520,1031.7,520
		C1031.7,520,1031.7,520,1031.7,520"/>
	<path fill="#FFFFFF" d="M1070,505c-14.6,0-27.9,3.1-38.2,14.8l0,0c-0.1,0.1-0.1,0.1-0.1,0.2c0,0,0,0,0,0.1c0,0.1-0.1,0.1-0.1,0.2
		c0,0,0,0,0,0.1c0,0-0.1,0.1-0.1,0.1c0,0,0,0-0.1,0.1c0,0.1-0.1,0.1-0.1,0.2c0,0,0,0,0,0.1c0,0-0.1,0.1-0.1,0.1c0,0,0,0,0,0
		c0,0.1-0.1,0.1-0.1,0.2c0,0,0,0,0,0c-6.7,8.2-10,18.1-11.1,28.4c9.8-0.7,19.5-1.5,29.1-2.3c1.9-12.3,7.5-21.4,19.4-22.3
		c0,0,0,0,0,0c0,0,0.1,0,0.1,0c0,0,0,0,0.1,0c0,0,0.1,0,0.1,0c0,0,0,0,0.1,0c0.1,0,0.1,0,0.2,0c0,0,0.1,0,0.1,0c0,0,0.1,0,0.1,0
		c0,0,0.1,0,0.1,0c0,0,0,0,0.1,0c0,0,0.1,0,0.1,0c0,0,0,0,0.1,0c0.1,0,0.1,0,0.2,0c0,0,0,0,0,0c0,0,0.1,0,0.1,0c0,0,0,0,0.1,0
		c0,0,0.1,0,0.1,0c0,0,0,0,0.1,0c0.1,0,0.1,0,0.2,0c7.9,0,15,3.8,16.3,14h28.7c-0.1-3.8-0.3-12.8-8.4-21.5
		C1098.7,508.9,1086.3,505,1070,505"/>
	<path fill="#FFFFFF" d="M1190,531.8c0.5,0.7,1,1.5,1.5,2.4c0,0,0,0,0,0C1191,533.3,1190.5,532.5,1190,531.8 M1171.6,524.6
		c-9.8,0.5-15.5,5.8-18.6,13.4c0,0,0,0,0,0C1156.2,530.4,1161.9,525.1,1171.6,524.6 M1171.9,524.6c-0.1,0-0.1,0-0.2,0
		C1171.7,524.6,1171.8,524.6,1171.9,524.6 M1172,524.6C1172,524.6,1172,524.6,1172,524.6C1172,524.6,1172,524.6,1172,524.6
		 M1172.2,524.6C1172.2,524.6,1172.2,524.6,1172.2,524.6C1172.2,524.6,1172.2,524.6,1172.2,524.6 M1172.4,524.6
		C1172.4,524.6,1172.4,524.6,1172.4,524.6C1172.4,524.6,1172.4,524.6,1172.4,524.6 M1172.6,524.6
		C1172.6,524.6,1172.6,524.6,1172.6,524.6C1172.6,524.6,1172.6,524.6,1172.6,524.6 M1172.8,524.6
		C1172.8,524.6,1172.8,524.6,1172.8,524.6C1172.8,524.6,1172.8,524.6,1172.8,524.6 M1173.1,524.6
		C1173,524.6,1173,524.6,1173.1,524.6C1173,524.6,1173.1,524.6,1173.1,524.6 M1134.1,519.2C1134.1,519.2,1134.1,519.2,1134.1,519.2
		C1134.1,519.2,1134.1,519.2,1134.1,519.2 M1134.2,519C1134.2,519,1134.2,519,1134.2,519C1134.2,519,1134.2,519,1134.2,519
		 M1134.4,518.9C1134.4,518.9,1134.4,518.9,1134.4,518.9C1134.4,518.9,1134.4,518.9,1134.4,518.9 M1134.5,518.7
		C1134.5,518.7,1134.5,518.7,1134.5,518.7C1134.5,518.7,1134.5,518.7,1134.5,518.7 M1134.7,518.6
		C1134.7,518.6,1134.7,518.6,1134.7,518.6C1134.7,518.6,1134.7,518.6,1134.7,518.6 M1134.8,518.4
		C1134.8,518.4,1134.8,518.4,1134.8,518.4C1134.8,518.4,1134.8,518.4,1134.8,518.4 M1176.9,504.3
		C1176.9,504.3,1176.9,504.3,1176.9,504.3C1176.9,504.3,1176.9,504.3,1176.9,504.3 M1176.6,504.3
		C1176.6,504.3,1176.6,504.3,1176.6,504.3C1176.6,504.3,1176.6,504.3,1176.6,504.3 M1176,504.3C1176,504.3,1176,504.3,1176,504.3
		C1176,504.3,1176,504.3,1176,504.3 M1175.7,504.3C1175.7,504.3,1175.7,504.3,1175.7,504.3C1175.7,504.3,1175.7,504.3,1175.7,504.3
		 M1175.4,504.3C1175.4,504.3,1175.5,504.3,1175.4,504.3C1175.5,504.3,1175.4,504.3,1175.4,504.3 M1175.1,504.3
		C1175.1,504.3,1175.1,504.3,1175.1,504.3C1175.1,504.3,1175.1,504.3,1175.1,504.3 M1174.8,504.3
		C1174.8,504.3,1174.8,504.3,1174.8,504.3C1174.8,504.3,1174.8,504.3,1174.8,504.3 M1174.5,504.3
		C1174.5,504.3,1174.6,504.3,1174.5,504.3C1174.6,504.3,1174.5,504.3,1174.5,504.3"/>
	<path fill="#FFFFFF" d="M1174.2,504.3c-7.4,0-26.6,1.1-39.3,14l0,0c-0.1,0.1-0.1,0.1-0.2,0.2c0,0,0,0,0,0c0,0-0.1,0.1-0.1,0.1
		c0,0,0,0,0,0c0,0-0.1,0.1-0.1,0.1c0,0,0,0,0,0c0,0-0.1,0.1-0.1,0.1c0,0,0,0,0,0c0,0-0.1,0.1-0.1,0.1c0,0,0,0,0,0
		c0,0.1-0.1,0.1-0.1,0.1c0,0,0,0,0,0c-5.9,6.4-9.1,14.4-10.8,21.6c10-0.9,19.9-1.8,29.8-2.8c3.1-7.6,8.8-12.9,18.6-13.4c0,0,0,0,0,0
		c0.1,0,0.1,0,0.2,0c0,0,0,0,0.1,0c0,0,0.1,0,0.1,0c0,0,0.1,0,0.1,0c0,0,0.1,0,0.1,0c0.1,0,0.1,0,0.2,0c0,0,0,0,0.1,0
		c0.1,0,0.1,0,0.1,0c0,0,0,0,0,0c0.1,0,0.1,0,0.2,0c0,0,0,0,0,0c0.1,0,0.1,0,0.2,0c0,0,0,0,0,0c0.1,0,0.1,0,0.2,0
		c6.1,0,12.7,1.7,16.7,7.3l0,0c0.5,0.7,1,1.5,1.5,2.4c9.6-1,19.2-2,28.6-3c-6.3-14.5-19.2-26.1-43.2-26.9c0,0,0,0,0,0
		c-0.1,0-0.2,0-0.3,0c0,0,0,0,0,0c-0.2,0-0.4,0-0.6,0c0,0,0,0,0,0c-0.1,0-0.2,0-0.2,0c0,0,0,0-0.1,0c-0.1,0-0.1,0-0.2,0
		c0,0,0,0-0.1,0c-0.1,0-0.2,0-0.3,0c0,0,0,0,0,0c-0.1,0-0.1,0-0.2,0c0,0-0.1,0-0.1,0c-0.1,0-0.1,0-0.2,0c0,0-0.1,0-0.1,0
		C1174.4,504.3,1174.3,504.3,1174.2,504.3L1174.2,504.3"/>
	<path fill="#FFFFFF" d="M1357.5,507l-43.7,0.1l-3.2,13.7c15.9-2,31.6-4,46.9-6L1357.5,507"/>
	<path fill="#FFFFFF" d="M1260.7,522.6l0,4.1l0,0L1260.7,522.6"/>
	<path fill="#FFFFFF" d="M1281.2,507.1h-43.9v22.3c7.9-0.9,15.7-1.7,23.4-2.6l0-4.1l1.1,4c7.9-0.9,15.7-1.8,23.5-2.7L1281.2,507.1"
		/>
	<path fill="#FFFFFF" d="M747,457.7h608.8l20.6-34.4H775.9c-44.3,0-65.6,31.3-70.3,40.9c-5.2,10.6-9.3,24.1-9.3,24.1h7.6
		C709,472.5,727.3,457.7,747,457.7z"/>
</g>
</svg>
