<?xml version="1.0" encoding="utf-8"?>
<!-- Generator: Adobe Illustrator 15.1.0, SVG Export Plug-In . SVG Version: 6.00 Build 0)  -->
<!DOCTYPE svg PUBLIC "-//W3C//DTD SVG 1.1//EN" "http://www.w3.org/Graphics/SVG/1.1/DTD/svg11.dtd">
<svg version="1.1" id="svg3576" xmlns:svg="http://www.w3.org/2000/svg"
	 xmlns="http://www.w3.org/2000/svg" xmlns:xlink="http://www.w3.org/1999/xlink" x="0px" y="0px" width="530.408px"
	 height="202.33px" viewBox="0 0 530.408 202.33" enable-background="new 0 0 530.408 202.33" xml:space="preserve">
<g id="layer1" transform="translate(-103.36719,-425.48316)">
	<path id="path46" fill="#FFFFFF" d="M581.859,466.318c-2.823,0-5.22,0.3-6.089,0.714c-4.658,1.941-4.852,16.147,0.311,17.46
		c1.07,0.346,3.234,0.558,5.747,0.558c2.604,0,4.849-0.223,5.871-0.59c5.146-1.566,4.881-16.155-0.03-17.552
		C586.634,466.549,584.424,466.318,581.859,466.318L581.859,466.318z M581.859,506.02c-2.823,0-5.22,0.3-6.089,0.714
		c-4.658,1.941-4.852,16.143,0.311,17.459c1.07,0.346,3.234,0.59,5.747,0.59c2.604,0,4.849-0.255,5.871-0.621
		c5.146-1.566,4.881-16.151-0.03-17.552C586.634,506.256,584.424,506.02,581.859,506.02L581.859,506.02z"/>
	<path id="path248" fill="#FFFFFF" d="M153.675,442.148c-3.413-0.001-6.804,1.381-6.804,4.194v23.268
		c0,5.516,3.074,9.445,10.904,9.445h32.868c3.607,0,5.557,2.315,5.561,4.691v21.714c0,2.545-1.437,5.53-5.374,5.53h-41.039
		c-5.632,0-5.383,14.01,0.217,14.01h43.866c9.308,0,16.03-9.074,16.03-15.999v-28.55c0-7.17-6.826-14.756-16.154-14.756h-29.202
		c-2.238,0-4.039-1.357-4.039-3.822v-15.501C160.51,443.561,157.088,442.15,153.675,442.148L153.675,442.148z M414.879,464.919
		c-3.417-0.015-6.834,1.354-6.834,4.163v36.875c0,2.544-1.438,5.499-5.375,5.499h-23.393c-3.938,0-5.402-2.955-5.405-5.499
		l-0.031-36.689c-0.004-5.616-13.669-5.593-13.669,0.031l0.031,40.076c0.004,6.924,6.598,15.625,15.906,15.625h29.73
		c9.308,0,15.901-8.701,15.906-15.625l-0.031-40.231C421.716,466.333,418.296,464.935,414.879,464.919L414.879,464.919z
		 M300.742,465.634l-39.081,0.031c-4.952,0.007-4.704,12.702,0.248,12.706l35.354,0.031c3.7,0.004,5.712,2.468,5.716,4.909
		l0.032,5.001l-37.714,0.062c-9.94,0-16.481,9.084-16.465,15.751v5.219c0.016,6.723,6.555,15.657,16.092,15.657h36.472
		c9.034,0,14.814-8.934,14.818-15.657v-29.016C316.213,473.034,308.963,465.623,300.742,465.634z M512.644,465.634l-39.081,0.031
		c-4.951,0.007-4.703,12.702,0.249,12.706l35.354,0.031c3.699,0.004,5.742,2.468,5.747,4.909v5.001l-37.715,0.062
		c-9.94,0-16.48,9.084-16.465,15.751v5.219c0.017,6.723,6.554,15.657,16.093,15.657h36.471c9.034,0,14.814-8.934,14.818-15.657
		v-29.016C528.118,473.034,520.864,465.623,512.644,465.634z M267.16,500.676h30.849c3.865,0,5.033,2.587,5.033,5.095v1.616
		c0,2.508-1.168,5.095-5.033,5.095H267.16c-3.869,0-5.064-2.587-5.064-5.095v-1.616C262.096,503.263,263.291,500.676,267.16,500.676
		z M479.061,500.676h30.85c3.864,0,5.033,2.587,5.033,5.095v1.616c0,2.508-1.169,5.095-5.033,5.095h-30.85
		c-3.863,0-5.063-2.587-5.063-5.095v-1.616C473.997,503.263,475.197,500.676,479.061,500.676z M362.253,548.954
		c-3.66,0-5.996,2.523-5.996,6.492v2.33l-2.36,0.56v1.366h2.36v11.992h2.299v-11.992h3.293v-1.926h-3.293v-1.739
		c0-3.321,1.174-4.908,3.542-4.908c0.708,0,1.286,0.128,2.268,0.465l0.963-1.956C364.253,549.145,363.421,548.954,362.253,548.954
		L362.253,548.954z M211.209,549.264v9.071c-0.89-0.677-1.846-0.932-3.324-0.932c-4.118,0-7.083,3.215-7.083,7.704
		c0,4.122,2.395,6.989,5.809,6.989c1.751,0,3.37-0.762,4.598-2.144v1.74h2.33v-22.43H211.209L211.209,549.264z M326.341,549.264
		v22.43h2.299v-22.43H326.341z M434.295,549.264v22.025c0.647,0.306,0.938,0.405,1.429,0.497c0.737,0.186,1.995,0.311,2.796,0.311
		c4.952,0,8.14-3.155,8.14-8.015c0-4.029-2.338-6.679-5.84-6.679c-0.861,0-1.9,0.125-2.609,0.311
		c-0.552,0.153-0.875,0.251-1.616,0.621v-9.071H434.295z M532.091,549.264v22.43h2.3v-8.512c2.398-2.678,3.897-3.729,5.343-3.729
		c0.648,0,1.181,0.287,1.397,0.746c0.186,0.401,0.218,0.692,0.218,1.615v9.879h2.331v-10.438c0-2.617-1.206-3.852-3.667-3.852
		c-1.324,0-2.684,0.473-3.759,1.366c-0.677,0.552-0.909,0.852-1.863,1.926v-11.432H532.091L532.091,549.264z M408.324,550.818
		l-7.549,20.876h2.702l2.082-5.996h8.232l2.081,5.996h2.702l-7.517-20.876H408.324L408.324,550.818z M147.369,551.408v20.286h7.518
		c3.29,0,5.499-2.177,5.499-5.405c0-2.799-1.551-4.728-4.256-5.25c2.154-0.737,3.479-2.475,3.479-4.66
		c0-1.414-0.602-2.806-1.584-3.729c-1.015-0.922-2.101-1.242-4.07-1.242H147.369z M468.81,551.408c-0.833,0-1.522,0.661-1.522,1.491
		c0,0.829,0.689,1.522,1.522,1.522c0.83,0,1.491-0.693,1.491-1.522C470.301,552.069,469.64,551.408,468.81,551.408z
		 M368.932,552.526c-0.857,0-1.553,0.723-1.553,1.585c0,0.828,0.696,1.521,1.553,1.521c0.833,0,1.554-0.693,1.554-1.521
		C370.486,553.249,369.766,552.526,368.932,552.526z M374.338,552.526c-0.861,0-1.585,0.723-1.585,1.585
		c0,0.828,0.724,1.521,1.585,1.521c0.829,0,1.521-0.693,1.521-1.521C375.859,553.249,375.167,552.526,374.338,552.526z
		 M149.885,553.52h3.479c1.57,0,2.211,0.194,2.734,0.745c0.524,0.524,0.839,1.344,0.839,2.33c0,1.047-0.378,1.994-0.994,2.61
		c-0.676,0.676-1.319,0.9-2.765,0.9h-3.293V553.52z M299.903,553.706v4.07l-2.33,0.56v1.366h2.33v9.289
		c0,1.844,1.074,3.106,2.672,3.106c1.107,0,1.88-0.418,3.51-1.771l-0.963-1.522c-0.982,0.736-1.436,0.994-2.02,0.994
		c-0.491,0-0.78-0.225-0.808-0.684c-0.032-0.156-0.03-0.438-0.062-0.87l-0.031-0.621v-7.922h3.697v-1.926h-3.697v-4.07H299.903
		L299.903,553.706z M335.257,553.706v4.07l-2.331,0.56v1.366h2.331v9.289c0,1.844,1.073,3.106,2.671,3.106
		c1.107,0,1.88-0.418,3.51-1.771l-0.963-1.522c-0.982,0.736-1.436,0.994-2.019,0.994c-0.492,0-0.776-0.225-0.808-0.684
		c-0.028-0.156-0.03-0.438-0.062-0.87l-0.031-0.621v-7.922h3.697v-1.926h-3.697v-4.07H335.257L335.257,553.706z M476.669,553.706
		v4.07l-2.329,0.56v1.366h2.329v9.289c0,1.844,1.074,3.106,2.672,3.106c1.107,0,1.88-0.418,3.511-1.771l-0.963-1.522
		c-0.982,0.736-1.436,0.994-2.02,0.994c-0.491,0-0.779-0.225-0.809-0.684c-0.031-0.156-0.029-0.438-0.061-0.87l-0.031-0.621v-7.922
		h3.696v-1.926h-3.696v-4.07H476.669L476.669,553.706z M568.19,553.706v4.07l-2.361,0.56v1.366h2.361v9.289
		c0,1.844,1.073,3.106,2.671,3.106c1.107,0,1.88-0.418,3.511-1.771l-0.963-1.522c-0.982,0.736-1.467,0.994-2.051,0.994
		c-0.491,0-0.744-0.225-0.776-0.684c-0.028-0.156-0.03-0.438-0.062-0.87l-0.031-0.621v-7.922h3.697v-1.926h-3.697v-4.07H568.19
		L568.19,553.706z M409.69,554.111l3.294,9.288h-6.617L409.69,554.111z M191.979,557.404c-1.292,0-2.654,0.473-3.697,1.366
		c-0.676,0.552-0.972,0.852-1.926,1.926v-2.92h-2.299v13.918h2.299v-8.512c2.432-2.678,3.93-3.729,5.343-3.729
		c0.648,0,1.212,0.287,1.429,0.746c0.153,0.401,0.217,0.692,0.217,1.615v9.879h2.299v-10.438
		C195.646,558.638,194.439,557.404,191.979,557.404L191.979,557.404z M225.221,557.404c-3.966,0-6.555,2.907-6.555,7.331
		c0,4.4,2.589,7.362,6.461,7.362c1.816,0,3.002-0.416,5.064-1.709l-0.932-1.801c-1.506,1.047-2.403,1.397-3.635,1.397
		c-2.826,0-4.536-2.086-4.536-5.468h9.537v-1.335C230.626,559.707,228.481,557.404,225.221,557.404L225.221,557.404z
		 M240.226,557.404c-3.261,0-5.312,1.482-5.312,3.914c0,1.69,0.929,2.654,3.635,3.79c2.492,1.014,3.141,1.409,3.697,2.205
		c0.153,0.218,0.28,0.626,0.28,0.964c0,1.074-1.037,1.833-2.454,1.833c-0.982,0-2.218-0.283-3.2-0.746
		c-0.246-0.121-0.593-0.313-1.056-0.56l-0.963,1.927c1.385,0.708,1.968,0.935,3.293,1.18c0.708,0.126,1.374,0.187,1.957,0.187
		c3.044,0,4.846-1.515,4.846-4.007c0-2.183-0.835-3.117-3.79-4.35c-2.52-1.043-2.896-1.281-3.448-1.833
		c-0.217-0.217-0.311-0.532-0.311-0.869c0-1.048,1.012-1.74,2.578-1.74c0.524,0,1.029,0.092,1.585,0.249
		c0.704,0.185,1.098,0.376,1.988,0.932l1.15-1.896c-1.168-0.647-1.66-0.808-2.703-1.025
		C241.408,557.466,240.809,557.404,240.226,557.404z M255.479,557.404c-2.983,0-5.033,1.263-5.033,3.106
		c0,0.342,0.031,0.472,0.249,0.839l2.33-0.497c-0.092-0.245-0.124-0.345-0.124-0.498c0-0.796,0.698-1.211,2.144-1.211
		c1.784,0,2.641,0.573,2.641,1.709v2.547l-4.847,1.118c-2.033,0.491-3.106,1.854-3.106,3.884c0,2.219,1.485,3.666,3.728,3.666
		c0.986,0,2.09-0.317,2.952-0.809c0.459-0.245,0.786-0.502,1.491-1.117c0.125,1.32,0.798,1.836,2.703,1.956l0.559-1.956
		c-0.709-0.126-1.085-0.349-1.149-0.716v-1.024v-7.549C260.015,558.698,258.277,557.404,255.479,557.404L255.479,557.404z
		 M274.584,557.404c-1.292,0-2.685,0.473-3.728,1.366c-0.676,0.552-0.94,0.852-1.895,1.926v-2.92h-2.298v13.918h2.298v-8.512
		c2.432-2.678,3.931-3.729,5.343-3.729c0.648,0,1.212,0.287,1.429,0.746c0.153,0.401,0.218,0.692,0.218,1.615v9.879h2.298v-10.438
		C278.25,558.638,277.044,557.404,274.584,557.404L274.584,557.404z M289.217,557.404c-3.261,0-5.281,1.482-5.281,3.914
		c0,1.69,0.929,2.654,3.635,3.79c2.492,1.014,3.141,1.409,3.697,2.205c0.153,0.218,0.279,0.626,0.279,0.964
		c0,1.074-1.041,1.833-2.454,1.833c-0.986,0-2.213-0.283-3.2-0.746c-0.246-0.121-0.593-0.313-1.056-0.56l-0.963,1.927
		c1.381,0.708,1.969,0.935,3.293,1.18c0.709,0.126,1.342,0.187,1.926,0.187c3.043,0,4.877-1.515,4.877-4.007
		c0-2.183-0.835-3.117-3.79-4.35c-2.52-1.043-2.896-1.281-3.448-1.833c-0.213-0.217-0.342-0.532-0.342-0.869
		c0-1.048,1.013-1.74,2.579-1.74c0.523,0,1.06,0.092,1.615,0.249c0.705,0.185,1.099,0.376,1.988,0.932l1.149-1.896
		c-1.167-0.647-1.66-0.808-2.703-1.025C290.435,557.466,289.8,557.404,289.217,557.404L289.217,557.404z M315.281,557.404
		c-2.983,0-5.033,1.263-5.033,3.106c0,0.342,0.032,0.472,0.249,0.839l2.331-0.497c-0.093-0.245-0.093-0.345-0.093-0.498
		c0-0.796,0.667-1.211,2.112-1.211c1.784,0,2.641,0.573,2.641,1.709v2.547l-4.815,1.118c-2.033,0.491-3.106,1.854-3.106,3.884
		c0,2.219,1.455,3.666,3.697,3.666c0.986,0,2.09-0.317,2.952-0.809c0.459-0.245,0.786-0.502,1.491-1.117
		c0.125,1.32,0.794,1.836,2.703,1.956l0.559-1.956c-0.709-0.126-1.085-0.349-1.149-0.716v-1.024v-7.549
		C319.817,558.698,318.079,557.404,315.281,557.404L315.281,557.404z M389.622,557.404c-1.047,0-1.916,0.674-3.635,2.889v-2.517
		h-2.299v13.918h2.299v-8.295c1.32-2.399,2.432-3.666,3.294-3.666c0.276,0,0.504,0.161,0.962,0.56l1.15-1.957
		C390.777,557.719,390.146,557.404,389.622,557.404z M428.703,557.404c-1.046,0-1.915,0.674-3.635,2.889v-2.517h-2.299v13.918h2.299
		v-8.295c1.32-2.399,2.432-3.666,3.294-3.666c0.276,0,0.534,0.161,0.993,0.56l1.119-1.957
		C429.858,557.719,429.228,557.404,428.703,557.404z M457.16,557.404c-3.966,0-6.556,2.907-6.556,7.331
		c0,4.4,2.621,7.362,6.493,7.362c1.815,0,2.972-0.416,5.033-1.709l-0.933-1.801c-1.506,1.047-2.402,1.397-3.635,1.397
		c-2.825,0-4.536-2.086-4.536-5.468h9.538v-1.335C462.565,559.707,460.421,557.404,457.16,557.404L457.16,557.404z M491.829,557.404
		c-3.261,0-5.281,1.482-5.281,3.914c0,1.69,0.898,2.654,3.604,3.79c2.492,1.014,3.142,1.409,3.696,2.205
		c0.153,0.218,0.28,0.626,0.28,0.964c0,1.074-1.041,1.833-2.455,1.833c-0.985,0-2.213-0.283-3.2-0.746
		c-0.245-0.121-0.593-0.313-1.056-0.56l-0.932,1.927c1.382,0.708,1.968,0.935,3.293,1.18c0.708,0.126,1.343,0.187,1.926,0.187
		c3.044,0,4.847-1.515,4.847-4.007c0-2.183-0.809-3.117-3.759-4.35c-2.524-1.043-2.897-1.281-3.449-1.833
		c-0.217-0.217-0.341-0.532-0.341-0.869c0-1.048,1.009-1.74,2.578-1.74c0.52,0,1.028,0.092,1.584,0.249
		c0.705,0.185,1.13,0.376,2.02,0.932l1.118-1.896c-1.167-0.647-1.66-0.808-2.703-1.025
		C493.017,557.466,492.413,557.404,491.829,557.404L491.829,557.404z M506.865,557.404c-3.261,0-5.28,1.482-5.28,3.914
		c0,1.69,0.897,2.654,3.604,3.79c2.491,1.014,3.141,1.409,3.696,2.205c0.153,0.218,0.28,0.626,0.28,0.964
		c0,1.074-1.042,1.833-2.455,1.833c-0.985,0-2.213-0.283-3.199-0.746c-0.246-0.121-0.594-0.313-1.057-0.56l-0.933,1.927
		c1.382,0.708,1.974,0.935,3.293,1.18c0.71,0.126,1.343,0.187,1.927,0.187c3.044,0,4.847-1.515,4.847-4.007
		c0-2.183-0.809-3.117-3.76-4.35c-2.524-1.043-2.896-1.281-3.447-1.833c-0.214-0.217-0.342-0.532-0.342-0.869
		c0-1.048,1.008-1.74,2.578-1.74c0.523,0,1.028,0.092,1.584,0.249c0.709,0.185,1.13,0.376,2.02,0.932l1.118-1.896
		c-1.168-0.647-1.66-0.808-2.702-1.025C508.053,557.466,507.449,557.404,506.865,557.404L506.865,557.404z M523.33,557.404
		c-4.275,0-7.27,3.09-7.27,7.486c0,4.276,2.871,7.207,7.115,7.207c1.385,0,2.743-0.347,3.883-0.963
		c0.213-0.093,0.533-0.282,0.933-0.528l-1.212-1.802c-1.14,0.862-2.003,1.181-3.355,1.181c-2.983,0-4.846-2.022-4.846-5.219
		c0-3.137,1.861-5.281,4.659-5.281c1.261,0,2.059,0.317,3.138,1.211l1.336-1.895c-0.95-0.676-1.373-0.873-2.299-1.118
		C524.736,557.498,524.035,557.404,523.33,557.404L523.33,557.404z M166.009,557.776v10.438c0,2.553,1.3,3.914,3.728,3.914
		c2.094,0,3.903-1.077,5.53-3.324v2.89h2.33v-13.918h-2.33v8.513c-1.598,2.214-3.808,3.758-5.281,3.758
		c-1.171,0-1.677-0.703-1.677-2.423v-9.848H166.009L166.009,557.776z M365.608,557.776v10.438c0,2.553,1.296,3.914,3.728,3.914
		c2.089,0,3.903-1.077,5.529-3.324v2.89h2.361v-13.918h-2.361v8.513c-1.598,2.214-3.808,3.758-5.28,3.758
		c-1.167,0-1.647-0.699-1.647-2.423v-9.848H365.608L365.608,557.776z M467.629,557.776v13.918h2.299v-13.918H467.629z
		 M549.985,557.776v10.438c0,2.553,1.265,3.914,3.697,3.914c2.089,0,3.93-1.077,5.561-3.324v2.89h2.33v-13.918h-2.33v8.513
		c-1.603,2.214-3.839,3.758-5.312,3.758c-1.171,0-1.646-0.703-1.646-2.423v-9.848H549.985L549.985,557.776z M577.541,557.776v2.051
		h8.139l-8.543,10.687v1.181h12.023v-2.051h-8.668l8.668-10.904v-0.963H577.541z M225.065,559.485c1.908,0,3.012,1.175,3.045,3.323
		h-6.834C221.798,560.66,223.128,559.485,225.065,559.485z M457.036,559.485c1.908,0,2.98,1.175,3.013,3.323h-6.834
		C453.737,560.66,455.099,559.485,457.036,559.485z M440.042,559.578c2.581,0,4.102,1.708,4.102,4.598
		c0,2.34-0.575,3.644-2.112,4.723c-0.645,0.49-1.405,0.809-2.206,0.994c-0.399,0.06-0.778,0.124-1.181,0.124
		c-0.83,0-1.402-0.129-2.051-0.435v-8.886C437.734,559.927,438.751,559.578,440.042,559.578L440.042,559.578z M208.134,559.609
		c1.413,0,2.365,0.381,2.796,1.15c0.213,0.463,0.279,0.784,0.279,1.863v4.815c-0.644,0.801-0.967,1.123-1.491,1.522
		c-0.862,0.583-1.874,0.963-2.703,0.963c-2.154,0-3.729-2.049-3.729-4.847C203.288,561.723,205.179,559.609,208.134,559.609z
		 M149.885,562.405h3.479c2.771,0,4.35,1.33,4.35,3.696c0,1.075-0.439,2.152-1.087,2.703c-0.705,0.584-1.414,0.777-3.262,0.777
		h-3.479V562.405z M257.685,565.326v2.889c-2.001,1.445-2.712,1.802-3.759,1.802c-1.14,0-1.864-0.726-1.864-1.833
		c0-0.551,0.035-0.847,0.373-1.491L257.685,565.326z M317.487,565.326v2.889c-2.001,1.445-2.712,1.802-3.759,1.802
		c-1.139,0-1.864-0.726-1.864-1.833c0-0.551,0.065-0.847,0.404-1.491L317.487,565.326z M192.88,588.314v9.072
		c-0.89-0.677-1.85-0.964-3.324-0.964c-4.123,0-7.083,3.246-7.083,7.735c0,4.122,2.395,6.959,5.809,6.959
		c1.751,0,3.37-0.759,4.598-2.144v1.771h2.331v-22.43H192.88z M242.213,588.314v22.025c0.648,0.311,0.934,0.405,1.429,0.498
		c0.737,0.181,1.995,0.279,2.796,0.279c4.952,0,8.14-3.125,8.14-7.983c0-4.03-2.338-6.711-5.841-6.711
		c-0.861,0-1.901,0.126-2.609,0.311c-0.552,0.152-0.875,0.282-1.616,0.652v-9.071H242.213L242.213,588.314z M362.408,588.314v9.072
		c-0.89-0.677-1.846-0.964-3.324-0.964c-4.118,0-7.083,3.246-7.083,7.735c0,4.122,2.396,6.959,5.81,6.959
		c1.751,0,3.37-0.759,4.598-2.144v1.771h2.361v-22.43H362.408L362.408,588.314z M216.243,589.868l-7.549,20.876h2.703l2.081-6.026
		h8.232l2.081,6.026h2.703l-7.549-20.876H216.243z M276.728,590.427c-0.833,0-1.522,0.692-1.522,1.521s0.688,1.491,1.522,1.491
		c0.829,0,1.491-0.662,1.491-1.491S277.557,590.427,276.728,590.427z M372.35,590.427c-0.834,0-1.491,0.692-1.491,1.521
		s0.657,1.491,1.491,1.491c0.829,0,1.522-0.662,1.522-1.491S373.179,590.427,372.35,590.427z M396.674,590.427
		c-0.829,0-1.491,0.692-1.491,1.521s0.662,1.491,1.491,1.491c0.83,0,1.522-0.662,1.522-1.491S397.504,590.427,396.674,590.427z
		 M284.588,592.725v4.07l-2.33,0.591v1.366h2.33v9.289c0,1.844,1.073,3.075,2.672,3.075c1.107,0,1.88-0.388,3.51-1.74l-0.963-1.522
		c-0.982,0.737-1.436,0.963-2.019,0.963c-0.491,0-0.78-0.22-0.808-0.683c-0.032-0.153-0.03-0.408-0.062-0.839l-0.031-0.621v-7.922
		h3.697v-1.957h-3.697v-4.07H284.588L284.588,592.725z M217.609,593.129l3.293,9.288h-6.617L217.609,593.129L217.609,593.129z
		 M173.651,596.422c-1.292,0-2.654,0.505-3.697,1.397c-0.676,0.557-0.972,0.82-1.926,1.896v-2.92h-2.299v13.948h2.299v-8.543
		c2.432-2.673,3.93-3.697,5.343-3.697c0.648,0,1.212,0.256,1.429,0.715c0.153,0.402,0.217,0.725,0.217,1.646v9.879h2.299v-10.438
		C177.316,597.693,176.11,596.422,173.651,596.422z M236.622,596.422c-1.046,0-1.916,0.675-3.635,2.89v-2.517h-2.299v13.948h2.299
		v-8.326c1.321-2.398,2.432-3.635,3.293-3.635c0.277,0,0.535,0.131,0.994,0.529l1.118-1.926
		C237.777,596.774,237.145,596.422,236.622,596.422z M265.078,596.422c-3.965,0-6.555,2.938-6.555,7.363
		c0,4.399,2.62,7.331,6.493,7.331c1.815,0,2.972-0.386,5.033-1.678l-0.932-1.802c-1.506,1.047-2.407,1.367-3.635,1.367
		c-2.831,0-4.536-2.055-4.536-5.437h9.537v-1.367C270.484,598.726,268.339,596.422,265.078,596.422L265.078,596.422z
		 M299.748,596.422c-3.261,0-5.281,1.518-5.281,3.945c0,1.695,0.898,2.65,3.604,3.79c2.492,1.015,3.141,1.404,3.697,2.205
		c0.153,0.214,0.28,0.626,0.28,0.963c0,1.075-1.037,1.834-2.454,1.834c-0.982,0-2.214-0.313-3.2-0.776
		c-0.246-0.125-0.594-0.314-1.057-0.56l-0.932,1.957c1.381,0.705,1.968,0.935,3.293,1.18c0.708,0.121,1.342,0.156,1.926,0.156
		c3.044,0,4.847-1.484,4.847-3.977c0-2.186-0.804-3.148-3.759-4.381c-2.52-1.046-2.896-1.249-3.448-1.802
		c-0.217-0.217-0.342-0.531-0.342-0.869c0-1.047,1.013-1.739,2.579-1.739c0.523,0,1.06,0.095,1.615,0.248
		c0.705,0.185,1.099,0.349,1.988,0.901l1.119-1.865c-1.167-0.647-1.66-0.843-2.703-1.056
		C300.935,596.485,300.332,596.422,299.748,596.422L299.748,596.422z M318.201,596.422c-1.292,0-2.681,0.505-3.728,1.397
		c-0.676,0.557-0.94,0.82-1.895,1.896v-2.92h-2.331v13.948h2.331v-8.543c2.432-2.673,3.93-3.697,5.343-3.697
		c0.648,0,1.152,0.256,1.397,0.715c0.186,0.431,0.218,0.632,0.218,1.646v9.879h2.33v-8.543l0.621-0.652
		c2.029-2.182,3.43-3.045,4.722-3.045c0.648,0,1.148,0.256,1.398,0.715c0.181,0.431,0.217,0.632,0.217,1.646v9.879h2.331v-10.438
		c0-2.612-1.207-3.883-3.667-3.883c-1.292,0-2.685,0.505-3.728,1.397c-0.676,0.557-0.944,0.82-1.926,1.926
		C321.679,597.5,320.508,596.422,318.201,596.422L318.201,596.422z M342.868,596.422c-3.965,0-6.586,2.938-6.586,7.363
		c0,4.399,2.62,7.331,6.493,7.331c1.816,0,2.972-0.386,5.033-1.678l-0.901-1.802c-1.506,1.047-2.403,1.367-3.635,1.367
		c-2.826,0-4.567-2.055-4.567-5.437h9.538v-1.367C348.242,598.726,346.129,596.422,342.868,596.422L342.868,596.422z
		 M412.332,596.422c-1.293,0-2.686,0.505-3.729,1.397c-0.676,0.557-0.941,0.82-1.896,1.896v-2.92h-2.329v13.948h2.329v-8.543
		c2.433-2.673,3.931-3.697,5.344-3.697c0.648,0,1.182,0.256,1.398,0.715c0.152,0.402,0.217,0.725,0.217,1.646v9.879h2.331v-10.438
		C415.998,597.693,414.792,596.422,412.332,596.422z M147.68,596.795v10.469c0,2.553,1.296,3.884,3.728,3.884
		c2.09,0,3.899-1.047,5.53-3.293v2.889h2.33v-13.948h-2.33v8.512c-1.603,2.214-3.808,3.79-5.282,3.79
		c-1.171,0-1.677-0.704-1.677-2.423v-9.879H147.68z M275.547,596.795v13.948h2.299v-13.948H275.547z M371.169,596.795v13.948h2.33
		v-13.948H371.169z M378.812,596.795v2.05h8.108l-8.512,10.719v1.18h11.99v-2.081h-8.636l8.636-10.873v-0.994H378.812
		L378.812,596.795z M395.494,596.795v13.948h2.33v-13.948H395.494z M264.954,598.535c1.908,0,2.981,1.143,3.013,3.293h-6.834
		C261.656,599.677,263.018,598.535,264.954,598.535z M342.712,598.535c1.908,0,2.981,1.143,3.014,3.293h-6.834
		C339.415,599.677,340.776,598.535,342.712,598.535z M247.961,598.628c2.581,0,4.101,1.707,4.101,4.598
		c0,2.339-0.575,3.615-2.113,4.69c-0.644,0.495-1.404,0.81-2.205,0.994c-0.399,0.061-0.778,0.124-1.181,0.124
		c-0.829,0-1.402-0.128-2.051-0.435v-8.885C245.652,598.946,246.668,598.628,247.961,598.628L247.961,598.628z M189.277,598.659
		c0.176-0.016,0.343,0,0.528,0c1.413,0,2.365,0.381,2.796,1.15c0.213,0.463,0.279,0.785,0.279,1.863v4.815
		c-0.644,0.802-0.967,1.092-1.491,1.491c-0.861,0.584-1.874,0.963-2.703,0.963c-2.154,0-3.728-2.017-3.728-4.815
		C184.959,600.983,186.633,598.904,189.277,598.659L189.277,598.659z M358.805,598.659c0.176-0.016,0.375,0,0.559,0
		c1.413,0,2.365,0.381,2.796,1.15c0.213,0.463,0.249,0.785,0.249,1.863v4.815c-0.644,0.802-0.968,1.092-1.491,1.491
		c-0.862,0.584-1.874,0.963-2.703,0.963c-2.154,0-3.728-2.017-3.728-4.815C354.486,600.983,356.161,598.904,358.805,598.659
		L358.805,598.659z"/>
</g>
</svg>
