<?xml version="1.0" encoding="UTF-8" ?>
<!DOCTYPE svg PUBLIC "-//W3C//DTD SVG 1.1//EN" "http://www.w3.org/Graphics/SVG/1.1/DTD/svg11.dtd">
<svg width="226pt" height="133pt" viewBox="0 0 226 133" version="1.1" xmlns="http://www.w3.org/2000/svg">
<path fill="#ffffff" d=" M 0.00 0.00 L 226.00 0.00 L 226.00 7.00 C 217.00 7.00 207.99 7.00 198.99 7.00 C 199.00 8.58 199.01 10.17 199.01 11.76 C 202.67 11.75 206.33 11.75 210.00 11.75 C 210.01 21.75 209.99 31.75 210.01 41.75 C 211.67 41.75 213.33 41.75 214.99 41.76 C 215.01 31.76 214.99 21.75 215.00 11.75 C 218.67 11.75 222.33 11.75 226.00 11.75 L 226.00 133.00 L 0.00 133.00 L 0.00 41.75 C 5.97 41.65 11.94 41.93 17.90 41.66 C 19.93 41.60 22.40 40.33 22.38 38.02 C 22.64 34.02 22.64 30.00 22.39 26.00 C 22.38 24.13 20.31 23.43 19.12 22.36 C 23.09 19.90 22.05 14.90 21.92 10.96 C 21.91 8.47 19.36 6.97 17.10 7.04 C 11.40 6.86 5.70 7.08 0.00 7.00 L 0.00 0.00 Z" />
<path fill="#3a3a39" d=" M 0.00 7.00 C 5.70 7.08 11.40 6.86 17.10 7.04 C 19.36 6.97 21.91 8.47 21.92 10.96 C 22.05 14.90 23.09 19.90 19.12 22.36 C 20.31 23.43 22.38 24.13 22.39 26.00 C 22.64 30.00 22.64 34.02 22.38 38.02 C 22.40 40.33 19.93 41.60 17.90 41.66 C 11.94 41.93 5.97 41.65 0.00 41.75 L 0.00 7.00 Z" />
<path fill="#3a3a39" d=" M 27.00 7.00 C 28.58 7.00 30.17 7.00 31.76 7.01 C 31.74 18.59 31.76 30.17 31.75 41.75 C 30.17 41.75 28.59 41.75 27.01 41.76 C 26.99 30.17 27.01 18.58 27.00 7.00 Z" />
<path fill="#3a3a39" d=" M 36.24 7.01 C 37.91 7.00 39.58 7.00 41.25 7.00 C 41.25 17.00 41.26 26.99 41.24 36.99 C 46.33 37.01 51.42 37.00 56.50 37.00 C 56.50 38.58 56.50 40.17 56.49 41.75 C 49.75 41.75 43.00 41.75 36.25 41.75 C 36.24 30.17 36.26 18.59 36.24 7.01 Z" />
<path fill="#3a3a39" d=" M 59.75 7.00 C 66.21 7.08 72.69 6.84 79.15 7.10 C 81.83 7.19 84.82 8.97 84.88 11.93 C 85.19 18.93 84.89 25.96 85.02 32.97 C 84.97 35.39 85.28 38.36 83.20 40.09 C 81.13 41.57 78.49 41.75 76.03 41.76 C 70.61 41.76 65.18 41.74 59.75 41.75 C 59.74 30.17 59.75 18.58 59.75 7.00 Z" />
<path fill="#3a3a39" d=" M 89.24 7.01 C 96.58 6.99 103.92 7.00 111.26 7.00 C 111.25 8.59 111.24 10.18 111.22 11.76 C 105.56 11.74 99.91 11.75 94.25 11.76 C 94.25 14.50 94.25 17.25 94.25 19.99 C 98.23 20.00 102.22 20.00 106.21 20.00 C 106.25 21.55 106.30 23.10 106.35 24.66 C 102.32 24.80 98.28 24.75 94.25 24.75 C 94.25 28.83 94.25 32.91 94.24 36.99 C 99.91 37.01 105.58 36.99 111.25 37.00 C 111.25 38.58 111.25 40.17 111.24 41.75 C 103.91 41.75 96.58 41.75 89.25 41.75 C 89.24 30.17 89.26 18.59 89.24 7.01 Z" />
<path fill="#3a3a39" d=" M 115.50 7.00 C 122.05 7.06 128.60 6.88 135.15 7.06 C 136.66 7.00 138.29 8.35 138.19 9.93 C 138.40 14.34 138.17 18.77 138.25 23.19 C 136.75 24.39 134.96 24.99 133.02 24.89 C 135.03 30.44 139.09 35.56 138.57 41.74 C 136.92 41.75 135.26 41.75 133.61 41.75 C 133.61 36.27 130.29 31.60 128.43 26.62 C 127.27 23.40 123.07 25.19 120.51 24.75 C 120.50 30.41 120.49 36.07 120.51 41.73 C 118.84 41.75 117.16 41.75 115.49 41.74 C 115.51 30.16 115.49 18.58 115.50 7.00 Z" />
<path fill="#3a3a39" d=" M 142.25 11.93 C 142.02 9.68 143.40 7.14 145.90 7.12 C 152.34 6.81 158.80 7.10 165.25 7.00 C 165.25 8.59 165.25 10.17 165.24 11.75 C 159.43 11.76 153.61 11.71 147.79 11.80 C 146.75 15.79 147.42 19.95 147.26 24.01 C 147.38 28.31 146.82 32.69 147.76 36.93 C 152.50 37.04 157.25 36.99 162.00 37.00 C 162.00 32.92 162.00 28.83 162.00 24.75 C 159.67 24.75 157.34 24.75 155.01 24.76 C 155.00 23.17 155.00 21.59 155.00 20.00 C 159.00 20.00 163.00 20.00 167.00 20.00 C 167.00 27.25 167.01 34.50 166.99 41.76 C 160.03 41.67 153.06 41.88 146.10 41.68 C 143.68 41.69 142.14 39.25 142.27 37.03 C 142.21 28.66 142.26 20.29 142.25 11.93 Z" />
<path fill="#3a3a39" d=" M 171.24 7.01 C 172.91 7.00 174.58 7.00 176.25 7.00 C 176.41 16.83 175.93 26.70 176.48 36.51 C 180.20 37.53 184.18 36.82 188.01 37.01 C 189.28 36.83 191.22 37.43 191.62 35.72 C 191.94 26.16 191.65 16.57 191.75 7.00 C 193.33 7.00 194.92 7.00 196.50 7.00 C 196.45 17.32 196.59 27.65 196.45 37.97 C 196.57 40.31 194.25 41.99 192.06 41.74 C 186.37 41.73 180.67 41.87 174.99 41.67 C 172.08 41.66 171.14 38.46 171.27 36.07 C 171.21 26.38 171.28 16.69 171.24 7.01 Z" />
<path fill="#3a3a39" d=" M 198.99 7.00 C 207.99 7.00 217.00 7.00 226.00 7.00 L 226.00 11.75 C 222.33 11.75 218.67 11.75 215.00 11.75 C 214.99 21.75 215.01 31.76 214.99 41.76 C 213.33 41.75 211.67 41.75 210.01 41.75 C 209.99 31.75 210.01 21.75 210.00 11.75 C 206.33 11.75 202.67 11.75 199.01 11.76 C 199.01 10.17 199.00 8.58 198.99 7.00 Z" />
<path fill="#ffffff" d=" M 4.75 11.51 C 8.60 11.93 13.01 10.50 16.49 12.40 C 17.32 14.44 17.72 18.04 15.76 19.64 C 12.19 20.46 8.41 19.81 4.75 19.99 C 4.75 17.16 4.75 14.34 4.75 11.51 Z" />
<path fill="#ffffff" d=" M 64.76 11.76 C 68.85 11.85 72.97 11.50 77.05 11.93 C 78.53 12.07 80.05 13.32 79.94 14.90 C 80.07 20.96 80.01 27.03 79.97 33.09 C 80.21 34.93 78.84 36.56 77.02 36.72 C 72.96 37.30 68.84 36.89 64.75 36.99 C 64.75 28.58 64.74 20.17 64.76 11.76 Z" />
<path fill="#ffffff" d=" M 120.51 20.00 C 120.50 17.25 120.50 14.50 120.51 11.75 C 124.89 11.88 129.33 11.37 133.67 12.20 C 133.81 14.82 133.79 17.46 133.39 20.06 C 129.10 19.96 124.80 20.00 120.51 20.00 Z" />
<path fill="#ffffff" d=" M 4.75 24.76 C 8.49 24.89 12.30 24.36 15.99 25.08 C 18.33 26.10 17.58 29.00 17.80 31.01 C 17.61 32.98 18.39 36.07 15.97 36.92 C 12.28 37.63 8.49 37.11 4.76 37.24 C 4.75 33.08 4.75 28.92 4.75 24.76 Z" />
</svg>
