<?xml version="1.0" encoding="utf-8"?>
<!-- Generator: Adobe Illustrator 18.0.0, SVG Export Plug-In . SVG Version: 6.00 Build 0)  -->
<!DOCTYPE svg PUBLIC "-//W3C//DTD SVG 1.1//EN" "http://www.w3.org/Graphics/SVG/1.1/DTD/svg11.dtd">
<svg version="1.1" id="Logo_x5F_5cm" xmlns="http://www.w3.org/2000/svg" xmlns:xlink="http://www.w3.org/1999/xlink" x="0px"
	 y="0px" width="856.3px" height="218.1px" viewBox="51.7 171.1 856.3 218.1" enable-background="new 51.7 171.1 856.3 218.1"
	 xml:space="preserve">
<g>
	<g>
		<path fill="#FFFFFF" d="M216.8,288.2c0,9.5-7.3,13.9-16.8,13.9h-48.6V201.6h44.9c15.4,0,18.8,7.1,18.8,14.6v16.1
			c0,8.5-7.1,12.9-12.2,13.9c5.9,1.2,13.7,4.4,13.7,13.9v28.1H216.8z M201.5,222.8c0-5.4-1.7-8.5-11-8.5h-25.4v25.6h27.3
			c5.9,0,9.3-3.2,9.3-9v-8.1H201.5z M202.9,261.4c0-6.1-4.1-8.5-10.2-8.5h-27.6v36.8h27.8c5.6,0,10.2-2,10.2-7.6v-20.7H202.9z"/>
		<path fill="#FFFFFF" d="M230,302.1V201.9h13.7v100.5H230V302.1z"/>
		<path fill="#FFFFFF" d="M257.1,302.1V201.6h13.7V289h44.9v13.4h-58.6V302.1z"/>
		<path fill="#FFFFFF" d="M371.7,302.1h-45.9V201.6h45.9c26.6,0,26.6,10.2,26.6,24.9v51.2C398.3,291.4,398.3,302.1,371.7,302.1z
			 M384.7,231.6c0-10.2,0.2-16.8-15.9-16.8h-29.5v73.9h29.3c15.9,0,15.9-7.1,15.9-16.3v-40.7H384.7z"/>
		<path fill="#FFFFFF" d="M411.5,302.1V201.6h62.9V215h-49.3v24.9h34.6v13.2h-34.6V289h49.3v13.4h-62.9V302.1z"/>
		<path fill="#FFFFFF" d="M553.5,293.3v9h-13.7v-8.3c-0.2-1.5-0.5-2.7-1-3.4l-15.1-34.9c-1.2-1.5-2.2-2.4-4.9-2.4h-17.6v49.3h-13.4
			V201.9h54.7c6.8,0,10.5,4.6,10.5,8.8v33.9c0,4.9-4.9,8.5-10.5,8.5h-5.1l13.7,31C553,287.5,553.5,290.4,553.5,293.3z M540.3,220.6
			c0-3.7-0.5-5.1-4.4-5.1h-34.4v24.4h34.6c3.2,0,4.1-0.2,4.1-4.1V220.6L540.3,220.6z"/>
		<path fill="#FFFFFF" d="M578.6,302.1c-6.3,0-13.4-3.2-13.4-13.9v-73.4c0-8.8,5.4-12.9,15.1-12.9h50.7v13.4h-44.2
			c-5.1,0-8.1-0.5-8.1,7.6v58.1c0,7.8,2.4,8.1,7.3,8.1h36.6v-35.9h-20.3v-13.2h33.9v62.5h-57.8V302.1z"/>
		<path fill="#FFFFFF" d="M709.4,302.1h-46.4c-6.6,0-12.9-2.9-12.9-14.9v-85.6h13.7v82c0,3.7,1.5,5.4,5.4,5.4h34.6
			c3.4,0,5.4-1.2,5.4-5.4v-82h13.7v85.9C722.6,299.2,716.5,302.1,709.4,302.1z"/>
		<path fill="#FFFFFF" d="M776,215v87.3h-13.7V215h-32.4v-13.4h78.3V215H776z"/>
	</g>
	<g>
		<path fill="#FFFFFF" d="M151.4,336.8h2.2v21h-2.2V336.8z"/>
		<path fill="#FFFFFF" d="M182.2,357.8l2.9-21h0.2l8.5,17.3l8.5-17.3h0.2l2.9,21h-2l-2.2-15.1l-7.3,15.1h-0.5l-7.6-15.1l-1.7,15.1
			H182.2z"/>
		<path fill="#FFFFFF" d="M243.7,336.8l9.8,21h-2.2l-3.4-6.8h-9l-3.2,6.8h-2.4l10-21H243.7z M243.4,341.2l-3.7,7.6h7.1L243.4,341.2z
			"/>
		<path fill="#FFFFFF" d="M302,340.2l-1.7,1.5c-1.2-1.2-2.4-2-3.9-2.7c-1.2-0.2-2.7-0.7-3.9-0.7c-1.7,0-3.2,0.5-4.6,1.2
			s-2.7,2-3.4,3.4s-1.2,2.9-1.2,4.4s0.5,3.2,1.2,4.4c0.7,1.5,2,2.4,3.4,3.4c1.5,0.7,3.2,1.2,4.9,1.2c2.2,0,3.9-0.5,5.6-1.7
			c1.5-1.2,2.4-2.7,2.7-4.6h-6.8v-2h9c0,3.2-1,5.9-2.9,7.8s-4.4,2.9-7.6,2.9c-3.9,0-7.1-1.2-9.3-3.9c-1.7-2-2.7-4.4-2.7-7.1
			c0-2,0.5-3.9,1.5-5.6c1-1.7,2.4-3.2,4.1-4.1c1.7-1,3.7-1.5,5.9-1.5c1.7,0,3.4,0.2,5.1,1C298.8,337.7,300.5,339,302,340.2z"/>
		<path fill="#FFFFFF" d="M332,337.7h11.5v2h-9.5v6.3h9.5v2h-9.5v7.8h9.5v2H332V337.7z"/>
		<path fill="#FFFFFF" d="M397.4,336.8h4.1c2.4,0,4.1,0,4.9,0.2c1.2,0.2,2.2,1,2.9,1.7c0.7,1,1.2,2.2,1.2,3.4c0,1.5-0.5,2.4-1.2,3.4
			c-0.7,1-1.7,1.5-3.2,2c-1,0.2-2.7,0.2-5.4,0.2h-1.5v9.8h-2.2v-20.7H397.4z M399.3,338.7v7.1h3.7c1.5,0,2.4-0.2,3.2-0.5
			c0.7-0.2,1.2-0.7,1.5-1.2c0.5-0.5,0.5-1.2,0.5-2s-0.2-1.5-0.5-2c-0.5-0.5-1-1-1.5-1.2c-0.7-0.2-1.7-0.5-3.2-0.5h-3.7V338.7z"/>
		<path fill="#FFFFFF" d="M439.6,336.8h4.1c2.4,0,3.9,0,4.6,0.2c1.2,0.2,2.2,1,2.9,2c0.7,1,1.2,2.2,1.2,3.4c0,1.2-0.2,2.2-0.7,2.9
			c-0.5,1-1.2,1.5-2.2,2c-1,0.5-2.4,0.7-4.1,0.7l7.6,9.8h-2.7l-7.6-9.8h-1.2v9.8h-2.2v-21H439.6z M441.8,338.7v7.1h3.7
			c1.5,0,2.4-0.2,3.2-0.5c0.7-0.2,1.2-0.7,1.5-1.2c0.5-0.5,0.5-1.2,0.5-2s-0.2-1.5-0.5-2c-0.5-0.5-1-1-1.5-1.2
			c-0.7-0.2-1.7-0.5-3.2-0.5h-3.7V338.7z"/>
		<path fill="#FFFFFF" d="M492.3,336.3c3.2,0,5.9,1,8.1,3.2c2.2,2.2,3.2,4.6,3.2,7.8c0,3.2-1,5.6-3.2,7.8c-2.2,2.2-4.6,3.2-7.8,3.2
			s-5.9-1-7.8-3.2c-2.2-2.2-3.2-4.6-3.2-7.8c0-2,0.5-3.9,1.5-5.6c1-1.7,2.2-3.2,3.9-4.1C488.4,336.8,490.3,336.3,492.3,336.3z
			 M492.3,338.2c-1.5,0-2.9,0.5-4.4,1.2c-1.5,0.7-2.4,2-3.2,3.2c-0.7,1.5-1.2,2.9-1.2,4.6c0,2.4,1,4.6,2.7,6.3s3.9,2.7,6.3,2.7
			c1.7,0,3.2-0.5,4.6-1.2c1.5-0.7,2.4-2,3.2-3.2c0.7-1.5,1.2-2.9,1.2-4.6c0-1.7-0.5-3.2-1.2-4.6s-2-2.4-3.2-3.2
			C495.4,338.7,494,338.2,492.3,338.2z"/>
		<path fill="#FFFFFF" d="M552.3,340.7l-1.7,1.2c-1-1.2-2-2.2-3.4-2.7c-1.2-0.7-2.7-1-4.1-1c-1.7,0-3.2,0.5-4.6,1.2s-2.4,2-3.4,3.2
			c-0.7,1.5-1.2,2.9-1.2,4.6c0,2.7,1,4.6,2.7,6.3c1.7,1.7,3.9,2.7,6.6,2.7c2.9,0,5.4-1.2,7.3-3.4l1.7,1.2c-1,1.2-2.4,2.4-3.9,3.2
			c-1.5,0.7-3.4,1-5.4,1c-3.7,0-6.6-1.2-8.8-3.7c-1.7-2-2.7-4.6-2.7-7.6c0-3.2,1-5.6,3.2-7.8c2.2-2.2,4.9-3.2,8.1-3.2
			c2,0,3.7,0.5,5.4,1.2C549.9,338.2,551.1,339.2,552.3,340.7z"/>
		<path fill="#FFFFFF" d="M581.3,336.8h12v2h-10v6.6h9.8v2h-9.8v8.3h9.8v2.2h-12v-21H581.3z"/>
		<path fill="#FFFFFF" d="M619.6,353.9l1.7-1c1.2,2.4,2.7,3.4,4.4,3.4c0.7,0,1.5-0.2,2-0.5c0.7-0.2,1-0.7,1.5-1.2
			c0.2-0.5,0.5-1.2,0.5-1.7c0-0.7-0.2-1.5-0.7-2c-0.7-1-2-2-3.7-3.4c-1.7-1.2-2.9-2.2-3.2-2.9c-0.7-1-1.2-2-1.2-3.2
			c0-1,0.2-1.7,0.7-2.4c0.5-0.7,1-1.5,2-1.7c0.7-0.5,1.7-0.7,2.7-0.7c1,0,2,0.2,2.7,0.7c1,0.5,1.7,1.5,2.7,2.7l-1.7,1.2
			c-0.7-1-1.5-1.7-2-2.2c-0.5-0.2-1.2-0.5-1.7-0.5c-0.7,0-1.5,0.2-2.2,0.7c-0.5,0.5-0.7,1.2-0.7,2c0,0.5,0,1,0.2,1.2
			c0.2,0.5,0.5,1,1,1.5c0.2,0.2,1.2,1,2.7,2.2c1.7,1.5,3.2,2.4,3.7,3.7c0.7,1,1,2.2,1,3.2c0,1.5-0.5,2.9-1.7,3.9
			c-1.2,1.2-2.7,1.7-4.1,1.7c-1.2,0-2.4-0.2-3.4-1C621.6,356.5,620.6,355.6,619.6,353.9z"/>
		<path fill="#FFFFFF" d="M659.2,353.9l2-1c1.2,2.4,2.7,3.4,4.4,3.4c0.7,0,1.5-0.2,2-0.5c0.7-0.2,1-0.7,1.5-1.2
			c0.2-0.5,0.5-1.2,0.5-1.7c0-0.7-0.2-1.5-0.7-2c-0.7-1-2-2-3.7-3.4c-1.7-1.2-2.9-2.2-3.2-2.9c-0.7-1-1.2-2-1.2-3.2
			c0-1,0.2-1.7,0.7-2.4c0.5-0.7,1-1.5,2-1.7c0.7-0.5,1.7-0.7,2.7-0.7c1,0,2,0.2,2.7,0.7c1,0.5,1.7,1.5,2.7,2.7l-1.7,1.2
			c-0.7-1-1.5-1.7-2-2.2c-0.5-0.2-1.2-0.5-1.7-0.5c-0.7,0-1.5,0.2-2,0.7c-0.5,0.5-0.7,1.2-0.7,2c0,0.5,0,1,0.2,1.2
			c0.2,0.5,0.5,1,1,1.5c0.2,0.2,1.2,1,2.7,2.2c1.7,1.5,3.2,2.4,3.7,3.7c0.7,1,1,2.2,1,3.2c0,1.5-0.5,2.9-1.7,3.9
			c-1.2,1.2-2.7,1.7-4.1,1.7c-1.2,0-2.4-0.2-3.4-1C661.1,356.5,660.1,355.6,659.2,353.9z"/>
		<path fill="#FFFFFF" d="M700.6,336.8h2.2v21h-2.2V336.8z"/>
		<path fill="#FFFFFF" d="M732.3,357.8v-21h0.5l13.9,16.1v-16.1h2v21h-0.5l-13.9-15.9v15.9H732.3z"/>
		<path fill="#FFFFFF" d="M796.3,340.2l-1.7,1.5c-1.2-1.2-2.4-2-3.9-2.7c-1.5-0.5-2.7-1-4.1-1c-1.7,0-3.2,0.5-4.6,1.2
			c-1.5,0.7-2.7,2-3.4,3.4c-0.7,1.5-1.2,2.9-1.2,4.4s0.5,3.2,1.2,4.4c0.7,1.5,2,2.4,3.4,3.4c1.5,0.7,3.2,1.2,4.9,1.2
			c2.2,0,3.9-0.5,5.6-1.7c1.5-1.2,2.4-2.7,2.7-4.6h-6.6v-2h9c0,3.2-1,5.9-2.9,7.8c-2,2-4.4,2.9-7.6,2.9c-3.9,0-7.1-1.2-9.3-3.9
			c-1.7-2-2.7-4.4-2.7-7.1c0-2,0.5-3.9,1.5-5.6c1-1.7,2.4-3.2,4.1-4.1c1.7-1,3.7-1.5,5.9-1.5c1.7,0,3.4,0.2,5.1,1
			C793.3,337.7,794.8,339,796.3,340.2z"/>
	</g>
</g>
</svg>
