<?xml version="1.0" encoding="utf-8"?>
<!-- Generator: Adobe Illustrator 18.0.0, SVG Export Plug-In . SVG Version: 6.00 Build 0)  -->
<!DOCTYPE svg PUBLIC "-//W3C//DTD SVG 1.1//EN" "http://www.w3.org/Graphics/SVG/1.1/DTD/svg11.dtd">
<svg version="1.1" id="Laag_1" xmlns="http://www.w3.org/2000/svg" xmlns:xlink="http://www.w3.org/1999/xlink" x="0px" y="0px"
	 width="165.3px" height="34.8px" viewBox="30.3 7 165.3 34.8" enable-background="new 30.3 7 165.3 34.8" xml:space="preserve">
<path fill="#FFFFFF" d="M64.6,14.6c0.9,0,1.8,0,2.7,0c0,6.5,0,13,0,19.6c-0.9,0-1.8,0-2.7,0C64.6,27.6,64.6,21.1,64.6,14.6z"/>
<path fill="#FFFFFF" d="M69.8,14.6c0.9,0,1.9,0,2.8,0c0,5.6,0,11.3,0,16.9c2.9,0,5.7,0,8.6,0c0,0.9,0,1.8,0,2.7c-3.8,0-7.6,0-11.4,0
	C69.8,27.6,69.8,21.1,69.8,14.6z"/>
<path fill="#FFFFFF" d="M99.6,14.6c4.1,0,8.3,0,12.4,0c0,0.9,0,1.8,0,2.7c-3.2,0-6.4,0-9.6,0c0,1.5,0,3.1,0,4.6c2.2,0,4.5,0,6.7,0
	c0,0.9,0.1,1.7,0.1,2.6c-2.3,0.1-4.5,0.1-6.8,0.1c0,2.3,0,4.6,0,6.9c3.2,0,6.4,0,9.6,0c0,0.9,0,1.8,0,2.7c-4.1,0-8.3,0-12.4,0
	C99.6,27.6,99.6,21.1,99.6,14.6z"/>
<path fill="#FFFFFF" d="M129.5,17.4c-0.1-1.3,0.6-2.7,2.1-2.7c3.6-0.2,7.3,0,10.9-0.1c0,0.9,0,1.8,0,2.7c-3.3,0-6.5,0-9.8,0
	c-0.6,2.2-0.2,4.6-0.3,6.9c0.1,2.4-0.2,4.9,0.3,7.3c2.7,0.1,5.3,0,8,0c0-2.3,0-4.6,0-6.9c-1.3,0-2.6,0-3.9,0c0-0.9,0-1.8,0-2.7
	c2.3,0,4.5,0,6.8,0c0,4.1,0,8.2,0,12.3c-3.9-0.1-7.8,0.1-11.8,0c-1.4,0-2.2-1.4-2.2-2.6C129.4,26.8,129.5,22.1,129.5,17.4z"/>
<path fill="#FFFFFF" d="M145.8,14.6c0.9,0,1.9,0,2.8,0c0.1,5.5-0.2,11.1,0.1,16.6c2.1,0.6,4.3,0.2,6.5,0.3c0.7-0.1,1.8,0.2,2-0.7
	c0.2-5.4,0-10.8,0.1-16.2c0.9,0,1.8,0,2.7,0c0,5.8,0.1,11.6,0,17.4c0.1,1.3-1.2,2.3-2.5,2.1c-3.2,0-6.4,0.1-9.6,0
	c-1.6,0-2.2-1.8-2.1-3.2C145.8,25.5,145.8,20,145.8,14.6z"/>
<path fill="#FFFFFF" d="M161.4,14.6c5.1,0,10.1,0,15.2,0v2.7c-2.1,0-4.1,0-6.2,0c0,5.6,0,11.3,0,16.9c-0.9,0-1.9,0-2.8,0
	c0-5.6,0-11.3,0-16.9c-2.1,0-4.1,0-6.2,0C161.4,16.4,161.4,15.5,161.4,14.6z"/>
<path fill="#FFFFFF" d="M97.2,17.4c0-1.7-1.7-2.7-3.2-2.7c-3.6-0.1-7.3,0-10.9-0.1c0,6.5,0,13,0,19.6c3.1,0,6.1,0,9.2,0
	c1.4,0,2.9-0.1,4-0.9c1.2-1,1-2.6,1-4C97.2,25.3,97.3,21.3,97.2,17.4z M92.7,31.3c-2.3,0.3-4.6,0.1-6.9,0.2c0-4.7,0-9.5,0-14.2
	c2.3,0.1,4.6-0.1,6.9,0.1c0.8,0.1,1.7,0.8,1.6,1.7c0.1,3.4,0,6.8,0,10.2C94.5,30.3,93.8,31.2,92.7,31.3z"/>
<path fill="#FFFFFF" d="M124.3,24.7c1.1,0.1,2.1-0.3,2.9-1c0-2.5,0.1-5,0-7.5c0.1-0.9-0.9-1.6-1.7-1.6c-3.7-0.1-7.4,0-11.1,0
	c0,6.5,0,13,0,19.6c0.9,0,1.9,0,2.8,0c0-3.2,0-6.4,0-9.6c1.4,0.2,3.8-0.8,4.5,1.1c1,2.8,2.9,5.4,2.9,8.5c0.9,0,1.9,0,2.8,0
	C127.7,30.7,125.4,27.8,124.3,24.7z M117.2,21.9c0-1.5,0-3.1,0-4.6c2.5,0.1,5-0.2,7.4,0.3c0.1,1.5,0.1,3-0.2,4.4
	C122.1,21.9,119.6,21.9,117.2,21.9z"/>
<path fill="#FFFFFF" d="M62,25.3c0-1.1-1.2-1.4-1.8-2c2.2-1.4,1.6-4.2,1.6-6.4c0-1.4-1.4-2.2-2.7-2.2c-3.2-0.1-6.4,0-9.6,0v19.6
	c3.4-0.1,6.7,0.1,10.1-0.1c1.1,0,2.5-0.7,2.5-2C62.1,29.8,62.1,27.5,62,25.3z M52.1,17.1c2.2,0.2,4.7-0.6,6.6,0.5
	c0.5,1.1,0.7,3.2-0.4,4.1c-2,0.5-4.1,0.1-6.2,0.2C52.1,20.3,52.1,18.7,52.1,17.1z M58.4,31.4c-2.1,0.4-4.2,0.1-6.3,0.2
	c0-2.3,0-4.7,0-7c2.1,0.1,4.3-0.2,6.3,0.2c1.3,0.6,0.9,2.2,1,3.3C59.3,29.2,59.7,31,58.4,31.4z"/>
</svg>
