<?xml version="1.0" encoding="utf-8"?>
<!-- Generator: Adobe Illustrator 18.0.0, SVG Export Plug-In . SVG Version: 6.00 Build 0)  -->
<!DOCTYPE svg PUBLIC "-//W3C//DTD SVG 1.1 Basic//EN" "http://www.w3.org/Graphics/SVG/1.1/DTD/svg11-basic.dtd">
<svg version="1.1" baseProfile="basic" id="Logo_x5F_5cm"
	 xmlns="http://www.w3.org/2000/svg" xmlns:xlink="http://www.w3.org/1999/xlink" x="0px" y="0px" viewBox="0 0 283.5 72.3"
	 xml:space="preserve">
<g>
	<g>
		<path d="M33.9,39.5c0,3.9-3,5.7-6.9,5.7H7.1V4h18.4c6.3,0,7.7,2.9,7.7,6v6.6c0,3.5-2.9,5.3-5,5.7c2.4,0.5,5.6,1.8,5.6,5.7V39.5z
			 M27.6,12.7c0-2.2-0.7-3.5-4.5-3.5H12.7v10.5h11.2c2.4,0,3.8-1.3,3.8-3.7V12.7z M28.2,28.5c0-2.5-1.7-3.5-4.2-3.5H12.7v15.1h11.4
			c2.3,0,4.2-0.8,4.2-3.1V28.5z"/>
		<path d="M39.3,45.2V4.1h5.6v41.2H39.3z"/>
		<path d="M50.4,45.2V4h5.6v35.8h18.4v5.5H50.4z"/>
		<path d="M97.4,45.2H78.6V4h18.8c10.9,0,10.9,4.2,10.9,10.2v21C108.3,40.8,108.3,45.2,97.4,45.2z M102.7,16.3
			c0-4.2,0.1-6.9-6.5-6.9H84.1v30.3h12c6.5,0,6.5-2.9,6.5-6.7V16.3z"/>
		<path d="M113.7,45.2V4h25.8v5.5h-20.2v10.2h14.2v5.4h-14.2v14.7h20.2v5.5H113.7z"/>
		<path d="M171.9,41.6v3.7h-5.6v-3.4c-0.1-0.6-0.2-1.1-0.4-1.4l-6.2-14.3c-0.5-0.6-0.9-1-2-1h-7.2v20.2H145V4.1h22.4
			c2.8,0,4.3,1.9,4.3,3.6v13.9c0,2-2,3.5-4.3,3.5h-2.1l5.6,12.7C171.7,39.2,171.9,40.4,171.9,41.6z M166.5,11.8
			c0-1.5-0.2-2.1-1.8-2.1h-14.1v10h14.2c1.3,0,1.7-0.1,1.7-1.7V11.8z"/>
		<path d="M182.2,45.2c-2.6,0-5.5-1.3-5.5-5.7V9.4c0-3.6,2.2-5.3,6.2-5.3h20.8v5.5h-18.1c-2.1,0-3.3-0.2-3.3,3.1v23.8
			c0,3.2,1,3.3,3,3.3h15V25.1H192v-5.4h13.9v25.6H182.2z"/>
		<path d="M235.8,45.2h-19c-2.7,0-5.3-1.2-5.3-6.1V4h5.6v33.6c0,1.5,0.6,2.2,2.2,2.2h14.2c1.4,0,2.2-0.5,2.2-2.2V4h5.6v35.2
			C241.2,44,238.7,45.2,235.8,45.2z"/>
		<path d="M263.1,9.5v35.8h-5.6V9.5h-13.3V4h32.1v5.5H263.1z"/>
	</g>
	<g>
		<path d="M7.1,59.4h0.9V68H7.1V59.4z"/>
		<path d="M19.7,68l1.2-8.6h0.1l3.5,7.1l3.5-7.1h0.1l1.2,8.6h-0.8l-0.9-6.2l-3,6.2h-0.2l-3.1-6.2L20.6,68H19.7z"/>
		<path d="M44.9,59.4l4,8.6H48l-1.4-2.8h-3.7L41.6,68h-1l4.1-8.6H44.9z M44.8,61.2l-1.5,3.1h2.9L44.8,61.2z"/>
		<path d="M68.8,60.8l-0.7,0.6c-0.5-0.5-1-0.8-1.6-1.1C66,60.2,65.4,60,64.9,60c-0.7,0-1.3,0.2-1.9,0.5c-0.6,0.3-1.1,0.8-1.4,1.4
			c-0.3,0.6-0.5,1.2-0.5,1.8c0,0.6,0.2,1.3,0.5,1.8c0.3,0.6,0.8,1,1.4,1.4c0.6,0.3,1.3,0.5,2,0.5c0.9,0,1.6-0.2,2.3-0.7
			c0.6-0.5,1-1.1,1.1-1.9h-2.8v-0.8h3.7c0,1.3-0.4,2.4-1.2,3.2c-0.8,0.8-1.8,1.2-3.1,1.2c-1.6,0-2.9-0.5-3.8-1.6
			c-0.7-0.8-1.1-1.8-1.1-2.9c0-0.8,0.2-1.6,0.6-2.3c0.4-0.7,1-1.3,1.7-1.7c0.7-0.4,1.5-0.6,2.4-0.6c0.7,0,1.4,0.1,2.1,0.4
			C67.5,59.8,68.2,60.3,68.8,60.8z"/>
		<path d="M81.1,59.8h4.7v0.8h-3.9v2.6h3.9V64h-3.9v3.2h3.9V68h-4.7V59.8z"/>
		<path d="M107.9,59.4h1.7c1,0,1.7,0,2,0.1c0.5,0.1,0.9,0.4,1.2,0.7c0.3,0.4,0.5,0.9,0.5,1.4c0,0.6-0.2,1-0.5,1.4
			c-0.3,0.4-0.7,0.6-1.3,0.8c-0.4,0.1-1.1,0.1-2.2,0.1h-0.6v4h-0.9V59.4z M108.7,60.2v2.9l1.5,0c0.6,0,1-0.1,1.3-0.2
			c0.3-0.1,0.5-0.3,0.6-0.5c0.2-0.2,0.2-0.5,0.2-0.8c0-0.3-0.1-0.6-0.2-0.8c-0.2-0.2-0.4-0.4-0.6-0.5c-0.3-0.1-0.7-0.2-1.3-0.2
			H108.7z"/>
		<path d="M125.2,59.4h1.7c1,0,1.6,0,1.9,0.1c0.5,0.1,0.9,0.4,1.2,0.8c0.3,0.4,0.5,0.9,0.5,1.4c0,0.5-0.1,0.9-0.3,1.2
			c-0.2,0.4-0.5,0.6-0.9,0.8c-0.4,0.2-1,0.3-1.7,0.3l3.1,4h-1.1l-3.1-4h-0.5v4h-0.9V59.4z M126.1,60.2v2.9l1.5,0
			c0.6,0,1-0.1,1.3-0.2c0.3-0.1,0.5-0.3,0.6-0.5c0.2-0.2,0.2-0.5,0.2-0.8c0-0.3-0.1-0.6-0.2-0.8c-0.2-0.2-0.4-0.4-0.6-0.5
			c-0.3-0.1-0.7-0.2-1.3-0.2H126.1z"/>
		<path d="M146.8,59.2c1.3,0,2.4,0.4,3.3,1.3c0.9,0.9,1.3,1.9,1.3,3.2c0,1.3-0.4,2.3-1.3,3.2c-0.9,0.9-1.9,1.3-3.2,1.3
			c-1.3,0-2.4-0.4-3.2-1.3c-0.9-0.9-1.3-1.9-1.3-3.2c0-0.8,0.2-1.6,0.6-2.3c0.4-0.7,0.9-1.3,1.6-1.7C145.2,59.4,146,59.2,146.8,59.2
			z M146.8,60c-0.6,0-1.2,0.2-1.8,0.5c-0.6,0.3-1,0.8-1.3,1.3c-0.3,0.6-0.5,1.2-0.5,1.9c0,1,0.4,1.9,1.1,2.6
			c0.7,0.7,1.6,1.1,2.6,1.1c0.7,0,1.3-0.2,1.9-0.5c0.6-0.3,1-0.8,1.3-1.3c0.3-0.6,0.5-1.2,0.5-1.9c0-0.7-0.2-1.3-0.5-1.9
			c-0.3-0.6-0.8-1-1.3-1.3C148.1,60.2,147.5,60,146.8,60z"/>
		<path d="M171.4,61l-0.7,0.5c-0.4-0.5-0.8-0.9-1.4-1.1c-0.5-0.3-1.1-0.4-1.7-0.4c-0.7,0-1.3,0.2-1.9,0.5c-0.6,0.3-1,0.8-1.4,1.3
			c-0.3,0.6-0.5,1.2-0.5,1.9c0,1.1,0.4,1.9,1.1,2.6c0.7,0.7,1.6,1.1,2.7,1.1c1.2,0,2.2-0.5,3-1.4l0.7,0.5c-0.4,0.5-1,1-1.6,1.3
			c-0.6,0.3-1.4,0.4-2.2,0.4c-1.5,0-2.7-0.5-3.6-1.5c-0.7-0.8-1.1-1.9-1.1-3.1c0-1.3,0.4-2.3,1.3-3.2c0.9-0.9,2-1.3,3.3-1.3
			c0.8,0,1.5,0.2,2.2,0.5C170.4,60,170.9,60.4,171.4,61z"/>
		<path d="M183.3,59.4h4.9v0.8h-4.1v2.7h4v0.8h-4v3.4h4V68h-4.9V59.4z"/>
		<path d="M199,66.4l0.7-0.4c0.5,1,1.1,1.4,1.8,1.4c0.3,0,0.6-0.1,0.8-0.2c0.3-0.1,0.4-0.3,0.6-0.5c0.1-0.2,0.2-0.5,0.2-0.7
			c0-0.3-0.1-0.6-0.3-0.8c-0.3-0.4-0.8-0.8-1.5-1.4c-0.7-0.5-1.2-0.9-1.3-1.2c-0.3-0.4-0.5-0.8-0.5-1.3c0-0.4,0.1-0.7,0.3-1
			c0.2-0.3,0.4-0.6,0.8-0.7c0.3-0.2,0.7-0.3,1.1-0.3c0.4,0,0.8,0.1,1.1,0.3c0.4,0.2,0.7,0.6,1.1,1.1l-0.7,0.5
			c-0.3-0.4-0.6-0.7-0.8-0.9c-0.2-0.1-0.5-0.2-0.7-0.2c-0.3,0-0.6,0.1-0.9,0.3c-0.2,0.2-0.3,0.5-0.3,0.8c0,0.2,0,0.4,0.1,0.5
			c0.1,0.2,0.2,0.4,0.4,0.6c0.1,0.1,0.5,0.4,1.1,0.9c0.7,0.6,1.3,1,1.5,1.5c0.3,0.4,0.4,0.9,0.4,1.3c0,0.6-0.2,1.2-0.7,1.6
			c-0.5,0.5-1.1,0.7-1.7,0.7c-0.5,0-1-0.1-1.4-0.4C199.8,67.5,199.4,67.1,199,66.4z"/>
		<path d="M215.2,66.4L216,66c0.5,1,1.1,1.4,1.8,1.4c0.3,0,0.6-0.1,0.8-0.2c0.3-0.1,0.4-0.3,0.6-0.5c0.1-0.2,0.2-0.5,0.2-0.7
			c0-0.3-0.1-0.6-0.3-0.8c-0.3-0.4-0.8-0.8-1.5-1.4c-0.7-0.5-1.2-0.9-1.3-1.2c-0.3-0.4-0.5-0.8-0.5-1.3c0-0.4,0.1-0.7,0.3-1
			c0.2-0.3,0.4-0.6,0.8-0.7c0.3-0.2,0.7-0.3,1.1-0.3c0.4,0,0.8,0.1,1.1,0.3c0.4,0.2,0.7,0.6,1.1,1.1l-0.7,0.5
			c-0.3-0.4-0.6-0.7-0.8-0.9c-0.2-0.1-0.5-0.2-0.7-0.2c-0.3,0-0.6,0.1-0.8,0.3c-0.2,0.2-0.3,0.5-0.3,0.8c0,0.2,0,0.4,0.1,0.5
			c0.1,0.2,0.2,0.4,0.4,0.6c0.1,0.1,0.5,0.4,1.1,0.9c0.7,0.6,1.3,1,1.5,1.5c0.3,0.4,0.4,0.9,0.4,1.3c0,0.6-0.2,1.2-0.7,1.6
			c-0.5,0.5-1.1,0.7-1.7,0.7c-0.5,0-1-0.1-1.4-0.4C216,67.5,215.6,67.1,215.2,66.4z"/>
		<path d="M232.2,59.4h0.9V68h-0.9V59.4z"/>
		<path d="M245.2,68v-8.6h0.2l5.7,6.6v-6.6h0.8V68h-0.2l-5.7-6.5V68H245.2z"/>
		<path d="M271.4,60.8l-0.7,0.6c-0.5-0.5-1-0.8-1.6-1.1c-0.6-0.2-1.1-0.4-1.7-0.4c-0.7,0-1.3,0.2-1.9,0.5c-0.6,0.3-1.1,0.8-1.4,1.4
			c-0.3,0.6-0.5,1.2-0.5,1.8c0,0.6,0.2,1.3,0.5,1.8c0.3,0.6,0.8,1,1.4,1.4c0.6,0.3,1.3,0.5,2,0.5c0.9,0,1.6-0.2,2.3-0.7
			c0.6-0.5,1-1.1,1.1-1.9h-2.7v-0.8h3.7c0,1.3-0.4,2.4-1.2,3.2c-0.8,0.8-1.8,1.2-3.1,1.2c-1.6,0-2.9-0.5-3.8-1.6
			c-0.7-0.8-1.1-1.8-1.1-2.9c0-0.8,0.2-1.6,0.6-2.3c0.4-0.7,1-1.3,1.7-1.7c0.7-0.4,1.5-0.6,2.4-0.6c0.7,0,1.4,0.1,2.1,0.4
			C270.2,59.8,270.8,60.3,271.4,60.8z"/>
	</g>
</g>
</svg>
