<?xml version="1.0" encoding="utf-8"?>
<!-- Generator: Adobe Illustrator 15.1.0, SVG Export Plug-In . SVG Version: 6.00 Build 0)  -->
<!DOCTYPE svg PUBLIC "-//W3C//DTD SVG 1.1//EN" "http://www.w3.org/Graphics/SVG/1.1/DTD/svg11.dtd">
<svg version="1.1" id="svg2853" xmlns:svg="http://www.w3.org/2000/svg"
	 xmlns="http://www.w3.org/2000/svg" xmlns:xlink="http://www.w3.org/1999/xlink" x="0px" y="0px" width="1024px" height="253px"
	 viewBox="0 0 1024 253" enable-background="new 0 0 1024 253" xml:space="preserve">
<path id="path2485" fill="#FFFFFF" d="M410.791,223.073h2.887v-21.722h-2.887V223.073z"/>
<path id="path2489" fill="#FFFFFF" d="M420.06,207.564h2.652v1.941c0.204-0.22,0.377-0.404,0.581-0.584
	c0.411-0.373,1.607-1.292,3.18-1.604c0.292-0.062,0.7-0.154,1.368-0.154c1.604,0.031,2.538,0.432,3.149,0.831
	c2.126,1.445,2.042,4.063,2.042,6.371v8.704h-2.626v-8.704c-0.026-1.635,0-3.511-1.484-4.557c-0.611-0.431-1.311-0.585-2.042-0.585
	c-0.553,0-2.333,0.093-3.41,1.723c-0.789,1.2-0.758,2.584-0.758,3.972v8.151h-2.652V207.564"/>
<path id="path2493" fill="#FFFFFF" d="M439.855,209.163h-2.36v-1.599h2.36v-1.538c-0.031-1.415-0.031-2.675,0.754-3.875
	c0.438-0.646,1.545-1.907,3.586-1.907c1.108,0,1.869,0.396,2.241,0.646l-0.58,1.415c-0.496-0.153-0.757-0.215-1.28-0.215
	c-0.204,0-0.789,0-1.285,0.369c-0.931,0.708-0.815,2.091-0.815,3.105v2h3.525v1.599h-3.525v13.907h-2.622V209.163"/>
<path id="path2497" fill="#FFFFFF" d="M455.038,209.506c-1.341,0.646-2.595,2.368-2.595,5.752c0,3.137,1.049,4.89,2.214,5.663
	c0.38,0.246,1.049,0.554,2.126,0.554c1.314,0,3.206-0.527,3.937-3.634c0.204-0.861,0.292-1.811,0.292-2.706
	c0-0.462,0-1.323-0.262-2.399c-0.234-0.861-1.077-3.537-3.937-3.599C456.495,209.137,455.792,209.137,455.038,209.506z
	 M459.644,207.814c1.457,0.707,4.225,2.83,4.225,7.382c0,4.401-2.652,8.246-7.144,8.246c-1.425,0-2.387-0.4-2.91-0.646
	c-2.917-1.321-4.198-4.401-4.198-7.6c0-0.523,0-1.846,0.496-3.23c1.049-2.982,3.645-4.77,6.612-4.801
	C457.19,207.165,458.386,207.229,459.644,207.814"/>
<path id="path2501" fill="#FFFFFF" d="M469.113,207.564h2.653v2.342l0.669-0.865c0.38-0.523,1.08-1.477,1.691-1.753
	c0.208-0.062,0.465-0.124,0.673-0.124c0.377,0,0.611,0.093,0.757,0.124c0.465,0.185,1.077,0.584,1.861,1.414l-1.222,1.788
	c-0.173-0.096-1.108-0.619-1.949-0.619c-0.819,0-1.461,0.466-1.838,1.203c-0.669,1.196-0.642,3.169-0.642,4.487v7.509h-2.653
	V207.564"/>
<path id="path2505" fill="#FFFFFF" d="M481.62,207.564h2.653v1.941c0.261-0.308,0.553-0.681,1.223-1.169
	c1.106-0.803,2.129-1.173,3.472-1.173c0.642,0,2.214,0.062,3.552,1.415c0.438,0.431,0.585,0.677,0.761,0.927
	c0.35-0.308,0.7-0.619,1.107-0.927c1.75-1.261,3.029-1.415,3.991-1.415c0.323,0,0.934,0,1.691,0.277
	c0.496,0.154,1.545,0.646,2.276,1.938c0.816,1.419,0.757,2.987,0.757,4.556v9.136h-2.652v-9.012c0-0.62,0-1.204-0.058-1.788
	c-0.177-1.569-0.876-2.277-1.461-2.615c-0.668-0.399-1.395-0.431-1.629-0.431c-0.496,0-1.922,0.093-2.857,1.354
	c-0.669,0.927-0.727,1.757-0.757,3.845v8.647h-2.622v-9.012c-0.062-1.48-0.031-3.138-1.257-4.152
	c-0.753-0.65-1.572-0.682-1.949-0.682c-0.465,0-1.926,0.127-2.829,1.42c-0.757,1.072-0.757,2.333-0.757,3.599v8.827h-2.653V207.564"
	/>
<path id="path2509" fill="#FFFFFF" d="M515.667,214.428c-0.177,0.062-1.868,0.522-2.918,1.168c-1.488,0.953-1.691,2.245-1.691,3.018
	c0,0.185,0,0.554,0.146,1.016c0.438,1.415,1.577,1.626,2.1,1.626c1.257,0,2.364-1.042,3.002-2.152
	c1.135-1.969,0.988-4.583,0.988-5.137L515.667,214.428z M517.678,223.073c-0.296-0.83-0.385-1.199-0.469-2.706
	c-0.347,0.431-2.157,3.075-4.837,3.075c-2.453,0-4.056-2.156-4.056-4.617c0-1.626,0.646-2.892,1.868-3.875
	c1.312-1.042,3.233-1.6,4.752-2.061l2.303-0.77c-0.03-0.339-0.088-1.414-0.815-2.183c-0.876-0.954-1.953-0.954-2.364-0.954
	c-0.261,0-0.553,0-1.049,0.123c-0.965,0.245-1.981,0.923-2.157,1.076c-0.173,0.123-0.38,0.277-0.553,0.462l-0.992-1.415
	c0.819-0.77,2.449-2.062,5.221-2.062c3.06,0.028,4.544,1.631,5.009,2.923c0.381,1.045,0.354,2.429,0.354,3.506v4.521
	c0,2.803,0.058,3.444,0.642,4.955H517.678"/>
<path id="path2513" fill="#FFFFFF" d="M524.583,207.564h2.071v-3.783l2.653-0.923l-0.03,4.706h3.844v1.599h-3.871l-0.062,8.217
	c0,0.738,0,1.445,0.089,2.184c0.088,0.614,0.35,1.907,2.01,1.907c0.435,0,1.077-0.062,1.927-0.555l0.639,1.539
	c-0.555,0.338-1.604,0.987-3.265,0.987c-0.438,0-1.515-0.034-2.507-0.803c-1.634-1.292-1.541-3.169-1.541-5.079l0.084-8.397h-2.041
	V207.564"/>
<path id="path2517" fill="#FFFFFF" d="M537.958,207.564h2.652v15.506h-2.652V207.564z M540.961,202.582
	c0,0.984-0.73,1.784-1.692,1.784c-0.407,0-0.669-0.154-0.783-0.216c-0.293-0.153-0.873-0.615-0.873-1.568
	c0-1.016,0.669-1.754,1.626-1.754C540.203,200.798,540.961,201.535,540.961,202.582"/>
<path id="path2521" fill="#FFFFFF" d="M551.311,209.506c-1.342,0.646-2.596,2.368-2.596,5.752c0,3.137,1.05,4.89,2.215,5.663
	c0.381,0.246,1.05,0.554,2.126,0.554c1.314,0,3.206-0.527,3.94-3.634c0.2-0.861,0.288-1.811,0.288-2.706
	c0-0.462,0-1.323-0.261-2.399c-0.235-0.861-1.08-3.537-3.938-3.599C552.768,209.137,552.063,209.137,551.311,209.506z
	 M555.916,207.814c1.453,0.707,4.226,2.83,4.226,7.382c0,4.401-2.653,8.246-7.14,8.246c-1.431,0-2.388-0.4-2.918-0.646
	c-2.914-1.321-4.194-4.401-4.194-7.6c0-0.523,0-1.846,0.492-3.23c1.053-2.982,3.648-4.77,6.62-4.801
	C553.467,207.165,554.659,207.229,555.916,207.814"/>
<path id="path2525" fill="#FFFFFF" d="M565.382,207.564h2.652v1.941c0.203-0.22,0.385-0.404,0.585-0.584
	c0.406-0.373,1.603-1.292,3.175-1.604c0.292-0.062,0.7-0.154,1.372-0.154c1.6,0.031,2.53,0.432,3.146,0.831
	c2.126,1.445,2.041,4.063,2.041,6.371v8.704h-2.625v-8.704c-0.031-1.635,0-3.511-1.484-4.557c-0.615-0.431-1.312-0.585-2.038-0.585
	c-0.553,0-2.337,0.093-3.413,1.723c-0.789,1.2-0.758,2.584-0.758,3.972v8.151h-2.652V207.564"/>
<path id="path2529" fill="#FFFFFF" d="M594.646,207.564h2.656v15.506h-2.656V207.564z M597.653,202.582
	c0,0.984-0.731,1.784-1.696,1.784c-0.403,0-0.665-0.154-0.779-0.216c-0.297-0.153-0.878-0.615-0.878-1.568
	c0-1.016,0.67-1.754,1.631-1.754C596.896,200.798,597.653,201.535,597.653,202.582"/>
<path id="path2533" fill="#FFFFFF" d="M603.504,207.564h2.657v1.941c0.2-0.22,0.38-0.404,0.58-0.584
	c0.412-0.373,1.604-1.292,3.176-1.604c0.292-0.062,0.7-0.154,1.373-0.154c1.599,0.031,2.533,0.432,3.145,0.831
	c2.126,1.445,2.041,4.063,2.041,6.371v8.704h-2.622v-8.704c-0.03-1.635,0-3.511-1.487-4.557c-0.615-0.431-1.312-0.585-2.037-0.585
	c-0.554,0-2.335,0.093-3.415,1.723c-0.783,1.2-0.753,2.584-0.753,3.972v8.151h-2.657V207.564"/>
<path id="path2537" fill="#FFFFFF" d="M642.039,213.72c-0.031-1.508-0.235-3.106-1.52-4.028c-0.287-0.217-0.899-0.555-1.833-0.555
	c-0.438,0-1.461,0.093-2.392,0.893c-1.396,1.199-1.515,3.229-1.545,3.69H642.039z M644.312,221.628
	c-1.75,1.168-3.149,1.814-5.249,1.814c-0.899,0-2.853-0.062-4.663-1.753c-2.503-2.307-2.564-5.54-2.564-6.644
	c0-0.896,0.031-3.019,1.43-5.017c0.697-0.984,2.388-2.861,5.51-2.861c1.223,0.028,1.953,0.277,2.419,0.523
	c0.961,0.43,2.444,1.66,3.06,4.274c0.204,0.862,0.323,1.723,0.323,3.542h-9.916c0,0.584,0,1.538,0.527,2.829
	c1.165,2.795,3.469,3.168,4.491,3.168c0.811,0,2.241-0.219,3.874-1.388L644.312,221.628"/>
<path id="path2541" fill="#FFFFFF" d="M649.528,207.564h2.652v2.342l0.673-0.865c0.377-0.523,1.077-1.477,1.688-1.753
	c0.204-0.062,0.47-0.124,0.673-0.124c0.378,0,0.611,0.093,0.758,0.124c0.469,0.185,1.076,0.584,1.864,1.414l-1.227,1.788
	c-0.169-0.096-1.107-0.619-1.948-0.619c-0.815,0-1.457,0.466-1.839,1.203c-0.669,1.196-0.642,3.169-0.642,4.487v7.509h-2.652
	V207.564"/>
<path id="path2545" fill="#FFFFFF" d="M668.651,209.998c-1.081-0.861-2.157-0.984-2.657-0.984c-0.143,0-0.461,0-0.812,0.123
	c-0.703,0.215-1.284,0.831-1.284,1.634c0,0.585,0.262,0.949,0.382,1.104c0.522,0.742,1.661,1.415,3.232,2.741
	c1.339,1.104,2.449,2.338,2.449,4.275c0,0.338-0.03,1.23-0.465,2.092c-0.522,1.011-1.838,2.46-4.464,2.46
	c-2.561,0-3.902-1.292-4.659-1.999l1.311-1.538c0.931,0.893,1.804,1.6,3.118,1.569c0.438,0,0.73-0.031,1.107-0.188
	c1.223-0.488,1.342-1.569,1.342-2.058c0-0.956-0.466-1.511-0.674-1.753c-0.606-0.707-1.426-1.261-2.129-1.788
	c-0.523-0.43-1.077-0.86-1.6-1.321c-0.377-0.369-1.519-1.385-1.55-3.138c0-0.339,0.031-0.953,0.385-1.661
	c0.465-0.923,1.718-2.371,4.257-2.399c1.982,0.028,3.179,0.892,3.755,1.415L668.651,209.998"/>
<path id="path2549" fill="#FFFFFF" d="M673.372,207.564h2.068v-3.783l2.652-0.923l-0.026,4.706h3.845v1.599h-3.876l-0.057,8.217
	c0,0.738,0,1.445,0.088,2.184c0.084,0.614,0.347,1.907,2.011,1.907c0.435,0,1.077-0.062,1.922-0.555l0.643,1.539
	c-0.558,0.338-1.604,0.987-3.269,0.987c-0.434,0-1.515-0.034-2.502-0.803c-1.634-1.292-1.546-3.169-1.546-5.079l0.084-8.397h-2.037
	V207.564"/>
<path id="path2553" fill="#FFFFFF" d="M696.021,213.72c-0.03-1.508-0.234-3.106-1.519-4.028c-0.288-0.217-0.899-0.555-1.834-0.555
	c-0.438,0-1.461,0.093-2.391,0.893c-1.396,1.199-1.515,3.229-1.546,3.69H696.021z M698.292,221.628
	c-1.749,1.168-3.147,1.814-5.247,1.814c-0.9,0-2.854-0.062-4.664-1.753c-2.502-2.307-2.563-5.54-2.563-6.644
	c0-0.896,0.03-3.019,1.43-5.017c0.695-0.984,2.388-2.861,5.51-2.861c1.223,0.028,1.953,0.277,2.418,0.523
	c0.961,0.43,2.445,1.66,3.06,4.274c0.204,0.862,0.323,1.723,0.323,3.542h-9.915c0,0.584,0,1.538,0.526,2.829
	c1.165,2.795,3.468,3.168,4.49,3.168c0.812,0,2.242-0.219,3.876-1.388L698.292,221.628"/>
<path id="path2557" fill="#FFFFFF" d="M703.506,207.564h2.653v2.342l0.672-0.865c0.377-0.523,1.077-1.477,1.688-1.753
	c0.204-0.062,0.47-0.124,0.674-0.124c0.377,0,0.611,0.093,0.757,0.124c0.47,0.185,1.077,0.584,1.865,1.414l-1.227,1.788
	c-0.169-0.096-1.107-0.619-1.949-0.619c-0.815,0-1.457,0.466-1.838,1.203c-0.669,1.196-0.642,3.169-0.642,4.487v7.509h-2.653
	V207.564"/>
<path id="path2561" fill="#FFFFFF" d="M726.301,201.352h2.884v19.539h8.423v2.183h-11.307V201.352"/>
<path id="path2565" fill="#FFFFFF" d="M742.24,207.564h2.652v15.506h-2.652V207.564z M745.247,202.582
	c0,0.984-0.731,1.784-1.695,1.784c-0.403,0-0.666-0.154-0.785-0.216c-0.296-0.153-0.872-0.615-0.872-1.568
	c0-1.016,0.668-1.754,1.63-1.754C744.485,200.798,745.247,201.535,745.247,202.582"/>
<path id="path2569" fill="#FFFFFF" d="M751.105,207.564h2.653v1.941c0.204-0.22,0.385-0.404,0.584-0.584
	c0.408-0.373,1.604-1.292,3.176-1.604c0.292-0.062,0.7-0.154,1.369-0.154c1.603,0.031,2.533,0.432,3.147,0.831
	c2.127,1.445,2.043,4.063,2.043,6.371v8.704h-2.627v-8.704c-0.03-1.635,0-3.511-1.483-4.557c-0.615-0.431-1.311-0.585-2.037-0.585
	c-0.555,0-2.339,0.093-3.414,1.723c-0.788,1.2-0.758,2.584-0.758,3.972v8.151h-2.653V207.564"/>
<path id="path2573" fill="#FFFFFF" d="M770.282,207.564h2.657v15.506h-2.657V207.564z M773.289,202.582
	c0,0.984-0.73,1.784-1.695,1.784c-0.403,0-0.665-0.154-0.78-0.216c-0.296-0.153-0.876-0.615-0.876-1.568
	c0-1.016,0.668-1.754,1.629-1.754C772.527,200.798,773.289,201.535,773.289,202.582"/>
<path id="path2577" fill="#FFFFFF" d="M788.41,213.72c-0.031-1.508-0.231-3.106-1.515-4.028c-0.288-0.217-0.908-0.555-1.838-0.555
	c-0.435,0-1.457,0.093-2.392,0.893c-1.396,1.199-1.515,3.229-1.545,3.69H788.41z M790.682,221.628
	c-1.749,1.168-3.148,1.814-5.248,1.814c-0.899,0-2.853-0.062-4.659-1.753c-2.507-2.307-2.563-5.54-2.563-6.644
	c0-0.896,0.026-3.019,1.43-5.017c0.695-0.984,2.387-2.861,5.505-2.861c1.223,0.028,1.953,0.277,2.419,0.523
	c0.961,0.43,2.449,1.66,3.06,4.274c0.204,0.862,0.323,1.723,0.323,3.542h-9.911c0,0.584,0,1.538,0.522,2.829
	c1.165,2.795,3.472,3.168,4.491,3.168c0.814,0,2.245-0.219,3.874-1.388L790.682,221.628"/>
<path id="path2581" fill="#FFFFFF" d="M110.62,85.076h8.962c15.69,0,29.323-10.834,29.323-24.844
	c0-11.572-8.031-18.116-22.972-18.116H110.62V85.076z M110.62,146.7h17.555c14.751,0,27.454-8.031,27.454-23.717
	c0-18.304-15.686-24.84-30.438-24.84H110.62V146.7z M92.504,159.776V29.045h40.53c19.415,0,33.99,9.715,33.99,26.712
	c0,21.287-16.624,31.368-26.708,33.236v0.377c17.177,0.558,34.732,11.199,34.732,32.491c0,21.849-18.669,37.916-45.75,37.916H92.504
	"/>
<path id="path2585" fill="#FFFFFF" d="M245.77,59.409c-3.295-11.522-10.065-23.967-24.518-23.967c-8.235,0-17.75,5.128-17.75,18.661
	c0,12.81,12.261,19.211,32.203,34.398c18.665,14.094,24.521,24.336,24.521,38.246c0,22.498-22.326,34.579-48.488,34.579
	c-15.186,0-25.251-2.2-34.763-5.855c-0.735-0.369-1.284-1.096-1.284-2.557v-27.812h4.944c3.106,16.644,13.533,29.634,29.088,29.634
	c11.892,0,22.506-9.695,22.506-23.048c0-12.076-5.309-20.314-30.922-36.966c-13.722-8.781-25.067-18.842-25.067-34.943
	c0-18.116,17.382-30.918,42.629-30.918c11.899,0,20.86,0.362,30.007,2.922c1.28,0.554,1.83,1.649,1.83,2.564v25.063H245.77"/>
<path id="path2589" fill="#FFFFFF" d="M305.902,128.915h5.383c7.816,0,19.104-0.172,19.104-10.938
	c0-10.941-12.157-10.769-19.8-10.769h-4.687V128.915z M310.247,79.597c6.943,0,14.759-0.692,14.759-9.723
	c0-9.723-8.857-9.031-15.805-9.031h-3.299v18.754H310.247z M284.923,29.237h32.267c25.352,0,51.229,6.078,51.229,36.293
	c0,11.461-5.732,22.749-17.189,26.397v1.042c14.24,5.033,23.264,15.459,23.264,31.087c0,26.913-25.001,36.112-47.927,36.112h-41.644
	V29.237"/>
<path id="path2593" fill="#FFFFFF" d="M419.733,73.646c0,7.147,1.465,9.181,8.205,9.181c7.32,0,10.811-4.471,10.811-12.514
	c0-9.834-6.178-13.325-13.818-13.325h-5.198V73.646z M419.733,54.385h6.179c4.628,0,10.153-2.68,10.153-12.107
	c0-8.046-3.898-11.137-11.703-11.137h-4.629V54.385z M424.931,28.545c12.438,0,19.261,3.087,19.261,12.353
	c0,6.824-5.278,11.864-11.702,13.732v0.158c8.619,0.246,15.52,5.855,15.52,14.387c0,11.376-8.692,16.251-20.638,16.251h-22.51
	v-2.111c7.312-0.892,6.989-0.488,6.989-8.051V38.702c0-7.562,0.323-7.154-6.989-8.046v-2.111H424.931"/>
<path id="path2597" fill="#FFFFFF" d="M475.045,61.531c-7.15,2.684-15.521,4.633-15.521,12.926c0,3.818,2.518,6.905,6.259,6.905
	c4.221,0,9.261-2.76,9.261-13.487V61.531z M476.913,86.402c-1.218-1.465-1.868-3.979-1.868-6.417l-6.34,4.222
	c-1.868,1.219-4.144,2.195-6.663,2.195c-5.359,0-9.834-4.714-9.834-10.646c0-7.72,4.552-10.157,14.06-13.895l8.777-3.414
	c0-7.07-1.868-11.784-6.909-11.784c-4.956,0-6.667,4.471-8.612,7.397c-0.246,0.408-0.569,0.408-1.053,0.323l-2.769-0.65
	c-0.488-0.162-0.73-0.488-0.646-1.058l1.211-4.31c0.492-1.542,1.388-2.191,2.361-2.514c3.74-1.461,6.501-2.03,10.076-2.03
	c9.508,0,13.656,4.221,13.656,13.083v18.039c0,4.137,0.238,7.632,5.682,5.528l0.489,2.272L476.913,86.402"/>
<path id="path2601" fill="#FFFFFF" d="M520.707,53.408c2.434-5.848-2.038-6.501-6.255-6.501v-2.111h16.815v2.111
	c-3.979,0-5.523,3.983-7.069,7.316l-21.614,46.316c-1.546,3.176-2.684,5.209-5.852,5.209h-6.013c-0.65,0-0.896-0.815-0.896-1.545
	v-1.388c0-0.646,0-1.299,0.973-1.622l4.799-1.707c3.167-1.215,5.443-3.087,6.744-5.771l4.225-8.854l-13.648-31.614
	c-2.196-4.956-3.252-6.339-6.829-6.339v-2.111h21.203v2.111c-4.298,0-8.604-0.65-6.498,5.04l9.754,24.052L520.707,53.408"/>
<path id="path2605" fill="#FFFFFF" d="M554.602,60.155c1.783,0,4.06-1.134,4.06-4.709c0-5.202-3.982-8.781-8.535-8.781
	c-5.443,0-10.723,3.252-10.723,13.491H554.602z M539.403,62.996c0,9.266,4.307,18.777,15.925,18.777
	c4.475,0,7.146-1.953,9.107-2.925l1.296,2.514l-10.653,5.041h-2.515c-2.03,0-8.854,1.057-15.433-6.174
	c-2.444-2.764-5.447-9.189-5.447-15.279c0-9.503,5.121-21.126,18.931-21.126c9.188,0,15.117,6.663,15.117,16.901v2.272H539.403"/>
<path id="path2609" fill="#FFFFFF" d="M589.303,51.543c-0.815-0.404-1.788-0.323-3.007-0.323c-3.333,0-3.906,5.521-3.906,11.376
	v12.671c0,2.684,0,3.818,0.331,5.775c0.318,1.707,3.248,1.864,7.635,2.272v2.114h-21.779v-2.114
	c6.909-0.973,6.506-0.734,6.506-8.047V52.762c0-3.741-2.526-3.41-6.417-3.41v-2.118c4.387-0.161,9.83-1.134,13.567-3.406
	l0.157,0.162v7.308l4.229-4.39c1.949-2.03,3.091-3.08,4.471-3.08c0.73,0,1.711,0.077,3.007,2.434l2.356,4.145
	c0.243,0.488-0.165,0.815-0.653,1.138l-2.354,1.538c-0.491,0.327-0.811,0.169-1.222-0.077L589.303,51.543"/>
<path id="path2613" fill="#FFFFFF" d="M606.445,29.033c2.592,0,4.79,2.191,4.79,4.713c0,2.519-2.198,4.794-4.714,4.794
	c-2.603,0-4.797-2.115-4.797-4.794C601.725,31.144,603.919,29.033,606.445,29.033z M610.994,43.989v31.275
	c0,7.316-0.408,7.074,6.496,8.051v2.114H597.18v-2.114c6.905-0.977,6.502-0.734,6.502-8.051V52.762c0-3.741-2.523-3.414-6.502-3.414
	v-2.115c4.464-0.161,9.912-1.134,13.656-3.41L610.994,43.989"/>
<path id="path2617" fill="#FFFFFF" d="M621.467,75.107h2.114c-0.077,5.686,4.14,8.45,8.858,8.45c4.713,0,7.477-3.572,7.477-6.985
	c0-5.283-4.225-7.155-9.104-10.646c-6.582-4.794-9.262-6.093-9.262-11.457c0-6.828,6.34-10.646,13.002-10.646
	c2.6,0,5.853,0.166,9.589,1.38v8.127h-2.11c-0.246-2.761-2.68-6.667-7.312-6.667c-3.41,0-6.259,2.03-6.259,5.206
	c0,3.898,4.148,6.013,10.08,10.23c7.636,5.367,8.607,8.374,8.607,12.11c0,8.458-7.639,12.191-14.708,12.191
	c-4.473,0-7.963-0.73-10.973-2.191V75.107"/>
<path id="path2621" fill="#FFFFFF" d="M684.867,81.281l-10.811,5.121c-2.03,0-11.461,0.977-17.87-6.255
	c-2.603-2.849-5.447-9.185-5.447-15.198c0-12.837,9.826-21.126,21.853-21.126c3.015,0,7.316,0.569,10.004,2.115l2.837,5.44
	c0.246,0.327,0.246,0.65,0,0.811l-2.837,1.788c-0.404,0.246-0.899,0.327-1.227,0.081l-4.141-4.794
	c-1.142-1.296-3.334-2.599-6.424-2.599c-4.791,0-12.026,3.817-12.026,15.601c0,8.612,3.906,19.507,15.602,19.507
	c4.468,0,7.07-1.953,9.107-3.01L684.867,81.281"/>
<path id="path2625" fill="#FFFFFF" d="M700.631,25.861v25.113c3.498-4.067,9.35-7.151,16.412-7.151
	c9.911,0,11.872,5.932,11.872,14.379v17.062c0,7.316-0.411,7.074,6.497,8.051v2.111h-20.311v-2.111
	c6.9-0.977,6.497-0.734,6.497-8.051V60.316c0-5.121-0.33-12.272-8.938-12.272c-10.407,0-12.029,8.939-12.029,17.309v9.911
	c0,7.316-0.404,7.074,6.505,8.051v2.111h-20.319v-2.111c6.908-0.977,6.498-0.734,6.498-8.051V33.827
	c0-2.195-0.966-3.575-3.084-3.575h-3.414v-2.119c4.879-0.161,10.073-1.13,13.652-2.434L700.631,25.861"/>
<path id="path2629" fill="#FFFFFF" d="M761.19,60.155c1.791,0,4.063-1.134,4.063-4.709c0-5.202-3.986-8.781-8.535-8.781
	c-5.439,0-10.722,3.252-10.722,13.491H761.19z M745.997,62.996c0,9.266,4.302,18.777,15.92,18.777c4.472,0,7.154-1.953,9.104-2.925
	l1.304,2.514l-10.646,5.041h-2.521c-2.03,0-8.857,1.057-15.433-6.174c-2.44-2.764-5.451-9.189-5.451-15.279
	c0-9.503,5.125-21.126,18.938-21.126c9.178,0,15.113,6.663,15.113,16.901v2.272H745.997"/>
<path id="path2633" fill="#FFFFFF" d="M435.092,111.869c-2.768-2.03-6.424-4.064-9.834-4.064c-5.69,0-8.858,3.337-8.858,7.724
	c0,4.064,3.495,7.062,10.807,12.345c7.805,5.69,12.35,10.892,12.35,18.204c0,9.02-8.532,14.866-17.632,14.866
	c-5.444,0-11.945-1.944-16.009-5.928l3.491-4.71c3.337,2.354,6.993,4.956,12.356,4.956c5.605,0,9.916-3.007,9.916-9.346
	c0-7.151-8.539-11.784-13.168-15.194c-4.713-3.66-9.992-7.151-9.992-15.194c0-7.639,7.393-13.406,16.251-13.406
	c5.932,0,10.892,2.106,14.056,5.682L435.092,111.869"/>
<path id="path2637" fill="#FFFFFF" d="M456.214,119.346h10.65v4.226h-10.65v22.991c0,5.693,1.143,9.107,5.609,9.107
	c2.688,0,4.226-0.653,5.606-1.384l1.792,4.063c-2.518,1.622-5.533,2.595-8.293,2.595c-8.123,0-12.026-4.709-12.026-12.99v-24.382
	h-5.686v-4.226h5.686v-9.753l7.312-2.438V119.346"/>
<path id="path2641" fill="#FFFFFF" d="M487.106,138.197c-6.417,1.944-9.75,5.035-9.75,10.152c0,4.226,2.926,6.913,5.852,6.913
	c5.198,0,11.865-6.425,10.884-19.104L487.106,138.197z M491.496,155.582c-2.844,2.845-6.42,5.359-10.165,5.359
	c-6.819,0-11.533-4.871-11.533-12.511c0-7.066,6.013-11.538,14.467-14.052l9.827-3.088c-0.323-4.955-4.141-8.131-8.124-8.131
	c-4.713,0-7.72,1.953-10.642,4.395l-2.845-3.66c4.06-3.902,8.208-5.525,13.894-5.525c6.094,0,15.033,1.95,15.033,13.814v17.877
	c0,3.084,0.407,6.982,1.787,9.911h-7.966c-0.973-1.707-1.138-4.306-1.138-6.908L491.496,155.582"/>
<path id="path2645" fill="#FFFFFF" d="M525.074,138.197c-6.424,1.944-9.753,5.035-9.753,10.152c0,4.226,2.926,6.913,5.852,6.913
	c5.194,0,11.864-6.425,10.888-19.104L525.074,138.197z M529.466,155.582c-2.849,2.845-6.429,5.359-10.165,5.359
	c-6.825,0-11.539-4.871-11.539-12.511c0-7.066,6.017-11.538,14.463-14.052l9.835-3.088c-0.327-4.955-4.145-8.131-8.123-8.131
	c-4.718,0-7.725,1.953-10.65,4.395l-2.841-3.66c4.064-3.902,8.205-5.525,13.898-5.525c6.094,0,15.033,1.95,15.033,13.814v17.877
	c0,3.084,0.403,6.982,1.783,9.911h-7.962c-0.973-1.707-1.138-4.306-1.138-6.908L529.466,155.582"/>
<path id="path2649" fill="#FFFFFF" d="M557.508,119.346h10.648v4.226h-10.648v22.991c0,5.693,1.142,9.107,5.609,9.107
	c2.684,0,4.229-0.653,5.605-1.384l1.783,4.063c-2.514,1.622-5.523,2.595-8.284,2.595c-8.124,0-12.03-4.709-12.03-12.99v-24.382
	h-5.687v-4.226h5.687v-9.753l7.316-2.438V119.346"/>
<path id="path2653" fill="#FFFFFF" d="M592.947,125.844c-2.926-1.949-5.282-2.599-7.479-2.599c-2.603,0-5.932,1.219-5.932,4.629
	c0,3.417,3.741,5.12,8.37,8.611c5.205,3.986,8.611,7.312,8.611,13.006c0,6.829-6.743,11.45-14.221,11.45
	c-4.625,0-9.827-2.026-12.511-5.113l3.576-4.145c2.353,2.194,5.524,4.063,8.78,4.063c3.402,0,6.905-1.784,6.905-5.775
	c0-4.705-4.226-6.739-8.047-9.5c-4.633-3.328-8.692-6.093-8.692-11.621c0-6.421,6.336-10.481,13.482-10.481
	c3.983,0,7.89,1.623,9.996,3.741L592.947,125.844"/>
<path id="path2657" fill="#FFFFFF" d="M611.475,127.47h3.91c6.823,0,12.752-4.713,12.752-10.807c0-5.041-3.486-7.877-9.992-7.877
	h-6.67V127.47z M611.475,154.283h7.646c6.421,0,11.941-3.496,11.941-10.316c0-7.966-6.824-10.811-13.241-10.811h-6.347V154.283z
	 M603.601,159.972v-56.88h17.631c8.451,0,14.791,4.225,14.791,11.622c0,9.266-7.235,13.653-11.622,14.467v0.157
	c7.473,0.242,15.108,4.875,15.108,14.141c0,9.508-8.119,16.493-19.903,16.493H603.601"/>
<path id="path2661" fill="#FFFFFF" d="M645.787,105.937c0-2.034,1.711-4.306,4.637-4.306s4.629,2.272,4.629,4.306
	c0,2.191-1.054,4.956-4.629,4.956C646.845,110.893,645.787,108.128,645.787,105.937z M654.08,119.346v40.625h-7.32v-40.625H654.08"
	/>
<path id="path2665" fill="#FFFFFF" d="M694.613,138.519c0-7.385-3.737-14.947-11.291-14.947c-8.289,0-12.768,6.42-12.768,16.905
	c0,7.797,3.579,15.273,12.675,15.273C692.015,155.75,694.613,145.916,694.613,138.519z M663.249,100.25h7.306v25.432h0.164
	c3.016-4.875,8.778-7.308,13.334-7.308c15.848,0,18.446,14.221,18.446,20.068c0,12.349-7.316,22.502-19.27,22.502
	c-5.108,0-9.495-2.43-12.511-6.331h-0.164v5.358h-7.306V100.25"/>
<path id="path2667" fill="#FFFFFF" d="M709.096,159.972h7.316v-59.725h-7.316V159.972z"/>
<path id="path2671" fill="#FFFFFF" d="M724.773,105.937c0-2.034,1.712-4.306,4.626-4.306c2.93,0,4.636,2.272,4.636,4.306
	c0,2.191-1.057,4.956-4.636,4.956C725.827,110.893,724.773,108.128,724.773,105.937z M733.062,119.346v40.625h-7.319v-40.625
	H733.062"/>
<path id="path2675" fill="#FFFFFF" d="M747.519,139.173c0,7.639,2.592,16.577,12.103,16.577c9.589,0,12.188-8.938,12.188-16.577
	c0-7.312-3.007-15.601-12.188-15.601C750.518,123.572,747.519,131.86,747.519,139.173z M739.629,139.173
	c0-13.164,9.755-20.803,19.992-20.803c10.242,0,20.073,7.639,20.073,20.803c0,12.599-8.043,21.771-20.073,21.771
	C747.676,160.944,739.629,151.771,739.629,139.173"/>
<path id="path2679" fill="#FFFFFF" d="M795.307,119.346h10.65v4.226h-10.65v22.991c0,5.693,1.139,9.107,5.609,9.107
	c2.684,0,4.233-0.653,5.609-1.384l1.791,4.063c-2.525,1.622-5.523,2.595-8.292,2.595c-8.128,0-12.021-4.709-12.021-12.99v-24.382
	h-5.69v-4.226h5.69v-9.753l7.304-2.438V119.346"/>
<path id="path2683" fill="#FFFFFF" d="M818.886,124.379c3.818-4.06,9.669-6.009,13.898-6.009c9.342,0,14.379,5.202,14.379,15.436
	v26.166h-7.305v-24.62c0-7.636-3.253-11.619-9.838-11.619c-5.768,0-11.054,3.983-11.054,11.78v24.459h-7.312v-59.725h7.231V124.379"
	/>
<path id="path2687" fill="#FFFFFF" d="M882.045,135.274c0-6.34-2.684-11.703-9.107-11.703c-7.797,0-10.881,6.498-11.127,11.703
	H882.045z M861.322,140.146c-0.08,8.128,5.69,15.604,13.737,15.604c3.729,0,8.284-1.38,11.13-3.494l2.11,3.98
	c-4.221,3.005-9.262,4.708-13.483,4.708c-12.687,0-21.053-7.796-21.053-22.099c0-14.059,10.077-20.472,19.262-20.472
	c12.345,0,16.494,11.13,15.683,21.771H861.322"/>
<path id="path2691" fill="#FFFFFF" d="M895.048,100.247h7.319v35.508h1.219l15.921-17.223l5.448,3.091l-14.468,15.105l17.15,20.73
	l-7.235,3.33l-17.873-22.999h-0.162v22.183h-7.319V100.247"/>
<path id="path2693" fill="#FFFFFF" d="M261.101,160.168h23.825V29.099h-23.825V160.168z"/>
</svg>
