<?xml version="1.0" encoding="utf-8"?>
<!-- Generator: Adobe Illustrator 15.1.0, SVG Export Plug-In . SVG Version: 6.00 Build 0)  -->
<!DOCTYPE svg PUBLIC "-//W3C//DTD SVG 1.1//EN" "http://www.w3.org/Graphics/SVG/1.1/DTD/svg11.dtd">
<svg version="1.1" id="svg3193" xmlns:svg="http://www.w3.org/2000/svg"
	 xmlns="http://www.w3.org/2000/svg" xmlns:xlink="http://www.w3.org/1999/xlink" x="0px" y="0px" width="300px" height="60px"
	 viewBox="0 0 300 60" enable-background="new 0 0 300 60" xml:space="preserve">
<g id="layer1" transform="translate(-340.16784,-586.47325)">
	<path id="path256" fill="#FFFFFF" d="M390.366,599.972c-0.197-0.666-1.904-4.076-1.904-4.076l17.71,0.007
		c5.932,0,13.199,0.525,16.796,4.621c2.896,3.296,3.153,8.484,0.779,15.859c-6.129,19.074-19.496,20.653-33.428,20.653h-11.7
		L390.366,599.972L390.366,599.972z M393.743,632.001c4.938-0.023,9.183-0.823,11.758-2.513c3.285-2.165,5.556-5.928,7.83-12.99
		c2.017-6.283,2.876-10.84,0.713-13.295c-1.438-1.646-4.896-2.44-9.34-2.44c-0.202,0-0.401,0-0.587,0.001
		c0,0-1.892-0.036-3.781,0.196l-9.329,29.166c0,0-0.497,1.875,1.742,1.875"/>
	<path id="path260" fill="#FFFFFF" d="M441.723,632.004l18.729,0.019l-1.612,5.016h-31.182l11.745-37.063
		c-0.195-0.668-1.868-4.084-1.868-4.084h33.148l-1.614,5.016h-19.695l-3.902,12.185h13.747l-1.614,5.029h-13.737l-3.796,11.902
		C440.069,630.022,439.552,631.954,441.723,632.004"/>
	<path id="path264" fill="#FFFFFF" d="M473.808,637.036l9.425-30.277l11.384,30.277h8.828l13.224-41.147h-7.128l-9.024,28.806
		l-0.14-0.334l-10.601-28.472H476.27c0,0,1.674,3.417,1.87,4.084l-11.746,37.063"/>
	<path id="path268" fill="#FFFFFF" d="M551.505,602.768c-1.628-0.745-5.487-2.423-10.998-2.487c-1.585-0.012-5.405,0.437-6.69,4.447
		c-1.088,3.376,2.553,5.194,6.774,7.292c5.406,2.694,11.53,5.751,9.156,13.137c-2.557,7.956-10.864,12.693-22.784,12.515
		c-8.687-0.128-12.927-1.748-12.927-1.748l2.426-7.576l1.758,1.005c1.733,0.989,6.325,3.3,11.465,3.3
		c1.72,0,4.149-0.312,6.104-1.524c1.397-0.864,2.394-2.283,2.967-4.07c1.176-3.663-2.566-5.559-6.904-7.761
		c-5.281-2.675-11.271-5.707-8.951-12.892c0.944-2.965,2.961-5.52,5.816-7.396c3.726-2.449,7.947-3.7,14.716-3.744
		c4.754-0.024,9.372,0.604,11.31,1.112l0.722,0.203l-0.27,0.878l-1.375,4.271l-0.587,1.834"/>
	<path id="path272" fill="#FFFFFF" d="M558.7,616.622c2.704-8.413,6.389-13.927,11.611-17.354c4.309-2.83,9.571-4.207,16.091-4.207
		c6.219,0,10.437,1.356,12.888,4.137c3.054,3.484,3.223,9.015,0.519,17.424c-2.932,9.123-8.943,21.264-27.18,21.264
		c-6.47,0-10.833-1.386-13.338-4.242C556.26,630.199,556.075,624.781,558.7,616.622 M574.26,632.812
		c2.577,0,4.771-0.568,6.641-1.854c4.28-2.911,6.685-8.937,8.425-14.336c1.893-5.903,3.296-11.763,0.754-14.664
		c-1.083-1.227-2.821-1.831-5.314-1.831c-9.034,0-12.826,7.926-15.575,16.495c-1.484,4.619-3.149,11.132-0.393,14.269
		C569.932,632.182,571.718,632.812,574.26,632.812"/>
</g>
</svg>
