<?xml version="1.0" encoding="utf-8"?>
<!-- Generator: Adobe Illustrator 19.1.0, SVG Export Plug-In . SVG Version: 6.00 Build 0)  -->
<!DOCTYPE svg PUBLIC "-//W3C//DTD SVG 1.1//EN" "http://www.w3.org/Graphics/SVG/1.1/DTD/svg11.dtd">
<svg version="1.1" id="svg3193" xmlns:svg="http://www.w3.org/2000/svg"
	 xmlns="http://www.w3.org/2000/svg" xmlns:xlink="http://www.w3.org/1999/xlink" x="0px" y="0px" width="260px" height="60px"
	 viewBox="-309 251 260 60" style="enable-background:new -309 251 260 60;" xml:space="preserve">
<style type="text/css">
	.st0{fill:#FFFFFF;}
</style>
<g id="layer1" transform="translate(-340.16784,-586.47325)">
	<path id="path256" class="st0" d="M90.5,855.8c-0.1-0.5-1.3-2.9-1.3-2.9l12.5,0c4.2,0,9.3,0.4,11.9,3.3c2.1,2.3,2.2,6,0.6,11.2
		c-4.3,13.5-13.8,14.6-23.7,14.6h-8.3L90.5,855.8L90.5,855.8z M92.9,878.5c3.5,0,6.5-0.6,8.3-1.8c2.3-1.5,3.9-4.2,5.5-9.2
		c1.4-4.4,2-7.7,0.5-9.4c-1-1.2-3.5-1.7-6.6-1.7c-0.1,0-0.3,0-0.4,0c0,0-1.3,0-2.7,0.1L91,877.1c0,0-0.4,1.3,1.2,1.3"/>
	<path id="path260" class="st0" d="M126.9,878.5l13.3,0L139,882h-22.1l8.3-26.2c-0.1-0.5-1.3-2.9-1.3-2.9h23.5l-1.1,3.6h-13.9
		l-2.8,8.6h9.7l-1.1,3.6h-9.7l-2.7,8.4C125.7,877.1,125.3,878.4,126.9,878.5"/>
	<path id="path264" class="st0" d="M149.6,882l6.7-21.4l8.1,21.4h6.3l9.4-29.1h-5l-6.4,20.4l-0.1-0.2l-7.5-20.2h-9.6
		c0,0,1.2,2.4,1.3,2.9l-8.3,26.2"/>
	<path id="path268" class="st0" d="M204.6,857.8c-1.2-0.5-3.9-1.7-7.8-1.8c-1.1,0-3.8,0.3-4.7,3.1c-0.8,2.4,1.8,3.7,4.8,5.2
		c3.8,1.9,8.2,4.1,6.5,9.3c-1.8,5.6-7.7,9-16.1,8.9c-6.2-0.1-9.2-1.2-9.2-1.2l1.7-5.4l1.2,0.7c1.2,0.7,4.5,2.3,8.1,2.3
		c1.2,0,2.9-0.2,4.3-1.1c1-0.6,1.7-1.6,2.1-2.9c0.8-2.6-1.8-3.9-4.9-5.5c-3.7-1.9-8-4-6.3-9.1c0.7-2.1,2.1-3.9,4.1-5.2
		c2.6-1.7,5.6-2.6,10.4-2.7c3.4,0,6.6,0.4,8,0.8l0.5,0.1l-0.2,0.6l-1,3l-0.4,1.3"/>
	<path id="path272" class="st0" d="M209.7,867.6c1.9-6,4.5-9.9,8.2-12.3c3.1-2,6.8-3,11.4-3c4.4,0,7.4,1,9.1,2.9
		c2.2,2.5,2.3,6.4,0.4,12.3c-2.1,6.5-6.3,15.1-19.2,15.1c-4.6,0-7.7-1-9.4-3C208,877.2,207.8,873.4,209.7,867.6 M220.7,879
		c1.8,0,3.4-0.4,4.7-1.3c3-2.1,4.7-6.3,6-10.2c1.3-4.2,2.3-8.3,0.5-10.4c-0.8-0.9-2-1.3-3.8-1.3c-6.4,0-9.1,5.6-11,11.7
		c-1.1,3.3-2.2,7.9-0.3,10.1C217.6,878.6,218.9,879,220.7,879"/>
</g>
</svg>
