<?xml version="1.0" encoding="utf-8"?>
<!-- Generator: Adobe Illustrator 15.1.0, SVG Export Plug-In . SVG Version: 6.00 Build 0)  -->
<!DOCTYPE svg PUBLIC "-//W3C//DTD SVG 1.1//EN" "http://www.w3.org/Graphics/SVG/1.1/DTD/svg11.dtd">
<svg version="1.1"
	 id="svg4444" xmlns:svg="http://www.w3.org/2000/svg" xmlns:dc="http://purl.org/dc/elements/1.1/" xmlns:rdf="http://www.w3.org/1999/02/22-rdf-syntax-ns#" xmlns:cc="http://web.resource.org/cc/" inkscape:version="0.45.1" sodipodi:version="0.32" sodipodi:docbase="C:\Documents and Settings\Sigurd\Skrivebord\BILDER TIL WIKIPEDIA" sodipodi:docname="Enisa logo.svg" inkscape:output_extension="org.inkscape.output.svg.inkscape" xmlns:inkscape="http://www.inkscape.org/namespaces/inkscape" xmlns:sodipodi="http://sodipodi.sourceforge.net/DTD/sodipodi-0.dtd"
	 xmlns="http://www.w3.org/2000/svg" xmlns:xlink="http://www.w3.org/1999/xlink" x="0px" y="0px" width="377.416px"
	 height="237.678px" viewBox="0 0 377.416 237.678" enable-background="new 0 0 377.416 237.678" xml:space="preserve">
<sodipodi:namedview  pagecolor="#ffffff" bordercolor="#666666" id="base" inkscape:zoom="1" borderopacity="1.0" gridtolerance="10000" guidetolerance="10" objecttolerance="10" inkscape:pageopacity="0.0" inkscape:pageshadow="2" inkscape:cx="193" inkscape:cy="195.27981" inkscape:document-units="px" inkscape:current-layer="layer1" inkscape:window-width="1280" inkscape:window-height="975" inkscape:window-x="-4" inkscape:window-y="-4">
	</sodipodi:namedview>
<g id="layer1" transform="translate(-37.986582,-268.91925)" inkscape:label="Layer 1" inkscape:groupmode="layer">
	<path id="path4363" fill="#FFFFFF" d="M74.947,410.598l-9.021-3.925l9.99-2.685l2.089-10.668l3.736,9.075l9.839-2.45l-7.306,8.885
		l3.642,8.981l-7.481-3.994l-7.643,9.062L74.947,410.598"/>
	<path id="path4365" fill="#FFFFFF" d="M110.592,327.693l-9.018-3.925l9.995-2.678l2.081-10.676l3.744,9.08l9.839-2.447l-7.306,8.87
		l3.634,8.991l-7.478-4.003l-7.646,9.075L110.592,327.693"/>
	<path id="path4367" fill="#FFFFFF" d="M143.843,302.397l-8.3-3.604l9.196-2.469l1.922-9.809l3.435,8.353l9.04-2.256l-6.703,8.162
		l3.343,8.272l-6.877-3.688l-7.024,8.34L143.843,302.397"/>
	<path id="path4369" fill="#FFFFFF" d="M180.771,307.433l-6.415-2.786l7.115-1.906l1.472-7.597l2.665,6.463l6.999-1.745
		l-5.193,6.318l2.587,6.398l-5.319-2.848l-5.436,6.453L180.771,307.433"/>
	<path id="path4371" fill="#FFFFFF" d="M202.377,328.312l-6.229-2.716l6.908-1.857l1.44-7.374l2.587,6.27l6.805-1.69l-5.055,6.14
		l2.511,6.211l-5.158-2.77l-5.298,6.272L202.377,328.312"/>
	<path id="path4373" fill="#FFFFFF" d="M214.421,352.203l5.946-1.48l-4.41,5.359l2.197,5.433l-4.518-2.42l-4.62,5.478l1.311-7.419
		l-5.459-2.369l6.041-1.626l1.255-6.444L214.421,352.203"/>
	<path id="path4375" fill="#FFFFFF" d="M84.907,364.877l-9.021-3.925l9.996-2.676l2.083-10.676l3.742,9.08l9.842-2.45l-7.309,8.878
		l3.637,8.983l-7.48-4l-7.643,9.069L84.907,364.877"/>
	<path id="path4377" fill="#FFFFFF" d="M84.907,451.401l-8.305-3.604l9.201-2.466l1.914-9.817l3.438,8.36l9.045-2.259l-6.711,8.154
		l3.352,8.274l-6.878-3.682l-7.028,8.348L84.907,451.401"/>
	<path id="path4379" fill="#FFFFFF" d="M151.245,472.174l-6.415-2.78l7.115-1.92l1.473-7.586l2.667,6.464l6.997-1.747l-5.193,6.312
		l2.59,6.398l-5.322-2.843l-5.435,6.447L151.245,472.174"/>
	<path id="path4381" fill="#FFFFFF" d="M179.35,452.696l-6.232-2.723l6.908-1.852l1.438-7.373l2.592,6.272l6.808-1.69l-5.061,6.137
		l2.515,6.219l-5.158-2.77l-5.295,6.265L179.35,452.696"/>
	<path id="path4383" fill="#FFFFFF" d="M113.133,477.701l-8.305-3.605l9.201-2.468l1.914-9.81l3.438,8.345l9.037-2.242l-6.703,8.153
		l3.346,8.275l-6.878-3.69l-7.023,8.343L113.133,477.701"/>
	<path id="path4385" fill="#FFFFFF" d="M196.7,425.402l-5.457-2.364l6.035-1.626l1.257-6.444l2.259,5.489l5.947-1.48l-4.412,5.359
		l2.196,5.43l-4.515-2.42l-4.622,5.479L196.7,425.402"/>
	<path id="path4387" fill="#FFFFFF" d="M160.576,403.352c-3.228,1.728-7.971,2.662-11.96,2.662c-9.097,0-13.735-5.393-13.735-13.379
		c0-9.629,7.594-19.288,18.696-19.288c6.46,0,10.964,3.429,10.964,9.028c0,8.006-8.938,10.359-22.112,10.031
		c-0.113,1.162,0.253,3.114,0.939,4.288c1.397,2.198,3.896,3.235,7.013,3.235c3.831,0,7.056-0.975,9.446-2.189L160.576,403.352z
		 M157.069,382.203c0-1.94-1.842-3.206-4.474-3.206c-5.303,0-8.574,4.485-9.382,7.675c8.733,0.081,13.856-0.759,13.856-4.404
		V382.203"/>
	<path id="path4389" fill="#FFFFFF" d="M187.03,405.246l3.179-16.844c0.191-1.112,0.377-2.527,0.377-3.701
		c0-2.918-1.047-5.061-4.442-5.061c-3.707,0-8.509,4.315-9.931,12.006l-2.528,13.6h-7.774l4.087-21.719
		c0.729-3.618,1.184-6.741,1.577-9.419h6.964l-0.768,5.981h0.127c3.047-4.493,7.427-6.746,12.111-6.746
		c4.555,0,8.666,2.552,8.666,9.239c0,1.252-0.253,3.567-0.5,4.997l-3.371,17.667H187.03"/>
	<path id="path4391" fill="#FFFFFF" d="M202.251,405.246l5.914-31.138h7.777l-5.922,31.138H202.251"/>
	<path id="path4393" fill="#FFFFFF" d="M225.927,406.011c-4.003-0.069-7.699-1.131-9.557-2.527l1.998-5.524
		c1.804,0.956,5.33,2.293,8.334,2.293c3.147,0,5.007-1.698,5.007-3.695c0-1.831-1.034-3.045-4.405-4.605
		c-3.978-1.834-6.883-4.464-6.883-8.289c0-6.159,5.594-10.318,13.245-10.318c3.543,0,6.485,0.832,7.954,1.704l-1.997,5.583
		c-1.295-0.635-3.604-1.526-6.561-1.526c-2.792,0-4.789,1.418-4.789,3.448c0,1.677,1.457,2.883,4.477,4.267
		c3.557,1.587,7.094,4.105,7.094,8.456c0,6.827-5.998,10.738-13.705,10.738C226.067,406.014,225.996,406.014,225.927,406.011"/>
	<path id="path4395" fill="#FFFFFF" d="M265.851,405.246c0.017-1.881,0.285-4.646,0.592-7.491h-0.123
		c-3.273,6.118-7.814,8.259-12.308,8.259c-6.022,0-10.165-4.633-10.165-11.097c0-11.045,8.28-21.57,23.383-21.57
		c3.615,0,7.586,0.672,10.159,1.467l-2.988,15.826c-0.912,4.883-1.424,10.841-1.271,14.606H265.851z M268.613,379.748
		c-0.759-0.213-1.822-0.382-3.396-0.382c-7.172,0-13.17,6.716-13.17,14.286c0,3.247,1.462,6.121,5.08,6.121
		c3.82,0,8.636-4.196,10.182-12.778L268.613,379.748"/>
	<path id="text4397" fill="#FFFFFF" d="M231.657,420.326l-0.256,1.655c-1.909-0.089-3.944-0.134-6.106-0.134
		c-0.029,0.393-0.137,1.595-0.322,3.608l-0.1,1.044c1.865,0,3.53-0.045,4.996-0.134l-0.188,1.653
		c-1.539-0.065-3.197-0.099-4.974-0.099c-0.2,1.902-0.362,3.685-0.488,5.35c2.339,0,4.581-0.056,6.728-0.166l-0.277,1.676h-8.493
		c0.155-1.043,0.47-3.574,0.944-7.593c0.274-2.605,0.429-4.892,0.466-6.861H231.657z M242.422,424.012
		c-0.518,4.115-0.777,6.846-0.777,8.193c0,0.776,0.06,1.612,0.179,2.508l-1.876,0.278c-0.045-0.651-0.067-1.514-0.067-2.587h-0.088
		c-0.963,1.798-2.287,2.698-3.975,2.698c-1.932,0-2.897-1.1-2.897-3.298c0-0.585,0.083-1.772,0.25-3.563s0.249-3.127,0.249-4.008
		l1.921-0.222c0,0.317-0.115,1.379-0.345,3.181c-0.229,1.802-0.344,3.158-0.344,4.068c0,0.866,0.157,1.467,0.472,1.804
		c0.315,0.337,0.809,0.506,1.482,0.506c0.807,0,1.582-0.529,2.326-1.588c0.743-1.059,1.178-2.22,1.304-3.486
		c0.178-1.806,0.267-3.227,0.267-4.263L242.422,424.012z M251.379,424.113l-0.667,1.765c-0.518-0.148-1.013-0.223-1.486-0.223
		c-1.695,0-2.639,0.874-2.832,2.62c-0.272,2.531-0.469,4.7-0.588,6.505l-1.809,0.111c0.518-3.834,0.776-6.424,0.776-7.771
		c0-0.777-0.06-1.725-0.178-2.842l1.876-0.277c0.06,0.606,0.089,1.15,0.089,1.631h0.089c0.889-1.176,1.84-1.765,2.854-1.765
		C250.036,423.867,250.661,423.95,251.379,424.113L251.379,424.113z M261.712,428.585c0,1.784-0.538,3.334-1.615,4.651
		c-1.076,1.318-2.495,1.977-4.257,1.977c-1.162,0-2.163-0.469-3.003-1.404c-0.841-0.937-1.261-2.148-1.261-3.636
		c0-1.755,0.537-3.264,1.609-4.529c1.073-1.266,2.502-1.897,4.285-1.897c1.177,0,2.179,0.436,3.004,1.31
		C261.3,425.929,261.712,427.106,261.712,428.585L261.712,428.585z M259.825,428.908c0-1.036-0.235-1.922-0.706-2.658
		c-0.469-0.736-1.147-1.105-2.036-1.105c-1.103,0-1.983,0.517-2.643,1.549c-0.659,1.033-0.987,2.151-0.987,3.358
		c0,1.035,0.238,1.922,0.716,2.659c0.478,0.736,1.164,1.104,2.06,1.104c1.088,0,1.959-0.516,2.614-1.548
		C259.497,431.234,259.825,430.114,259.825,428.908L259.825,428.908z M273.333,428.175c0,2.006-0.511,3.657-1.532,4.956
		s-2.398,1.949-4.13,1.949c-1.176,0-2.039-0.245-2.586-0.733h-0.089c-0.215,2.058-0.377,3.856-0.488,5.396l-1.977,0.111
		c0.933-6.823,1.399-11.18,1.399-13.066c0-0.703-0.061-1.539-0.179-2.509l1.876-0.277c0.045,0.614,0.067,1.477,0.067,2.587h0.089
		c0.977-1.799,2.315-2.698,4.018-2.698c1.052,0,1.902,0.387,2.554,1.16S273.333,426.865,273.333,428.175L273.333,428.175z
		 M271.435,428.841c0-2.279-0.803-3.419-2.409-3.419c-0.799,0-1.584,0.507-2.354,1.52c-0.77,1.015-1.214,2.199-1.332,3.554
		l-0.223,2.52c0.719,0.429,1.414,0.645,2.088,0.645c1.413,0,2.472-0.446,3.175-1.338
		C271.082,431.429,271.435,430.27,271.435,428.841L271.435,428.841z M283.944,426.332c0,0.999-0.462,1.758-1.388,2.275
		c-1.176,0.666-3.183,1.025-6.018,1.077c0,1.332,0.231,2.3,0.695,2.902c0.462,0.604,1.24,0.905,2.336,0.905
		c1.074,0,2.243-0.377,3.508-1.133l-0.276,1.644c-1,0.718-2.236,1.077-3.709,1.077c-1.51,0-2.621-0.454-3.335-1.36
		c-0.715-0.907-1.072-2.056-1.072-3.447c0-2.05,0.598-3.65,1.793-4.801c1.195-1.151,2.574-1.726,4.136-1.726
		c0.947,0,1.739,0.229,2.375,0.688C283.626,424.893,283.944,425.526,283.944,426.332L283.944,426.332z M282.179,426.376
		c0-0.393-0.182-0.693-0.544-0.904c-0.363-0.211-0.829-0.316-1.399-0.316c-0.807,0-1.556,0.267-2.248,0.799
		c-0.691,0.532-1.142,1.351-1.348,2.454c2.271-0.045,3.829-0.285,4.672-0.722C281.89,427.39,282.179,426.954,282.179,426.376
		L282.179,426.376z M293.921,423.735c-0.673,3.76-1.01,6.494-1.01,8.203c0,0.777,0.066,1.688,0.199,2.731l-1.876,0.277
		c-0.044-0.658-0.066-1.483-0.066-2.476h-0.1c-0.94,1.709-2.18,2.563-3.719,2.563c-0.896,0-1.579-0.355-2.049-1.07
		c-0.47-0.714-0.704-1.645-0.704-2.792c0-1.851,0.646-3.46,1.941-4.829c1.296-1.369,3.156-2.068,5.585-2.099l0.488-0.344
		L293.921,423.735z M291.901,425.499c-1.879,0.037-3.251,0.55-4.113,1.538c-0.861,0.987-1.293,2.296-1.293,3.924
		c0,1.688,0.562,2.531,1.688,2.531c0.784,0,1.506-0.564,2.164-1.692c0.659-1.129,1.068-2.15,1.228-3.064
		C291.733,427.821,291.842,426.742,291.901,425.499L291.901,425.499z M304.876,427.187c0,0.585-0.083,1.776-0.25,3.575
		c-0.166,1.798-0.25,3.137-0.25,4.018l-1.876,0.111c0-0.325,0.107-1.372,0.321-3.142c0.216-1.77,0.323-3.108,0.323-4.019
		c0-0.866-0.158-1.467-0.473-1.804c-0.314-0.336-0.809-0.505-1.481-0.505c-0.807,0-1.582,0.527-2.326,1.582
		c-0.743,1.055-1.179,2.218-1.305,3.491c-0.163,1.658-0.288,3.086-0.377,4.284l-1.81,0.111c0.518-3.834,0.777-6.424,0.777-7.771
		c0-0.777-0.06-1.725-0.178-2.842l1.876-0.277c0.045,0.651,0.066,1.513,0.066,2.587h0.09c0.961-1.799,2.286-2.698,3.975-2.698
		C303.911,423.89,304.876,424.989,304.876,427.187L304.876,427.187z M322.744,420.326c-0.148,0.882-0.44,3.169-0.877,6.861
		c-0.28,2.657-0.496,5.188-0.644,7.593h-1.488c0-0.266-0.998-2.175-2.997-5.728c-2.072-3.693-3.212-5.973-3.419-6.838h-0.123
		c0.046,0.317,0.068,0.77,0.068,1.354c0,1.051-0.075,2.28-0.223,3.686c-0.259,2.487-0.474,4.995-0.645,7.526h-1.765
		c0.17-1.103,0.491-3.633,0.966-7.593c0.274-2.605,0.419-4.892,0.433-6.861h2.154c0,0.438,0.918,2.281,2.753,5.529
		c1.925,3.39,2.979,5.555,3.164,6.495h0.088c-0.044-0.274-0.066-0.619-0.066-1.033c0-1.199,0.078-2.538,0.233-4.019
		c0.288-2.738,0.444-5.062,0.467-6.973H322.744z M333.234,426.332c0,0.999-0.464,1.758-1.388,2.275
		c-1.178,0.666-3.183,1.025-6.018,1.077c0,1.332,0.231,2.3,0.693,2.902c0.463,0.604,1.242,0.905,2.337,0.905
		c1.074,0,2.243-0.377,3.508-1.133l-0.276,1.644c-1,0.718-2.235,1.077-3.708,1.077c-1.51,0-2.622-0.454-3.337-1.36
		c-0.714-0.907-1.07-2.056-1.07-3.447c0-2.05,0.598-3.65,1.793-4.801c1.195-1.151,2.573-1.726,4.135-1.726
		c0.948,0,1.739,0.229,2.376,0.688S333.234,425.526,333.234,426.332L333.234,426.332z M331.468,426.376
		c0-0.393-0.182-0.693-0.545-0.904c-0.361-0.211-0.828-0.316-1.398-0.316c-0.806,0-1.556,0.267-2.247,0.799
		c-0.692,0.532-1.142,1.351-1.349,2.454c2.271-0.045,3.829-0.285,4.673-0.722C331.179,427.39,331.468,426.954,331.468,426.376
		L331.468,426.376z M340.814,432.749l-0.278,1.477c-0.777,0.524-1.576,0.787-2.398,0.787c-1.013,0-1.72-0.249-2.12-0.749
		c-0.399-0.5-0.599-1.297-0.599-2.393c0-0.918,0.211-2.896,0.633-5.938c-0.393,0-0.996,0.021-1.81,0.066l0.232-1.609
		c0.696,0.044,1.303,0.066,1.82,0.066c0.045-0.304,0.204-1.358,0.478-3.164l1.666-0.178c-0.134,0.756-0.308,1.869-0.522,3.342
		c0.688,0,1.673-0.037,2.953-0.111l-0.222,1.654c-1.222-0.045-2.217-0.066-2.987-0.066c-0.384,2.485-0.576,4.267-0.576,5.34
		c0,0.843,0.107,1.421,0.321,1.731c0.215,0.312,0.578,0.466,1.089,0.466C339.234,433.47,340.006,433.23,340.814,432.749
		L340.814,432.749z M357.73,424.113c0,0.665-0.776,2.503-2.326,5.512c-1.551,3.009-2.349,4.727-2.392,5.155h-1.434
		c0-0.288-0.241-1.479-0.726-3.567c-0.486-2.092-0.84-3.776-1.062-5.058h-0.089c-0.495,1.332-1.25,3.038-2.264,5.118
		c-1.014,2.079-1.536,3.248-1.566,3.507h-1.442c0-0.384-0.387-2.098-1.159-5.14c-0.774-3.042-1.161-4.843-1.161-5.406l1.954-0.121
		c0,0.629,0.248,2.127,0.744,4.495c0.495,2.369,0.743,3.729,0.743,4.086h0.111c0.059-0.578,0.647-2.024,1.765-4.341
		c1.118-2.316,1.676-3.689,1.676-4.119h1.799c0,0.341,0.291,1.758,0.871,4.253c0.581,2.493,0.872,3.896,0.872,4.207h0.111
		c0.036-0.386,0.551-1.724,1.543-4.014c0.991-2.29,1.487-3.771,1.487-4.446L357.73,424.113z M368.506,428.585
		c0,1.784-0.539,3.334-1.615,4.651c-1.076,1.318-2.495,1.977-4.257,1.977c-1.162,0-2.164-0.469-3.004-1.404
		c-0.84-0.937-1.26-2.148-1.26-3.636c0-1.755,0.537-3.264,1.61-4.529s2.501-1.897,4.285-1.897c1.176,0,2.177,0.436,3.003,1.31
		C368.094,425.929,368.506,427.106,368.506,428.585L368.506,428.585z M366.619,428.908c0-1.036-0.235-1.922-0.705-2.658
		c-0.471-0.736-1.149-1.105-2.038-1.105c-1.103,0-1.983,0.517-2.642,1.549c-0.658,1.033-0.988,2.151-0.988,3.358
		c0,1.035,0.239,1.922,0.717,2.659c0.477,0.736,1.163,1.104,2.059,1.104c1.088,0,1.96-0.516,2.614-1.548
		C366.291,431.234,366.619,430.114,366.619,428.908L366.619,428.908z M377.33,424.113l-0.667,1.765
		c-0.518-0.148-1.014-0.223-1.487-0.223c-1.695,0-2.639,0.874-2.831,2.62c-0.273,2.531-0.47,4.7-0.588,6.505l-1.81,0.111
		c0.518-3.834,0.776-6.424,0.776-7.771c0-0.777-0.059-1.725-0.177-2.842l1.876-0.277c0.059,0.606,0.088,1.15,0.088,1.631h0.089
		c0.889-1.176,1.84-1.765,2.854-1.765C375.987,423.867,376.612,423.95,377.33,424.113L377.33,424.113z M387.462,424.19
		c0,0.244-0.471,0.844-1.415,1.799c-0.944,0.953-1.804,1.75-2.581,2.387l-0.012,0.111c0.83,0.976,1.536,2.138,2.121,3.485
		c0.585,1.347,0.877,2.283,0.877,2.808l-2.01,0.111c0-0.392-0.212-1.164-0.638-2.313c-0.426-1.152-0.935-2.13-1.526-2.938
		c-0.511,0.519-0.955,1.044-1.332,1.577c-0.903,1.273-1.392,2.46-1.466,3.562l-1.843,0.111c0.118-0.695,0.455-3.493,1.011-8.392
		c0.303-2.887,0.455-5.333,0.455-7.339l2.042-0.11c0,0.378-0.186,2.011-0.556,4.9c-0.37,2.891-0.654,5.279-0.854,7.166h0.111
		c0.393-0.925,1.379-2.24,2.958-3.946c1.581-1.706,2.371-2.722,2.371-3.047L387.462,424.19z"/>
	<path id="text4620" fill="#FFFFFF" d="M216.758,444.266c-0.626,3.5-0.94,6.045-0.94,7.636c0,0.723,0.062,1.57,0.186,2.541
		l-1.746,0.258c-0.041-0.613-0.062-1.381-0.062-2.304h-0.093c-0.875,1.591-2.028,2.387-3.461,2.387
		c-0.833,0-1.469-0.332-1.906-0.997c-0.437-0.665-0.656-1.53-0.656-2.599c0-1.722,0.603-3.219,1.808-4.494
		c1.205-1.273,2.937-1.925,5.196-1.952l0.455-0.319L216.758,444.266z M214.878,445.909c-1.749,0.035-3.025,0.512-3.827,1.432
		c-0.803,0.919-1.204,2.137-1.204,3.651c0,1.57,0.523,2.355,1.57,2.355c0.73,0,1.401-0.524,2.015-1.576
		c0.613-1.049,0.993-2,1.142-2.85C214.721,448.07,214.823,447.066,214.878,445.909L214.878,445.909z M227.482,447.479
		c0,0.545-0.077,1.654-0.232,3.326c-0.155,1.675-0.232,2.921-0.232,3.74l-1.746,0.104c0-0.304,0.1-1.278,0.299-2.925
		c0.2-1.646,0.3-2.893,0.3-3.739c0-0.806-0.146-1.365-0.439-1.679c-0.293-0.313-0.753-0.471-1.379-0.471
		c-0.751,0-1.472,0.491-2.164,1.473c-0.692,0.981-1.097,2.064-1.214,3.249c-0.152,1.543-0.269,2.872-0.351,3.987l-1.684,0.104
		c0.482-3.568,0.723-5.979,0.723-7.232c0-0.724-0.055-1.604-0.165-2.645l1.746-0.259c0.042,0.606,0.062,1.409,0.062,2.407h0.083
		c0.895-1.674,2.128-2.51,3.698-2.51C226.583,444.411,227.482,445.434,227.482,447.479L227.482,447.479z M239.651,439.949
		c0,0.179-0.116,0.923-0.351,2.23c-0.234,1.31-0.44,2.856-0.62,4.645c-0.179,1.787-0.268,3.47-0.268,5.047
		c0,0.929,0.027,1.821,0.082,2.675l-1.611,0.135c-0.11-0.571-0.166-1.374-0.166-2.406h-0.081c-0.91,1.672-2.156,2.51-3.74,2.51
		c-0.978,0-1.771-0.359-2.376-1.08c-0.606-0.72-0.909-1.689-0.909-2.908c0-1.873,0.475-3.412,1.425-4.617s2.232-1.809,3.843-1.809
		c1.034,0,1.836,0.228,2.408,0.682h0.082c0.145-1.425,0.269-3.106,0.372-5.041L239.651,439.949z M237.255,446.291
		c-0.6-0.4-1.247-0.6-1.942-0.6c-1.288,0-2.266,0.401-2.935,1.204c-0.667,0.802-1.002,1.896-1.002,3.28
		c0,2.121,0.748,3.181,2.242,3.181c0.75,0,1.482-0.471,2.195-1.414c0.713-0.944,1.124-2.046,1.234-3.307L237.255,446.291z
		 M248.701,441.095c-0.131,0.847-0.399,2.976-0.806,6.384c-0.228,2.17-0.382,4.277-0.465,6.323l-0.031,0.743h-1.983
		c0.158-1.019,0.459-3.375,0.899-7.066c0.254-2.438,0.389-4.566,0.402-6.384H248.701z M259.466,447.479
		c0,0.545-0.077,1.654-0.231,3.326c-0.155,1.675-0.233,2.921-0.233,3.74l-1.745,0.104c0-0.304,0.099-1.278,0.299-2.925
		c0.199-1.646,0.3-2.893,0.3-3.739c0-0.806-0.146-1.365-0.439-1.679c-0.292-0.313-0.752-0.471-1.379-0.471
		c-0.75,0-1.472,0.491-2.164,1.473s-1.097,2.064-1.215,3.249c-0.15,1.543-0.268,2.872-0.351,3.987l-1.684,0.104
		c0.481-3.568,0.724-5.979,0.724-7.232c0-0.724-0.056-1.604-0.165-2.645l1.745-0.259c0.042,0.606,0.062,1.409,0.062,2.407h0.083
		c0.896-1.674,2.128-2.51,3.698-2.51C258.568,444.411,259.466,445.434,259.466,447.479L259.466,447.479z M268.527,439.866
		l-0.32,1.301c-0.372-0.048-0.754-0.071-1.146-0.071c-0.613,0-1.053,0.254-1.316,0.765c-0.266,0.509-0.481,1.535-0.646,3.078
		c0.647,0,1.557-0.035,2.727-0.104l-0.206,1.54c-1.268-0.042-2.152-0.062-2.654-0.062c-0.192,2.527-0.373,4.888-0.538,7.082
		c-0.165,2.193-0.506,3.645-1.022,4.354c-0.517,0.709-1.223,1.191-2.118,1.446l-0.413-0.806c0.641-0.524,1.094-1.122,1.358-1.792
		c0.265-0.673,0.491-1.954,0.677-3.85c0.186-1.894,0.368-4.038,0.547-6.436c-0.399,0-1.098,0.021-2.097,0.062l0.238-1.52
		c0.895,0.056,1.563,0.083,2.004,0.083c0.192-1.805,0.574-3.127,1.142-3.968c0.568-0.84,1.42-1.259,2.558-1.259
		C267.698,439.711,268.107,439.762,268.527,439.866L268.527,439.866z M278.052,448.781c0,1.66-0.501,3.104-1.503,4.329
		s-2.323,1.839-3.962,1.839c-1.082,0-2.014-0.436-2.795-1.307c-0.782-0.872-1.173-1.999-1.173-3.384
		c0-1.633,0.499-3.037,1.498-4.215c0.998-1.178,2.328-1.767,3.987-1.767c1.096,0,2.027,0.405,2.795,1.219
		C277.667,446.308,278.052,447.404,278.052,448.781L278.052,448.781z M276.295,449.08c0-0.964-0.219-1.789-0.656-2.475
		c-0.437-0.685-1.068-1.027-1.896-1.027c-1.026,0-1.846,0.479-2.458,1.441c-0.613,0.96-0.92,2.002-0.92,3.125
		c0,0.965,0.222,1.789,0.667,2.474c0.443,0.686,1.082,1.028,1.916,1.028c1.013,0,1.823-0.48,2.434-1.441
		C275.99,451.245,276.295,450.202,276.295,449.08L276.295,449.08z M286.792,444.618l-0.62,1.642
		c-0.482-0.138-0.944-0.206-1.384-0.206c-1.578,0-2.457,0.812-2.636,2.438c-0.254,2.355-0.437,4.374-0.547,6.054l-1.685,0.104
		c0.482-3.568,0.724-5.979,0.724-7.232c0-0.724-0.056-1.604-0.165-2.645l1.746-0.259c0.055,0.564,0.082,1.071,0.082,1.519h0.083
		c0.827-1.095,1.711-1.642,2.655-1.642C285.542,444.391,286.123,444.466,286.792,444.618L286.792,444.618z M302.371,447.479
		c0,0.771-0.077,1.949-0.233,3.533c-0.154,1.584-0.231,2.762-0.231,3.533l-1.746,0.104c0-0.531,0.098-1.602,0.294-3.214
		c0.196-1.611,0.295-2.727,0.295-3.347c0-0.82-0.119-1.4-0.356-1.741s-0.615-0.512-1.132-0.512c-0.867,0-1.613,0.455-2.236,1.364
		s-1,2.027-1.131,3.357c-0.166,1.681-0.248,3.01-0.248,3.987l-1.746,0.104c0-0.462,0.1-1.522,0.3-3.183
		c0.199-1.66,0.3-2.786,0.3-3.378c0-0.82-0.119-1.4-0.357-1.741c-0.237-0.341-0.614-0.512-1.131-0.512
		c-0.834,0-1.57,0.478-2.211,1.431c-0.641,0.954-1.026,2.052-1.157,3.291c-0.165,1.667-0.282,2.995-0.351,3.987l-1.685,0.104
		c0.482-3.568,0.724-5.979,0.724-7.232c0-0.724-0.056-1.604-0.165-2.645l1.746-0.259c0.04,0.676,0.062,1.479,0.062,2.407h0.082
		c0.8-1.674,1.96-2.51,3.481-2.51c0.819,0,1.437,0.235,1.85,0.707c0.414,0.473,0.617,1.073,0.61,1.803h0.093
		c0.854-1.674,2.045-2.51,3.573-2.51C301.469,444.411,302.371,445.434,302.371,447.479L302.371,447.479z M312.835,444.266
		c-0.626,3.5-0.939,6.045-0.939,7.636c0,0.723,0.062,1.57,0.187,2.541l-1.746,0.258c-0.042-0.613-0.062-1.381-0.062-2.304h-0.092
		c-0.876,1.591-2.029,2.387-3.462,2.387c-0.833,0-1.468-0.332-1.906-0.997c-0.438-0.665-0.656-1.53-0.656-2.599
		c0-1.722,0.603-3.219,1.809-4.494c1.205-1.273,2.938-1.925,5.197-1.952l0.454-0.319L312.835,444.266z M310.956,445.909
		c-1.749,0.035-3.026,0.512-3.828,1.432c-0.803,0.919-1.203,2.137-1.203,3.651c0,1.57,0.523,2.355,1.57,2.355
		c0.73,0,1.4-0.524,2.014-1.576c0.613-1.049,0.994-2,1.142-2.85C310.799,448.07,310.901,447.066,310.956,445.909L310.956,445.909z
		 M320.729,452.656l-0.258,1.374c-0.724,0.488-1.467,0.732-2.231,0.732c-0.944,0-1.602-0.232-1.973-0.696
		c-0.372-0.466-0.559-1.207-0.559-2.227c0-0.854,0.196-2.696,0.59-5.527c-0.366,0-0.928,0.021-1.686,0.062l0.217-1.498
		c0.648,0.041,1.213,0.062,1.695,0.062c0.041-0.282,0.189-1.264,0.443-2.944l1.55-0.165c-0.124,0.702-0.285,1.739-0.485,3.109
		c0.641,0,1.557-0.035,2.748-0.104l-0.206,1.54c-1.136-0.042-2.063-0.062-2.779-0.062c-0.358,2.313-0.537,3.971-0.537,4.97
		c0,0.785,0.099,1.321,0.299,1.611c0.2,0.289,0.538,0.434,1.013,0.434C319.258,453.326,319.979,453.103,320.729,452.656
		L320.729,452.656z M325.285,444.534c0.007,0.496-0.054,1.18-0.181,2.052c-0.128,0.87-0.261,1.95-0.398,3.238
		c-0.104,0.978-0.217,2.551-0.341,4.721l-1.797,0.104c0.158-1.089,0.371-2.697,0.64-4.825c0.146-1.378,0.217-2.647,0.217-3.812
		c0-0.489-0.014-0.889-0.041-1.197L325.285,444.534z M326.029,441.488c0,0.399-0.131,0.74-0.393,1.022s-0.593,0.423-0.992,0.423
		c-0.626,0-0.939-0.333-0.939-1.002c0-0.398,0.13-0.736,0.393-1.012s0.592-0.413,0.992-0.413
		C325.716,440.506,326.029,440.833,326.029,441.488L326.029,441.488z M336.691,448.781c0,1.66-0.502,3.104-1.504,4.329
		c-1.001,1.226-2.322,1.839-3.961,1.839c-1.082,0-2.014-0.436-2.795-1.307c-0.781-0.872-1.173-1.999-1.173-3.384
		c0-1.633,0.499-3.037,1.497-4.215c0.999-1.178,2.329-1.767,3.988-1.767c1.096,0,2.027,0.405,2.795,1.219
		C336.307,446.308,336.691,447.404,336.691,448.781L336.691,448.781z M334.934,449.08c0-0.964-0.219-1.789-0.656-2.475
		c-0.437-0.685-1.068-1.027-1.896-1.027c-1.026,0-1.846,0.479-2.459,1.441c-0.612,0.96-0.919,2.002-0.919,3.125
		c0,0.965,0.222,1.789,0.666,2.474c0.444,0.686,1.083,1.028,1.917,1.028c1.013,0,1.823-0.48,2.433-1.441
		C334.629,451.245,334.934,450.202,334.934,449.08L334.934,449.08z M347.404,447.479c0,0.545-0.077,1.654-0.232,3.326
		c-0.155,1.675-0.232,2.921-0.232,3.74l-1.746,0.104c0-0.304,0.1-1.278,0.299-2.925c0.2-1.646,0.301-2.893,0.301-3.739
		c0-0.806-0.146-1.365-0.439-1.679s-0.752-0.471-1.379-0.471c-0.75,0-1.473,0.491-2.164,1.473c-0.692,0.981-1.098,2.064-1.215,3.249
		c-0.15,1.543-0.268,2.872-0.351,3.987l-1.685,0.104c0.482-3.568,0.724-5.979,0.724-7.232c0-0.724-0.056-1.604-0.165-2.645
		l1.746-0.259c0.041,0.606,0.062,1.409,0.062,2.407h0.083c0.895-1.674,2.127-2.51,3.697-2.51
		C346.505,444.411,347.404,445.434,347.404,447.479L347.404,447.479z"/>
	<path id="text4624" fill="#FFFFFF" d="M202.928,459.939l-0.416,1.653c-0.826-0.332-1.801-0.498-2.925-0.498
		c-1.922,0-2.883,0.651-2.883,1.956c0,0.514,0.196,0.947,0.588,1.301c0.392,0.354,1.025,0.739,1.899,1.155
		c1.117,0.521,1.976,1.093,2.576,1.718c0.6,0.624,0.9,1.416,0.9,2.373c0,2.733-1.838,4.1-5.516,4.1
		c-1.242,0-2.328-0.148-3.258-0.447l0.521-1.634c0.93,0.402,1.894,0.604,2.893,0.604c2.477,0,3.715-0.733,3.715-2.197
		c0-0.61-0.225-1.127-0.676-1.55c-0.452-0.424-1.152-0.868-2.103-1.332c-1.068-0.508-1.857-1.034-2.367-1.583
		c-0.51-0.548-0.766-1.252-0.766-2.112c0-1.276,0.432-2.233,1.296-2.873c0.864-0.638,1.973-0.957,3.326-0.957
		C201.301,459.616,202.366,459.723,202.928,459.939L202.928,459.939z M213.554,465.433c0,0.938-0.434,1.648-1.301,2.134
		c-1.103,0.625-2.983,0.962-5.641,1.011c0,1.249,0.217,2.155,0.651,2.721s1.164,0.849,2.19,0.849c1.006,0,2.103-0.354,3.289-1.062
		l-0.26,1.54c-0.937,0.673-2.095,1.009-3.476,1.009c-1.416,0-2.458-0.425-3.127-1.274c-0.669-0.851-1.004-1.928-1.004-3.232
		c0-1.921,0.56-3.422,1.681-4.5c1.121-1.079,2.413-1.619,3.877-1.619c0.888,0,1.631,0.216,2.228,0.646
		C213.256,464.083,213.554,464.677,213.554,465.433L213.554,465.433z M211.899,465.475c0-0.367-0.169-0.649-0.51-0.848
		c-0.34-0.198-0.777-0.297-1.312-0.297c-0.756,0-1.458,0.25-2.107,0.749c-0.648,0.5-1.07,1.267-1.265,2.301
		c2.13-0.042,3.591-0.268,4.382-0.678C211.629,466.426,211.899,466.017,211.899,465.475L211.899,465.475z M222.713,463.394
		l-0.426,1.634c-0.666-0.215-1.356-0.322-2.071-0.322c-1.041,0-1.875,0.403-2.503,1.212c-0.628,0.808-0.942,1.761-0.942,2.856
		c0,1.007,0.221,1.82,0.661,2.441c0.441,0.62,1.091,0.932,1.952,0.932c0.909,0,1.866-0.319,2.873-0.958l-0.26,1.54
		c-0.715,0.604-1.7,0.905-2.956,0.905c-1.332,0-2.352-0.472-3.06-1.414c-0.631-0.826-0.947-1.896-0.947-3.207
		c0-1.596,0.519-2.958,1.556-4.089c1.037-1.132,2.447-1.697,4.23-1.697C221.603,463.227,222.234,463.283,222.713,463.394
		L222.713,463.394z M233.277,463.258c-0.485,3.858-0.729,6.419-0.729,7.682c0,0.728,0.056,1.512,0.167,2.352l-1.76,0.261
		c-0.042-0.611-0.062-1.419-0.062-2.426h-0.083c-0.901,1.686-2.144,2.529-3.726,2.529c-1.811,0-2.716-1.03-2.716-3.092
		c0-0.548,0.078-1.661,0.234-3.34c0.156-1.68,0.234-2.933,0.234-3.757l1.801-0.209c0,0.299-0.107,1.293-0.322,2.981
		c-0.215,1.689-0.323,2.961-0.323,3.814c0,0.812,0.147,1.376,0.442,1.691c0.295,0.316,0.758,0.475,1.39,0.475
		c0.756,0,1.482-0.497,2.18-1.489c0.697-0.991,1.105-2.081,1.224-3.268c0.166-1.693,0.25-3.025,0.25-3.996L233.277,463.258z
		 M242.206,463.352l-0.625,1.654c-0.485-0.138-0.95-0.207-1.394-0.207c-1.589,0-2.474,0.818-2.654,2.456
		c-0.257,2.373-0.441,4.405-0.552,6.099l-1.695,0.104c0.484-3.594,0.728-6.023,0.728-7.285c0-0.729-0.056-1.617-0.167-2.665
		l1.76-0.261c0.056,0.569,0.083,1.079,0.083,1.531h0.083c0.833-1.104,1.724-1.656,2.675-1.656
		C240.947,463.122,241.533,463.2,242.206,463.352L242.206,463.352z M245.765,463.269c0.008,0.499-0.054,1.188-0.182,2.065
		s-0.262,1.966-0.4,3.264c-0.104,0.984-0.219,2.57-0.344,4.756l-1.811,0.104c0.159-1.097,0.375-2.717,0.646-4.86
		c0.146-1.388,0.219-2.668,0.219-3.841c0-0.493-0.014-0.896-0.042-1.207L245.765,463.269z M246.515,460.199
		c0,0.402-0.131,0.746-0.396,1.031c-0.264,0.283-0.597,0.425-0.998,0.425c-0.633,0-0.948-0.336-0.948-1.009
		c0-0.402,0.132-0.742,0.396-1.02c0.264-0.278,0.598-0.417,0.999-0.417C246.199,459.209,246.515,459.539,246.515,460.199
		L246.515,460.199z M253.914,471.45l-0.259,1.383c-0.729,0.494-1.479,0.74-2.249,0.74c-0.951,0-1.613-0.234-1.988-0.703
		c-0.374-0.469-0.561-1.216-0.561-2.242c0-0.86,0.196-2.717,0.592-5.568c-0.367,0-0.933,0.021-1.696,0.062l0.219-1.509
		c0.652,0.042,1.222,0.062,1.707,0.062c0.042-0.285,0.191-1.273,0.447-2.967l1.562-0.167c-0.125,0.708-0.288,1.753-0.489,3.134
		c0.645,0,1.568-0.035,2.769-0.104l-0.208,1.551c-1.146-0.042-2.078-0.062-2.8-0.062c-0.361,2.332-0.541,3.999-0.541,5.006
		c0,0.791,0.1,1.332,0.301,1.623c0.202,0.292,0.542,0.438,1.021,0.438C252.434,472.126,253.158,471.9,253.914,471.45L253.914,471.45
		z M264.197,463.352c0,0.888-0.719,2.637-2.158,5.246c-1.44,2.608-2.274,4.234-2.504,4.881c-0.624,1.748-1.203,2.9-1.737,3.455
		c-0.652,0.68-1.665,1.02-3.039,1.02l0.062-1.457c0.888,0,1.685-0.338,2.389-1.015c0.703-0.676,1.056-1.445,1.056-2.305
		c0-1.055-0.434-2.779-1.301-5.173s-1.301-3.907-1.301-4.537l2.04-0.115c0,0.854,0.271,2.295,0.817,4.324
		c0.544,2.03,0.816,3.329,0.816,3.897h0.114c0.035-0.36,0.535-1.592,1.499-3.694s1.447-3.573,1.447-4.412L264.197,463.352z
		 M280.683,473.354h-2.071c0-0.673-0.267-2.134-0.802-4.382h-5.702c-0.306,0.659-0.573,1.255-0.802,1.79
		c-0.541,1.284-0.836,2.147-0.885,2.592h-1.998c0.035-0.201,1.128-2.421,3.278-6.661c2.123-4.205,3.205-6.501,3.247-6.89h2.29
		c0,0.624,0.573,2.89,1.722,6.796S280.683,472.756,280.683,473.354L280.683,473.354z M277.498,467.609
		c-1.096-4.01-1.644-6.175-1.644-6.494h-0.094c-0.021,0.215-1.055,2.38-3.102,6.494H277.498z M292.745,462.156l-0.312,1.437
		c-1.139,0-1.832,0.214-2.082,0.645l-0.011,0.083c0.306,0.514,0.459,1.062,0.459,1.645c0,1.229-0.426,2.192-1.275,2.894
		c-0.851,0.701-1.91,1.051-3.181,1.051c-0.692,0-1.218-0.068-1.571-0.208c-0.401,0.284-0.604,0.683-0.604,1.197
		c0,0.36,0.162,0.598,0.484,0.712c0.322,0.115,1.566,0.172,3.731,0.172c1.88,0,2.82,0.729,2.82,2.186
		c0,1.437-0.586,2.59-1.759,3.461s-2.522,1.307-4.049,1.307c-1.457,0-2.493-0.269-3.106-0.808c-0.614-0.537-0.921-1.281-0.922-2.231
		c0.001-1.298,0.685-2.234,2.052-2.811l0.01-0.094c-0.424-0.229-0.636-0.648-0.636-1.26c0-0.721,0.393-1.404,1.177-2.05l0.01-0.083
		c-0.27-0.146-0.54-0.444-0.811-0.895c-0.271-0.452-0.407-0.958-0.407-1.52c0-1.229,0.419-2.175,1.255-2.842
		c0.836-0.666,1.9-0.999,3.19-0.999c1.075,0,1.932,0.229,2.57,0.687h0.094c0.193-0.68,0.423-1.155,0.687-1.425
		c0.265-0.271,0.621-0.406,1.072-0.406C292.118,461.999,292.489,462.051,292.745,462.156L292.745,462.156z M289.624,474.645
		c0-0.557-0.2-0.913-0.6-1.072c-0.398-0.159-1.303-0.239-2.712-0.239c-0.658,0-1.338-0.042-2.039-0.125
		c-0.943,0.464-1.416,1.179-1.416,2.144c0,1.464,0.906,2.196,2.717,2.196c1.131,0,2.088-0.272,2.873-0.817
		C289.232,476.186,289.624,475.491,289.624,474.645L289.624,474.645z M289.155,466.266c0-0.659-0.219-1.169-0.655-1.529
		c-0.396-0.334-0.913-0.5-1.551-0.5c-0.764,0-1.388,0.241-1.873,0.723c-0.485,0.482-0.729,1.106-0.729,1.868
		c0,0.639,0.199,1.13,0.598,1.474c0.399,0.344,0.942,0.515,1.629,0.515c0.757,0,1.376-0.235,1.858-0.708
		C288.913,467.636,289.155,467.023,289.155,466.266L289.155,466.266z M302.06,465.433c0,0.938-0.434,1.648-1.3,2.134
		c-1.104,0.625-2.984,0.962-5.642,1.011c0,1.249,0.217,2.155,0.651,2.721c0.433,0.565,1.163,0.849,2.19,0.849
		c1.005,0,2.102-0.354,3.288-1.062l-0.26,1.54c-0.938,0.673-2.096,1.009-3.477,1.009c-1.415,0-2.458-0.425-3.127-1.274
		c-0.67-0.851-1.004-1.928-1.004-3.232c0-1.921,0.56-3.422,1.68-4.5c1.121-1.079,2.413-1.619,3.877-1.619
		c0.889,0,1.631,0.216,2.227,0.646C301.762,464.083,302.06,464.677,302.06,465.433L302.06,465.433z M300.406,465.475
		c0-0.367-0.17-0.649-0.51-0.848s-0.777-0.297-1.312-0.297c-0.757,0-1.459,0.25-2.108,0.749c-0.647,0.5-1.069,1.267-1.264,2.301
		c2.13-0.042,3.59-0.268,4.381-0.678C300.134,466.426,300.406,466.017,300.406,465.475L300.406,465.475z M312.551,466.235
		c0,0.548-0.078,1.665-0.234,3.352c-0.155,1.686-0.233,2.941-0.233,3.768l-1.76,0.104c0-0.306,0.102-1.287,0.303-2.946
		c0.2-1.658,0.302-2.914,0.302-3.768c0-0.812-0.148-1.376-0.442-1.691c-0.295-0.314-0.758-0.473-1.39-0.473
		c-0.757,0-1.483,0.494-2.18,1.483c-0.698,0.988-1.106,2.079-1.224,3.272c-0.152,1.555-0.271,2.894-0.354,4.018l-1.697,0.104
		c0.486-3.594,0.729-6.023,0.729-7.285c0-0.729-0.056-1.617-0.167-2.665l1.759-0.261c0.042,0.611,0.062,1.42,0.062,2.426h0.083
		c0.902-1.687,2.144-2.529,3.726-2.529C311.646,463.144,312.551,464.174,312.551,466.235L312.551,466.235z M322.375,463.394
		l-0.426,1.634c-0.667-0.215-1.356-0.322-2.071-0.322c-1.041,0-1.875,0.403-2.504,1.212c-0.627,0.808-0.941,1.761-0.941,2.856
		c0,1.007,0.221,1.82,0.661,2.441c0.44,0.62,1.091,0.932,1.952,0.932c0.908,0,1.866-0.319,2.872-0.958l-0.26,1.54
		c-0.716,0.604-1.701,0.905-2.957,0.905c-1.332,0-2.352-0.472-3.059-1.414c-0.632-0.826-0.947-1.896-0.947-3.207
		c0-1.596,0.519-2.958,1.556-4.089c1.036-1.132,2.447-1.697,4.23-1.697C321.266,463.227,321.897,463.283,322.375,463.394
		L322.375,463.394z M332.221,463.352c0,0.888-0.719,2.637-2.159,5.246c-1.439,2.608-2.273,4.234-2.503,4.881
		c-0.624,1.748-1.204,2.9-1.738,3.455c-0.651,0.68-1.665,1.02-3.038,1.02l0.062-1.457c0.887,0,1.684-0.338,2.388-1.015
		c0.704-0.676,1.057-1.445,1.057-2.305c0-1.055-0.434-2.779-1.302-5.173c-0.866-2.394-1.301-3.907-1.301-4.537l2.04-0.115
		c0,0.854,0.272,2.295,0.817,4.324c0.545,2.03,0.816,3.329,0.816,3.897h0.115c0.034-0.36,0.535-1.592,1.499-3.694
		s1.446-3.573,1.446-4.412L332.221,463.352z"/>
</g>
</svg>
