<?xml version="1.0" encoding="utf-8"?>
<!-- Generator: Adobe Illustrator 18.0.0, SVG Export Plug-In . SVG Version: 6.00 Build 0)  -->
<!DOCTYPE svg PUBLIC "-//W3C//DTD SVG 1.1//EN" "http://www.w3.org/Graphics/SVG/1.1/DTD/svg11.dtd">
<svg version="1.1" id="Laag_1" xmlns="http://www.w3.org/2000/svg" xmlns:xlink="http://www.w3.org/1999/xlink" x="0px" y="0px"
	 width="879px" height="266.6px" viewBox="39.1 146.7 879 266.6" enable-background="new 39.1 146.7 879 266.6"
	 xml:space="preserve">
<path id="path12709_1_" fill="#FFFFFF" d="M165.8,171.4c18,0,32.7,14.7,32.7,32.7c0,18-14.7,32.7-32.7,32.7s-32.7-14.7-32.7-32.7
	C133.2,186.1,147.9,171.4,165.8,171.4L165.8,171.4z"/>
<path id="path12745_2_" fill="#FFFFFF" d="M277.2,314.6l44.1,0l-22.1-27.3L277.2,314.6L277.2,314.6z M473.3,270.6v28.9h0v0h71.4v0
	c0.1,0,0.1,0,0.2,0c8,0,14.4-6.5,14.4-14.4s-6.5-14.4-14.4-14.4C521.1,270.6,497.2,270.6,473.3,270.6L473.3,270.6z M604.5,313.8
	c0-0.6,0-1.2,0-1.8l0,0c0,0,0-0.1,0-0.1c0.2-7.4,1.9-14.6,4.8-21.3c3-8.2,7.7-15.2,13.8-21.1c17.7-18.7,55.4-31.3,97-31.9
	c0,0,0,0,0,0c0.2,0,0.4,0,0.6,0c0.1,0,0.2,0,0.3,0l2.9,0c0,0,0,0,0,0c4.3,0.1,8.5,0.3,12.7,0.6c6.5,0.4,12.8,1.1,18.9,2.2l0,0
	c20.6,3.1,35.6,9.2,46.5,15.9c0,0,0,0,0,0l0,0c19.5,12,24.6,24.3,26.2,31.8c-1.5,0-19.6,0-19.6,0l-4.7,0
	c-1.5-3.7-9.4-21.7-47.3-26.2c0,0,0,0,0,0c-0.4,0-0.7-0.1-1.1-0.1c-1.2-0.1-2.3-0.2-3.5-0.3c-0.3,0-0.5,0-0.8,0
	c-3.9-0.3-7.8-0.3-11.6-0.2c-4.3,0.1-8.8,0.7-12.8,1.2v0c-0.3,0-0.7,0.1-1,0.1c0,0-0.1,0-0.1,0c-2.6,0.3-5.1,0.7-7.6,1.2
	c0,0,0,0,0,0c-1.9,0.4-3.7,0.8-5.5,1.2c0,0,0,0-0.1,0c-0.6,0.1-1.2,0.3-1.7,0.4c0,0,0,0-0.1,0c-0.6,0.2-1.2,0.3-1.7,0.5
	c0,0,0,0-0.1,0c-0.6,0.2-1.2,0.3-1.7,0.5c0,0,0,0,0,0c-0.6,0.2-1.2,0.4-1.7,0.5l0,0c-0.6,0.2-1.1,0.4-1.7,0.6c0,0-0.1,0-0.1,0
	c-1.1,0.4-2.2,0.8-3.3,1.2c0,0-0.1,0-0.1,0c-1.1,0.4-2.1,0.8-3.1,1.3c0,0-0.1,0-0.1,0.1c-1.2,0.5-2.4,1-3.5,1.6v0
	c-18.8,8.9-31.2,22.9-31.9,38.6c0,0.2,0,0.5,0,0.7c0,0,0,0.1,0,0.1c0,0,0,0.1,0,0.1c0,7,2.3,13.6,6.5,19.7c0.1,0.1,0.1,0.2,0.2,0.2
	c0,0,0.1,0.1,0.1,0.1c5.4,7.8,13.8,14.5,24.2,19.6v0c0.1,0.1,0.2,0.1,0.4,0.2c0,0,0,0,0.1,0c0.5,0.2,1,0.5,1.5,0.7c0,0,0.1,0,0.1,0
	c0.5,0.2,0.9,0.4,1.4,0.6c0.1,0,0.1,0.1,0.2,0.1c0.5,0.2,1,0.4,1.4,0.6c0,0,0.1,0,0.1,0c0.5,0.2,0.9,0.4,1.4,0.6
	c0.1,0,0.1,0,0.2,0.1c0.5,0.2,1,0.4,1.5,0.6c0.1,0,0.1,0,0.2,0.1c0.5,0.2,1,0.4,1.5,0.5c0,0,0.1,0,0.1,0c0.5,0.2,1,0.4,1.6,0.5
	c0.1,0,0.1,0,0.2,0.1c0.5,0.2,1,0.3,1.5,0.5c0.1,0,0.1,0,0.2,0.1c0.5,0.2,1,0.3,1.5,0.5c0.1,0,0.1,0,0.2,0.1c0.5,0.1,1,0.3,1.5,0.4
	c0.1,0,0.1,0,0.2,0.1c0.5,0.1,1.1,0.3,1.6,0.4c0.1,0,0.1,0,0.2,0c0.6,0.1,1.1,0.3,1.7,0.4c0,0,0,0,0,0c0.6,0.1,1.1,0.3,1.7,0.4
	c0,0,0.1,0,0.1,0c0.6,0.1,1.2,0.2,1.7,0.4c0,0,0,0,0.1,0c0.6,0.1,1.2,0.2,1.7,0.3c0,0,0.1,0,0.1,0c0.6,0.1,1.2,0.2,1.8,0.3
	c0,0,0.1,0,0.1,0c0.4,0.1,0.9,0.1,1.3,0.2c0,0,0,0,0,0c0,0,0,0,0,0c0,0,0,0,0,0c0,0,0,0,0,0c0.1,0,0.2,0,0.3,0.1c0,0,0.1,0,0.1,0
	c0.6,0.1,1.2,0.2,1.8,0.3c0,0,0.1,0,0.1,0c0.6,0.1,1.2,0.2,1.8,0.3c0.1,0,0.1,0,0.2,0c0.6,0.1,1.2,0.1,1.8,0.2c0,0,0,0,0.1,0
	c0.6,0.1,1.3,0.1,1.9,0.2c0,0,0.1,0,0.1,0c0.6,0.1,1.3,0.1,1.9,0.2c0,0,0,0,0.1,0c0.6,0.1,1.3,0.1,1.9,0.1c0,0,0.1,0,0.1,0
	c0.6,0,1.3,0.1,1.9,0.1c0,0,0,0,0.1,0c0.6,0,1.3,0.1,1.9,0.1c0.1,0,0.1,0,0.2,0c0.6,0,1.3,0,1.9,0c0,0,0,0,0,0c0,0,0,0,0,0
	c0,0,0,0,0.1,0c0,0,0,0,0,0c0,0,0,0,0,0c0.6,0,1.3,0,1.9,0c0,0,0,0,0,0c0,0,0,0,0,0c0,0,0,0,0,0c0,0,0,0,0,0l0,0c0,0,0,0,0,0
	s0,0,0,0c0,0,0,0,0,0s0,0,0,0c0.6,0,1.3,0,1.9,0c0,0,0.1,0,0.1,0c0,0,0,0,0,0c0.9,0,1.7,0,2.5,0c16.2,0.4,31.9-2.3,47.9-4.3l8.3-1.4
	c0-5.1,0-9.1,0-12.5c0,0,0,0,0,0c0,0,0,0,0,0v0v0v-0.1l0,0c0,0,0,0,0,0v-0.1h0c-0.1-8.4-7-15.2-15.4-15.2v0h-0.4l0,0
	c-4.5,0-0.9,0-1,0h-2.1v-13.4l43.2,0l0,0c5.3,0,9.7,4.4,9.7,9.7c0,0,0,0.1,0,0.1h0l0,53.5c-6.6,0.8-97.5,20.2-163.4,4.7
	c-12.8-2.4-24.5-7-34.5-13.3c-8.4-5-15.6-11.3-21.1-19c-1.5-1.9-2.8-3.9-4.1-6c0,0.1,0,0.2,0,0.4c0,19-21,38.6-46.9,38.6
	c-44.9,0-89.7,0-134.6,0l0,0l-55.3,0l-31.8-39.6l-91.2,0l-32,39.6h-40.5l0,0h-41.5l0-109.8c0-0.1,0,2.9,0-1.8c0,0,0,0,0,0
	c0,0,0,0,0,0c0-8.5-6.9-15.4-15.4-15.4c-0.2,0-0.3,0-0.5,0c-0.1,0-0.1,0-0.2,0c-4.7,0-0.8,0-0.8,0l0,0H122h-0.5h-0.9V243h19h42v0
	c7.2,0,13.1,5.9,13.1,13.1c0,0.1,0,0.1,0,0.2l0,0v110.4l71.5-88.6v0c2-2.3,3.2-5.3,3.2-8.6c0-7.2-5.9-13.1-13.1-13.1
	c-0.1,0-0.1,0-0.2,0h-2.3H251V243h61.5c0,0,0,0,0.1,0c0,0,0,0,0.1,0h0.1l0,0c4.1,0,7.7,2,10.1,4.9l0,0l95.5,118.6v-92.9c0,0,0,0,0,0
	h0l0-1.8c0,0,0,0,0,0c0-8.5-6.9-15.4-15.4-15.4l0,0l-3.5,0V243h18.9h0.2h54.8h1.5c25.3,0,50.5,0,75.8,0c25.8,0,46.9,16.8,46.9,37.5
	c0,11-6,20.9-15.5,27.8c9.5,2.7,17.5,7.3,23.1,13.8C604.7,319.4,604.5,316.6,604.5,313.8L604.5,313.8L604.5,313.8z M473.3,355.8
	L473.3,355.8l0,0.1l71.7,0l0,0c8,0,14.5-6.5,14.5-14.4c0-8-6.5-14.4-14.5-14.4l0,0h-20.1h-51.6V355.8L473.3,355.8z"/>
</svg>
