<?xml version="1.0" encoding="utf-8"?>
<!-- Generator: Adobe Illustrator 19.2.1, SVG Export Plug-In . SVG Version: 6.00 Build 0)  -->
<svg version="1.1" id="Laag_1" xmlns="http://www.w3.org/2000/svg" xmlns:xlink="http://www.w3.org/1999/xlink" x="0px" y="0px"
	 viewBox="0 0 194 66" enable-background="new 0 0 194 66" xml:space="preserve">
<g>
	<path fill="#FFFFFF" d="M176.2,20.9c-1.3,0-2.4-1.1-2.4-2.4c0-1.3,1.1-2.4,2.4-2.4c1.3,0,2.4,1,2.4,2.4
		C178.5,19.8,177.5,20.9,176.2,20.9z M176.2,18.2c-0.1,0-0.2,0-0.2,0.3c0,0.1,0,0.3,0.2,0.3c0,0,0.1,0,0.1-0.1l0.1-0.2l-0.1-0.3
		L176.2,18.2z"/>
</g>
<g>
	<path fill="#FFFFFF" d="M27.5,50H14.7V16h12.8V50z"/>
</g>
<g>
	<path fill="#FFFFFF" d="M27.5,49.9H14.8V16h12.7V49.9z"/>
</g>
<g>
	<path fill="#FFFFFF" d="M144.8,50H132V16h12.8V50z"/>
</g>
<g>
	<path fill="#FFFFFF" d="M144.8,49.9h-12.7V16h12.7V49.9z"/>
</g>
<g>
	<path fill="#FFFFFF" d="M178.4,50h-22.7V16h12.9v22.4h9.9V50z"/>
</g>
<g>
	<path fill="#FFFFFF" d="M178.4,49.9h-22.7V16h12.8v22.4h9.9V49.9z"/>
</g>
<g>
	<path fill="#FFFFFF" d="M72.2,50H60.1l-9.2-15.4V50H38.6V16h12.1l9.2,15.8V16h12.3V50z"/>
</g>
<g>
	<path fill="#FFFFFF" d="M72.2,49.9h-12l-9.3-15.5v15.5H38.6V16h12.1l9.2,15.9V16h12.2V49.9z"/>
</g>
<g>
	<path fill="#FFFFFF" d="M95.1,50.2c-0.3,0-0.4,0-0.5,0c0,0,0,0,0,0c-4.4,0-7.9-1.3-10.4-3.8c-4.1-4.2-4.1-10.1-4.1-10.4
		c0-12.4,10.7-19.7,10.8-19.8l0.1-0.1h10.5l2.9,10.6l-0.4,0.2c-9.4,4.3-8.3,11-8.3,11.1c0,2.2,0.7,3.8,2,4.8
		c3.6,2.9,10.9,1.2,11,1.2l2-0.5l-1.5,1.3C103.4,49.8,96.9,50.2,95.1,50.2z"/>
</g>
<g>
	<path fill="#FFFFFF" d="M95.1,50.1c-0.3,0-0.4,0-0.5,0c0,0,0,0,0,0c-4.4,0-7.9-1.3-10.4-3.8c-4.1-4.2-4.1-10.1-4.1-10.4
		c0-12.4,10.7-19.7,10.8-19.8l0.1-0.1h10.5l2.9,10.5l-0.4,0.2c-9.4,4.3-8.4,11.1-8.4,11.1c0,2.2,0.7,3.8,2.1,4.9
		c3.6,2.9,10.9,1.2,11,1.2l0.4,0.8C103.4,49.8,96.9,50.1,95.1,50.1z"/>
</g>
<g>
	<path fill="#FFFFFF" d="M122.3,50.1c-3.4,0-10-0.9-12-7.8l0,0l-7.5-26.4h12.5l9.8,34l-0.6,0.1C124.4,50,123.6,50.1,122.3,50.1z"/>
</g>
<g>
	<path fill="#FFFFFF" d="M122.3,50.1c-3.4,0-9.9-0.9-12-7.7l0,0L102.8,16h12.4l9.8,33.9l-0.5,0.1C124.4,50,123.6,50.1,122.3,50.1z"
		/>
</g>
</svg>
