<?xml version="1.0" encoding="utf-8"?>
<!-- Generator: Adobe Illustrator 18.0.0, SVG Export Plug-In . SVG Version: 6.00 Build 0)  -->
<!DOCTYPE svg PUBLIC "-//W3C//DTD SVG 1.1//EN" "http://www.w3.org/Graphics/SVG/1.1/DTD/svg11.dtd">
<svg version="1.1" id="Laag_1" xmlns="http://www.w3.org/2000/svg" xmlns:xlink="http://www.w3.org/1999/xlink" x="0px" y="0px"
	 width="820.6px" height="383.5px" viewBox="0 0 820.6 383.5" enable-background="new 0 0 820.6 383.5" xml:space="preserve">
<g>
	<g>
		<path fill="#FFFFFF" d="M187.6,46c-57,0-89.1,60-89.1,145.3c0,85.7,28.3,146.1,84.9,146.1c50.3,0,87.9-42.2,87.9-149.5
			C271.2,111.5,247.6,46,187.6,46z M185.9,298.2c-28.7,0-40.5-44.3-40.5-106.4c0-59.6,11.8-106.4,40.1-106.4
			c30.4,0,38.9,53.2,38.9,104.7C224.4,247.1,215.1,298.2,185.9,298.2z M663.4,49.4h-52.8l-63.3,284.5c-4.6-9.9-11.4-40.1-17.7-74.6
			c-5.5-33.8-16-52.8-35.9-60v-0.8c28.7-13.1,44.8-38.9,44.8-71.8c0-23.7-5.9-42.7-21.5-57.9c-16.9-15.6-41.4-20.7-70.5-20.7
			c-19,0-38.9,1.7-54.5,5.5c0,0,0,131.4,0,187.4c0,61.2-22.9,93-22.9,93h47.2c0,0,20.4-30,20.4-91.8c0-15.8,0-26.5,0-26.5h10.6
			c22.4,0,32.9,12.2,38.4,49c5.1,33.4,11,61.2,14.8,69.3h90.7l15.2-74.3h56.6l15.2,74.3h43.9L663.4,49.4z M448.5,181.2h-11.8V85.3
			c3.8-1.3,9.7-1.7,15.2-1.7c29.6,0.4,40.5,19.4,40.5,47.3C492.4,160.1,475.5,181.2,448.5,181.2z M611.4,224.7l12.7-65.5
			c3.4-17.7,7.6-44.8,10.6-64.6h1.3c3.4,19.9,7.2,46,10.6,64.6l11.8,65.5H611.4z M328.7,196.7l-32.5-40.6c0,65,6.2,122.7-33.1,177.9
			h65.8c35.6-56,32.3-116.4,32.3-177.9L328.7,196.7z M296.2,109.7l32.5,49.2l32.5-49.2l-16.2,0c0-20.2,1.1-39.8-18.5-63.7H289
			c21.4,22.3,25.8,44.3,25.8,63.7H296.2z"/>
	</g>
</g>
</svg>
