<?xml version="1.0" encoding="utf-8"?>
<!-- Generator: Adobe Illustrator 18.0.0, SVG Export Plug-In . SVG Version: 6.00 Build 0)  -->
<!DOCTYPE svg PUBLIC "-//W3C//DTD SVG 1.1//EN" "http://www.w3.org/Graphics/SVG/1.1/DTD/svg11.dtd">
<svg version="1.1" id="Laag_1" xmlns="http://www.w3.org/2000/svg" xmlns:xlink="http://www.w3.org/1999/xlink" x="0px" y="0px"
	 width="960px" height="560px" viewBox="0 0 960 560" enable-background="new 0 0 960 560" xml:space="preserve">
<g>
	<path fill="#FFFFFF" d="M400.9,336.2h-12.8v19.2h14.5v5.1h-20.4v-51.1h19.5v5.1h-13.6v16.8h12.8V336.2z"/>
	<path fill="#FFFFFF" d="M429.7,350.4c0,4.1,0.2,7.3,0.3,10h-5.1l-0.4-3.9h-0.2c-1.1,1.8-3.9,4.5-7.9,4.5c-6.4,0-8.9-5-8.9-14.1
		v-23.2h5.8v22.3c0,5.8,0.9,10,4.9,10c3.4,0,4.9-3.2,5.2-4.8c0.2-1,0.3-2.1,0.3-3.3v-24.2h5.8V350.4z"/>
	<path fill="#FFFFFF" d="M437.8,333.3c0-3.1-0.2-6.7-0.3-9.5h5.2l0.3,5.8h0.2c1.2-3.5,4.3-6.4,7.7-6.4c0.5,0,0.8,0.1,1.2,0.1v6
		c-0.4-0.1-0.8-0.1-1.2-0.1c-3.7,0-6.4,3.4-7,7.7c-0.2,1-0.2,2.1-0.2,3.3v20.3h-5.8V333.3z"/>
	<path fill="#FFFFFF" d="M478.1,342.1c0,14.2-6.6,18.9-12.2,18.9c-6.6,0-11.9-6-11.9-18.9c0-13.4,6-19,12.3-19
		C472.8,323.2,478.1,329.3,478.1,342.1z M459.9,342.1c0,6.1,1.1,14.3,6.4,14.3c5,0,6-8.6,6-14.3c0-5.6-1-14.2-6.1-14.2
		C460.9,327.9,459.9,336.5,459.9,342.1z"/>
	<path fill="#FFFFFF" d="M484.6,335.2c0-5.6-0.2-8.9-0.3-11.4h5.2l0.3,4.7h0.2c2-3.9,4.8-5.3,7.7-5.3c6.4,0,10.6,6.8,10.6,18.9
		c0,13.6-5.6,19-11.4,19c-3.4,0-5.4-2.2-6.4-4.2h-0.2V375h-5.8V335.2z M490.4,347c0,1.1,0,2.2,0.2,3c1.1,5.2,3.8,6.2,5.4,6.2
		c4.8,0,6.4-6.7,6.4-14.1c0-7.6-1.8-13.9-6.4-13.9c-2.7,0-5,3.3-5.4,6.7c-0.2,0.9-0.2,1.8-0.2,2.8V347z"/>
	<path fill="#FFFFFF" d="M519,342.6c0.1,11.2,4.5,13.6,8.7,13.6c2.5,0,4.6-0.6,6.1-1.4l0.9,4.3c-2,1.1-5.2,1.7-8,1.7
		c-8.8,0-13.3-7.2-13.3-18.4c0-11.9,5-19.3,12.3-19.3c7.5,0,10.5,7.9,10.5,16.2c0,1.4,0,2.3-0.1,3.3H519z M530.5,338.3
		c0.2-7.3-2.7-10.6-5.5-10.6c-3.8,0-5.8,5.6-6,10.6H530.5z"/>
	<path fill="#FFFFFF" d="M556.8,360.4l-0.4-3.9h-0.2c-1.6,2.8-4.2,4.5-7.3,4.5c-4.9,0-8.7-4.2-8.7-10.5c0-9.2,7.3-13.3,15.6-13.3
		v-1.1c0-4.9-1.2-8.3-5.8-8.3c-2.3,0-4.3,0.8-6.1,1.9l-1.3-4.1c1.5-1.1,4.9-2.4,8.6-2.4c7.3,0,10.5,4.8,10.5,13.1v15.8
		c0,2.8,0,6,0.4,8.3H556.8z M556,341.5c-3,0-10.1,0.5-10.1,8.5c0,4.8,2.4,6.5,4.5,6.5c2.6,0,4.8-1.9,5.5-5.5c0.2-0.7,0.2-1.4,0.2-2
		V341.5z"/>
	<path fill="#FFFFFF" d="M570,333.3c0-4.3-0.2-6.5-0.3-9.5h5.1l0.3,4.4h0.2c1.6-3,4.5-5,8.4-5c5.1,0,8.9,3.8,8.9,12.7v24.6h-5.8
		v-23.6c0-4.3-0.8-8.7-5.1-8.7c-2.4,0-4.8,2-5.5,6c-0.2,0.9-0.2,2-0.2,3.3v23.1H570V333.3z"/>
	<path fill="#FFFFFF" d="M619.1,345.1l-3.4,15.3h-5.6l11.7-51.1h6.4l11.4,51.1h-5.8l-3.4-15.3H619.1z M629.6,340.4l-2.7-13
		c-0.8-3.6-1.4-7.9-2-11.7h-0.3c-0.6,3.9-1.4,8.3-2,11.7l-2.7,13H629.6z"/>
	<path fill="#FFFFFF" d="M667.3,323.8c-0.1,2.6-0.3,5.8-0.3,11.4v20.5c0,9.6-1.2,13.3-3.6,15.9c-2.2,2.5-5.7,3.9-9.8,3.9
		c-3.1,0-6.1-0.8-8-1.8l1.4-4.5c1.4,0.8,3.9,1.6,6.8,1.6c4.6,0,7.5-2.9,7.5-11.2v-3.7h-0.2c-1.3,2.9-3.9,4.5-7,4.5
		c-6.5,0-10.8-7.3-10.8-18.1c0-13.5,6.1-19.1,11.5-19.1c3.9,0,5.8,2.6,6.8,4.8h0.2l0.3-4.2H667.3z M661.2,336.4
		c0-0.9-0.1-1.9-0.3-2.7c-0.7-2.5-2-5.6-5.3-5.6c-4.2,0-6.5,5.7-6.5,13.8c0,9.4,3,13.6,6.5,13.6c1.7,0,4-0.8,5.2-5.2
		c0.3-1.1,0.4-2.3,0.4-3.3V336.4z"/>
	<path fill="#FFFFFF" d="M679.2,342.6c0.1,11.2,4.5,13.6,8.7,13.6c2.5,0,4.6-0.6,6.1-1.4l0.9,4.3c-2,1.1-5.2,1.7-8,1.7
		c-8.8,0-13.3-7.2-13.3-18.4c0-11.9,5-19.3,12.3-19.3c7.5,0,10.5,7.9,10.5,16.2c0,1.4,0,2.3-0.1,3.3H679.2z M690.7,338.3
		c0.2-7.3-2.7-10.6-5.5-10.6c-3.8,0-5.8,5.6-6,10.6H690.7z"/>
	<path fill="#FFFFFF" d="M702.6,333.3c0-4.3-0.2-6.5-0.3-9.5h5.1l0.3,4.4h0.2c1.6-3,4.5-5,8.4-5c5.1,0,8.9,3.8,8.9,12.7v24.6h-5.8
		v-23.6c0-4.3-0.8-8.7-5.1-8.7c-2.4,0-4.8,2-5.5,6c-0.2,0.9-0.2,2-0.2,3.3v23.1h-5.8V333.3z"/>
	<path fill="#FFFFFF" d="M751.2,359.5c-1.3,0.8-3.5,1.4-6.1,1.4c-8,0-13.4-6.4-13.4-18.6c0-10.5,5.3-19.1,14.5-19.1
		c2,0,4.1,0.5,5.2,1.1l-1.1,4.8c-0.8-0.4-2.3-1-4.2-1c-5.8,0-8.5,7-8.5,14.2c0,8.6,3.3,13.7,8.6,13.7c1.6,0,2.9-0.4,4.2-1
		L751.2,359.5z"/>
	<path fill="#FFFFFF" d="M760.7,323.8l4.8,21.1c0.7,2.9,1.1,5.3,1.5,7.6h0.2c0.4-2,1-4.8,1.6-7.5l4.3-21.1h5.8l-6,23.6
		c-2.3,9.2-4.8,18.1-9.1,23.6c-2.6,3.3-5.3,5-6.6,5.6l-2.1-5c1.7-0.9,3.5-2.5,5.2-4.6c1.5-1.9,2.7-4.4,3.3-6.1
		c0.3-0.9,0.4-1.3,0.4-1.8c0-0.5,0-0.9-0.2-1.4l-9.2-33.9H760.7z"/>
</g>
<g>
	<path fill="#FFFFFF" d="M383.1,437.1v-32.2h-4.6v-4.5h4.6v-2.2c0-3.9,0.6-8,3.3-11.1c2.1-2.3,5.1-3.1,7.3-3.1c2,0,3.5,0.4,4.5,0.9
		l-1,4.5c-0.7-0.3-1.7-0.6-3.2-0.6c-4.2,0-5.2,4.5-5.2,9.2v2.3h6.7v4.5h-6.7v32.2H383.1z"/>
	<path fill="#FFFFFF" d="M421.6,418.8c0,14.2-6.6,18.9-12.2,18.9c-6.6,0-11.9-6-11.9-18.9c0-13.4,6-19,12.3-19
		C416.3,399.8,421.6,406,421.6,418.8z M403.4,418.8c0,6.1,1.1,14.3,6.4,14.3c5,0,6-8.6,6-14.3c0-5.6-1-14.2-6.1-14.2
		C404.3,404.5,403.4,413.2,403.4,418.8z"/>
	<path fill="#FFFFFF" d="M428.1,409.9c0-3.1-0.2-6.7-0.3-9.5h5.2l0.3,5.8h0.2c1.2-3.5,4.3-6.4,7.7-6.4c0.5,0,0.8,0.1,1.2,0.1v6
		c-0.4-0.1-0.8-0.1-1.2-0.1c-3.7,0-6.4,3.4-7,7.7c-0.2,1-0.2,2.1-0.2,3.3v20.3h-5.8V409.9z"/>
	<path fill="#FFFFFF" d="M458.1,430.4c1.7,1.1,4.8,2,7.3,2c5.3,0,8.5-3.5,8.5-8.6c0-4.7-2.7-7.6-6.7-10.6c-4-2.8-9.6-7.6-9.6-14.2
		c0-7.7,5.4-13.4,13.5-13.4c3.2,0,6,1,7.2,1.9l-1.4,5c-1.3-0.9-3.4-1.7-6.1-1.7c-5,0-7.3,3.8-7.3,7.3c0,5.1,2.7,7,7.5,10.5
		c6.1,4.3,8.9,9,8.9,14.7c0,8.8-6.2,14.3-14.3,14.3c-3.5,0-7.2-1.1-8.6-2.2L458.1,430.4z"/>
	<path fill="#FFFFFF" d="M501.2,437.1l-0.4-3.9h-0.2c-1.6,2.8-4.2,4.5-7.3,4.5c-4.9,0-8.7-4.2-8.7-10.5c0-9.2,7.3-13.3,15.6-13.3
		v-1.1c0-4.9-1.2-8.3-5.8-8.3c-2.3,0-4.3,0.8-6.1,1.9l-1.3-4.1c1.5-1.1,4.9-2.4,8.6-2.4c7.3,0,10.5,4.8,10.5,13.1v15.8
		c0,2.8,0,6,0.4,8.3H501.2z M500.3,418.2c-3,0-10.1,0.5-10.1,8.5c0,4.8,2.4,6.5,4.5,6.5c2.6,0,4.8-1.9,5.5-5.5
		c0.2-0.7,0.2-1.4,0.2-2V418.2z"/>
	<path fill="#FFFFFF" d="M515.5,437.1v-32.2h-4.6v-4.5h4.6v-2.2c0-3.9,0.6-8,3.3-11.1c2.1-2.3,5.1-3.1,7.3-3.1c2,0,3.5,0.4,4.5,0.9
		l-1,4.5c-0.7-0.3-1.7-0.6-3.2-0.6c-4.2,0-5.2,4.5-5.2,9.2v2.3h6.7v4.5h-6.7v32.2H515.5z"/>
	<path fill="#FFFFFF" d="M535.6,419.3c0.1,11.2,4.5,13.6,8.7,13.6c2.5,0,4.6-0.6,6.1-1.4l0.9,4.3c-2,1.1-5.2,1.7-8,1.7
		c-8.8,0-13.3-7.2-13.3-18.4c0-11.9,5-19.3,12.3-19.3c7.5,0,10.5,7.9,10.5,16.2c0,1.4,0,2.3-0.1,3.3H535.6z M547.1,415
		c0.2-7.3-2.7-10.6-5.5-10.6c-3.8,0-5.8,5.6-6,10.6H547.1z"/>
	<path fill="#FFFFFF" d="M566.2,390.7v9.7h7v4.5h-7v21.7c0,4.8,1.7,6.1,3.9,6.1c0.9,0,1.7-0.1,2.3-0.2l0.2,4.5
		c-1.1,0.4-2.4,0.6-4.3,0.6c-2.3,0-4.3-0.6-5.8-2.2c-1.4-1.7-2.2-4.2-2.2-9.2v-21.2h-4.5v-4.5h4.5v-8L566.2,390.7z"/>
	<path fill="#FFFFFF" d="M582.1,400.4l4.8,21.1c0.7,2.9,1.1,5.3,1.5,7.6h0.2c0.4-2,1-4.8,1.6-7.5l4.3-21.1h5.8l-6,23.6
		c-2.3,9.2-4.8,18.1-9.1,23.6c-2.6,3.3-5.3,5-6.6,5.6l-2.1-5c1.7-0.9,3.5-2.5,5.2-4.6c1.5-1.9,2.7-4.4,3.3-6.1
		c0.3-0.9,0.4-1.3,0.4-1.8c0-0.5,0-0.9-0.2-1.4l-9.2-33.9H582.1z"/>
	<path fill="#FFFFFF" d="M631.6,437.1l-0.4-3.9H631c-1.6,2.8-4.2,4.5-7.3,4.5c-4.9,0-8.7-4.2-8.7-10.5c0-9.2,7.3-13.3,15.6-13.3
		v-1.1c0-4.9-1.2-8.3-5.8-8.3c-2.3,0-4.3,0.8-6.1,1.9l-1.3-4.1c1.5-1.1,4.9-2.4,8.6-2.4c7.3,0,10.5,4.8,10.5,13.1v15.8
		c0,2.8,0,6,0.4,8.3H631.6z M630.8,418.2c-3,0-10.1,0.5-10.1,8.5c0,4.8,2.4,6.5,4.5,6.5c2.6,0,4.8-1.9,5.5-5.5
		c0.2-0.7,0.2-1.4,0.2-2V418.2z"/>
	<path fill="#FFFFFF" d="M644.7,409.9c0-4.3-0.2-6.5-0.3-9.5h5.1l0.3,4.4h0.2c1.6-3,4.5-5,8.4-5c5.1,0,8.9,3.8,8.9,12.7v24.6h-5.8
		v-23.6c0-4.3-0.8-8.7-5.1-8.7c-2.4,0-4.8,2-5.5,6c-0.2,0.9-0.2,2-0.2,3.3v23.1h-5.8V409.9z"/>
	<path fill="#FFFFFF" d="M697.5,384.7v43.6c0,2.5,0.2,6.7,0.3,8.8h-5l-0.4-4.6h-0.2c-1.2,2.7-3.8,5.2-7.7,5.2
		c-6.2,0-10.7-6.7-10.7-18.8c0-13,5.4-19.1,11.1-19.1c2.7,0,5.2,1.3,6.7,4.4h0.2v-19.5H697.5z M691.7,414.4c0-0.8,0-1.6-0.1-2.4
		c-0.4-3.8-2.7-7.1-5.5-7.1c-4.8,0-6.5,6.7-6.5,14.1c0,7.7,2,13.9,6.2,13.9c1.8,0,4.3-1,5.6-6.3c0.2-0.7,0.2-1.5,0.2-2.4V414.4z"/>
	<path fill="#FFFFFF" d="M723.8,386v21.9h14.3V386h5.8v51.1h-5.8v-23.9h-14.3v23.9H718V386H723.8z"/>
	<path fill="#FFFFFF" d="M756.7,419.3c0.1,11.2,4.5,13.6,8.7,13.6c2.5,0,4.6-0.6,6.1-1.4l0.9,4.3c-2,1.1-5.2,1.7-8,1.7
		c-8.8,0-13.3-7.2-13.3-18.4c0-11.9,5-19.3,12.3-19.3c7.5,0,10.5,7.9,10.5,16.2c0,1.4,0,2.3-0.1,3.3H756.7z M768.2,415
		c0.2-7.3-2.7-10.6-5.5-10.6c-3.8,0-5.8,5.6-6,10.6H768.2z"/>
	<path fill="#FFFFFF" d="M794.6,437.1l-0.4-3.9H794c-1.6,2.8-4.2,4.5-7.3,4.5c-4.9,0-8.7-4.2-8.7-10.5c0-9.2,7.3-13.3,15.6-13.3
		v-1.1c0-4.9-1.2-8.3-5.8-8.3c-2.3,0-4.3,0.8-6.1,1.9l-1.3-4.1c1.5-1.1,4.9-2.4,8.6-2.4c7.3,0,10.5,4.8,10.5,13.1v15.8
		c0,2.8,0,6,0.4,8.3H794.6z M793.7,418.2c-3,0-10.1,0.5-10.1,8.5c0,4.8,2.4,6.5,4.5,6.5c2.6,0,4.8-1.9,5.5-5.5
		c0.2-0.7,0.2-1.4,0.2-2V418.2z"/>
	<path fill="#FFFFFF" d="M807.7,384.7h5.8v52.4h-5.8V384.7z"/>
	<path fill="#FFFFFF" d="M829.3,390.7v9.7h7v4.5h-7v21.7c0,4.8,1.7,6.1,3.9,6.1c0.9,0,1.7-0.1,2.3-0.2l0.2,4.5
		c-1.1,0.4-2.4,0.6-4.3,0.6c-2.3,0-4.3-0.6-5.8-2.2c-1.4-1.7-2.2-4.2-2.2-9.2v-21.2H819v-4.5h4.5v-8L829.3,390.7z"/>
	<path fill="#FFFFFF" d="M841.5,384.7h5.8v19.7h0.2c0.8-1.3,1.9-2.4,3-3.2c1.4-0.8,2.8-1.4,4.9-1.4c4.6,0,8.6,3.7,8.6,13v24.3h-5.8
		v-23.6c0-4.5-1-8.7-4.9-8.7c-2.7,0-4.8,2-5.7,5.8c-0.2,0.8-0.2,1.9-0.2,2.8v23.7h-5.8V384.7z"/>
</g>
<g>
	<path fill="#FFFFFF" d="M396.3,513.8l-0.4-3.9h-0.2c-1.6,2.8-4.2,4.5-7.3,4.5c-4.9,0-8.7-4.2-8.7-10.5c0-9.2,7.3-13.3,15.6-13.3
		v-1.1c0-4.9-1.2-8.3-5.8-8.3c-2.3,0-4.3,0.8-6.1,1.9l-1.3-4.1c1.5-1.1,4.9-2.4,8.6-2.4c7.3,0,10.5,4.8,10.5,13.1v15.8
		c0,2.8,0,6,0.4,8.3H396.3z M395.5,494.8c-3,0-10.1,0.5-10.1,8.5c0,4.8,2.4,6.5,4.5,6.5c2.6,0,4.8-1.9,5.5-5.5
		c0.2-0.7,0.2-1.4,0.2-2V494.8z"/>
	<path fill="#FFFFFF" d="M415.9,467.4v9.7h7v4.5h-7v21.7c0,4.8,1.7,6.1,3.9,6.1c0.9,0,1.7-0.1,2.3-0.2l0.2,4.5
		c-1.1,0.4-2.4,0.6-4.3,0.6c-2.3,0-4.3-0.6-5.8-2.2c-1.4-1.7-2.2-4.2-2.2-9.2v-21.2h-4.5v-4.5h4.5v-8L415.9,467.4z"/>
	<path fill="#FFFFFF" d="M444.7,513.8l-9.8-51.1h6.1l4.3,24.6c1.1,6.4,1.9,12.1,2.5,18.4h0.3c0.6-6.4,1.8-12,3-18.5l4.7-24.5h5
		l4.7,24c1.1,6.1,2.3,11.9,3,19h0.2c0.8-7.3,1.7-12.9,2.7-18.7l4.2-24.3h5.7l-9.9,51.1h-5.7l-4.9-24.8c-1-5.4-2-11.1-2.6-16.7H458
		c-0.8,5.8-1.6,11.3-2.8,17l-5.1,24.6H444.7z"/>
	<path fill="#FFFFFF" d="M506.7,495.4c0,14.2-6.6,18.9-12.2,18.9c-6.6,0-11.9-6-11.9-18.9c0-13.4,6-19,12.3-19
		C501.4,476.5,506.7,482.6,506.7,495.4z M488.4,495.4c0,6.1,1.1,14.3,6.4,14.3c5,0,6-8.6,6-14.3c0-5.6-1-14.2-6.1-14.2
		C489.4,481.2,488.4,489.8,488.4,495.4z"/>
	<path fill="#FFFFFF" d="M513.1,486.6c0-3.1-0.2-6.7-0.3-9.5h5.2l0.3,5.8h0.2c1.2-3.5,4.3-6.4,7.7-6.4c0.5,0,0.8,0.1,1.2,0.1v6
		c-0.4-0.1-0.8-0.1-1.2-0.1c-3.7,0-6.4,3.4-7,7.7c-0.2,1-0.2,2.1-0.2,3.3v20.3h-5.8V486.6z"/>
	<path fill="#FFFFFF" d="M537.8,494.1h0.2c0.7-1.4,1.3-2.9,2-4.1l7.3-13h6.3l-9.7,15.5l10.5,21.2h-6.5l-8-17.3l-2,3.4v13.9h-5.8
		v-52.4h5.8V494.1z"/>
</g>
<path fill="#FFFFFF" d="M245.6,513.6c46.8-101.8,19.1-179.6,1.6-232.7c-21.3-64.8-65.6-122.4-0.8-232.7h-75.9
	c-64.8,110.3-20.6,168,0.7,232.7c17.5,53.1,45.6,131-1.2,232.7H245.6"/>
<path fill="#FFFFFF" d="M237.7,508.6c46.8-101.8,19.1-179.6,1.6-232.7c-21.3-64.8-65.6-122.4-0.8-232.7h-75.9
	c-64.8,110.3-20.7,168,0.7,232.7c17.5,53.1,45.6,131-1.2,232.7H237.7"/>
<path fill="#FFFFFF" d="M220.7,130.8c42.2-48.5,96.7-30,103.1,18.3c4.6,35.6-50.5,112.2-68.4,135.6L219,256
	c51-69.5,62-92.9,62.9-114.5C282.7,120.2,258.5,108.4,220.7,130.8"/>
<path fill="#FFFFFF" d="M130.2,251.8c-56.6,77.2-16.8,150.7,37,154c52.9,3.3,99.5-37.4,128-56.4c12.4-8.3,61.5-52.3,96.9-92.8
	l-15.3-47.9c-39.9,48.3-70.7,74.5-109.1,106.3c-38.8,32.2-70.8,47.7-100.2,47.2C139,361.7,85,339.2,130.2,251.8"/>
</svg>
