<?xml version="1.0" encoding="utf-8"?>
<!-- Generator: Adobe Illustrator 15.1.0, SVG Export Plug-In . SVG Version: 6.00 Build 0)  -->
<!DOCTYPE svg PUBLIC "-//W3C//DTD SVG 1.1//EN" "http://www.w3.org/Graphics/SVG/1.1/DTD/svg11.dtd">
<svg version="1.1" id="Layer_1" xmlns="http://www.w3.org/2000/svg" xmlns:xlink="http://www.w3.org/1999/xlink" x="0px" y="0px"
	 width="441px" height="85px" viewBox="0 0 441 85" enable-background="new 0 0 441 85" xml:space="preserve">
<path fill="#FFFFFF" d="M73.229,32.284h-2.879l-2.617,13.675c-0.884,4.613-3.043,6.25-6.806,6.25c-3.926,0-4.94-1.866-4.286-5.398
	l2.781-14.527h-2.945l-2.715,14.395c-0.851,4.449,0.294,8.017,6.74,8.017c5.53,0,8.997-2.65,10.077-8.408L73.229,32.284z"/>
<path fill="#FFFFFF" d="M89.583,43.31c0.622-3.403-0.393-5.529-3.403-5.529c-3.402,0-5.987,3.304-7.525,6.739h-0.065
	c1.145-3.468,1.603-5.333,1.799-6.413h-2.846c-0.425,2.389-1.014,5.431-1.44,7.754l-1.636,8.507h2.879l0.687-3.664
	c0.752-4.025,4.089-10.405,7.1-10.405c1.473,0,1.931,1.112,1.439,3.665l-1.996,10.404h2.879L89.583,43.31z"/>
<path fill="#FFFFFF" d="M100.244,33.429c0.065-1.014-0.752-1.832-1.799-1.832c-1.08,0-2.029,0.851-2.062,1.963
	c-0.065,1.014,0.72,1.865,1.799,1.865C99.23,35.424,100.179,34.541,100.244,33.429z M98.87,38.107h-2.879l-3.108,16.261h2.88
	L98.87,38.107z"/>
<path fill="#FFFFFF" d="M116.469,38.369l-2.715-0.948l-6.871,13.381h-0.032c-0.066-0.982-0.197-2.127-0.36-3.142l-1.505-9.553
	h-3.108l2.879,16.261h3.01L116.469,38.369z"/>
<path fill="#FFFFFF" d="M130.332,41.51c0-1.93-1.309-3.697-4.777-3.697c-5.398,0-8.899,5.267-8.899,11.583
	c0,3.664,1.734,5.267,5.464,5.267c2.126,0,4.024-0.359,5.595-0.981v-2.355c-1.407,0.588-3.043,0.949-4.581,0.949
	c-2.618,0-3.5-0.655-3.5-3.174c0-0.59,0.065-1.407,0.163-1.898C126.766,46.94,130.332,45.011,130.332,41.51z M127.42,41.87
	c0,1.963-2.225,2.977-7.263,3.173c0.752-2.748,2.486-5.005,5.071-5.005C126.537,40.038,127.42,40.692,127.42,41.87z"/>
<path fill="#FFFFFF" d="M143.482,37.813c-3.142-0.523-5.104,2.355-6.937,6.314l-0.065-0.032c0.949-2.847,1.407-4.581,1.668-5.988
	h-2.813l-3.076,16.261h2.879l0.687-3.664c0.851-4.516,4.057-10.896,7.067-10.044L143.482,37.813z"/>
<path fill="#FFFFFF" d="M153.983,38.042c-0.818-0.131-1.636-0.229-2.781-0.229c-4.22,0-6.445,2.159-6.445,4.939
	c0,3.926,4.908,4.352,4.908,6.937c0,1.7-1.44,2.552-3.566,2.552c-0.916,0-1.799-0.163-2.65-0.425l-0.523,2.617
	c0.817,0.163,1.701,0.229,2.781,0.229c4.613,0,7.001-2.584,7.001-5.3c0-3.665-4.94-4.352-4.94-6.937
	c0-1.374,1.113-2.388,3.239-2.388c0.818,0,1.669,0.131,2.454,0.393L153.983,38.042z"/>
<path fill="#FFFFFF" d="M163.5,33.429c0.065-1.014-0.752-1.832-1.799-1.832c-1.08,0-2.028,0.851-2.062,1.963
	c-0.065,1.014,0.72,1.865,1.8,1.865C162.486,35.424,163.435,34.541,163.5,33.429z M162.126,38.107h-2.879l-3.108,16.261h2.879
	L162.126,38.107z"/>
<path fill="#FFFFFF" d="M175.505,38.107h-4.417l1.145-5.954l-3.042,0.687l-1.015,5.267h-3.272l-0.458,2.291h3.305l-1.734,8.964
	c-0.687,3.697,0.164,5.268,3.501,5.268c0.948,0,2.094-0.132,3.042-0.327l0.196-2.454c-0.654,0.164-1.341,0.262-2.257,0.262
	c-1.604,0-1.931-0.688-1.473-3.206l1.604-8.506h4.417L175.505,38.107z"/>
<path fill="#FFFFFF" d="M191.568,38.336c-1.505-0.294-3.239-0.491-5.104-0.491c-7.099,0-10.208,5.921-10.208,11.91
	c0,3.435,1.276,4.94,3.632,4.94c3.958,0,6.413-4.45,7.59-6.97l0.065,0.033c-0.981,3.043-1.604,5.202-1.897,6.609h2.912
	C189.245,50.475,189.834,47.432,191.568,38.336z M188.296,40.463l-0.229,1.309c-0.753,3.894-4.09,10.403-7.165,10.403
	c-1.014,0-1.668-0.85-1.668-2.977c0-4.024,1.897-9.03,6.74-9.03C186.89,40.168,187.642,40.299,188.296,40.463z M191.928,32.873
	c0-0.883-0.72-1.668-1.702-1.668c-0.981,0-1.832,0.785-1.832,1.799c0,0.949,0.752,1.702,1.734,1.702S191.928,33.952,191.928,32.873z
	 M185.646,32.873c0-0.883-0.72-1.668-1.702-1.668c-0.981,0-1.832,0.785-1.832,1.832c0,0.916,0.752,1.669,1.734,1.669
	S185.646,33.952,185.646,32.873z"/>
<path fill="#FFFFFF" d="M204.626,38.107h-4.417l1.145-5.954l-3.043,0.687l-1.014,5.267h-3.272l-0.458,2.291h3.305l-1.734,8.964
	c-0.688,3.697,0.163,5.268,3.5,5.268c0.949,0,2.094-0.132,3.043-0.327l0.196-2.454c-0.655,0.164-1.341,0.262-2.257,0.262
	c-1.604,0-1.931-0.688-1.473-3.206l1.604-8.506h4.417L204.626,38.107z"/>
<path fill="#FFFFFF" d="M284.245,32.284h-3.764l-7.328,14.101c-0.818,1.57-1.342,2.649-1.963,4.188h-0.065
	c0-1.309-0.131-2.781-0.36-4.384l-1.897-13.905h-3.566l-7.361,22.084h3.108l3.861-12.466c0.687-2.159,1.21-3.926,1.668-5.726h0.032
	c0,1.407,0.197,3.272,0.426,4.94l1.832,13.251h3.142l7.296-14.2c0.817-1.57,1.406-2.944,1.832-3.992h0.065
	c-0.131,1.309-0.262,3.076-0.393,5.595l-0.622,12.597h3.108L284.245,32.284z"/>
<path fill="#FFFFFF" d="M303.643,38.107h-2.88l-0.686,3.665c-0.753,4.024-4.123,10.403-7.133,10.403
	c-1.439,0-1.898-1.111-1.407-3.664l1.996-10.404h-2.912l-2.094,11.059c-0.654,3.402,0.393,5.529,3.402,5.529
	c3.403,0,5.954-3.306,7.492-6.74h0.065c-1.146,3.468-1.57,5.333-1.8,6.413h2.88L303.643,38.107z M302.924,32.873
	c0-0.883-0.721-1.668-1.702-1.668c-0.982,0-1.833,0.785-1.833,1.799c0,0.949,0.753,1.702,1.735,1.702
	C302.104,34.705,302.924,33.952,302.924,32.873z M296.642,32.873c0-0.883-0.72-1.668-1.702-1.668c-0.981,0-1.832,0.785-1.832,1.832
	c0,0.916,0.753,1.669,1.734,1.669S296.642,33.952,296.642,32.873z"/>
<path fill="#FFFFFF" d="M321.076,43.31c0.623-3.403-0.392-5.529-3.402-5.529c-3.402,0-5.987,3.304-7.524,6.739h-0.065
	c1.146-3.468,1.603-5.333,1.799-6.413h-2.846c-0.426,2.389-1.015,5.431-1.439,7.754l-1.636,8.507h2.879l0.687-3.664
	c0.753-4.024,4.091-10.405,7.1-10.405c1.473,0,1.932,1.112,1.44,3.665l-1.996,10.404h2.879L321.076,43.31z"/>
<path fill="#FFFFFF" d="M337.072,38.336c-1.015-0.294-2.094-0.491-3.436-0.491c-5.824,0-9.324,5.203-9.324,11.418
	c0,3.076,1.438,5.366,5.659,5.366c1.637,0,3.142-0.36,4.286-0.785l0.197-2.585c-1.015,0.491-2.389,0.785-3.665,0.785
	c-2.846,0-3.402-1.734-3.402-3.435c0-3.698,1.93-8.344,6.053-8.344c1.145,0,2.094,0.229,2.977,0.622L337.072,38.336z"/>
<path fill="#FFFFFF" d="M352.977,43.31c0.655-3.403-0.393-5.529-3.402-5.529c-3.402,0-5.986,3.304-7.524,6.739h-0.065
	c1.21-3.566,1.57-5.136,1.832-6.413l1.472-7.623h-2.879l-4.547,23.884h2.879l0.687-3.664c0.752-4.025,4.09-10.405,7.1-10.405
	c1.473,0,1.931,1.112,1.439,3.665l-1.996,10.404h2.88L352.977,43.31z"/>
<path fill="#FFFFFF" d="M369.954,41.51c0-1.93-1.309-3.697-4.778-3.697c-5.397,0-8.898,5.267-8.898,11.583
	c0,3.664,1.734,5.267,5.464,5.267c2.126,0,4.024-0.359,5.596-0.981v-2.355c-1.408,0.588-3.044,0.949-4.581,0.949
	c-2.618,0-3.501-0.655-3.501-3.174c0-0.59,0.065-1.407,0.163-1.898C366.387,46.94,369.954,45.011,369.954,41.51z M367.041,41.87
	c0,1.963-2.225,2.977-7.263,3.173c0.753-2.748,2.486-5.005,5.071-5.005C366.158,40.038,367.041,40.692,367.041,41.87z"/>
<path fill="#FFFFFF" d="M386.996,43.31c0.622-3.403-0.393-5.529-3.402-5.529c-3.402,0-5.987,3.304-7.525,6.739h-0.064
	c1.145-3.468,1.604-5.333,1.799-6.413h-2.846c-0.426,2.389-1.015,5.431-1.44,7.754l-1.636,8.507h2.879l0.688-3.664
	c0.753-4.024,4.09-10.405,7.1-10.405c1.473,0,1.931,1.112,1.439,3.665l-1.995,10.404h2.879L386.996,43.31z"/>
<path fill="#FFFFFF" d="M211.672,10.188h-1.456l-0.704,3.779c-0.409-0.065-0.736-0.098-1.145-0.098c-3.55,0-5.104,2.961-5.104,5.955
	c0,1.718,0.638,2.47,1.816,2.47c1.979,0,3.206-2.225,3.795-3.484l0.033,0.016c-0.491,1.521-0.802,2.601-0.933,3.305h1.439
	c0.114-0.671,0.327-1.799,0.54-2.928L211.672,10.188z M209.284,15.177l-0.114,0.654c-0.376,1.947-2.045,5.202-3.583,5.202
	c-0.507,0-0.834-0.425-0.834-1.488c0-2.013,0.949-4.515,3.37-4.515C208.58,15.03,208.957,15.095,209.284,15.177z"/>
<path fill="#FFFFFF" d="M218.954,15.7c0-0.965-0.654-1.848-2.388-1.848c-2.699,0-4.45,2.633-4.45,5.791
	c0,1.832,0.867,2.634,2.732,2.634c1.063,0,2.012-0.18,2.797-0.491v-1.178c-0.704,0.294-1.521,0.475-2.29,0.475
	c-1.309,0-1.75-0.327-1.75-1.587c0-0.294,0.032-0.703,0.082-0.949C217.17,18.416,218.954,17.451,218.954,15.7z M217.498,15.88
	c0,0.981-1.113,1.489-3.632,1.586c0.376-1.374,1.243-2.502,2.536-2.502C217.056,14.964,217.498,15.292,217.498,15.88z"/>
<path fill="#FFFFFF" d="M225.528,13.852c-1.57-0.262-2.552,1.178-3.468,3.157l-0.032-0.016c0.475-1.423,0.703-2.29,0.834-2.994
	h-1.406l-1.539,8.13h1.439l0.344-1.832c0.426-2.258,2.028-5.448,3.534-5.022L225.528,13.852z"/>
<path fill="#FFFFFF" d="M237.549,13.165c0-1.309-0.981-2.127-3.092-2.127c-1.26,0-2.372,0.033-3.157,0.049l-2.094,11.042
	c1.047,0.017,2.094,0.049,2.78,0.049c3.108,0,4.826-1.767,4.826-3.828c0-0.965-0.605-1.816-1.652-2.028v-0.017
	C236.371,15.864,237.549,14.833,237.549,13.165z M235.978,13.492c0,1.521-1.374,2.372-3.173,2.372c-0.377,0-0.639,0-0.949-0.017
	l0.688-3.566c0.457-0.016,0.965-0.032,1.505-0.032C235.553,12.249,235.978,12.756,235.978,13.492z M235.242,18.481
	c0,1.325-1.047,2.47-2.994,2.47c-0.605,0-1.063-0.033-1.342-0.082l0.736-3.861c0.262-0.016,0.818-0.016,1.244-0.016
	C234.506,16.993,235.242,17.5,235.242,18.481z"/>
<path fill="#FFFFFF" d="M246.365,13.999h-1.438l-0.345,1.832c-0.376,2.012-2.061,5.202-3.565,5.202c-0.72,0-0.949-0.556-0.704-1.832
	l0.999-5.202h-1.457l-1.047,5.529c-0.327,1.701,0.196,2.765,1.702,2.765c1.7,0,2.977-1.652,3.745-3.37h0.033
	c-0.572,1.734-0.785,2.666-0.899,3.206h1.438L246.365,13.999z"/>
<path fill="#FFFFFF" d="M255.083,16.6c0.311-1.701-0.197-2.765-1.701-2.765c-1.702,0-2.994,1.652-3.763,3.37h-0.033
	c0.572-1.733,0.802-2.666,0.9-3.206h-1.424c-0.213,1.194-0.507,2.716-0.72,3.877l-0.818,4.253h1.44l0.344-1.832
	c0.376-2.012,2.045-5.202,3.549-5.202c0.737,0,0.966,0.556,0.72,1.832l-0.997,5.202h1.439L255.083,16.6z"/>
<path fill="#FFFFFF" d="M265.093,10.188h-1.456l-0.703,3.779c-0.41-0.065-0.736-0.098-1.146-0.098c-3.549,0-5.103,2.961-5.103,5.955
	c0,1.718,0.637,2.47,1.815,2.47c1.979,0,3.206-2.225,3.795-3.484l0.032,0.016c-0.49,1.521-0.802,2.601-0.932,3.305h1.438
	c0.115-0.671,0.328-1.799,0.54-2.928L265.093,10.188z M262.704,15.177l-0.115,0.654c-0.376,1.947-2.044,5.202-3.581,5.202
	c-0.508,0-0.835-0.425-0.835-1.488c0-2.013,0.948-4.515,3.369-4.515C262,15.03,262.377,15.095,262.704,15.177z"/>
<path fill="#FFFFFF" d="M272.374,15.7c0-0.965-0.654-1.848-2.389-1.848c-2.698,0-4.449,2.633-4.449,5.791
	c0,1.832,0.866,2.634,2.731,2.634c1.063,0,2.013-0.18,2.798-0.491v-1.178c-0.703,0.294-1.522,0.475-2.291,0.475
	c-1.309,0-1.749-0.327-1.749-1.587c0-0.294,0.032-0.703,0.081-0.949C270.591,18.416,272.374,17.451,272.374,15.7z M270.918,15.88
	c0,0.981-1.113,1.489-3.631,1.586c0.375-1.374,1.242-2.502,2.534-2.502C270.477,14.964,270.918,15.292,270.918,15.88z"/>
<path fill="#FFFFFF" d="M278.491,13.966c-0.409-0.065-0.818-0.114-1.392-0.114c-2.109,0-3.222,1.08-3.222,2.47
	c0,1.963,2.453,2.175,2.453,3.468c0,0.851-0.719,1.276-1.782,1.276c-0.458,0-0.9-0.082-1.325-0.212l-0.262,1.309
	c0.408,0.082,0.851,0.115,1.391,0.115c2.306,0,3.5-1.292,3.5-2.65c0-1.832-2.47-2.176-2.47-3.468c0-0.687,0.557-1.194,1.619-1.194
	c0.409,0,0.834,0.065,1.228,0.196L278.491,13.966z"/>
<path fill="#FFFFFF" d="M291.903,14.114l-1.357-0.441l-3.174,6.707h-0.017c-0.017-0.523-0.098-1.472-0.18-2.061l-0.589-4.319h-1.521
	l-3.108,6.364h-0.017c0-0.54-0.065-1.276-0.132-2.028l-0.392-4.335h-1.539l0.9,8.13h1.586l3.076-6.249h0.017
	c0.017,0.573,0.065,1.128,0.132,1.636l0.637,4.613h1.652L291.903,14.114z"/>
<path fill="#FFFFFF" d="M298.902,15.7c0-0.965-0.654-1.848-2.389-1.848c-2.699,0-4.45,2.633-4.45,5.791
	c0,1.832,0.868,2.634,2.732,2.634c1.063,0,2.012-0.18,2.798-0.491v-1.178c-0.704,0.294-1.521,0.475-2.29,0.475
	c-1.309,0-1.751-0.327-1.751-1.587c0-0.294,0.032-0.703,0.081-0.949C297.119,18.416,298.902,17.451,298.902,15.7z M297.446,15.88
	c0,0.981-1.112,1.489-3.632,1.586c0.376-1.374,1.243-2.502,2.536-2.502C297.004,14.964,297.446,15.292,297.446,15.88z"/>
<path fill="#FFFFFF" d="M307.423,16.6c0.328-1.701-0.195-2.765-1.7-2.765c-1.702,0-2.994,1.652-3.764,3.37h-0.032
	c0.605-1.783,0.785-2.568,0.917-3.206l0.735-3.812h-1.439l-2.273,11.942h1.439l0.343-1.832c0.377-2.012,2.045-5.202,3.551-5.202
	c0.735,0,0.965,0.556,0.72,1.832l-0.998,5.202h1.439L307.423,16.6z"/>
<path fill="#FFFFFF" d="M314.685,13.852c-1.57-0.262-2.552,1.178-3.468,3.157l-0.033-0.016c0.475-1.423,0.704-2.29,0.835-2.994
	h-1.407l-1.538,8.13h1.44l0.344-1.832c0.426-2.258,2.028-5.448,3.533-5.022L314.685,13.852z"/>
<path fill="#FFFFFF" d="M238.378,55.838c-0.22,0.608-1.133,0.79-1.365,0.319c-0.232-0.469-0.422-0.533-0.793-0.823
	c-0.428-0.333,0.179-0.462,0.179-0.462c-0.092-0.062-0.36-0.196-0.707-0.29c-0.529-0.145-0.457-0.78,0.092-0.803
	c0.744-0.028,1.15,0.071,1.78,0.451c0.399,0.243,0.795,0.34,1.262,0.377c0.587,0.046,0.559,1.308-0.331,1.247L238.378,55.838z"/>
<path fill="#FFFFFF" d="M217.514,69.683l-0.252,0.098c-0.529,0.205-0.829-0.541-0.304-0.758l0.294-0.115l1.585-0.616
	c0.8-0.25,1.303-0.347,2.139-0.4c2.433-0.158,2.826,0.507,4.882,1.355c2.397,0.99,3.686,1.87,6.5,1.831
	c2.907-0.042,6.421-1.785,8.927-3.09c0.499-0.259,0.883,0.351,0.434,0.689c-2.585,1.944-6.761,3.852-10.087,3.854
	c-4.71,0.002-5.562-2.344-9.592-3.355C220.785,68.86,218.757,69.227,217.514,69.683z"/>
<path fill="#FFFFFF" d="M217.417,40.978c-0.295,3.024-0.008,5.894,1.272,8.668c1.125,2.437,1.663,3.341,1.724,6.22
	c0.077,3.676-0.241,5.729-0.551,10.977l0.001,0.251c0,0.507-1.503,0.715-1.759,0.801c-2.181,0.725-4.172,1.925-5.878,3.46
	c-0.418,0.377-0.945-0.124-0.59-0.561c1.383-1.704,2.594-2.663,4.404-3.551c0.269-0.132,1.445-0.72,2.422-1.007
	c0.218-2.985,0.781-11.286,0.225-13.054c-0.404-1.282-1.109-2.426-1.576-3.669c-0.797-2.127-1.247-5.199-1.115-7.478
	c0.129-2.236,0.706-4.382,1.81-6.314c0.279-0.488,0.932-0.184,0.738,0.344C217.861,37.915,217.608,39.016,217.417,40.978z"/>
<path fill="#FFFFFF" d="M225.528,64.263c-0.524,0.524-1.435,1.134-2.55,1.192c-0.556,0.029-0.671-0.643-0.137-0.799
	c0.834-0.246,1.485-0.765,1.926-1.205c0.178-0.179,0.601-0.868,0.976-1.822c0.202-0.515,0.838-0.362,0.786,0.188
	C226.419,63.004,225.911,63.881,225.528,64.263z"/>
<path fill="#FFFFFF" d="M227.676,58.325c-0.08-0.399,0.069-1.174,0.294-1.863c0.176-0.539,0.949-0.29,0.778,0.252
	c-0.261,0.817-0.164,1.229,0.137,1.974c0.111,0.277,0.255,0.549,0.447,0.767c0.377,0.422-0.175,0.956-0.586,0.567
	C228.153,59.46,227.765,58.77,227.676,58.325z"/>
<path fill="#FFFFFF" d="M241.61,47.679c-1.249-0.015-1.983,0.457-2.646,0.923c-0.439,0.31-0.867-0.098-0.58-0.552
	c0.947-1.5,2.56-1.797,4.199-1.659c0.685,0.059,1.452,2.467,0.295,1.742C242.394,47.829,241.985,47.684,241.61,47.679z"/>
<path fill="#FFFFFF" d="M222.374,41.809c-1.023,3.879-0.051,6.808,3.263,9.061c0.145,0.098,0.214,0.356,0.139,0.515
	c-0.393,0.818-0.482,1.685-0.265,2.566c0.13,0.527-0.432,0.776-0.735,0.325c-0.57-0.847-0.786-1.778-0.61-2.777
	c-2.587-1.665-3.796-4.416-3.605-7.487c0.153-2.468,1.506-5.03,3.179-6.8c0.389-0.411,0.964,0.079,0.622,0.528
	C223.286,39.151,222.826,40.092,222.374,41.809z"/>
<path fill="#FFFFFF" d="M238.22,60.903l0.338-0.01c0.158-0.013,0.265-0.045,0.257-0.173c-0.487-1.455,1.191-0.705,1.84-0.553
	c-0.01-1.378-0.055-3.092-0.055-4.191c0-0.767,0.862-1.619,1.196-2.339c0.074-0.159,0.212-0.564,0.374-0.903
	c-1.161,0.419-2.457-0.155-3.239-1.067c-0.358-0.42,0.071-0.91,0.533-0.608c0.957,0.624,1.895,0.928,2.82,0.132
	c0.397-0.175,0.656-0.084,0.872,0.084l0.2,0.169c0.442-0.634,0.399-1.418,0.181-2.041c-0.285-0.809-0.659-1.238-1.42-1.631
	l-1.983-3.425c-0.614-1.18-0.107-2.856-1.423-4.126c-0.295-0.285-1.035-0.581-1.134-0.791c-0.458-0.97-1.645-2.834-2.644-3.443
	c-1.219-0.742-3.78-0.927-5.188-0.831c-0.565,0.039-0.653-0.719-0.095-0.811c0.828-0.136,1.672-0.211,2.512-0.199
	c-0.109-0.605-0.233-3.168,0.204-3.605l0.807-0.806l-0.475-0.285l-1.669-0.371l-2.713-0.194c-0.562-0.04-0.563-0.773-0.002-0.814
	c0,0,1.618-0.274,2.651-0.197c0.819,0.062,1.328,0.06,2.066,0.403c0.89,0.414,2.111,1.104,0.606,2.442l-0.303,0.379
	c-0.157,1.026-0.091,2.096,0.218,3.088c2.347,0.4,3.952,2.226,4.985,4.265c1.956,0.905,2.801,3.315,2.829,5.347
	c0.508,1.019,1.042,2.077,1.711,2.999c0.869,0.394,1.531,1.533,1.646,1.944c0.274,0.975,0.533,3.412-0.665,3.988
	c-0.092,0.044-0.19,0.08-0.295,0.113c-0.272,0.181-0.407,0.293-0.554,0.362c-0.35,0.781-0.739,1.46-1.215,2.182
	c-0.139,0.21-0.411,0.607-0.411,0.871c0,1.794,0.053,3.163,0.113,4.577c0.032,0.758-1.156,0.289-1.914,0.143
	c-0.089,0.206-0.152,0.338-0.252,0.515c0.006,0.526-0.266,1.062-0.686,1.377c-0.026,0.239,0.186,0.73,0.186,1.046
	c0,0.432-0.191,0.769-0.428,1.047c1.7,0.901,2.753,0.539,4.616,0.809c3.081,0.445,5.197,3.175,6.638,5.706l0.341,1.695
	c0.103,0.551-0.579,0.745-0.782,0.223c-0.968-2.482-2.832-5.074-5.362-6.14c-1.666-0.7-1.95-0.482-3.531-0.549
	c-1.287-0.052-1.774-0.764-2.922-0.863c-0.633-0.056-1.24-0.178-1.842-0.345c-0.062,0.12-0.146,0.257-0.213,0.422
	c-0.203,0.492-0.13,1.768-0.13,2.287c0,0.563-0.726,0.62-0.812,0.064c-0.196-1.261-0.405-1.716-0.198-3.029
	c-1.28-0.433-2.099-1.053-2.986-1.915c-0.286-0.277-0.579-0.579-0.896-0.908c-0.384-0.455,0.191-0.976,0.587-0.568
	c0.276,0.328,0.531,0.591,0.828,0.847c0.244,0.209,0.515,0.413,0.84,0.63c0.924,0.62,1.541,0.891,2.586,1.154l1.501,0.221
	c1.229,0.16,1.282-1.336,0.946-1.953c-0.127-0.233,0.078-0.545,0.265-0.773c-0.676-0.118-1.355-0.311-1.933-0.66
	c-0.479-0.29-0.18-0.922,0.349-0.734C237.053,60.781,237.626,60.888,238.22,60.903z"/>
<path fill="#FFFFFF" d="M236.839,44.598c-1.138,0.307-1.758,0.546-2.805,1.085c-0.501,0.258-0.883-0.363-0.428-0.693
	c1.609-1.169,3.43-1.709,5.404-1.613c0.562,0.027,0.583,0.755,0.023,0.814C238.168,44.281,237.68,44.372,236.839,44.598z"/>
<path fill="#FFFFFF" d="M227.564,51.801c0.723-0.91,1.227-1.954,1.507-3.08c0.118-0.476,0.581-0.512,0.772-0.062
	c0.294,0.693,0.909,1.122,1.658,1.16c0.56,0.028,0.592,0.732,0.037,0.812c-0.591,0.084-1.225,0.038-1.791-0.161
	c-0.595,1.4-1.592,2.624-2.995,3.263c-0.506,0.229-0.859-0.343-0.426-0.69C226.865,52.612,227.137,52.34,227.564,51.801z"/>
</svg>
