<?xml version="1.0" encoding="utf-8"?>
<!-- Generator: Adobe Illustrator 18.0.0, SVG Export Plug-In . SVG Version: 6.00 Build 0)  -->
<!DOCTYPE svg PUBLIC "-//W3C//DTD SVG 1.1//EN" "http://www.w3.org/Graphics/SVG/1.1/DTD/svg11.dtd">
<svg version="1.1"
	 id="svg2" xmlns:svg="http://www.w3.org/2000/svg" xmlns:dc="http://purl.org/dc/elements/1.1/" xmlns:cc="http://creativecommons.org/ns#" xmlns:sodipodi="http://sodipodi.sourceforge.net/DTD/sodipodi-0.dtd" xmlns:rdf="http://www.w3.org/1999/02/22-rdf-syntax-ns#" xmlns:inkscape="http://www.inkscape.org/namespaces/inkscape" sodipodi:docname="AJAX.svg" inkscape:version="0.48.1 "
	 xmlns="http://www.w3.org/2000/svg" xmlns:xlink="http://www.w3.org/1999/xlink" x="0px" y="0px" width="94.7px" height="15.6px"
	 viewBox="0 0 94.7 15.6" enable-background="new 0 0 94.7 15.6" xml:space="preserve">
<sodipodi:namedview  id="namedview94" inkscape:window-y="-8" inkscape:window-maximized="1" inkscape:pageopacity="0" inkscape:window-height="1004" inkscape:window-x="-8" fit-margin-right="0" fit-margin-bottom="0" inkscape:pageshadow="2" inkscape:current-layer="g4" inkscape:window-width="1280" showgrid="false" inkscape:zoom="7.3051601" borderopacity="1" fit-margin-top="0" inkscape:cy="-8.5691635" gridtolerance="10" pagecolor="#ffffff" guidetolerance="10" inkscape:cx="70.040333" objecttolerance="10" fit-margin-left="0" bordercolor="#666666">
	</sodipodi:namedview>
<g id="g4" transform="translate(-0.25,-0.192)">
	<path id="path50" inkscape:connector-curvature="0" fill="#FFFFFF" d="M76.9,5.1c0.5-0.7,1-1.3,1.6-1.9c0.6-0.6,1.2-1.2,1.9-1.7
		l-0.7,2.8"/>
	<path id="path52" inkscape:connector-curvature="0" fill="#FFFFFF" d="M81.8,6.3c-0.8-0.1-1.6-0.2-2.5-0.4
		c-0.8-0.2-1.6-0.5-2.4-0.8l2.8-0.8"/>
	<path id="path54" inkscape:connector-curvature="0" fill="#FFFFFF" d="M80.4,1.5c0.3,0.7,0.6,1.5,0.9,2.3c0.2,0.8,0.4,1.6,0.5,2.4
		l-2.1-2"/>
	<path id="path56" inkscape:connector-curvature="0" fill="#FFFFFF" d="M76,10.9c-0.5-0.7-0.9-1.4-1.3-2.1c-0.4-0.7-0.7-1.5-1-2.3
		L76.1,8"/>
	<path id="path58" inkscape:connector-curvature="0" fill="#FFFFFF" d="M78.6,6.6c-0.3,0.7-0.7,1.5-1.2,2.2c-0.4,0.7-0.9,1.4-1.5,2
		L76.1,8"/>
	<path id="path60" inkscape:connector-curvature="0" fill="#FFFFFF" d="M73.6,6.5c0.8-0.1,1.6-0.1,2.5-0.1c0.8,0,1.7,0.1,2.5,0.3
		L76.1,8"/>
	<path id="path62" inkscape:connector-curvature="0" fill="#FFFFFF" d="M81.1,13.6c-0.8,0.3-1.6,0.5-2.4,0.6
		c-0.8,0.1-1.7,0.2-2.5,0.3l2.2-1.8"/>
	<path id="path64" inkscape:connector-curvature="0" fill="#FFFFFF" d="M77.9,9.8c0.6,0.5,1.2,1.1,1.7,1.8c0.5,0.6,1,1.3,1.5,2
		l-2.7-1"/>
	<path id="path66" inkscape:connector-curvature="0" fill="#FFFFFF" d="M76.2,14.4c0.2-0.8,0.4-1.6,0.7-2.4c0.3-0.8,0.6-1.6,1-2.3
		l0.5,2.8"/>
	<path id="path68" inkscape:connector-curvature="0" fill="#FFFFFF" d="M85.3,9.5c0,0.8-0.1,1.7-0.2,2.5c-0.1,0.8-0.3,1.7-0.5,2.4
		l-1.1-2.7"/>
	<path id="path70" inkscape:connector-curvature="0" fill="#FFFFFF" d="M80.7,11.4c0.7-0.4,1.5-0.8,2.2-1.1c0.8-0.3,1.6-0.6,2.4-0.8
		l-1.8,2.3"/>
	<path id="path72" inkscape:connector-curvature="0" fill="#FFFFFF" d="M84.6,14.4c-0.7-0.4-1.4-0.9-2.1-1.4
		c-0.7-0.5-1.3-1.1-1.9-1.7l2.8,0.4"/>
	<path id="path74" inkscape:connector-curvature="0" fill="#FFFFFF" d="M82.7,4.3c0.8,0.3,1.6,0.6,2.3,0.9c0.8,0.4,1.5,0.8,2.2,1.3
		l-2.9,0.2"/>
	<path id="path76" inkscape:connector-curvature="0" fill="#FFFFFF" d="M83,9.3c-0.2-0.8-0.3-1.6-0.4-2.5c-0.1-0.8-0.1-1.7,0-2.5
		l1.6,2.4"/>
	<path id="path78" inkscape:connector-curvature="0" fill="#FFFFFF" d="M87.2,6.5c-0.6,0.6-1.3,1.1-2,1.5c-0.7,0.5-1.4,0.9-2.2,1.2
		l1.3-2.6"/>
	<g id="g80">
		<g>
			<path id="path88" inkscape:connector-curvature="0" fill="#FFFFFF" d="M8.9,9.5c0,0.5,0.1,0.8,0.4,1.1c0.4,0.4,1,0.5,1.8,0.5
				c0.4,0,2-0.1,2-1.4c0-1.1-1-1.2-1.9-1.3l0,0c-0.9-0.1-1.6-0.2-1.6-0.8C9.5,7.3,9.7,7,10,6.9c0.3-0.2,0.7-0.2,1.1-0.2
				c0.3,0,0.8,0,1.1,0.3c0.1,0.1,0.2,0.4,0.2,0.6l0.5,0c0-0.3-0.1-0.7-0.3-0.9c-0.4-0.4-1-0.5-1.5-0.5c-0.7,0-1.3,0.1-1.7,0.5
				C9.1,7,9,7.3,9,7.6c0,1.1,1.1,1.2,2,1.3c0.4,0,0.8,0.1,1.1,0.2c0.3,0.1,0.4,0.4,0.4,0.7c0,0.2-0.1,0.4-0.2,0.5
				c-0.3,0.3-1,0.4-1.3,0.4c-0.6,0-1.1-0.1-1.4-0.4c-0.2-0.2-0.3-0.4-0.3-0.8 M13.8,6.4v0.5h1.8V11H16V6.8h1.8V6.4H13.8z M20.1,6.4
				L18,11h0.5c0,0,0.6-1.3,0.7-1.4h2.3c0,0.1,0.6,1.4,0.6,1.4h0.5l-2.1-4.6C20.5,6.4,20.1,6.4,20.1,6.4z M20.3,7
				c0.1,0.3,0.9,1.9,1,2.1h-1.9C19.4,8.9,20.2,7.3,20.3,7 M24,6.4V11h0.5V9h1.9c0.8,0,1,0.2,1,0.9c0,0.8,0.1,1,0.2,1.1l0,0H28
				L28,10.8c-0.1-0.1-0.1-0.4-0.1-1.2c0-0.5-0.3-0.8-0.7-0.9c0.5-0.2,0.7-0.7,0.7-1.1c0-0.9-0.5-1.3-1.6-1.3C26.3,6.4,24,6.4,24,6.4
				z M26.4,6.8c0.7,0,1.1,0.3,1.1,0.8c0,0.6-0.4,0.9-1.2,0.9h-1.8V6.8C24.5,6.8,26.4,6.8,26.4,6.8z M33.4,6.4L31.3,11h0.5
				c0,0,0.6-1.3,0.6-1.4h2.3c0,0.1,0.7,1.4,0.7,1.4H36l-2.1-4.6C33.9,6.4,33.4,6.4,33.4,6.4z M33.6,7c0.1,0.3,0.9,1.9,1,2.1h-1.9
				C32.8,8.9,33.5,7.3,33.6,7 M50.2,6.4L48.1,11h0.5c0,0,0.6-1.3,0.6-1.4h2.3c0,0.1,0.7,1.4,0.7,1.4h0.5l-2.1-4.6H50.2z M50.4,7
				c0.1,0.3,0.9,1.9,1,2.1h-1.9C49.6,8.9,50.3,7.3,50.4,7 M37.5,6.4V11h3.3v-0.5h-2.8V6.4H37.5z M41.8,6.4V11h3.3v-0.5h-2.8V6.4
				H41.8z M46.1,11h0.5V6.4h-0.5V11z M57.9,6.4v3.9c-0.3-0.4-3.3-3.9-3.3-3.9h-0.5V11h0.5V7.1c0.3,0.4,3.3,3.9,3.3,3.9h0.5V6.4H57.9
				z M66.2,6.4V11h3.7v-0.5h-3.2V8.8h3.1V8.4h-3.1V6.8h3.2V6.4C69.9,6.4,66.2,6.4,66.2,6.4z M59.9,8.7c0,1.5,1,2.4,2.5,2.4
				c1.4,0,2.2-0.9,2.3-1.9l0-0.1h-0.5l0,0.1c-0.2,0.9-0.9,1.4-1.8,1.4c-1.4,0-2-1-2-2c0-1.2,0.8-2,2-2c0.9,0,1.6,0.4,1.7,1.2l0,0.1
				h0.5l0-0.1c-0.2-1-1-1.6-2.2-1.6C60.7,6.3,59.9,7.5,59.9,8.7"/>
		</g>
	</g>
</g>
</svg>
