<?xml version="1.0" encoding="utf-8"?>
<!-- Generator: Adobe Illustrator 15.1.0, SVG Export Plug-In . SVG Version: 6.00 Build 0)  -->
<!DOCTYPE svg PUBLIC "-//W3C//DTD SVG 1.1//EN" "http://www.w3.org/Graphics/SVG/1.1/DTD/svg11.dtd">
<svg version="1.1" id="Layer_1" xmlns="http://www.w3.org/2000/svg" xmlns:xlink="http://www.w3.org/1999/xlink" x="0px" y="0px"
	 width="192px" height="85px" viewBox="0 0 192 85" enable-background="new 0 0 192 85" xml:space="preserve">
<path fill="#FFFFFF" d="M46.746,19.988c0.914,0,1.407,0.723,1.407,1.405c0,0.684-0.494,1.407-1.407,1.407H36.636v23.268
	c0,0.912-0.725,1.406-1.407,1.406s-1.406-0.494-1.406-1.406V22.8h-9.715c-0.914,0-1.407-0.723-1.407-1.407
	c0-0.682,0.493-1.405,1.407-1.405H46.746z M93.945,20.104c7.571,0,13.731,6.159,13.731,13.73s-6.16,13.73-13.731,13.73
	c-7.571,0-13.731-6.159-13.731-13.73S86.375,20.104,93.945,20.104z M93.945,44.75c6.021,0,10.917-4.897,10.917-10.916
	c0-6.021-4.896-10.917-10.917-10.917c-6.021,0-10.917,4.897-10.917,10.917C83.028,39.853,87.924,44.75,93.945,44.75z
	 M127.366,34.504l7.399,10.747c0.187,0.273,0.268,0.549,0.268,0.809c0,0.471-0.262,0.892-0.631,1.145
	c-0.575,0.397-1.432,0.4-1.953-0.356l-8.46-12.284l-8.712,0.006V46.05c0,0.913-0.727,1.406-1.407,1.406s-1.407-0.493-1.407-1.406
	V21.225c0-0.763,0.644-1.408,1.407-1.408h12.21c2.346-0.033,4.454,0.751,5.935,2.211c1.369,1.35,2.095,3.185,2.095,5.304
	C134.109,31.787,130.678,34.133,127.366,34.504z M131.295,27.332c0-1.346-0.444-2.495-1.288-3.32
	c-0.938-0.921-2.324-1.411-3.906-1.38h-10.823l-0.005,9.118l9.274,0.003l0.376-0.003h1.288l0.815-0.061
	C128.976,31.424,131.295,30.456,131.295,27.332z M162.909,20.213c0.681,0,1.406,0.494,1.406,1.406v24.26
	c0,0.698-0.329,1.255-0.861,1.454c-0.531,0.2-1.146-0.003-1.604-0.527l-18.968-21.668V46.05c0,0.912-0.726,1.406-1.406,1.406
	c-0.682,0-1.407-0.494-1.407-1.406V21.394c0-0.697,0.33-1.253,0.861-1.454c0.531-0.2,1.146,0.003,1.604,0.528l18.967,21.668V21.619
	C161.501,20.707,162.227,20.213,162.909,20.213z M73.925,19.987c0.682,0,1.408,0.492,1.408,1.406v24.675
	c0,0.912-0.726,1.406-1.408,1.406c-0.681,0-1.407-0.494-1.407-1.406v-11.55H54.336v11.551c0,0.912-0.725,1.406-1.406,1.406
	c-0.682,0-1.406-0.494-1.406-1.406V21.394c0-0.914,0.724-1.406,1.406-1.406c0.681,0,1.406,0.492,1.406,1.406v10.311h18.183V21.394
	C72.519,20.479,73.245,19.987,73.925,19.987z"/>
<g>
	<path fill="#FFFFFF" d="M27.188,67.443V58.54c0-0.312,0.257-0.569,0.556-0.569c0.314,0,0.57,0.257,0.57,0.569v8.433h5.17
		c0.286,0,0.513,0.242,0.513,0.527c0,0.286-0.227,0.513-0.513,0.513h-5.74C27.444,68.013,27.188,67.757,27.188,67.443z
		 M36.503,67.515V58.54c0-0.312,0.257-0.569,0.557-0.569c0.313,0,0.569,0.257,0.569,0.569v8.975c0,0.313-0.257,0.568-0.569,0.568
		C36.759,68.084,36.503,67.828,36.503,67.515z M45.577,68.184c-3.134,0-5.071-2.278-5.071-5.128c0-2.763,2.008-5.185,5-5.185
		c1.51,0,2.494,0.398,3.405,1.067c0.128,0.1,0.228,0.258,0.228,0.456c0,0.313-0.256,0.569-0.556,0.569
		c-0.127,0-0.242-0.057-0.356-0.142c-0.712-0.54-1.51-0.911-2.764-0.911c-2.208,0-3.79,1.866-3.79,4.087
		c0,2.408,1.525,4.175,3.946,4.175c1.139,0,2.193-0.441,2.876-0.997v-2.479h-2.678c-0.27,0-0.499-0.229-0.499-0.5
		c0-0.283,0.229-0.513,0.499-0.513h3.206c0.299,0,0.556,0.258,0.556,0.571v3.033c0,0.271-0.128,0.513-0.385,0.684
		C48.283,67.643,47.058,68.184,45.577,68.184z M52.514,67.515V58.54c0-0.312,0.257-0.569,0.555-0.569c0.313,0,0.57,0.257,0.57,0.569
		v3.932h5.755V58.54c0-0.312,0.257-0.569,0.569-0.569c0.299,0,0.556,0.257,0.556,0.569v8.975c0,0.313-0.257,0.568-0.556,0.568
		c-0.313,0-0.569-0.257-0.569-0.568v-3.988h-5.755v3.988c0,0.313-0.257,0.568-0.57,0.568C52.771,68.084,52.514,67.828,52.514,67.515
		z M66.372,67.515v-8.433h-2.891c-0.285,0-0.527-0.227-0.527-0.513s0.242-0.527,0.527-0.527h6.923c0.285,0,0.527,0.241,0.527,0.527
		s-0.242,0.513-0.527,0.513h-2.892v8.433c0,0.313-0.257,0.569-0.569,0.569C66.629,68.084,66.372,67.828,66.372,67.515z
		 M73.467,67.515V58.54c0-0.312,0.257-0.569,0.555-0.569c0.314,0,0.57,0.257,0.57,0.569v8.975c0,0.313-0.257,0.568-0.57,0.568
		C73.724,68.084,73.467,67.828,73.467,67.515z M77.91,67.529v-8.975c0-0.299,0.257-0.557,0.556-0.557h0.156
		c0.257,0,0.413,0.129,0.569,0.329l6.054,7.72v-7.521c0-0.298,0.242-0.555,0.557-0.555c0.298,0,0.54,0.257,0.54,0.555v9.004
		c0,0.299-0.213,0.525-0.512,0.525c-0.299,0-0.47-0.142-0.641-0.34l-6.183-7.907v7.723c0,0.298-0.242,0.555-0.555,0.555
		C78.152,68.084,77.91,67.828,77.91,67.529z M94.192,68.184c-3.134,0-5.072-2.278-5.072-5.128c0-2.763,2.009-5.185,5-5.185
		c1.509,0,2.493,0.398,3.405,1.067c0.128,0.1,0.227,0.258,0.227,0.456c0,0.313-0.256,0.569-0.556,0.569
		c-0.127,0-0.242-0.057-0.355-0.142c-0.712-0.54-1.51-0.911-2.765-0.911c-2.208,0-3.788,1.866-3.788,4.087
		c0,2.408,1.524,4.175,3.945,4.175c1.14,0,2.193-0.441,2.876-0.997v-2.479h-2.677c-0.271,0-0.499-0.229-0.499-0.5
		c0-0.283,0.227-0.513,0.499-0.513h3.206c0.299,0,0.555,0.258,0.555,0.571v3.033c0,0.271-0.127,0.513-0.384,0.684
		C96.897,67.643,95.673,68.184,94.192,68.184z M105.8,67.515v-8.903c0-0.313,0.256-0.569,0.556-0.569h3.176
		c2.252,0,3.733,1.196,3.733,3.162c0,2.179-1.795,3.29-3.917,3.29h-2.422v3.021c0,0.313-0.257,0.568-0.569,0.568
		C106.056,68.084,105.8,67.828,105.8,67.515z M106.926,63.469h2.464c1.652,0,2.735-0.883,2.735-2.193
		c0-1.453-1.069-2.193-2.679-2.193h-2.521V63.469L106.926,63.469z M116.27,68.013c-0.299,0-0.556-0.256-0.556-0.569v-8.832
		c0-0.313,0.257-0.569,0.556-0.569h6.196c0.285,0,0.513,0.228,0.513,0.513s-0.228,0.513-0.513,0.513h-5.627v3.404h4.986
		c0.285,0,0.513,0.242,0.513,0.513c0,0.286-0.228,0.514-0.513,0.514h-4.986v3.489h5.698c0.285,0,0.513,0.228,0.513,0.513
		c0,0.286-0.228,0.513-0.513,0.513H116.27z M130.285,68.184c-3.033,0-5.07-2.378-5.07-5.128c0-2.777,2.065-5.185,5.1-5.185
		c3.035,0,5.072,2.379,5.072,5.128C135.385,65.776,133.32,68.184,130.285,68.184z M130.314,67.144c2.278,0,3.902-1.822,3.902-4.088
		c0-2.293-1.651-4.145-3.932-4.145c-2.278,0-3.902,1.822-3.902,4.087C126.383,65.293,128.035,67.144,130.314,67.144z
		 M138.163,67.515v-8.903c0-0.313,0.257-0.569,0.556-0.569h3.178c2.25,0,3.732,1.196,3.732,3.162c0,2.179-1.796,3.29-3.918,3.29
		h-2.423v3.021c0,0.313-0.257,0.568-0.568,0.568C138.419,68.084,138.163,67.828,138.163,67.515z M139.287,63.469h2.465
		c1.652,0,2.734-0.883,2.734-2.193c0-1.453-1.067-2.193-2.677-2.193h-2.522V63.469z M148.077,67.443V58.54
		c0-0.312,0.256-0.569,0.555-0.569c0.312,0,0.569,0.257,0.569,0.569v8.433h5.172c0.285,0,0.513,0.242,0.513,0.527
		c0,0.286-0.228,0.513-0.513,0.513h-5.741C148.333,68.013,148.077,67.757,148.077,67.443z M157.848,68.013
		c-0.299,0-0.556-0.256-0.556-0.569v-8.832c0-0.313,0.257-0.569,0.556-0.569h6.196c0.286,0,0.513,0.228,0.513,0.513
		s-0.227,0.513-0.513,0.513h-5.627v3.404h4.987c0.285,0,0.513,0.242,0.513,0.513c0,0.286-0.228,0.514-0.513,0.514h-4.987v3.489
		h5.698c0.285,0,0.513,0.228,0.513,0.513c0,0.286-0.228,0.513-0.513,0.513H157.848z"/>
	<g>
		<path fill="#FFFFFF" d="M27.188,67.443c0,0.313,0.257,0.569,0.556,0.569h5.74c0.286,0,0.513-0.227,0.513-0.513
			c0-0.285-0.227-0.527-0.513-0.527h-5.17V58.54c0-0.312-0.257-0.569-0.57-0.569c-0.299,0-0.556,0.257-0.556,0.569V67.443z"/>
	</g>
	<g>
		<path fill="#FFFFFF" d="M36.503,67.515c0,0.313,0.257,0.569,0.557,0.569c0.313,0,0.569-0.256,0.569-0.569V58.54
			c0-0.312-0.257-0.569-0.569-0.569c-0.3,0-0.557,0.257-0.557,0.569V67.515z"/>
	</g>
	<g>
		<path fill="#FFFFFF" d="M45.577,68.184c1.481,0,2.707-0.541,3.618-1.211c0.257-0.171,0.385-0.412,0.385-0.684v-3.033
			c0-0.313-0.257-0.571-0.556-0.571h-3.206c-0.27,0-0.498,0.229-0.498,0.513c0,0.271,0.228,0.5,0.498,0.5h2.678v2.479
			c-0.684,0.556-1.737,0.997-2.876,0.997c-2.422,0-3.946-1.767-3.946-4.146v-0.028c0-2.222,1.582-4.088,3.79-4.088
			c1.253,0,2.051,0.371,2.764,0.912c0.114,0.086,0.228,0.142,0.355,0.142c0.3,0,0.557-0.257,0.557-0.568
			c0-0.198-0.1-0.357-0.228-0.457c-0.912-0.67-1.895-1.067-3.405-1.067c-2.992,0-5,2.423-5,5.157v0.027
			C40.505,65.905,42.442,68.184,45.577,68.184z"/>
	</g>
	<g>
		<path fill="#FFFFFF" d="M52.514,67.515c0,0.313,0.257,0.569,0.555,0.569c0.313,0,0.57-0.256,0.57-0.569v-3.988h5.755v3.988
			c0,0.313,0.257,0.569,0.569,0.569c0.299,0,0.556-0.256,0.556-0.569V58.54c0-0.312-0.257-0.569-0.556-0.569
			c-0.313,0-0.569,0.257-0.569,0.569v3.932h-5.755V58.54c0-0.312-0.257-0.569-0.57-0.569c-0.298,0-0.555,0.257-0.555,0.569V67.515z"
			/>
	</g>
	<g>
		<path fill="#FFFFFF" d="M66.372,67.515c0,0.313,0.257,0.569,0.57,0.569c0.313,0,0.569-0.256,0.569-0.569v-8.433h2.892
			c0.285,0,0.527-0.227,0.527-0.513s-0.242-0.527-0.527-0.527h-6.922c-0.285,0-0.527,0.241-0.527,0.527s0.242,0.513,0.527,0.513
			h2.891V67.515z"/>
	</g>
	<g>
		<path fill="#FFFFFF" d="M73.467,67.515c0,0.313,0.257,0.569,0.555,0.569c0.314,0,0.57-0.256,0.57-0.569V58.54
			c0-0.312-0.257-0.569-0.57-0.569c-0.298,0-0.555,0.257-0.555,0.569V67.515z"/>
	</g>
	<g>
		<path fill="#FFFFFF" d="M77.91,67.529c0,0.299,0.243,0.555,0.542,0.555c0.312,0,0.555-0.256,0.555-0.555v-7.722l6.183,7.907
			c0.171,0.197,0.342,0.34,0.584,0.34h0.057c0.299,0,0.512-0.227,0.512-0.526v-9.003c0-0.298-0.242-0.555-0.54-0.555
			c-0.314,0-0.557,0.257-0.557,0.555v7.521l-6.054-7.72c-0.156-0.2-0.313-0.329-0.569-0.329h-0.156
			c-0.299,0-0.556,0.258-0.556,0.557V67.529L77.91,67.529z"/>
	</g>
	<g>
		<path fill="#FFFFFF" d="M94.192,68.184c1.481,0,2.706-0.541,3.619-1.211c0.256-0.171,0.384-0.412,0.384-0.684v-3.033
			c0-0.313-0.257-0.571-0.555-0.571h-3.206c-0.271,0-0.499,0.229-0.499,0.513c0,0.271,0.227,0.5,0.499,0.5h2.678v2.479
			c-0.683,0.556-1.737,0.997-2.877,0.997c-2.422,0-3.945-1.767-3.945-4.146v-0.028c0-2.222,1.581-4.088,3.788-4.088
			c1.254,0,2.051,0.371,2.765,0.912c0.113,0.086,0.228,0.142,0.354,0.142c0.3,0,0.557-0.257,0.557-0.568
			c0-0.198-0.1-0.357-0.228-0.457c-0.911-0.67-1.895-1.067-3.404-1.067c-2.991,0-5,2.423-5,5.157v0.027
			C89.12,65.905,91.058,68.184,94.192,68.184z"/>
	</g>
	<g>
		<path fill="#FFFFFF" d="M105.8,67.515c0,0.313,0.256,0.569,0.556,0.569c0.313,0,0.57-0.256,0.57-0.569v-3.021h2.421
			c2.122,0,3.917-1.111,3.917-3.261v-0.029c0-1.966-1.48-3.162-3.733-3.162h-3.176c-0.299,0-0.557,0.256-0.557,0.569v8.903H105.8z
			 M106.926,63.469v-4.387h2.521c1.61,0,2.679,0.74,2.679,2.164v0.029c0,1.311-1.083,2.193-2.734,2.193H106.926z"/>
	</g>
	<g>
		<path fill="#FFFFFF" d="M116.27,68.013h6.268c0.285,0,0.513-0.227,0.513-0.513c0-0.285-0.228-0.513-0.513-0.513h-5.698v-3.489
			h4.986c0.285,0,0.513-0.228,0.513-0.514c0-0.271-0.228-0.513-0.513-0.513h-4.986v-3.404h5.627c0.285,0,0.513-0.228,0.513-0.513
			s-0.228-0.513-0.513-0.513h-6.196c-0.299,0-0.556,0.256-0.556,0.569v8.832C115.714,67.757,115.971,68.013,116.27,68.013z"/>
	</g>
	<g>
		<path fill="#FFFFFF" d="M130.285,68.184c3.035,0,5.102-2.407,5.102-5.155v-0.029c0-2.749-2.037-5.128-5.072-5.128
			c-3.034,0-5.1,2.407-5.1,5.157v0.027C125.215,65.806,127.252,68.184,130.285,68.184z M130.314,67.144
			c-2.279,0-3.932-1.851-3.932-4.115v-0.029c0-2.266,1.624-4.088,3.902-4.088c2.28,0,3.932,1.852,3.932,4.117v0.027
			C134.217,65.321,132.593,67.144,130.314,67.144z"/>
	</g>
	<g>
		<path fill="#FFFFFF" d="M138.163,67.515c0,0.313,0.257,0.569,0.556,0.569c0.312,0,0.568-0.256,0.568-0.569v-3.021h2.423
			c2.122,0,3.917-1.111,3.917-3.261v-0.029c0-1.966-1.482-3.162-3.731-3.162h-3.177c-0.3,0-0.557,0.256-0.557,0.569L138.163,67.515
			L138.163,67.515z M139.287,63.469v-4.387h2.522c1.609,0,2.677,0.74,2.677,2.164v0.029c0,1.311-1.082,2.193-2.734,2.193H139.287z"
			/>
	</g>
	<g>
		<path fill="#FFFFFF" d="M148.077,67.443c0,0.313,0.256,0.569,0.555,0.569h5.741c0.285,0,0.513-0.227,0.513-0.513
			c0-0.285-0.228-0.527-0.513-0.527h-5.172V58.54c0-0.312-0.257-0.569-0.569-0.569c-0.299,0-0.555,0.257-0.555,0.569V67.443z"/>
	</g>
	<g>
		<path fill="#FFFFFF" d="M157.848,68.013h6.268c0.285,0,0.513-0.227,0.513-0.513c0-0.285-0.228-0.513-0.513-0.513h-5.698v-3.489
			h4.987c0.285,0,0.513-0.228,0.513-0.514c0-0.271-0.228-0.513-0.513-0.513h-4.987v-3.404h5.627c0.286,0,0.513-0.228,0.513-0.513
			s-0.227-0.513-0.513-0.513h-6.196c-0.299,0-0.556,0.256-0.556,0.569v8.832C157.293,67.757,157.549,68.013,157.848,68.013z"/>
	</g>
</g>
</svg>
