<?xml version="1.0" encoding="utf-8"?>
<!-- Generator: Adobe Illustrator 19.2.1, SVG Export Plug-In . SVG Version: 6.00 Build 0)  -->
<svg version="1.1"
	 id="svg2" xmlns:cc="http://creativecommons.org/ns#" xmlns:dc="http://purl.org/dc/elements/1.1/" xmlns:rdf="http://www.w3.org/1999/02/22-rdf-syntax-ns#" xmlns:svg="http://www.w3.org/2000/svg"
	 xmlns="http://www.w3.org/2000/svg" xmlns:xlink="http://www.w3.org/1999/xlink" x="0px" y="0px" viewBox="0 0 272.1 79.4"
	 style="enable-background:new 0 0 272.1 79.4;" xml:space="preserve">
<style type="text/css">
	.st0{fill:#FFFFFF;}
</style>
<g id="g10" transform="matrix(1.3333333,0,0,-1.3333333,0,79.373333)">
	<g id="g12" transform="scale(0.1)">
		<g id="g14">
			<g>
				<g id="g16">
					<path id="path24" class="st0" d="M876.4,452.5c-73.2,0-131-50.2-142.4-119.4v83.8c0,21.6-9.3,30.8-30.8,30.8h-72.6v-109
						L568.5,423c-13.5,17.9-26.8,24.7-49.3,24.7H198.4v-74.3c0-21.2,9.1-30.4,30.3-30.4h48V198.9c0-21.5,9.2-30.8,30.8-30.8h78.6
						v174.9h66.3V198.9c0-21.5,9.3-30.8,30.8-30.8h72.6v109l61.9-84.4c13.5-17.9,26.8-24.7,49.3-24.7H734v113.6
						c11.3-70,67.5-118.4,142.4-118.4c81.9,0,144.6,62.7,144.6,144.6C1021,391.8,960.3,452.5,876.4,452.5 M876.4,264.8
						c-23.8,0-43.1,19.3-43.1,43.1c0,23.8,19.3,43.1,43.1,43.1c23.8,0,43.1-19.3,43.1-43.1C919.5,284.1,900.2,264.8,876.4,264.8"/>
					<path id="path26" class="st0" d="M1140.2,287.3c-5.3,1.2-11,1.5-17,1.5c-19.3,0-28.2-9.9-28.2-31v-1.7h-14.6v-13.5h14.6v-74.5
						h19.3v74.5h21.1v13.5H1114v2.4c0,10.8,4.3,15.6,14.6,15.6c2.9,0,6.7-0.4,11.6-1.2L1140.2,287.3z M1185.6,258.5
						c-24.8,0-41.9-18.1-41.9-46.4c0-28.2,16.9-46.4,41.9-46.4c25,0,42.1,18.1,42.1,46.4C1227.7,240.4,1210.6,258.5,1185.6,258.5
						 M1185.6,244.1c12.8,0,21.1-11.5,21.1-32c0-20.5-8.2-31.9-21.1-31.9c-13,0-20.9,11.2-20.9,31.9
						C1164.7,232.9,1172.5,244.1,1185.6,244.1 M1291.2,258.3c-1.7,0.2-3.2,0.2-4.6,0.2c-12.3,0-20.4-7-24.8-21.4l0,19h-18v-88h19.7
						v43.7c0,17.3,9.3,27.8,23.5,27.8c0.8,0,2.4,0,4.3-0.2L1291.2,258.3z M1342.5,168.1h20v118.8h-20V168.1z M1390.9,270.5h20v16.4
						h-20V270.5z M1390.9,168.1h20v88h-20V168.1z M1486.6,287.3c-5.3,1.2-11,1.5-17,1.5c-19.3,0-28.2-9.9-28.2-31v-1.7h-14.6v-13.5
						h14.6v-74.5h19.3v74.5h21.1v13.5h-21.4v2.4c0,10.8,4.3,15.6,14.6,15.6c2.9,0,6.7-0.4,11.6-1.2V287.3z M1506.9,209.2h63v3.1
						c0,28.6-16.4,46.2-41.9,46.2c-25,0-42.1-18.7-42.1-46.6c0-27.9,16.9-46.2,42.6-46.2c20,0,34.2,9.8,40.6,27.7l-19,2.1
						c-3.2-9.6-11-14.9-20.6-14.9c-13.9,0-22.6,10.1-22.6,28.1L1506.9,209.2z M1507.3,221.5c1.2,14.7,9.2,23,20.7,23
						c13,0,20.6-7.9,21.1-23H1507.3"/>
					<path id="path28" class="st0" d="M1088.5,431.9h20v16.4h-20V431.9z M1088.5,329.5h20v88h-20V329.5z M1139.6,417.5v-88h19.3
						v50.3c0,15.2,8.9,25,20.4,25c9.6,0,14.9-6.5,14.9-19.2v-56.2h19.3v56.3c0,22.8-9.4,34.1-28.6,34.1c-11.8,0-20.9-5.8-27.2-17.5
						l0,15.1H1139.6z M1237.1,417.5v-88h19.3v50.3c0,15.2,8.9,25,20.4,25c9.6,0,14.9-6.5,14.9-19.2v-56.2h19.3v56.3
						c0,22.8-9.4,34.1-28.6,34.1c-11.8,0-20.9-5.8-27.2-17.5l0,15.1H1237.1z M1370.9,419.9c-24.8,0-41.9-18.1-41.9-46.4
						c0-28.3,16.9-46.4,41.9-46.4c25,0,42.1,18.1,42.1,46.4C1413,401.7,1395.9,419.9,1370.9,419.9 M1370.9,405.5
						c12.8,0,21.1-11.5,21.1-32c0-20.6-8.2-31.9-21.1-31.9c-13,0-20.9,11.1-20.9,31.9C1350,394.2,1357.9,405.5,1370.9,405.5
						 M1452.6,329.5h18l31.2,88h-16.3l-21.9-67l-21.7,67h-20L1452.6,329.5z M1513.9,394.7l18.5-2.2c1.9,9.1,8.7,13.7,20.6,13.7
						c12.3,0,18.3-5.3,18.3-16.4v-4.6h-1.9c-38.9,0-57.9-10.3-57.9-31.5c0-15.4,11.8-26.3,30.3-26.3c13.2,0,23.8,6.2,29.8,17.4
						c0.2-5.6,0.7-10.6,1.9-15.2h19.7c-1.9,4.6-2.6,10.4-2.6,17.4v38.4c0,24-10.1,34.6-35.6,34.6
						C1531.7,419.9,1517.8,411.3,1513.9,394.7 M1571.3,373.3V367c0-14.4-10.3-25.5-23.1-25.5c-9.8,0-15.8,5.3-15.8,13.2
						c0,12.3,11.5,18.7,34.4,18.7L1571.3,373.3z M1639.5,441.8l-18.5-1.5l-0.7-22.8h-15.2v-13.5h14.7v-44c0-22.9,6.7-32.9,27.7-32.9
						c4.6,0,9.2,0.7,14.1,1.7V344c-3.4-0.9-6.7-1.2-9.8-1.2c-10.4,0-12.3,5.6-12.3,18.5v42.6h19.7v13.5h-19.7V441.8z M1682.5,431.9
						h20v16.4h-20V431.9z M1682.5,329.5h20v88h-20V329.5z M1762.4,419.9c-24.8,0-41.9-18.1-41.9-46.4c0-28.3,16.9-46.4,41.9-46.4
						c25,0,42.1,18.1,42.1,46.4C1804.5,401.7,1787.4,419.9,1762.4,419.9 M1762.4,405.5c12.9,0,21.1-11.5,21.1-32
						c0-20.6-8.2-31.9-21.1-31.9c-13,0-20.9,11.1-20.9,31.9C1741.5,394.2,1749.3,405.5,1762.4,405.5 M1822.5,417.5v-88h19.3v50.3
						c0,15.2,8.9,25,20.4,25c9.6,0,14.9-6.5,14.9-19.2v-56.2h19.3v56.3c0,22.8-9.4,34.1-28.6,34.1c-11.8,0-20.9-5.8-27.2-17.5
						l0,15.1H1822.5"/>
				</g>
			</g>
		</g>
	</g>
</g>
</svg>
