<?xml version="1.0" encoding="utf-8"?>
<!-- Generator: Adobe Illustrator 15.1.0, SVG Export Plug-In . SVG Version: 6.00 Build 0)  -->
<!DOCTYPE svg PUBLIC "-//W3C//DTD SVG 1.1//EN" "http://www.w3.org/Graphics/SVG/1.1/DTD/svg11.dtd">
<svg version="1.1" id="Layer_1" xmlns="http://www.w3.org/2000/svg" xmlns:xlink="http://www.w3.org/1999/xlink" x="0px" y="0px"
	 width="336px" height="109px" viewBox="0 0 336 109" enable-background="new 0 0 336 109" xml:space="preserve">
<polygon fill="#FFFFFF" points="209.779,20.442 209.779,63.972 219.219,63.972 219.219,20.506 229.703,20.506 229.703,63.972 
	259.734,63.972 259.734,20.965 270.417,20.965 270.417,63.963 280.317,63.963 280.317,20.965 291.136,20.965 291.136,63.963 
	301.035,63.963 301.035,11 250.228,11 250.228,54.333 239.344,54.333 239.344,11.066 200.795,11.066 200.795,20.442 "/>
<path fill="#FFFFFF" d="M38.644,84.706h-4.409v-1.481h10.578v1.481h-4.411v11.742h-1.758V84.706z"/>
<path fill="#FFFFFF" d="M52.524,93.412c-0.428,2.11-1.944,3.258-4.094,3.258c-3.054,0-4.498-2.11-4.593-5.036
	c0-2.872,1.89-4.983,4.501-4.983c3.39,0,4.427,3.167,4.335,5.482h-7.168c-0.057,1.666,0.889,3.147,2.982,3.147
	c1.294,0,2.203-0.628,2.482-1.868H52.524z M51.006,90.745c-0.075-1.502-1.205-2.703-2.762-2.703c-1.646,0-2.63,1.24-2.739,2.703
	H51.006z"/>
<path fill="#FFFFFF" d="M60.726,89.947c-0.241-1.203-1.075-1.907-2.371-1.907c-2.279,0-2.982,1.797-2.982,3.74
	c0,1.762,0.796,3.499,2.796,3.499c1.52,0,2.427-0.888,2.629-2.332h1.612c-0.353,2.332-1.813,3.721-4.223,3.721
	c-2.927,0-4.481-2.035-4.481-4.888c0-2.87,1.482-5.13,4.517-5.13c2.169,0,3.91,1.019,4.132,3.296L60.726,89.947L60.726,89.947z"/>
<path fill="#FFFFFF" d="M63.892,83.224h1.575v5.058h0.037c0.518-1.148,1.871-1.631,3.019-1.631c2.518,0,3.295,1.445,3.295,3.501
	v6.296h-1.573v-6.481c0-1.168-0.741-1.927-1.945-1.927c-1.907,0-2.833,1.278-2.833,2.999v5.409h-1.575V83.224z"/>
<path fill="#FFFFFF" d="M74.077,86.873h1.48v1.52h0.039c0.666-1.188,1.741-1.742,3.111-1.742c2.518,0,3.295,1.445,3.295,3.501v6.296
	h-1.573v-6.481c0-1.168-0.741-1.927-1.945-1.927c-1.907,0-2.833,1.278-2.833,2.999v5.409h-1.575V86.873z"/>
<path fill="#FFFFFF" d="M85.974,85.151h-1.575v-1.928h1.575V85.151z M84.399,86.873h1.575v9.574h-1.575V86.873z"/>
<path fill="#FFFFFF" d="M89.555,93.431c0.058,1.406,1.279,1.85,2.574,1.85c0.982,0,2.316-0.222,2.316-1.424
	c0-1.222-1.555-1.427-3.13-1.778c-1.557-0.353-3.13-0.87-3.13-2.704c0-1.926,1.907-2.722,3.573-2.722c2.111,0,3.797,0.665,3.928,3
	H94.11c-0.111-1.222-1.184-1.61-2.22-1.61c-0.945,0-2.039,0.26-2.039,1.222c0,1.129,1.667,1.315,3.13,1.668
	c1.575,0.352,3.13,0.87,3.13,2.722c0,2.276-2.128,3.019-4.075,3.019c-2.148,0-3.962-0.871-4.055-3.239h1.573V93.431z"/>
<path fill="#FFFFFF" d="M103.97,89.947c-0.239-1.203-1.074-1.907-2.371-1.907c-2.277,0-2.98,1.797-2.98,3.74
	c0,1.762,0.796,3.499,2.797,3.499c1.518,0,2.425-0.888,2.629-2.332h1.612c-0.352,2.332-1.816,3.721-4.224,3.721
	c-2.927,0-4.482-2.035-4.482-4.888c0-2.87,1.482-5.13,4.519-5.13c2.167,0,3.908,1.019,4.131,3.296L103.97,89.947L103.97,89.947z"/>
<path fill="#FFFFFF" d="M107.415,83.224h1.573v5.058h0.039c0.518-1.148,1.869-1.631,3.019-1.631c2.518,0,3.295,1.445,3.295,3.501
	v6.296h-1.575v-6.481c0-1.168-0.742-1.927-1.943-1.927c-1.909,0-2.835,1.278-2.835,2.999v5.409h-1.573V83.224z"/>
<path fill="#FFFFFF" d="M125.648,93.412c-0.427,2.11-1.945,3.258-4.094,3.258c-3.056,0-4.5-2.11-4.594-5.036
	c0-2.872,1.891-4.983,4.5-4.983c3.389,0,4.426,3.167,4.334,5.482h-7.168c-0.054,1.666,0.891,3.147,2.982,3.147
	c1.298,0,2.205-0.628,2.484-1.868H125.648z M124.128,90.745c-0.071-1.502-1.204-2.703-2.757-2.703c-1.65,0-2.63,1.24-2.744,2.703
	H124.128z"/>
<path fill="#FFFFFF" d="M143.466,91.671c0,3.333-1.909,5.091-5.205,5.091c-3.409,0-5.427-1.574-5.427-5.091v-8.447h1.761v8.446
	c0,2.334,1.332,3.609,3.666,3.609c2.223,0,3.445-1.276,3.445-3.609v-8.446h1.76V91.671z"/>
<path fill="#FFFFFF" d="M145.669,86.873h1.482v1.52h0.039c0.666-1.188,1.741-1.742,3.111-1.742c2.518,0,3.295,1.445,3.295,3.501
	v6.296h-1.573v-6.481c0-1.168-0.741-1.927-1.945-1.927c-1.909,0-2.835,1.278-2.835,2.999v5.409h-1.575L145.669,86.873
	L145.669,86.873z"/>
<path fill="#FFFFFF" d="M157.569,85.151h-1.575v-1.928h1.575V85.151z M155.993,86.873h1.575v9.574h-1.575V86.873z"/>
<path fill="#FFFFFF" d="M164.26,96.448h-1.684l-3.557-9.574h1.759l2.687,7.983h0.039l2.609-7.983h1.647L164.26,96.448z"/>
<path fill="#FFFFFF" d="M177.044,93.412c-0.426,2.11-1.944,3.258-4.094,3.258c-3.055,0-4.501-2.11-4.592-5.036
	c0-2.872,1.888-4.983,4.5-4.983c3.389,0,4.427,3.167,4.332,5.482h-7.166c-0.054,1.666,0.888,3.147,2.983,3.147
	c1.296,0,2.202-0.628,2.482-1.868H177.044z M175.524,90.745c-0.071-1.502-1.202-2.703-2.76-2.703c-1.647,0-2.627,1.24-2.74,2.703
	H175.524z"/>
<path fill="#FFFFFF" d="M179.018,86.873h1.479v2.018h0.037c0.761-1.538,1.814-2.295,3.52-2.24v1.668
	c-2.536,0-3.462,1.444-3.462,3.872v4.258h-1.575L179.018,86.873L179.018,86.873z"/>
<path fill="#FFFFFF" d="M186.688,93.431c0.057,1.406,1.279,1.85,2.573,1.85c0.984,0,2.316-0.222,2.316-1.424
	c0-1.222-1.556-1.427-3.13-1.778c-1.556-0.353-3.131-0.87-3.131-2.704c0-1.926,1.907-2.722,3.575-2.722c2.111,0,3.796,0.665,3.927,3
	h-1.575c-0.111-1.222-1.186-1.61-2.223-1.61c-0.945,0-2.037,0.26-2.037,1.222c0,1.129,1.664,1.315,3.129,1.668
	c1.576,0.352,3.13,0.87,3.13,2.722c0,2.276-2.13,3.019-4.072,3.019c-2.148,0-3.964-0.871-4.056-3.239h1.573V93.431z"/>
<path fill="#FFFFFF" d="M196.791,85.151h-1.573v-1.928h1.573V85.151z M195.218,86.873h1.573v9.574h-1.573V86.873z"/>
<path fill="#FFFFFF" d="M201.639,86.873h1.905v1.39h-1.905v5.945c0,0.721,0.202,0.851,1.184,0.851h0.721v1.389h-1.203
	c-1.629,0-2.277-0.333-2.277-2.094v-6.091h-1.631v-1.39h1.631v-2.871h1.574v2.871H201.639z"/>
<path fill="#FFFFFF" d="M214.032,96.41c-0.278,0.168-0.629,0.26-1.129,0.26c-0.812,0-1.334-0.445-1.334-1.481
	c-0.872,1.019-2.037,1.481-3.371,1.481c-1.741,0-3.168-0.778-3.168-2.685c0-2.167,1.613-2.628,3.244-2.945
	c1.738-0.333,3.223-0.223,3.223-1.407c0-1.37-1.132-1.593-2.13-1.593c-1.334,0-2.316,0.407-2.391,1.814h-1.574
	c0.093-2.371,1.926-3.204,4.058-3.204c1.719,0,3.591,0.39,3.591,2.63v4.928c0,0.741,0,1.072,0.501,1.072
	c0.129,0,0.277-0.017,0.48-0.092V96.41z M211.477,91.503c-0.612,0.445-1.796,0.465-2.851,0.65c-1.039,0.183-1.928,0.552-1.928,1.72
	c0,1.039,0.889,1.407,1.853,1.407c2.074,0,2.926-1.295,2.926-2.165V91.503z M206.772,83.558h1.667v1.926h-1.667V83.558z
	 M210.253,83.558h1.668v1.926h-1.668V83.558z"/>
<path fill="#FFFFFF" d="M217.853,86.873h1.907v1.39h-1.907v5.945c0,0.721,0.204,0.851,1.186,0.851h0.722v1.389h-1.203
	c-1.631,0-2.277-0.333-2.277-2.094v-6.091h-1.632v-1.39h1.632v-2.871h1.573V86.873z"/>
<path fill="#FFFFFF" d="M227.262,83.224h2.407l4.166,11.114l4.188-11.114h2.406v13.224h-1.667V85.446h-0.036l-4.13,11.001h-1.502
	l-4.129-11.001h-0.037v11.001h-1.666V83.224L227.262,83.224z"/>
<path fill="#FFFFFF" d="M250.465,96.448h-1.484v-1.52h-0.036c-0.666,1.187-1.742,1.741-3.109,1.741c-2.521,0-3.297-1.443-3.297-3.5
	v-6.295h1.573v6.481c0,1.167,0.742,1.926,1.944,1.926c1.908,0,2.835-1.277,2.835-2.999v-5.408h1.573L250.465,96.448L250.465,96.448z
	 M243.926,83.558h1.666v1.926h-1.666V83.558z M247.407,83.558h1.668v1.926h-1.668V83.558z"/>
<path fill="#FFFFFF" d="M252.793,86.873h1.48v1.52h0.035c0.67-1.188,1.743-1.742,3.112-1.742c2.52,0,3.299,1.445,3.299,3.501v6.296
	h-1.575v-6.481c0-1.168-0.74-1.927-1.945-1.927c-1.906,0-2.833,1.278-2.833,2.999v5.409h-1.574L252.793,86.873L252.793,86.873z"/>
<path fill="#FFFFFF" d="M269.541,89.947c-0.241-1.203-1.076-1.907-2.371-1.907c-2.279,0-2.984,1.797-2.984,3.74
	c0,1.762,0.798,3.499,2.799,3.499c1.518,0,2.429-0.888,2.629-2.332h1.612c-0.353,2.332-1.812,3.721-4.224,3.721
	c-2.926,0-4.482-2.035-4.482-4.888c0-2.87,1.483-5.13,4.52-5.13c2.168,0,3.91,1.019,4.131,3.296L269.541,89.947L269.541,89.947z"/>
<path fill="#FFFFFF" d="M272.986,83.224h1.575v5.058h0.035c0.52-1.148,1.871-1.631,3.018-1.631c2.52,0,3.299,1.445,3.299,3.501
	v6.296h-1.573v-6.481c0-1.168-0.742-1.927-1.945-1.927c-1.908,0-2.833,1.278-2.833,2.999v5.409h-1.575V83.224z"/>
<path fill="#FFFFFF" d="M291.367,93.412c-0.426,2.11-1.944,3.258-4.095,3.258c-3.054,0-4.501-2.11-4.593-5.036
	c0-2.872,1.889-4.983,4.502-4.983c3.389,0,4.425,3.167,4.332,5.482h-7.168c-0.053,1.666,0.888,3.147,2.981,3.147
	c1.297,0,2.206-0.628,2.482-1.868H291.367z M289.849,90.745c-0.074-1.502-1.202-2.703-2.761-2.703c-1.647,0-2.628,1.24-2.74,2.703
	H289.849z"/>
<path fill="#FFFFFF" d="M293.218,86.873h1.482v1.52h0.038c0.666-1.188,1.736-1.742,3.109-1.742c2.52,0,3.296,1.445,3.296,3.501
	v6.296h-1.575v-6.481c0-1.168-0.738-1.927-1.941-1.927c-1.909,0-2.834,1.278-2.834,2.999v5.409h-1.575V86.873z"/>
</svg>
