<?xml version="1.0" encoding="utf-8"?>
<!-- Generator: Adobe Illustrator 18.0.0, SVG Export Plug-In . SVG Version: 6.00 Build 0)  -->
<!DOCTYPE svg PUBLIC "-//W3C//DTD SVG 1.1//EN" "http://www.w3.org/Graphics/SVG/1.1/DTD/svg11.dtd">
<svg version="1.1" id="svg1906" xmlns:svg="http://www.w3.org/2000/svg"
	 xmlns="http://www.w3.org/2000/svg" xmlns:xlink="http://www.w3.org/1999/xlink" x="0px" y="0px" width="809.1px" height="585.5px"
	 viewBox="-114 0 809.1 585.5" enable-background="new -114 0 809.1 585.5" xml:space="preserve">
<path fill="#FFFFFF" d="M526.5,53.9H52.1v477.7l3.4-1.5c74.2-33.4,153.4-50.3,235.1-50.3s161,16.9,234.3,50.3l3.4,1.5L529,53.9
	H526.5z M124.5,280.1c19.4,0,21.1-22.4,21.1-22.4h11V291H72.3c0,0-2.5-25.3,26.1-56c0,0,18.5-20.1,22.8-36l-10.1,0.1
	c-22.8,0-24.4,22.5-24.4,22.5H76.5v-33.3h82.6c0,0,0,25.7-24.4,53c0,0-22.8,27-23.6,38.8H124.5z M255.2,221.6h-11
	c0,0-2.5-22.5-21.9-22.5h-11v35h4.2c4.2,0,8.4-3.7,8.4-8.3v-4.2h11v35.9h-11v-4.2c0-4.6-4.2-8.3-8.4-8.3h-4.2v35h11
	c19.4,0,21.9-22.4,21.9-22.4h11V291l-86.8-0.1V280h2.5c4.2,0,7.6-3.7,7.6-8.2v-64.3c0-4.5-3.4-8.3-7.6-8.3h-2.5v-11h86.8V221.6z
	 M320.9,199.2h-2.5c-4.2,0-8.4,3.7-8.4,8.3v64.3c0,4.5,4.2,8.2,8.4,8.2h2.5v10.9h-54.8V280h2.5c5.1,0,8.4-3.7,8.4-8.2v-64.3
	c0-4.5-3.4-8.3-8.4-8.3h-2.5v-10.9h54.8V199.2z M411.9,291h-79.2v-33.3h11c0,0,1.7,22.4,21.1,22.4h13.5
	c-0.8-11.8-23.6-38.8-23.6-38.8c-32.9-36.7-20.2-53-20.2-53h78.4v33.3h-10.1c0,0-1.7-22.5-24.4-22.5l-10.1-0.1
	c3.4,16.7,22.8,36,22.8,36C426.2,275.4,411.9,291,411.9,291z M503.8,291h-79.2v-33.3h11c0,0,2.5,22.4,21.1,22.4h13.5
	c-0.8-11.8-23.6-38.8-23.6-38.8c-32.9-36.7-20.2-53-20.2-53h79.2v33.3h-11c0,0-1.7-22.5-23.6-22.5l-10.1-0.1
	c3.4,16.7,21.9,36,21.9,36C518.1,275.4,503.8,291,503.8,291z"/>
</svg>
